<?xml version="1.0" standalone="no"?>
<!DOCTYPE svg PUBLIC "-//W3C//DTD SVG 1.1//EN" "http://www.w3.org/Graphics/SVG/1.1/DTD/svg11.dtd" >
<svg xmlns="http://www.w3.org/2000/svg" xmlns:xlink="http://www.w3.org/1999/xlink" version="1.1">
<metadata>
Created by FontForge 20161003 at Fri Sep 27 14:38:18 2019
 By www-data
Copyright (c) 2011-2013 by Glenjan. All rights reserved.
</metadata>
<defs>
<font id="AffectLight" horiz-adv-x="643" >
  <font-face 
    font-family="AffectLight"
    font-weight="300"
    font-stretch="normal"
    units-per-em="1000"
    panose-1="4 1 0 0 2 0 0 6 0 4"
    ascent="777"
    descent="-223"
    x-height="545"
    cap-height="545"
    bbox="-159.231 -241.6 1708 968.316"
    underline-thickness="50"
    underline-position="-150"
    unicode-range="U+0020-2212"
  />
<missing-glyph horiz-adv-x="468" 
d="M115 423v-98q0 -12 12 -12h214q12 0 12 12v26q0 13 -12 13h-79v50q0 13 -12 13h-23q-13 0 -13 -13v-50h-51v59q0 12 -13 12h-23q-12 0 -12 -12zM323 225v6l25 8q10 3 6 16l-3 20q-4 10 -16 7q-44 -10 -64 -10h-76q-43 0 -63.5 -28.5t-20.5 -70.5q0 -59 30 -100
q5 -8 16 -3l20 13q8 4 3 16q-23 33 -23 74q0 50 31 50h5l11 -78q5 -42 25.5 -64.5t53.5 -22.5q34 0 54.5 23.5t20.5 62.5q0 49 -35 81zM236 223h41q34 -26 34 -73q0 -41 -30 -41q-26 0 -32 36zM396 0h-324q-12 0 -12 12v521q0 12 12 12h324q12 0 12 -12v-521q0 -12 -12 -12z
M293 462q0 -14 9 -23t23 -9t23.5 9t9.5 23t-9.5 23.5t-23.5 9.5t-23 -9.5t-9 -23.5z" />
    <glyph glyph-name="fb.l" unicode="fb" horiz-adv-x="988" 
d="M103 545v44q0 77 53 122t127 45q102 0 182 -61q8 -8 8 -17v-205q77 80 199 80q119 0 197.5 -78t78.5 -202q0 -125 -78.5 -203t-197.5 -78t-199 80l-4 -1l-2 -58q0 -13 -13 -13h-34q-13 0 -13 13v654q-50 30 -124 30q-50 0 -82 -29t-32 -79v-44h166q13 0 13 -13v-33
q0 -14 -13 -14h-166v-472q0 -13 -13 -13h-40q-13 0 -13 13v472l-65 6q-13 0 -13 13v28q0 13 13 13h65zM473 401v-257q70 -92 199 -92q93 0 151 61t58 160t-58 159.5t-151 60.5q-129 0 -199 -92z" />
    <glyph glyph-name="ff.l" unicode="ff" 
d="M103 545v44q0 77 50.5 122t124.5 45q80 0 145 -42q48 42 121 42q78 0 136 -33q11 -6 6 -17l-16 -30q-4 -10 -15 -5q-54 26 -111 26q-50 0 -79.5 -28.5t-29.5 -79.5v-44h176q13 0 13 -13v-33q0 -14 -13 -14h-176v-472q0 -13 -13 -13h-40q-13 0 -13 13v472h-200v-472
q0 -13 -13 -13h-40q-13 0 -13 13v472l-65 6q-13 0 -13 13v28q0 13 13 13h65zM369 545v44q0 47 19 82q-54 26 -110 26q-50 0 -79.5 -28.5t-29.5 -79.5v-44h200z" />
    <glyph glyph-name="fh.l" unicode="fh" horiz-adv-x="946" 
d="M103 545v44q0 77 53 122t127 45q102 0 182 -61q8 -8 8 -17v-205q71 80 186 80q108 0 172.5 -63t64.5 -181v-296q0 -13 -13 -13h-40q-13 0 -13 13v292q0 91 -43.5 139.5t-127.5 48.5q-113 0 -186 -92v-388q0 -13 -14 -13h-39q-13 0 -13 13v654q-50 30 -124 30
q-50 0 -82 -29t-32 -79v-44h166q13 0 13 -13v-33q0 -14 -13 -14h-166v-472q0 -13 -13 -13h-40q-13 0 -13 13v472l-65 6q-13 0 -13 13v28q0 13 13 13h65z" />
    <glyph glyph-name="fi.l" unicode="fi" horiz-adv-x="482" 
d="M103 545v44q0 77 50.5 122t124.5 45q78 0 136 -33q11 -6 6 -17l-16 -30q-4 -10 -15 -5q-54 26 -111 26q-50 0 -79.5 -28.5t-29.5 -79.5v-44h240q13 0 13 -13v-519q0 -13 -13 -13h-40q-13 0 -13 13v472h-187v-472q0 -13 -13 -13h-40q-13 0 -13 13v472l-65 6q-13 0 -13 13
v28q0 13 13 13h65z" />
    <glyph glyph-name="ffi.l" unicode="ffi" horiz-adv-x="748" 
d="M103 545v44q0 77 50.5 122t124.5 45q80 0 145 -42q48 42 121 42q78 0 136 -33q11 -6 6 -17l-16 -30q-4 -10 -15 -5q-54 26 -111 26q-50 0 -79.5 -28.5t-29.5 -79.5v-44h240q13 0 13 -13v-519q0 -13 -13 -13h-40q-13 0 -13 13v472h-187v-472q0 -13 -13 -13h-40
q-13 0 -13 13v472h-200v-472q0 -13 -13 -13h-40q-13 0 -13 13v472l-65 6q-13 0 -13 13v28q0 13 13 13h65zM369 545v44q0 47 19 82q-54 26 -110 26q-50 0 -79.5 -28.5t-29.5 -79.5v-44h200z" />
    <glyph glyph-name="ffj.l" unicode="ffj" horiz-adv-x="748" 
d="M103 545v44q0 77 50.5 122t124.5 45q80 0 145 -42q48 42 121 42q78 0 136 -33q11 -6 6 -17l-16 -30q-4 -10 -15 -5q-54 26 -111 26q-50 0 -79.5 -28.5t-29.5 -79.5v-44h240q13 0 13 -13v-519q0 -80 -45.5 -127t-119.5 -47q-56 0 -98 23q-10 6 -6 16l14 31q4 10 15 5
q31 -15 73 -15q101 0 101 113v473h-187v-472q0 -13 -13 -13h-40q-13 0 -13 13v472h-200v-472q0 -13 -13 -13h-40q-13 0 -13 13v472l-65 6q-13 0 -13 13v28q0 13 13 13h65zM369 545v44q0 47 19 82q-54 26 -110 26q-50 0 -79.5 -28.5t-29.5 -79.5v-44h200z" />
    <glyph glyph-name="ffl.l" unicode="ffl" horiz-adv-x="799" 
d="M103 545v44q0 77 50.5 122t124.5 45q82 0 147 -43q50 43 124 43q102 0 182 -61q8 -8 8 -17v-665q0 -13 -13 -13h-40q-13 0 -13 13v654q-50 30 -124 30q-50 0 -82 -29t-32 -79v-44h166q13 0 13 -13v-33q0 -14 -13 -14h-166v-472q0 -13 -13 -13h-40q-13 0 -13 13v472h-200
v-472q0 -13 -13 -13h-40q-13 0 -13 13v472l-65 6q-13 0 -13 13v28q0 13 13 13h65zM369 545v44q0 47 20 82q-54 26 -111 26q-50 0 -79.5 -28.5t-29.5 -79.5v-44h200z" />
    <glyph glyph-name="fj.l" unicode="fj" horiz-adv-x="482" 
d="M103 545v44q0 77 50.5 122t124.5 45q78 0 136 -33q11 -6 6 -17l-16 -30q-4 -10 -15 -5q-54 26 -111 26q-50 0 -79.5 -28.5t-29.5 -79.5v-44h240q13 0 13 -13v-519q0 -80 -45.5 -127t-119.5 -47q-56 0 -98 23q-10 6 -6 16l14 31q4 10 15 5q31 -15 73 -15q101 0 101 113
v473h-187v-472q0 -13 -13 -13h-40q-13 0 -13 13v472l-65 6q-13 0 -13 13v28q0 13 13 13h65z" />
    <glyph glyph-name="fk.l" unicode="fk" horiz-adv-x="897" 
d="M103 545v44q0 77 53 122t127 45q102 0 182 -61q8 -8 8 -17v-415l298 274q8 8 21 8h57q10 0 10.5 -7.5t-4.5 -11.5l-238 -213l256 -294q5 -4 4 -11.5t-11 -7.5h-55q-9 0 -18 9l-222 262l-98 -81v-177q0 -13 -13 -13h-40q-13 0 -13 13v654q-50 30 -124 30q-50 0 -82 -29
t-32 -79v-44h166q13 0 13 -13v-33q0 -14 -13 -14h-166v-472q0 -13 -13 -13h-40q-13 0 -13 13v472l-65 6q-13 0 -13 13v28q0 13 13 13h65z" />
    <glyph glyph-name="fl.l" unicode="fl" horiz-adv-x="533" 
d="M103 545v44q0 77 53 122t127 45q102 0 182 -61q8 -8 8 -17v-665q0 -13 -13 -13h-40q-13 0 -13 13v654q-50 30 -124 30q-50 0 -82 -29t-32 -79v-44h166q13 0 13 -13v-33q0 -14 -13 -14h-166v-472q0 -13 -13 -13h-40q-13 0 -13 13v472l-65 6q-13 0 -13 13v28q0 13 13 13h65
z" />
    <glyph glyph-name="ft.l" unicode="ft" horiz-adv-x="657" 
d="M103 545v44q0 77 50.5 122t124.5 45q82 0 146 -39q8 -5 8 -15v-157h167q13 0 13 -14v-33q0 -13 -13 -13h-167v-321q0 -54 26.5 -83t74.5 -29q38 0 75 17q10 6 15 -5l12 -31q5 -11 -6 -17q-44 -24 -98 -24q-74 0 -119.5 45t-45.5 124v324h-197v-472q0 -13 -13 -13h-40
q-13 0 -13 13v472l-65 6q-13 0 -13 13v28q0 13 13 13h65zM169 545h194l11 132q-48 20 -96 20q-50 0 -79.5 -28.5t-29.5 -79.5v-44z" />
    <glyph glyph-name=".notdef" horiz-adv-x="468" 
d="M115 423v-98q0 -12 12 -12h214q12 0 12 12v26q0 13 -12 13h-79v50q0 13 -12 13h-23q-13 0 -13 -13v-50h-51v59q0 12 -13 12h-23q-12 0 -12 -12zM323 225v6l25 8q10 3 6 16l-3 20q-4 10 -16 7q-44 -10 -64 -10h-76q-43 0 -63.5 -28.5t-20.5 -70.5q0 -59 30 -100
q5 -8 16 -3l20 13q8 4 3 16q-23 33 -23 74q0 50 31 50h5l11 -78q5 -42 25.5 -64.5t53.5 -22.5q34 0 54.5 23.5t20.5 62.5q0 49 -35 81zM236 223h41q34 -26 34 -73q0 -41 -30 -41q-26 0 -32 36zM396 0h-324q-12 0 -12 12v521q0 12 12 12h324q12 0 12 -12v-521q0 -12 -12 -12z
M293 462q0 -14 9 -23t23 -9t23.5 9t9.5 23t-9.5 23.5t-23.5 9.5t-23 -9.5t-9 -23.5z" />
    <glyph glyph-name=".null" horiz-adv-x="0" 
 />
    <glyph glyph-name="nonmarkingreturn" horiz-adv-x="333" 
 />
    <glyph glyph-name="space" unicode=" " horiz-adv-x="246" 
 />
    <glyph glyph-name="exclam" unicode="!" horiz-adv-x="198" 
d="M76 605h46q13 0 13 -13l-6 -419q0 -13 -13 -13h-34q-13 0 -13 13l-6 419q0 13 13 13zM44 47q0 23 16 39t39 16t39 -16t16 -39t-16 -39t-39 -16t-39 16t-16 39z" />
    <glyph glyph-name="quotedbl" unicode="&#x22;" horiz-adv-x="267" 
d="M63 553h39q13 0 13 -12l-5 -141q0 -14 -13 -14h-30q-13 0 -13 14l-4 140q0 13 13 13zM165 553h39q13 0 13 -12l-5 -141q0 -14 -13 -14h-30q-13 0 -13 14l-4 140q0 13 13 13z" />
    <glyph glyph-name="numbersign" unicode="#" horiz-adv-x="468" 
d="M63 243h67l11 76h-68q-13 0 -13 13v29q0 13 13 13h77l11 73q5 12 16 10l31 -5q13 -4 9 -17l-10 -61h79l12 73q5 12 16 10l31 -5q13 -4 9 -17l-10 -61h60q14 0 14 -13v-29q0 -13 -14 -13h-69l-12 -76h71q14 0 14 -13v-29q0 -13 -14 -13h-80l-12 -74q-4 -13 -16 -9l-29 4
q-13 4 -9 16l10 63h-80l-12 -74q-4 -13 -16 -9l-29 4q-13 4 -9 16l9 63h-58q-13 0 -13 13v29q0 13 13 13zM198 319l-12 -76h80l12 76h-80z" />
    <glyph glyph-name="dollar" unicode="$" horiz-adv-x="553" 
d="M256 612h40q13 0 13 -13v-48q108 -8 187 -76q9 -9 1 -18l-25 -29q-8 -9 -18 -1q-76 67 -184 67q-151 0 -151 -85q0 -41 38.5 -58t126.5 -28q57 -8 96.5 -18.5t74 -29t51.5 -48t17 -71.5q0 -73 -59 -115t-155 -48v-51q0 -13 -13 -13h-40q-13 0 -13 13v52q-123 9 -209 86
q-8 8 0 18l25 32q9 10 18 1q84 -80 205 -80q85 0 130.5 28.5t45.5 76.5q0 49 -45 71t-138 33q-38 4 -66.5 9.5t-59.5 16.5t-50 26t-32 40t-13 57q0 60 50.5 98.5t138.5 44.5v47q0 13 13 13z" />
    <glyph glyph-name="percent" unicode="%" horiz-adv-x="656" 
d="M170 537q57 0 96 -37.5t39 -92.5t-39 -92.5t-96 -37.5q-56 0 -95.5 37.5t-39.5 92.5t39.5 92.5t95.5 37.5zM170 483q-35 0 -56 -21.5t-21 -54.5t21 -54t56 -21t56.5 21t21.5 54t-21.5 54.5t-56.5 21.5zM531 527l22 -18q9 -9 1 -20l-417 -496q-7 -9 -18 0l-23 18
q-9 9 1 19l415 496q8 8 19 1zM486 252q57 0 96 -37.5t39 -92.5t-39 -92.5t-96 -37.5q-56 0 -95.5 37.5t-39.5 92.5t39.5 92.5t95.5 37.5zM486 198q-35 0 -56 -21.5t-21 -54.5t21 -54t56 -21t56.5 21t21.5 54t-21.5 54.5t-56.5 21.5z" />
    <glyph glyph-name="ampersand" unicode="&#x26;" horiz-adv-x="644" 
d="M210 349l264 -209q41 54 64 141q5 12 15 8l36 -12q11 -5 6 -16q-26 -96 -75 -157l74 -58q11 -6 3 -17l-21 -25q-9 -12 -20 -4l-77 60q-81 -68 -193 -68q-106 0 -176 52t-70 145q0 47 26.5 85.5t72.5 59.5q-32 38 -32 82q0 60 49 98.5t141 38.5q124 0 217 -78q8 -6 0 -18
l-22 -25q-8 -8 -19 -1q-77 64 -176 64q-124 0 -124 -79q0 -39 37 -67zM432 98l-253 200q-73 -30 -73 -109q0 -66 52.5 -102.5t127.5 -36.5q86 0 146 48z" />
    <glyph glyph-name="quotesingle" unicode="'" horiz-adv-x="165" 
d="M63 553h39q13 0 13 -12l-5 -141q0 -14 -13 -14h-30q-13 0 -13 14l-4 140q0 13 13 13z" />
    <glyph glyph-name="parenleft" unicode="(" horiz-adv-x="170" 
d="M111 621l30 -13q12 -4 7 -17q-58 -141 -58 -318q0 -175 58 -319q6 -13 -7 -17l-30 -12q-12 -5 -17 7q-69 146 -69 341q0 194 69 340q5 11 17 8z" />
    <glyph glyph-name="parenright" unicode=")" horiz-adv-x="170" 
d="M59 -76l-30 13q-12 4 -7 17q58 141 58 318q0 175 -58 319q-6 13 7 17l30 12q12 5 17 -7q69 -146 69 -341q0 -194 -69 -340q-5 -11 -17 -8z" />
    <glyph glyph-name="asterisk" unicode="*" horiz-adv-x="275" 
d="M170 451l69 -13q5 -1 7.5 -6t0.5 -10l-10 -31q-6 -13 -17 -8l-63 28l8 -68q1 -6 -3 -10t-10 -4h-32q-6 0 -10 4t-3 10l8 68l-63 -28q-11 -5 -17 8l-10 31q-2 5 0.5 10t7.5 6l69 13l-47 52q-9 13 2 19l27 19q4 3 10 2.5t8 -5.5l34 -62l34 62q2 5 8 5.5t10 -2.5l27 -19
q11 -6 2 -19z" />
    <glyph glyph-name="plus" unicode="+" horiz-adv-x="398" 
d="M168 315v93q0 14 13 14h36q13 0 13 -14v-93h94q14 0 14 -13v-34q0 -13 -14 -13h-94v-94q0 -13 -13 -13h-36q-13 0 -13 13v94h-95q-13 0 -13 13v34q0 13 13 13h95z" />
    <glyph glyph-name="comma" unicode="," horiz-adv-x="198" 
d="M150 23l-41 -98q-3 -9 -16 -6l-22 6q-7 3 -6 16l16 55q-16 5 -26.5 19.5t-10.5 32.5q0 24 15.5 39t39.5 15q22 0 38.5 -15.5t16.5 -38.5q0 -14 -4 -25z" />
    <glyph glyph-name="hyphen" unicode="-" horiz-adv-x="394" 
d="M60 268v34q0 13 13 13h247q14 0 14 -13v-34q0 -13 -14 -13h-247q-13 0 -13 13z" />
    <glyph glyph-name="period" unicode="." horiz-adv-x="198" 
d="M44 47q0 23 16 39t39 16t39 -16t16 -39t-16 -39t-39 -16t-39 16t-16 39z" />
    <glyph glyph-name="slash" unicode="/" horiz-adv-x="316" 
d="M264 603l32 -9q12 -5 8 -18l-235 -622q-5 -12 -17 -7l-32 9q-12 5 -7 17l234 622q6 13 17 8z" />
    <glyph glyph-name="zero" unicode="0" 
d="M321 493q-92 0 -153 -63.5t-61 -157.5t60.5 -156.5t153.5 -62.5t154 62.5t61 156.5t-61 157.5t-154 63.5zM40 272q0 121 81 201t200 80q121 0 201.5 -79.5t80.5 -201.5q0 -121 -80.5 -200.5t-201.5 -79.5q-119 0 -200 79.5t-81 200.5z" />
    <glyph glyph-name="one" unicode="1" horiz-adv-x="269" 
d="M209 532v-519q0 -13 -13 -13h-40q-13 0 -13 13v473h-94q-13 0 -13 13v33q0 13 13 13h147q13 0 13 -13z" />
    <glyph glyph-name="two" unicode="2" horiz-adv-x="542" 
d="M277 553q92 0 158.5 -45t66.5 -135q0 -58 -30 -94t-91 -75l-122 -77l-120 -67l1 -5l160 5h185q13 0 13 -13v-34q0 -13 -13 -13h-425q-13 0 -13 13l-3 41q0 9 10 16l295 187q43 27 65 53.5t22 64.5q0 61 -48 89.5t-111 28.5q-115 0 -190 -79q-9 -10 -18 -1l-26 26
q-7 9 1 19q89 95 233 95z" />
    <glyph glyph-name="three" unicode="3" horiz-adv-x="559" 
d="M57 481q90 72 226 72q78 0 142.5 -37t64.5 -110q0 -31 -17.5 -57.5t-49.5 -40.5v-5q96 -31 96 -133q0 -83 -69.5 -130.5t-171.5 -47.5q-154 0 -249 99q-9 9 0 18l23 27q9 9 18 1q46 -44 94.5 -64.5t115.5 -20.5q76 0 124.5 31.5t48.5 86.5q0 54 -37 78t-95 24h-115
q-13 0 -13 13v34q0 13 13 13h119q41 0 70.5 18t29.5 56q0 42 -42 64.5t-106 22.5q-115 0 -180 -58q-14 -10 -20 1l-20 27q-7 11 0 18z" />
    <glyph glyph-name="four" unicode="4" horiz-adv-x="596" 
d="M387 545h94q10 0 10 -11v-385h74q11 0 11 -10v-28q0 -11 -12 -13l-73 -8v-77q0 -13 -12 -13h-40q-14 0 -14 14v75h-366q-15 0 -16 15l-3 47q0 13 6 19l320 365q9 10 21 10zM402 484l-280 -325v-10h303v335h-23z" />
    <glyph glyph-name="five" unicode="5" horiz-adv-x="564" 
d="M164 485l-8 -144q59 26 139 26q46 0 85.5 -9.5t74 -30.5t54.5 -58.5t20 -87.5q0 -90 -73 -139.5t-168 -49.5q-152 0 -249 98q-8 11 0 19l26 28q9 9 18 1q92 -86 206 -86q69 0 121 34t52 95q0 65 -50 97t-123 32q-88 0 -137 -29q-6 -4 -16 -2l-36 9q-9 3 -9 11l15 235
q0 11 11 11h359q12 0 12 -11v-38q0 -11 -12 -11h-312z" />
    <glyph glyph-name="six" unicode="6" horiz-adv-x="568" 
d="M107 253q6 -99 56.5 -150t141.5 -51q65 0 113 34t48 97q0 64 -47 94t-116 30q-109 0 -196 -54zM110 313q80 54 194 54q98 0 163.5 -47.5t65.5 -136.5q0 -88 -70 -139.5t-164 -51.5q-121 0 -190 76.5t-69 201.5q0 124 75.5 203.5t192.5 79.5q102 0 182 -47q11 -6 5 -17
l-18 -32q-6 -11 -18 -5q-67 41 -151 41q-85 0 -136 -47t-62 -133z" />
    <glyph glyph-name="seven" unicode="7" horiz-adv-x="506" 
d="M400 485h-359q-11 0 -11 11v38q0 11 11 11h424q11 0 11 -11v-25q0 -15 -6 -26l-268 -473q-7 -10 -17 -10h-46q-7 0 -9.5 5.5t1.5 12.5z" />
    <glyph glyph-name="eight" unicode="8" horiz-adv-x="590" 
d="M484 169q0 40 -31.5 65.5t-70.5 33.5t-87 8q-34 0 -65 -5t-60 -16t-46.5 -33t-17.5 -53q0 -34 19 -58t49.5 -36t60 -17.5t60.5 -5.5q45 0 84 8.5t72 36t33 72.5zM436 312v-4q49 -12 81.5 -52t32.5 -87q0 -49 -23.5 -85t-62.5 -55t-81.5 -28t-87.5 -9t-87.5 9t-81.5 28
t-62.5 55t-23.5 85q0 46 32.5 86.5t82.5 52.5v4q-31 12 -51 38.5t-20 63.5q0 38 20.5 67t54 43.5t68 21.5t69.5 7t69 -7t67.5 -21.5t54 -43.5t20.5 -67q0 -37 -20 -63.5t-51 -38.5zM295 331q22 0 43.5 3t46.5 11t40.5 25.5t15.5 43.5q0 81 -145 81q-146 0 -146 -81
q0 -26 15.5 -43.5t40.5 -25.5t46 -11t43 -3z" />
    <glyph glyph-name="nine" unicode="9" horiz-adv-x="568" 
d="M462 293q-10 200 -196 200q-67 0 -116 -33t-49 -96q0 -64 47.5 -96.5t116.5 -32.5q106 0 197 58zM459 233q-84 -58 -195 -58q-98 0 -163.5 49.5t-65.5 139.5q0 88 70.5 138.5t165.5 50.5q121 0 189 -75.5t68 -201.5q0 -125 -76.5 -204t-195.5 -79q-103 0 -183 47
q-11 6 -4 17l17 32q4 12 18 4q67 -40 152 -40q86 0 139 47.5t64 132.5z" />
    <glyph glyph-name="colon" unicode=":" horiz-adv-x="198" 
d="M44 47q0 23 16 39t39 16t39 -16t16 -39t-16 -39t-39 -16t-39 16t-16 39zM44 374q0 23 16 39t39 16t39 -16t16 -39t-16 -39t-39 -16t-39 16t-16 39z" />
    <glyph glyph-name="semicolon" unicode=";" horiz-adv-x="198" 
d="M44 374q0 23 16 39t39 16t39 -16t16 -39t-16 -39t-39 -16t-39 16t-16 39zM150 23l-41 -98q-3 -9 -16 -6l-22 6q-7 3 -6 16l16 55q-16 5 -26.5 19.5t-10.5 32.5q0 23 16 38.5t39 15.5q22 0 38.5 -15.5t16.5 -38.5q0 -14 -4 -25z" />
    <glyph glyph-name="less" unicode="&#x3c;" horiz-adv-x="221" 
d="M171 426l20 -16q11 -8 1 -18l-94 -108l94 -108q10 -10 -1 -18l-20 -16q-10 -7 -19 3l-124 129q-3 4 -3 10t3 10l124 129q9 10 19 3z" />
    <glyph glyph-name="equal" unicode="=" horiz-adv-x="378" 
d="M73 374h231q14 0 14 -13v-34q0 -13 -14 -13h-231q-13 0 -13 13v34q0 13 13 13zM73 251h231q14 0 14 -13v-34q0 -13 -14 -13h-231q-13 0 -13 13v34q0 13 13 13z" />
    <glyph glyph-name="greater" unicode="&#x3e;" horiz-adv-x="221" 
d="M52 142l-20 16q-11 8 -1 18l94 108l-94 108q-10 10 1 18l20 16q10 7 19 -3l124 -129q3 -4 3 -10t-3 -10l-124 -129q-9 -10 -19 -3z" />
    <glyph glyph-name="question" unicode="?" horiz-adv-x="553" 
d="M45 520q89 95 233 95q94 0 164.5 -44t70.5 -134q0 -134 -162 -182q-64 -19 -64 -81q0 -14 -14 -14h-38q-14 0 -14 14q0 105 108 137q118 34 118 128q0 60 -52 88t-117 28q-114 0 -190 -79q-10 -10 -18 -1l-26 26q-8 8 1 19zM198 47q0 23 16 39t39 16t39 -16t16 -39
t-16 -39t-39 -16t-39 16t-16 39z" />
    <glyph glyph-name="at" unicode="@" horiz-adv-x="712" 
d="M548 172q31 0 48 28.5t17 77.5q0 114 -69 179.5t-178 65.5q-115 0 -191 -70.5t-76 -184.5q0 -113 78.5 -181.5t188.5 -68.5q93 0 180 39q11 5 17 -8l10 -28q5 -11 -10 -17q-91 -42 -197 -42q-145 0 -235.5 86t-90.5 220t92.5 222.5t233.5 88.5q132 0 219 -87t87 -214
q0 -61 -32 -110t-93 -49t-78 49h-5q-47 -52 -118 -52q-68 0 -111.5 42.5t-43.5 110.5q0 67 45.5 110t109.5 43q59 0 103 -35l5 18q4 12 15 12h21q11 0 11 -12v-172q0 -61 47 -61zM445 218v122q-35 30 -99 30q-42 0 -69.5 -28.5t-27.5 -72.5q0 -46 28 -73t69 -27q59 0 99 49z
" />
    <glyph glyph-name="A" unicode="A" horiz-adv-x="640" 
d="M283 545h78q12 0 16 -10l227 -521q2 -5 0 -9.5t-7 -4.5h-47q-11 0 -15 10l-45 106h-337l-46 -106q-3 -10 -15 -10h-48q-13 0 -7 14l230 520q5 11 16 11zM312 489l-134 -313h287l-134 313h-19z" />
    <glyph glyph-name="B" unicode="B" horiz-adv-x="583" 
d="M126 485v-152h229q35 0 59 20t24 55q0 36 -23 56.5t-65 20.5h-224zM452 309v-4q42 -14 66.5 -53t24.5 -84q0 -70 -51 -119t-126 -49h-293q-13 0 -13 13v520q0 12 12 12h277q71 0 113 -39.5t42 -97.5q0 -28 -14.5 -56.5t-37.5 -42.5zM126 272v-211h237q51 0 82.5 29.5
t31.5 77.5t-30.5 76t-83.5 28h-237z" />
    <glyph glyph-name="C" unicode="C" horiz-adv-x="585" 
d="M322 553q139 0 224 -105q4 -4 3.5 -9.5t-5.5 -8.5l-30 -24q-10 -8 -18 2q-66 85 -174 85q-93 0 -154 -63t-61 -157t61 -157.5t154 -63.5q109 0 175 84q8 10 18 2l29 -24q11 -8 2 -18q-84 -104 -224 -104q-121 0 -201.5 79.5t-80.5 201.5q0 120 81.5 200t200.5 80z" />
    <glyph glyph-name="D" unicode="D" horiz-adv-x="598" 
d="M126 485v-424h150q93 0 153.5 59.5t60.5 152.5t-60.5 152.5t-153.5 59.5h-150zM73 545h203q121 0 201.5 -76.5t80.5 -195.5q0 -120 -80.5 -196.5t-201.5 -76.5h-203q-13 0 -13 13v518q0 14 13 14z" />
    <glyph glyph-name="E" unicode="E" horiz-adv-x="534" 
d="M73 545h388q13 0 13 -13v-34q0 -13 -13 -13h-335v-168h316q13 0 13 -13v-34q0 -13 -13 -13h-316v-197h345q13 0 13 -12v-35q0 -13 -13 -13h-398q-13 0 -13 13v519q0 13 13 13z" />
    <glyph glyph-name="F" unicode="F" horiz-adv-x="522" 
d="M73 545h386q13 0 13 -13v-34q0 -13 -13 -13h-333v-172h304q12 0 12 -13v-34q0 -13 -12 -13h-304v-240q0 -13 -13 -13h-40q-13 0 -13 13v519q0 13 13 13z" />
    <glyph glyph-name="G" unicode="G" horiz-adv-x="602" 
d="M500 294h39q13 0 13 -13v-268q0 -13 -13 -13h-26q-14 0 -15 13l-7 43q-68 -64 -169 -64q-120 0 -201 80t-81 200q0 122 80.5 201.5t201.5 79.5q140 0 224 -104q7 -10 -2 -18l-28 -24q-10 -9 -19 2q-65 84 -175 84q-92 0 -153 -63.5t-61 -157.5t61 -157t153 -63
q93 0 164 74v155q0 13 14 13z" />
    <glyph glyph-name="H" unicode="H" horiz-adv-x="592" 
d="M73 545h39q14 0 14 -13v-218h340v218q0 13 14 13h38q14 0 14 -13v-519q0 -13 -14 -13h-38q-14 0 -14 13v241h-340v-241q0 -13 -14 -13h-39q-13 0 -13 13v519q0 13 13 13z" />
    <glyph glyph-name="I" unicode="I" horiz-adv-x="186" 
d="M73 545h40q13 0 13 -13v-519q0 -13 -13 -13h-40q-13 0 -13 13v519q0 13 13 13z" />
    <glyph glyph-name="J" unicode="J" horiz-adv-x="371" 
d="M258 545h43q10 0 10 -11v-339q0 -94 -50.5 -144.5t-144.5 -50.5h-62q-14 0 -13 16l2 33q0 11 14 11h61q62 0 94.5 35t32.5 100v338q0 12 13 12z" />
    <glyph glyph-name="K" unicode="K" horiz-adv-x="550" 
d="M73 545h40q13 0 13 -13v-270l297 275q8 8 18 8h57q10 0 11 -7.5t-4 -11.5l-236 -214l256 -293q14 -19 -6 -19h-54q-12 0 -19 9l-222 261l-98 -81v-176q0 -13 -13 -13h-40q-13 0 -13 13v519q0 13 13 13z" />
    <glyph glyph-name="L" unicode="L" horiz-adv-x="529" 
d="M73 545h40q13 0 13 -13v-472h349q14 0 14 -14v-32q0 -14 -14 -14h-401q-14 0 -14 14v518q0 13 13 13z" />
    <glyph glyph-name="M" unicode="M" horiz-adv-x="729" 
d="M583 545h73q13 0 13 -13v-518q0 -14 -13 -14h-39q-14 0 -14 14v259l4 201l-5 1l-84 -199l-122 -263q-6 -13 -17 -13h-28q-12 0 -18 13l-124 270l-83 192l-4 -1l4 -190v-270q0 -14 -13 -14h-40q-13 0 -13 14v518q0 13 13 13h74q13 0 19 -14l116 -249l82 -194h6l94 221
l100 222q6 14 19 14z" />
    <glyph glyph-name="N" unicode="N" horiz-adv-x="613" 
d="M540 0h-46q-12 0 -18 9l-185 233l-163 216l-7 -2l5 -202v-241q0 -13 -14 -13h-39q-13 0 -13 14v518q0 13 13 13h44q14 0 22 -11l198 -247l148 -198l7 1l-5 202v240q0 13 13 13h40q13 0 13 -13v-519q0 -13 -13 -13z" />
    <glyph glyph-name="O" unicode="O" 
d="M321 493q-94 0 -154 -63t-60 -158q0 -94 60 -157t154 -63q95 0 155 63t60 157q0 95 -60 158t-155 63zM40 272q0 121 81 201t200 80q121 0 201.5 -79.5t80.5 -201.5q0 -121 -80.5 -200.5t-201.5 -79.5q-119 0 -200 79.5t-81 200.5z" />
    <glyph glyph-name="P" unicode="P" horiz-adv-x="565" 
d="M126 223h197q64 0 100 36t36 95q0 58 -36 94.5t-100 36.5h-197v-262zM73 545h250q87 0 144.5 -55t57.5 -136q0 -82 -57.5 -136.5t-144.5 -54.5h-197v-150q0 -13 -13 -13h-40q-13 0 -13 13v519q0 13 13 13z" />
    <glyph glyph-name="Q" unicode="Q" 
d="M40 272q0 121 81 201t200 80q121 0 201.5 -79.5t80.5 -201.5q0 -113 -73 -192l49 -51q7 -11 -1 -19l-25 -24q-9 -10 -19 0l-52 54q-70 -48 -161 -48q-119 0 -200 79.5t-81 200.5zM321 493q-92 0 -153 -63.5t-61 -157.5t60.5 -156.5t153.5 -62.5q65 0 117 33l-67 70
q-11 11 1 19l26 25q8 8 18 -1l69 -73q51 62 51 146q0 94 -61 157.5t-154 63.5z" />
    <glyph glyph-name="R" unicode="R" horiz-adv-x="576" 
d="M73 545h250q87 0 145 -55t58 -136q0 -60 -31 -106t-85 -68l93 -166q3 -6 0 -10t-9 -4h-48q-10 0 -18 12l-80 152q-8 -1 -25 -1h-197v-150q0 -13 -13 -13h-40q-13 0 -13 13v519q0 13 13 13zM126 223h197q65 0 101 36.5t36 94.5t-36.5 94.5t-100.5 36.5h-197v-262z" />
    <glyph glyph-name="S" unicode="S" horiz-adv-x="553" 
d="M272 553q136 0 224 -78q9 -9 1 -18l-25 -29q-8 -9 -18 -1q-76 67 -184 67q-151 0 -151 -85q0 -41 38.5 -58t126.5 -28q58 -8 97 -18t73.5 -28.5t51.5 -48t17 -71.5q0 -79 -68.5 -122t-173.5 -43q-147 0 -247 88q-8 8 0 18l24 33q9 10 18 1q84 -80 206 -80
q85 0 130.5 28.5t45.5 76.5q0 49 -44.5 70.5t-138.5 32.5q-38 4 -66.5 9.5t-59.5 16.5t-50 26t-32 40t-13 57q0 65 59.5 104.5t158.5 39.5z" />
    <glyph glyph-name="T" unicode="T" horiz-adv-x="526" 
d="M34 545h458q14 0 14 -14v-32q0 -14 -14 -14h-196v-471q0 -14 -14 -14h-38q-14 0 -14 14v471h-196q-14 0 -14 14v32q0 14 14 14z" />
    <glyph glyph-name="U" unicode="U" horiz-adv-x="601" 
d="M60 236v296q0 13 13 13h40q13 0 13 -13v-294q0 -82 46.5 -134t127.5 -52q82 0 128.5 51.5t46.5 134.5v294q0 13 14 13h39q13 0 13 -13v-296q0 -107 -65.5 -175.5t-175.5 -68.5q-109 0 -174.5 68.5t-65.5 175.5z" />
    <glyph glyph-name="V" unicode="V" horiz-adv-x="630" 
d="M346 0h-65q-11 0 -15 10l-229 521q-6 14 7 14h50q10 0 15 -9l108 -253l93 -221h9l94 225l107 249q4 9 15 9h51q5 0 7 -4.5t0 -9.5l-232 -521q-4 -10 -15 -10z" />
    <glyph glyph-name="W" unicode="W" horiz-adv-x="871" 
d="M45 545h45q14 0 19 -15l143 -464h6l138 468q3 11 17 11h44q12 0 15 -11l141 -468h8l143 467q4 12 18 12h44q6 0 8.5 -4t0.5 -9l-168 -515q-5 -17 -20 -17h-64q-14 0 -18 16l-129 425h-6l-124 -425q-4 -16 -19 -16h-63q-15 0 -19 15l-169 518q-3 12 9 12z" />
    <glyph glyph-name="X" unicode="X" horiz-adv-x="597" 
d="M65 545h54q12 0 18 -9l159 -206h5l154 206q7 9 19 9h56q5 0 7 -4.5t-2 -9.5l-194 -243l219 -276q3 -4 1 -8t-8 -4h-58q-9 0 -17 9l-180 236h-5l-174 -235q-7 -10 -18 -10h-58q-13 0 -6 12l215 275l-193 245q-3 4 -1.5 8.5t7.5 4.5z" />
    <glyph glyph-name="Y" unicode="Y" horiz-adv-x="599" 
d="M333 134v-120q0 -14 -13 -14h-40q-13 0 -13 14v119l-230 399q-6 13 7 13h52q10 0 15 -8l186 -336h9l183 336q5 8 14 8h53q13 0 6 -13z" />
    <glyph glyph-name="Z" unicode="Z" horiz-adv-x="538" 
d="M63 498v34q0 13 13 13h403q13 0 14 -13l3 -36q2 -11 -8 -22l-366 -411l3 -6l199 3h161q13 0 13 -14v-33q0 -13 -13 -13h-428q-13 0 -13 13l-3 40q-1 10 8 21l363 408l-3 6l-166 -3h-167q-13 0 -13 13z" />
    <glyph glyph-name="bracketleft" unicode="[" horiz-adv-x="214" 
d="M74 616h107q13 0 13 -13v-27q0 -13 -13 -13l-57 -2v-576l57 -2q13 0 13 -13v-27q0 -13 -13 -13h-107q-14 0 -14 13v660q0 13 14 13z" />
    <glyph glyph-name="backslash" unicode="\" horiz-adv-x="316" 
d="M20 594l32 9q11 5 17 -8l234 -622q5 -12 -7 -17l-32 -9q-12 -5 -17 7l-235 622q-4 13 8 18z" />
    <glyph glyph-name="bracketright" unicode="]" horiz-adv-x="214" 
d="M140 -70h-107q-13 0 -13 13v27q0 13 13 13l57 2v576l-57 2q-13 0 -13 13v27q0 13 13 13h107q14 0 14 -13v-660q0 -13 -14 -13z" />
    <glyph glyph-name="asciicircum" unicode="^" horiz-adv-x="321" 
d="M271 410l-111 76l-111 -76q-11 -8 -19 6l-11 18q-8 11 2 19l130 98q6 2 9 2q2 0 8 -2l131 -98q10 -9 3 -19l-12 -18q-8 -14 -19 -6z" />
    <glyph glyph-name="underscore" unicode="_" horiz-adv-x="407" 
d="M30 -80v32q0 13 13 13h320q14 0 14 -13v-32q0 -13 -14 -13h-320q-13 0 -13 13z" />
    <glyph glyph-name="grave" unicode="`" horiz-adv-x="137" 
d="M-2 779l38 15q10 4 16 -9l49 -151q4 -11 -10 -17l-30 -7q-11 -3 -16 11l-55 140q-5 12 8 18z" />
    <glyph glyph-name="a" unicode="a" horiz-adv-x="593" 
d="M451 157v139l-237 -34q-53 -9 -83 -34.5t-30 -67.5q0 -53 40.5 -80.5t96.5 -27.5q139 0 213 105zM466 86h-5q-92 -94 -221 -94q-98 0 -151.5 47.5t-53.5 120.5q0 67 48 109t123 52l245 32v25q0 53 -42 84t-108 31q-114 0 -192 -61q-9 -7 -14 1l-23 32q-5 8 2 14
q91 74 227 74q92 0 154 -45.5t62 -129.5v-201q0 -71 30 -135l7 -15q6 -11 -4 -15l-32 -14q-14 -6 -19 5z" />
    <glyph glyph-name="b" unicode="b" horiz-adv-x="641" 
d="M126 401v-257q70 -92 199 -92q93 0 151 61t58 160t-58 159.5t-151 60.5q-129 0 -199 -92zM73 722h40q13 0 13 -13v-236q80 80 199 80t197.5 -78t78.5 -202q0 -125 -78.5 -203t-197.5 -78t-199 80l-4 -1l-2 -58q0 -13 -13 -13h-34q-13 0 -13 13v696q0 13 13 13z" />
    <glyph glyph-name="c" unicode="c" horiz-adv-x="585" 
d="M322 553q139 0 224 -105q4 -4 3.5 -9.5t-5.5 -8.5l-30 -24q-10 -8 -18 2q-66 85 -174 85q-93 0 -154 -63t-61 -157t61 -157.5t154 -63.5q109 0 175 84q8 10 18 2l29 -24q11 -8 2 -18q-84 -104 -224 -104q-121 0 -201.5 79.5t-80.5 201.5q0 120 81.5 200t200.5 80z" />
    <glyph glyph-name="d" unicode="d" horiz-adv-x="641" 
d="M515 144v257q-70 92 -199 92q-93 0 -151.5 -61t-58.5 -159q0 -99 58.5 -160t151.5 -61q129 0 199 92zM528 722h40q13 0 13 -13v-696q0 -13 -13 -13h-34q-13 0 -13 13l-2 58l-4 1q-80 -80 -199 -80t-197.5 78t-78.5 203q0 124 78.5 202t197.5 78t199 -80v236q0 13 13 13z
" />
    <glyph glyph-name="e" unicode="e" horiz-adv-x="638" 
d="M40 272q0 122 80.5 201.5t203.5 79.5q119 0 196.5 -79.5t77.5 -201.5v-18q0 -12 -12 -12h-478q8 -83 67.5 -136.5t153.5 -53.5q97 0 186 65q10 7 18 -2l20 -27q9 -11 -3 -20q-95 -76 -221 -76q-128 0 -208.5 79t-80.5 201zM324 493q-89 0 -149 -53.5t-68 -137.5h425
q-8 83 -65 137t-143 54z" />
    <glyph glyph-name="f" unicode="f" horiz-adv-x="377" 
d="M103 545v44q0 77 50.5 122t124.5 45q78 0 136 -33q11 -6 6 -17l-16 -30q-4 -10 -15 -5q-54 26 -111 26q-50 0 -79.5 -28.5t-29.5 -79.5v-44h176q13 0 13 -13v-33q0 -14 -13 -14h-176v-472q0 -13 -13 -13h-40q-13 0 -13 13v472l-65 6q-13 0 -13 13v28q0 13 13 13h65z" />
    <glyph glyph-name="g" unicode="g" horiz-adv-x="641" 
d="M515 144v257q-34 44 -86 68t-112 24q-93 0 -151.5 -61.5t-58.5 -159.5q0 -97 58.5 -158.5t151.5 -61.5q128 0 198 92zM535 545h33q13 0 13 -13v-460q0 -130 -70.5 -209.5t-199.5 -79.5q-146 0 -231 91q-4 4 -3.5 9.5t5.5 8.5l28 27q9 7 18 -2q68 -74 183 -74
q96 0 151.5 57t55.5 168h-6q-76 -76 -195 -76q-120 0 -198.5 78t-78.5 202q0 125 78.5 203t198.5 78q118 0 198 -80l4 2l2 57q1 13 14 13z" />
    <glyph glyph-name="h" unicode="h" horiz-adv-x="599" 
d="M73 722h39q14 0 14 -13v-236q71 80 186 80q108 0 172.5 -63t64.5 -181v-296q0 -13 -13 -13h-40q-13 0 -13 13v292q0 91 -43.5 139.5t-127.5 48.5q-113 0 -186 -92v-388q0 -13 -14 -13h-39q-13 0 -13 13v696q0 13 13 13z" />
    <glyph glyph-name="i" unicode="i" horiz-adv-x="186" 
d="M93 624q-25 0 -42.5 17.5t-17.5 43.5q0 25 17.5 42.5t42.5 17.5t42.5 -17.5t17.5 -42.5q0 -26 -17.5 -43.5t-42.5 -17.5zM73 545h40q13 0 13 -13v-519q0 -13 -13 -13h-40q-13 0 -13 13v519q0 13 13 13z" />
    <glyph glyph-name="j" unicode="j" horiz-adv-x="206" 
d="M114 624q-26 0 -43 17.5t-17 43.5q0 25 17 42.5t43 17.5q25 0 42.5 -17.5t17.5 -42.5q0 -26 -17.5 -43.5t-42.5 -17.5zM93 545h40q13 0 13 -13v-519q0 -80 -45.5 -127t-119.5 -47q-56 0 -98 23q-10 6 -6 16l14 31q4 10 15 5q31 -15 73 -15q101 0 101 113v520q0 13 13 13z
" />
    <glyph glyph-name="k" unicode="k" horiz-adv-x="550" 
d="M73 722h40q13 0 13 -13v-446l298 274q8 8 19 8h58q10 0 10.5 -7.5t-4.5 -11.5l-237 -213l256 -294q5 -4 4 -11.5t-11 -7.5h-55q-9 0 -18 9l-222 262l-98 -81v-177q0 -13 -13 -13h-40q-13 0 -13 13v696q0 13 13 13z" />
    <glyph glyph-name="l" unicode="l" horiz-adv-x="186" 
d="M73 722h40q13 0 13 -13v-696q0 -13 -13 -13h-40q-13 0 -13 13v696q0 13 13 13z" />
    <glyph glyph-name="m" unicode="m" horiz-adv-x="920" 
d="M60 13v519q0 13 13 13h33q13 0 13 -13l3 -56l4 -2q61 79 162 79q133 0 186 -98q77 98 182 98q92 0 153 -54t61 -163v-322q0 -14 -13 -14h-40q-13 0 -13 13v319q0 79 -40 120t-108 41q-94 0 -163 -92q6 -27 6 -61v-326q0 -14 -13 -14h-40q-13 0 -13 13v323q0 77 -38.5 117
t-106.5 40q-92 0 -162 -91v-388q0 -14 -13 -14h-40q-13 0 -13 13z" />
    <glyph glyph-name="n" unicode="n" horiz-adv-x="599" 
d="M60 14v518q0 13 14 13h32q13 0 13 -13l3 -56l4 -2q73 79 186 79q109 0 173 -62t64 -181v-296q0 -14 -13 -14h-40q-13 0 -13 14v292q0 90 -43.5 138.5t-127.5 48.5q-114 0 -186 -91v-388q0 -14 -14 -14h-38q-14 0 -14 14z" />
    <glyph glyph-name="o" unicode="o" 
d="M321 493q-94 0 -154 -63t-60 -158q0 -94 60 -157t154 -63q95 0 155 63t60 157q0 95 -60 158t-155 63zM40 272q0 121 81 201t200 80q121 0 201.5 -79.5t80.5 -201.5q0 -121 -80.5 -200.5t-201.5 -79.5q-119 0 -200 79.5t-81 200.5z" />
    <glyph glyph-name="p" unicode="p" horiz-adv-x="641" 
d="M126 401v-258q33 -43 86 -67t113 -24q93 0 151 61.5t58 159.5t-58 159t-151 61q-61 0 -113.5 -24t-85.5 -68zM112 -177h-39q-13 0 -13 13v695q0 14 13 14h33q13 0 13 -14l2 -56l5 -1q79 79 199 79q119 0 197.5 -78t78.5 -202q0 -125 -78.5 -203t-197.5 -78
q-120 0 -199 79v-235q0 -13 -14 -13z" />
    <glyph glyph-name="q" unicode="q" horiz-adv-x="641" 
d="M515 143v258q-33 44 -85.5 68t-113.5 24q-93 0 -151 -61t-58 -159t58 -159.5t151 -61.5q60 0 113 24t86 67zM568 -177h-39q-14 0 -14 13v235q-79 -79 -199 -79q-119 0 -197.5 78t-78.5 203q0 124 78.5 202t197.5 78q120 0 199 -79l5 1l2 56q0 14 13 14h33q13 0 13 -13
v-696q0 -13 -13 -13z" />
    <glyph glyph-name="r" unicode="r" horiz-adv-x="550" 
d="M73 545h33q13 0 13 -14l2 -57h5q72 79 178 79q78 0 134.5 -38.5t80.5 -111.5q3 -10 -6 -13l-41 -15q-10 -3 -13 7q-36 109 -155 109q-108 0 -178 -90v-388q0 -13 -14 -13h-39q-13 0 -13 13v518q0 14 13 14z" />
    <glyph glyph-name="s" unicode="s" horiz-adv-x="553" 
d="M272 553q136 0 224 -78q9 -9 1 -18l-25 -29q-8 -9 -18 -1q-76 67 -184 67q-151 0 -151 -85q0 -41 38.5 -58t126.5 -28q58 -8 97 -18t73.5 -28.5t51.5 -48t17 -71.5q0 -79 -68.5 -122t-173.5 -43q-147 0 -247 88q-8 8 0 18l24 33q9 10 18 1q84 -80 206 -80
q85 0 130.5 28.5t45.5 76.5q0 49 -44.5 70.5t-138.5 32.5q-38 4 -66.5 9.5t-59.5 16.5t-50 26t-32 40t-13 57q0 65 59.5 104.5t158.5 39.5z" />
    <glyph glyph-name="t" unicode="t" horiz-adv-x="402" 
d="M108 545l12 121q0 13 13 13h31q13 0 13 -13v-121h167q13 0 13 -14v-33q0 -13 -13 -13h-167v-321q0 -54 26.5 -83t74.5 -29q38 0 75 17q10 6 15 -5l12 -31q5 -11 -6 -17q-44 -24 -98 -24q-74 0 -119.5 45t-45.5 124v324h-73q-13 0 -13 13v27q0 13 13 14z" />
    <glyph glyph-name="u" unicode="u" horiz-adv-x="599" 
d="M63 545h40q13 0 13 -13v-289q0 -93 43.5 -142t127.5 -49q113 0 186 92v388q0 13 14 13h39q13 0 13 -13v-519q0 -13 -13 -13h-33q-13 0 -13 13l-3 57l-4 2q-75 -80 -186 -80q-110 0 -173.5 64t-63.5 183v293q0 13 13 13z" />
    <glyph glyph-name="v" unicode="v" horiz-adv-x="630" 
d="M346 0h-65q-11 0 -15 10l-229 521q-6 14 7 14h50q10 0 15 -9l108 -253l93 -221h9l94 225l107 249q4 9 15 9h51q5 0 7 -4.5t0 -9.5l-232 -521q-4 -10 -15 -10z" />
    <glyph glyph-name="w" unicode="w" horiz-adv-x="871" 
d="M45 545h45q14 0 19 -15l143 -464h6l138 468q3 11 17 11h44q12 0 15 -11l141 -468h8l143 467q4 12 18 12h44q6 0 8.5 -4t0.5 -9l-168 -515q-5 -17 -20 -17h-64q-14 0 -18 16l-129 425h-6l-124 -425q-4 -16 -19 -16h-63q-15 0 -19 15l-169 518q-3 12 9 12z" />
    <glyph glyph-name="x" unicode="x" horiz-adv-x="597" 
d="M65 545h54q12 0 18 -9l159 -206h5l154 206q7 9 19 9h56q5 0 7 -4.5t-2 -9.5l-194 -243l219 -276q3 -4 1 -8t-8 -4h-58q-9 0 -17 9l-180 236h-5l-174 -235q-7 -10 -18 -10h-58q-13 0 -6 12l215 275l-193 245q-3 4 -1.5 8.5t7.5 4.5z" />
    <glyph glyph-name="y" unicode="y" horiz-adv-x="603" 
d="M507 545h52q11 0 7 -10l-233 -572q-24 -56 -65 -91t-97 -35q-6 0 -20 2q-12 2 -12 13v36q0 11 10 11q3 0 8 -0.5t8 -0.5q36 0 65 21.5t41 55.5l11 30l-245 530q-4 10 7 10h54q10 0 13 -10l200 -447h10l173 447q4 10 13 10z" />
    <glyph glyph-name="z" unicode="z" horiz-adv-x="538" 
d="M63 498v34q0 13 13 13h403q13 0 14 -13l3 -36q2 -11 -8 -22l-366 -411l3 -6l199 3h161q13 0 13 -14v-33q0 -13 -13 -13h-428q-13 0 -13 13l-3 40q-1 10 8 21l363 408l-3 6l-166 -3h-167q-13 0 -13 13z" />
    <glyph glyph-name="braceleft" unicode="{" horiz-adv-x="229" 
d="M159 616h37q13 0 13 -13v-28q0 -14 -13 -14h-29q-23 0 -23 -23v-191q0 -61 -43 -71v-6q43 -10 43 -71v-191q0 -23 23 -23h29q13 0 13 -14v-28q0 -13 -13 -13h-37q-38 0 -58.5 21t-20.5 57v197q0 38 -30 38h-16q-14 0 -14 14v32q0 14 14 14h16q30 0 30 38v197
q0 36 20.5 57t58.5 21z" />
    <glyph glyph-name="bar" unicode="|" horiz-adv-x="185" 
d="M73 645h39q13 0 13 -13v-719q0 -13 -13 -13h-39q-13 0 -13 13v719q0 13 13 13z" />
    <glyph glyph-name="braceright" unicode="}" horiz-adv-x="229" 
d="M70 -70h-37q-13 0 -13 13v28q0 14 13 14h29q23 0 23 23v191q0 61 43 71v6q-43 10 -43 71v191q0 23 -23 23h-29q-13 0 -13 14v28q0 13 13 13h37q38 0 58.5 -21t20.5 -57v-197q0 -38 30 -38h16q14 0 14 -14v-32q0 -14 -14 -14h-16q-30 0 -30 -38v-197q0 -36 -20.5 -57
t-58.5 -21z" />
    <glyph glyph-name="asciitilde" unicode="~" horiz-adv-x="400" 
d="M348 323l24 -25q6 -6 0 -13q-38 -48 -100 -48q-34 0 -82 27t-70 27q-38 0 -56 -23q-7 -9 -15 -1l-20 20q-7 7 -1 15q34 44 93 44q34 0 82 -27t69 -27q40 0 64 30q6 7 12 1z" />
    <glyph glyph-name="exclamdown" unicode="&#xa1;" horiz-adv-x="198" 
d="M122 -60h-46q-13 0 -13 13l6 419q0 13 13 13h34q13 0 13 -13l6 -419q0 -13 -13 -13zM154 498q0 -23 -16 -39t-39 -16t-39 16t-16 39t16 39t39 16t39 -16t16 -39z" />
    <glyph glyph-name="section" unicode="&#xa7;" horiz-adv-x="537" 
d="M449 541q9 -9 1 -16l-24 -24q-7 -7 -15 -1q-62 52 -149 52q-56 0 -86.5 -18t-30.5 -49q0 -33 30.5 -46.5t96.5 -23.5q102 -13 158.5 -47.5t56.5 -103.5q0 -32 -18 -62t-49 -47q42 -32 42 -81q0 -60 -55 -97.5t-142 -37.5q-124 0 -211 78q-9 7 0 16l26 28q6 8 15 1
q77 -68 171 -68q62 0 98 23t36 57q0 28 -31.5 42.5t-111.5 24.5q-201 28 -201 153q0 75 66 110q-39 31 -39 81q0 53 49 88t131 35q113 0 186 -67zM264 357q-64 8 -101 23q-44 -32 -44 -86q0 -76 146 -95q75 -9 108 -22q51 28 51 87q0 41 -39.5 62.5t-120.5 30.5z" />
    <glyph glyph-name="dieresis" unicode="&#xa8;" horiz-adv-x="541" 
d="M161 610q-23 0 -40 16.5t-17 39.5t17 39.5t40 16.5t40 -16.5t17 -39.5t-17 -39.5t-40 -16.5zM380 610q-23 0 -40 16.5t-17 39.5t17 39.5t40 16.5t40 -16.5t17 -39.5t-17 -39.5t-40 -16.5z" />
    <glyph glyph-name="copyright" unicode="&#xa9;" horiz-adv-x="705" 
d="M352 523q-108 0 -180.5 -73t-72.5 -180q0 -106 72.5 -179t180.5 -73q109 0 181.5 72.5t72.5 179.5t-72.5 180t-181.5 73zM352 579q131 0 222 -88.5t91 -220.5q0 -133 -91 -220.5t-222 -87.5t-221.5 87.5t-90.5 220.5q0 132 90.5 220.5t221.5 88.5zM354 435q73 0 119 -46
q11 -11 2 -19l-20 -21q-7 -9 -17 1q-31 33 -84 33q-50 0 -78.5 -32t-28.5 -79t28.5 -79t78.5 -32q53 0 84 33q8 8 17 1l20 -21q9 -8 -2 -19q-46 -46 -119 -46q-71 0 -118 47t-47 116t47 116t118 47z" />
    <glyph glyph-name="guillemotleft" unicode="&#xab;" horiz-adv-x="327" 
d="M277 426l20 -16q9 -7 1 -18l-73 -108l73 -108q8 -11 -1 -18l-20 -16q-10 -7 -19 3l-101 129q-3 4 -3 10t3 10l101 129q9 10 19 3zM148 416l20 -16q9 -7 1 -18l-73 -98l73 -98q8 -11 -1 -18l-20 -16q-10 -7 -19 3l-101 119q-3 4 -3 10t3 10l101 119q9 10 19 3z" />
    <glyph glyph-name="registered" unicode="&#xae;" horiz-adv-x="388" 
d="M194 567q69 0 116.5 -45.5t47.5 -114.5t-47.5 -114.5t-116.5 -45.5t-116.5 45.5t-47.5 114.5t47.5 114.5t116.5 45.5zM194 521q-50 0 -81.5 -32.5t-31.5 -81.5t31.5 -81.5t81.5 -32.5t81.5 32.5t31.5 81.5t-31.5 81.5t-81.5 32.5zM144 485h63q31 0 49 -18t18 -41
q0 -33 -30 -50l16 -33q2 -5 -0.5 -9t-8.5 -4h-17q-11 0 -14 10l-11 28h-39v-25q0 -13 -13 -13h-13q-13 0 -13 13v129q0 13 13 13zM170 404h37q26 0 26 22q0 21 -26 21h-37v-43z" />
    <glyph glyph-name="overscore" unicode="&#xaf;" horiz-adv-x="394" 
d="M35 645v30q0 13 13 13h297q14 0 14 -13v-30q0 -13 -14 -13h-297q-13 0 -13 13z" />
    <glyph glyph-name="degree" unicode="&#xb0;" horiz-adv-x="350" 
d="M175 553q58 0 99 -40.5t41 -97.5t-41 -97.5t-99 -40.5t-99 40.5t-41 97.5t41 97.5t99 40.5zM175 499q-38 0 -60 -24t-22 -60t22 -59.5t60 -23.5t60.5 23.5t22.5 59.5t-22.5 60t-60.5 24z" />
    <glyph glyph-name="plusminus" unicode="&#xb1;" horiz-adv-x="398" 
d="M168 365v93q0 14 13 14h36q13 0 13 -14v-93h94q14 0 14 -13v-34q0 -13 -14 -13h-94v-94q0 -13 -13 -13h-36q-13 0 -13 13v94h-95q-13 0 -13 13v34q0 13 13 13h95zM83 150h231q14 0 14 -13v-34q0 -13 -14 -13h-231q-13 0 -13 13v34q0 13 13 13z" />
    <glyph glyph-name="acute" unicode="&#xb4;" horiz-adv-x="137" 
d="M106 794l37 -15q13 -6 8 -18l-55 -140q-6 -14 -18 -11l-28 7q-14 6 -10 17l49 151q6 14 17 9z" />
    <glyph glyph-name="paragraph" unicode="&#xb6;" horiz-adv-x="326" 
d="M264 552l6 -24q4 -14 -13 -19q-78 -15 -117 -48.5t-39 -80.5q0 -69 84 -69q21 0 44 7q17 5 17 -9v-286q0 -47 -14.5 -87.5t-56 -77t-105.5 -50.5q-11 -4 -18 11l-6 24q-5 14 13 19q63 17 95 59.5t32 99.5l-1 233q-66 0 -105.5 31.5t-39.5 94.5q0 66 54.5 115.5
t151.5 67.5q14 2 18 -11z" />
    <glyph glyph-name="middot" unicode="&#xb7;" horiz-adv-x="198" 
d="M44 279q0 23 16 39t39 16t39 -16t16 -39t-16 -39t-39 -16t-39 16t-16 39z" />
    <glyph glyph-name="cedilla" unicode="&#xb8;" horiz-adv-x="206" 
d="M102 -41q40 0 61.5 -23t21.5 -60q0 -38 -32.5 -72t-85.5 -44q-13 -3 -16 9l-7 22q-2 5 1 9.5t9 5.5q34 6 54.5 27t20.5 43q0 32 -36 32q-17 0 -34 -7q-8 -3 -13 5l-11 27q-3 8 6 13q27 13 61 13z" />
    <glyph glyph-name="guillemotright" unicode="&#xbb;" horiz-adv-x="327" 
d="M50 142l-20 16q-9 7 -1 18l73 108l-73 108q-8 11 1 18l20 16q10 7 19 -3l101 -129q3 -4 3 -10t-3 -10l-101 -129q-9 -10 -19 -3zM179 152l-20 16q-9 7 -1 18l73 98l-73 98q-8 11 1 18l20 16q10 7 19 -3l101 -119q3 -4 3 -10t-3 -10l-101 -119q-9 -10 -19 -3z" />
    <glyph glyph-name="questiondown" unicode="&#xbf;" horiz-adv-x="553" 
d="M508 25q-89 -95 -233 -95q-94 0 -164.5 44t-70.5 134q0 134 162 182q64 19 64 81q0 14 14 14h38q14 0 14 -14q0 -105 -108 -137q-118 -34 -118 -128q0 -60 52 -88t117 -28q114 0 190 79q9 9 18 1l26 -26q8 -8 -1 -19zM355 498q0 -23 -16 -39t-39 -16t-39 16t-16 39t16 39
t39 16t39 -16t16 -39z" />
    <glyph glyph-name="Agrave" unicode="&#xc0;" horiz-adv-x="640" 
d="M283 545h78q12 0 16 -10l227 -521q2 -5 0 -9.5t-7 -4.5h-47q-11 0 -15 10l-45 106h-337l-46 -106q-3 -10 -15 -10h-48q-13 0 -7 14l230 520q5 11 16 11zM312 489l-134 -313h287l-134 313h-19zM239 779l38 15q10 4 16 -9l49 -151q4 -11 -10 -17l-30 -7q-11 -3 -16 11
l-55 140q-5 12 8 18z" />
    <glyph glyph-name="Aacute" unicode="&#xc1;" horiz-adv-x="640" 
d="M283 545h78q12 0 16 -10l227 -521q2 -5 0 -9.5t-7 -4.5h-47q-11 0 -15 10l-45 106h-337l-46 -106q-3 -10 -15 -10h-48q-13 0 -7 14l230 520q5 11 16 11zM312 489l-134 -313h287l-134 313h-19zM374 794l37 -15q13 -6 8 -18l-55 -140q-6 -14 -18 -11l-28 7q-14 6 -10 17
l49 151q6 14 17 9z" />
    <glyph glyph-name="Acircumflex" unicode="&#xc2;" horiz-adv-x="640" 
d="M283 545h78q12 0 16 -10l227 -521q2 -5 0 -9.5t-7 -4.5h-47q-11 0 -15 10l-45 106h-337l-46 -106q-3 -10 -15 -10h-48q-13 0 -7 14l230 520q5 11 16 11zM312 489l-134 -313h287l-134 313h-19zM461 632l-10 -17q-7 -12 -19 -7l-112 55l-112 -54q-12 -5 -19 7l-10 16
q-6 12 2 20l130 76q6 2 9 2q2 0 8 -2l131 -76q8 -8 2 -20z" />
    <glyph glyph-name="Atilde" unicode="&#xc3;" horiz-adv-x="640" 
d="M283 545h78q12 0 16 -10l227 -521q2 -5 0 -9.5t-7 -4.5h-47q-11 0 -15 10l-45 106h-337l-46 -106q-3 -10 -15 -10h-48q-13 0 -7 14l230 520q5 11 16 11zM312 489l-134 -313h287l-134 313h-19zM460 687l22 -26q6 -7 0 -13q-38 -45 -100 -45q-34 0 -77 24t-65 24
q-24 0 -46 -20q-8 -8 -15 -1l-20 20q-7 7 -1 15q32 41 83 41q34 0 77 -24t64 -24q39 0 66 28q6 6 12 1z" />
    <glyph glyph-name="Adieresis" unicode="&#xc4;" horiz-adv-x="640" 
d="M283 545h78q12 0 16 -10l227 -521q2 -5 0 -9.5t-7 -4.5h-47q-11 0 -15 10l-45 106h-337l-46 -106q-3 -10 -15 -10h-48q-13 0 -7 14l230 520q5 11 16 11zM312 489l-134 -313h287l-134 313h-19zM211 610q-23 0 -40 16.5t-17 39.5t17 39.5t40 16.5t40 -16.5t17 -39.5
t-17 -39.5t-40 -16.5zM430 610q-23 0 -40 16.5t-17 39.5t17 39.5t40 16.5t40 -16.5t17 -39.5t-17 -39.5t-40 -16.5z" />
    <glyph glyph-name="Aring" unicode="&#xc5;" horiz-adv-x="640" 
d="M283 545h78q12 0 16 -10l227 -521q2 -5 0 -9.5t-7 -4.5h-47q-11 0 -15 10l-45 106h-337l-46 -106q-3 -10 -15 -10h-48q-13 0 -7 14l230 520q5 11 16 11zM312 489l-134 -313h287l-134 313h-19zM320 808q45 0 75.5 -28.5t30.5 -73.5t-30.5 -73.5t-75.5 -28.5q-44 0 -75 29
t-31 73t31 73t75 29zM320 760q-24 0 -39.5 -15t-15.5 -39t15.5 -39t39.5 -15t39.5 15t15.5 39t-15.5 39t-39.5 15z" />
    <glyph glyph-name="AE" unicode="&#xc6;" horiz-adv-x="926" 
d="M410 545h443q13 0 13 -13v-34q0 -13 -13 -13h-325v-168h306q13 0 13 -13v-34q0 -13 -13 -13h-306v-197h335q13 0 13 -12v-35q0 -13 -13 -13h-388q-13 0 -13 13v103h-296l-75 -106q-7 -10 -19 -10h-48q-6 0 -8 4.5t1 9.5l371 520q8 11 22 11zM426 485l-218 -309h254v309
h-36z" />
    <glyph glyph-name="Ccedilla" unicode="&#xc7;" horiz-adv-x="585" 
d="M322 553q139 0 224 -105q4 -4 3.5 -9.5t-5.5 -8.5l-30 -24q-10 -8 -18 2q-66 85 -174 85q-93 0 -154 -63t-61 -157t61 -157.5t154 -63.5q109 0 175 84q8 10 18 2l29 -24q11 -8 2 -18q-84 -104 -224 -104q-121 0 -201.5 79.5t-80.5 201.5q0 120 81.5 200t200.5 80z
M313 -42q40 0 61.5 -23t21.5 -60q0 -38 -32.5 -72t-85.5 -44q-13 -3 -16 9l-7 22q-2 5 1 9.5t9 5.5q34 6 54.5 27t20.5 43q0 32 -36 32q-17 0 -34 -7q-8 -3 -13 5l-11 27q-3 8 6 13q27 13 61 13z" />
    <glyph glyph-name="Egrave" unicode="&#xc8;" horiz-adv-x="534" 
d="M73 545h388q13 0 13 -13v-34q0 -13 -13 -13h-335v-168h316q13 0 13 -13v-34q0 -13 -13 -13h-316v-197h345q13 0 13 -12v-35q0 -13 -13 -13h-398q-13 0 -13 13v519q0 13 13 13zM199 779l38 15q10 4 16 -9l49 -151q4 -11 -10 -17l-30 -7q-11 -3 -16 11l-55 140q-5 12 8 18z
" />
    <glyph glyph-name="Eacute" unicode="&#xc9;" horiz-adv-x="534" 
d="M73 545h388q13 0 13 -13v-34q0 -13 -13 -13h-335v-168h316q13 0 13 -13v-34q0 -13 -13 -13h-316v-197h345q13 0 13 -12v-35q0 -13 -13 -13h-398q-13 0 -13 13v519q0 13 13 13zM317 794l37 -15q13 -6 8 -18l-55 -140q-6 -14 -18 -11l-28 7q-14 6 -10 17l49 151q6 14 17 9z
" />
    <glyph glyph-name="Ecircumflex" unicode="&#xca;" horiz-adv-x="534" 
d="M73 545h388q13 0 13 -13v-34q0 -13 -13 -13h-335v-168h316q13 0 13 -13v-34q0 -13 -13 -13h-316v-197h345q13 0 13 -12v-35q0 -13 -13 -13h-398q-13 0 -13 13v519q0 13 13 13zM417 632l-10 -17q-7 -12 -19 -7l-112 55l-112 -54q-12 -5 -19 7l-10 16q-6 12 2 20l130 76
q6 2 9 2q2 0 8 -2l131 -76q8 -8 2 -20z" />
    <glyph glyph-name="Edieresis" unicode="&#xcb;" horiz-adv-x="534" 
d="M73 545h388q13 0 13 -13v-34q0 -13 -13 -13h-335v-168h316q13 0 13 -13v-34q0 -13 -13 -13h-316v-197h345q13 0 13 -12v-35q0 -13 -13 -13h-398q-13 0 -13 13v519q0 13 13 13zM161 610q-23 0 -40 16.5t-17 39.5t17 39.5t40 16.5t40 -16.5t17 -39.5t-17 -39.5t-40 -16.5z
M380 610q-23 0 -40 16.5t-17 39.5t17 39.5t40 16.5t40 -16.5t17 -39.5t-17 -39.5t-40 -16.5z" />
    <glyph glyph-name="Igrave" unicode="&#xcc;" horiz-adv-x="186" 
d="M73 545h40q13 0 13 -13v-519q0 -13 -13 -13h-40q-13 0 -13 13v519q0 13 13 13zM9 779l38 15q10 4 16 -9l49 -151q4 -11 -10 -17l-30 -7q-11 -3 -16 11l-55 140q-5 12 8 18z" />
    <glyph glyph-name="Iacute" unicode="&#xcd;" horiz-adv-x="186" 
d="M73 545h40q13 0 13 -13v-519q0 -13 -13 -13h-40q-13 0 -13 13v519q0 13 13 13zM137 794l37 -15q13 -6 8 -18l-55 -140q-6 -14 -18 -11l-28 7q-14 6 -10 17l49 151q6 14 17 9z" />
    <glyph glyph-name="Icircumflex" unicode="&#xce;" horiz-adv-x="186" 
d="M73 545h40q13 0 13 -13v-519q0 -13 -13 -13h-40q-13 0 -13 13v519q0 13 13 13zM235 632l-10 -17q-7 -12 -19 -7l-112 55l-112 -54q-12 -5 -19 7l-10 16q-6 12 2 20l130 76q6 2 9 2q2 0 8 -2l131 -76q8 -8 2 -20z" />
    <glyph glyph-name="Idieresis" unicode="&#xcf;" horiz-adv-x="186" 
d="M73 545h40q13 0 13 -13v-519q0 -13 -13 -13h-40q-13 0 -13 13v519q0 13 13 13zM0 620q-23 0 -40 16.5t-17 39.5t17 39.5t40 16.5t40 -16.5t17 -39.5t-17 -39.5t-40 -16.5zM189 620q-23 0 -40 16.5t-17 39.5t17 39.5t40 16.5t40 -16.5t17 -39.5t-17 -39.5t-40 -16.5z" />
    <glyph glyph-name="Eth" unicode="&#xd0;" horiz-adv-x="608" 
d="M83 545h203q121 0 201.5 -76.5t80.5 -195.5q0 -120 -80.5 -196.5t-201.5 -76.5h-203q-13 0 -13 13v238h-39q-13 0 -13 13v32q0 13 13 13h39v222q0 14 13 14zM136 485v-176h162q14 0 14 -13v-32q0 -13 -14 -13h-162v-190h150q93 0 153.5 59.5t60.5 152.5t-60.5 152.5
t-153.5 59.5h-150z" />
    <glyph glyph-name="Ntilde" unicode="&#xd1;" horiz-adv-x="613" 
d="M540 0h-46q-12 0 -18 9l-185 233l-163 216l-7 -2l5 -202v-241q0 -13 -14 -13h-39q-13 0 -13 14v518q0 13 13 13h44q14 0 22 -11l198 -247l148 -198l7 1l-5 202v240q0 13 13 13h40q13 0 13 -13v-519q0 -13 -13 -13zM446 687l22 -26q6 -7 0 -13q-37 -45 -100 -45
q-34 0 -77 24t-65 24q-24 0 -46 -20q-8 -8 -15 -1l-20 20q-7 7 -1 15q32 41 83 41q34 0 77 -24t64 -24q39 0 66 28q6 6 12 1z" />
    <glyph glyph-name="Ograve" unicode="&#xd2;" 
d="M321 493q-94 0 -154 -63t-60 -158q0 -94 60 -157t154 -63q95 0 155 63t60 157q0 95 -60 158t-155 63zM40 272q0 121 81 201t200 80q121 0 201.5 -79.5t80.5 -201.5q0 -121 -80.5 -200.5t-201.5 -79.5q-119 0 -200 79.5t-81 200.5zM222 779l38 15q10 4 16 -9l49 -151
q4 -11 -10 -17l-30 -7q-11 -3 -16 11l-55 140q-5 12 8 18z" />
    <glyph glyph-name="Oacute" unicode="&#xd3;" 
d="M321 493q-94 0 -154 -63t-60 -158q0 -94 60 -157t154 -63q95 0 155 63t60 157q0 95 -60 158t-155 63zM40 272q0 121 81 201t200 80q121 0 201.5 -79.5t80.5 -201.5q0 -121 -80.5 -200.5t-201.5 -79.5q-119 0 -200 79.5t-81 200.5zM380 794l37 -15q13 -6 8 -18l-55 -140
q-6 -14 -18 -11l-28 7q-14 6 -10 17l49 151q6 14 17 9z" />
    <glyph glyph-name="Ocircumflex" unicode="&#xd4;" 
d="M321 493q-94 0 -154 -63t-60 -158q0 -94 60 -157t154 -63q95 0 155 63t60 157q0 95 -60 158t-155 63zM40 272q0 121 81 201t200 80q121 0 201.5 -79.5t80.5 -201.5q0 -121 -80.5 -200.5t-201.5 -79.5q-119 0 -200 79.5t-81 200.5zM462 632l-10 -17q-7 -12 -19 -7l-112 55
l-112 -54q-12 -5 -19 7l-10 16q-6 12 2 20l130 76q6 2 9 2q2 0 8 -2l131 -76q8 -8 2 -20z" />
    <glyph glyph-name="Otilde" unicode="&#xd5;" 
d="M321 493q-94 0 -154 -63t-60 -158q0 -94 60 -157t154 -63q95 0 155 63t60 157q0 95 -60 158t-155 63zM40 272q0 121 81 201t200 80q121 0 201.5 -79.5t80.5 -201.5q0 -121 -80.5 -200.5t-201.5 -79.5q-119 0 -200 79.5t-81 200.5zM461 687l22 -26q6 -7 0 -13
q-37 -45 -100 -45q-34 0 -77 24t-65 24q-24 0 -46 -20q-8 -8 -15 -1l-20 20q-7 7 -1 15q32 41 83 41q34 0 77 -24t64 -24q39 0 66 28q6 6 12 1z" />
    <glyph glyph-name="Odieresis" unicode="&#xd6;" 
d="M321 493q-94 0 -154 -63t-60 -158q0 -94 60 -157t154 -63q95 0 155 63t60 157q0 95 -60 158t-155 63zM40 272q0 121 81 201t200 80q121 0 201.5 -79.5t80.5 -201.5q0 -121 -80.5 -200.5t-201.5 -79.5q-119 0 -200 79.5t-81 200.5zM212 610q-23 0 -40 16.5t-17 39.5
t17 39.5t40 16.5t40 -16.5t17 -39.5t-17 -39.5t-40 -16.5zM431 610q-23 0 -40 16.5t-17 39.5t17 39.5t40 16.5t40 -16.5t17 -39.5t-17 -39.5t-40 -16.5z" />
    <glyph glyph-name="multiply" unicode="&#xd7;" horiz-adv-x="374" 
d="M186 328l69 69q10 10 19 1l26 -26q9 -9 -1 -19l-69 -69l70 -69q9 -10 0 -19l-24 -24q-9 -9 -19 0l-69 70l-70 -70q-9 -9 -18 0l-26 26q-9 9 0 18l70 70l-70 70q-9 9 0 18l24 24q9 9 18 0z" />
    <glyph glyph-name="Oslash" unicode="&#xd8;" 
d="M40 272q0 121 81 201t200 80q75 0 144 -37l29 40q7 10 18 3l29 -17q11 -8 3 -20l-30 -42q89 -81 89 -208q0 -121 -80.5 -200.5t-201.5 -79.5q-74 0 -137 33l-30 -42q-5 -11 -18 -2l-28 17q-10 8 -3 18l30 42q-95 81 -95 214zM172 109l257 357q-49 27 -108 27
q-94 0 -154 -63t-60 -158q0 -100 65 -163zM477 429l-257 -354q48 -23 101 -23q95 0 155 63t60 157q0 93 -59 157z" />
    <glyph glyph-name="Ugrave" unicode="&#xd9;" horiz-adv-x="601" 
d="M60 236v296q0 13 13 13h40q13 0 13 -13v-294q0 -82 46.5 -134t127.5 -52q82 0 128.5 51.5t46.5 134.5v294q0 13 14 13h39q13 0 13 -13v-296q0 -107 -65.5 -175.5t-175.5 -68.5q-109 0 -174.5 68.5t-65.5 175.5zM220 779l38 15q10 4 16 -9l49 -151q4 -11 -10 -17l-30 -7
q-11 -3 -16 11l-55 140q-5 12 8 18z" />
    <glyph glyph-name="Uacute" unicode="&#xda;" horiz-adv-x="601" 
d="M60 236v296q0 13 13 13h40q13 0 13 -13v-294q0 -82 46.5 -134t127.5 -52q82 0 128.5 51.5t46.5 134.5v294q0 13 14 13h39q13 0 13 -13v-296q0 -107 -65.5 -175.5t-175.5 -68.5q-109 0 -174.5 68.5t-65.5 175.5zM338 794l37 -15q13 -6 8 -18l-55 -140q-6 -14 -18 -11
l-28 7q-14 6 -10 17l49 151q6 14 17 9z" />
    <glyph glyph-name="Ucircumflex" unicode="&#xdb;" horiz-adv-x="601" 
d="M60 236v296q0 13 13 13h40q13 0 13 -13v-294q0 -82 46.5 -134t127.5 -52q82 0 128.5 51.5t46.5 134.5v294q0 13 14 13h39q13 0 13 -13v-296q0 -107 -65.5 -175.5t-175.5 -68.5q-109 0 -174.5 68.5t-65.5 175.5zM441 632l-10 -17q-7 -12 -19 -7l-112 55l-112 -54
q-12 -5 -19 7l-10 16q-6 12 2 20l130 76q6 2 9 2q2 0 8 -2l131 -76q8 -8 2 -20z" />
    <glyph glyph-name="Udieresis" unicode="&#xdc;" horiz-adv-x="601" 
d="M60 236v296q0 13 13 13h40q13 0 13 -13v-294q0 -82 46.5 -134t127.5 -52q82 0 128.5 51.5t46.5 134.5v294q0 13 14 13h39q13 0 13 -13v-296q0 -107 -65.5 -175.5t-175.5 -68.5q-109 0 -174.5 68.5t-65.5 175.5zM191 610q-23 0 -40 16.5t-17 39.5t17 39.5t40 16.5
t40 -16.5t17 -39.5t-17 -39.5t-40 -16.5zM410 610q-23 0 -40 16.5t-17 39.5t17 39.5t40 16.5t40 -16.5t17 -39.5t-17 -39.5t-40 -16.5z" />
    <glyph glyph-name="Yacute" unicode="&#xdd;" horiz-adv-x="599" 
d="M333 134v-120q0 -14 -13 -14h-40q-13 0 -13 14v119l-230 399q-6 13 7 13h52q10 0 15 -8l186 -336h9l183 336q5 8 14 8h53q13 0 6 -13zM340 794l37 -15q13 -6 8 -18l-55 -140q-6 -14 -18 -11l-28 7q-14 6 -10 17l49 151q6 14 17 9z" />
    <glyph glyph-name="Thorn" unicode="&#xde;" horiz-adv-x="565" 
d="M113 0h-40q-13 0 -13 13v527q0 13 13 13h40q13 0 13 -13v-59h197q87 0 144.5 -55t57.5 -136q0 -82 -57.5 -136.5t-144.5 -54.5h-197v-86q0 -13 -13 -13zM126 159h197q64 0 100 36t36 95q0 58 -36 94.5t-100 36.5h-197v-262z" />
    <glyph glyph-name="germandbls" unicode="&#xdf;" horiz-adv-x="627" 
d="M60 13v573q0 76 50 123t124 47q75 0 122.5 -40.5t47.5 -104.5q0 -41 -17 -67.5t-47 -52.5q-40 -35 -49 -51q-10 -17 -10 -36q0 -32 25 -50.5t95 -26.5q186 -23 186 -169q0 -74 -60 -120t-142 -46q-116 0 -197 64q-8 8 0 18l18 31q5 11 18 1q70 -56 163 -56q61 0 99 32
t38 76q0 52 -36 77.5t-110 34.5q-80 9 -120 40.5t-40 93.5q0 23 5 40.5t20 34t20.5 22t27.5 23.5q49 42 49 87q0 40 -27.5 63t-78.5 23t-79.5 -29.5t-28.5 -81.5v-573q0 -13 -13 -13h-40q-13 0 -13 13z" />
    <glyph glyph-name="agrave" unicode="&#xe0;" horiz-adv-x="593" 
d="M451 157v139l-237 -34q-53 -9 -83 -34.5t-30 -67.5q0 -53 40.5 -80.5t96.5 -27.5q139 0 213 105zM466 86h-5q-92 -94 -221 -94q-98 0 -151.5 47.5t-53.5 120.5q0 67 48 109t123 52l245 32v25q0 53 -42 84t-108 31q-114 0 -192 -61q-9 -7 -14 1l-23 32q-5 8 2 14
q91 74 227 74q92 0 154 -45.5t62 -129.5v-201q0 -71 30 -135l7 -15q6 -11 -4 -15l-32 -14q-14 -6 -19 5zM203 779l38 15q10 4 16 -9l49 -151q4 -11 -10 -17l-30 -7q-11 -3 -16 11l-55 140q-5 12 8 18z" />
    <glyph glyph-name="aacute" unicode="&#xe1;" horiz-adv-x="593" 
d="M451 157v139l-237 -34q-53 -9 -83 -34.5t-30 -67.5q0 -53 40.5 -80.5t96.5 -27.5q139 0 213 105zM466 86h-5q-92 -94 -221 -94q-98 0 -151.5 47.5t-53.5 120.5q0 67 48 109t123 52l245 32v25q0 53 -42 84t-108 31q-114 0 -192 -61q-9 -7 -14 1l-23 32q-5 8 2 14
q91 74 227 74q92 0 154 -45.5t62 -129.5v-201q0 -71 30 -135l7 -15q6 -11 -4 -15l-32 -14q-14 -6 -19 5zM343 794l37 -15q13 -6 8 -18l-55 -140q-6 -14 -18 -11l-28 7q-14 6 -10 17l49 151q6 14 17 9z" />
    <glyph glyph-name="acircumflex" unicode="&#xe2;" horiz-adv-x="593" 
d="M451 157v139l-237 -34q-53 -9 -83 -34.5t-30 -67.5q0 -53 40.5 -80.5t96.5 -27.5q139 0 213 105zM466 86h-5q-92 -94 -221 -94q-98 0 -151.5 47.5t-53.5 120.5q0 67 48 109t123 52l245 32v25q0 53 -42 84t-108 31q-114 0 -192 -61q-9 -7 -14 1l-23 32q-5 8 2 14
q91 74 227 74q92 0 154 -45.5t62 -129.5v-201q0 -71 30 -135l7 -15q6 -11 -4 -15l-32 -14q-14 -6 -19 5zM437 632l-10 -17q-7 -12 -19 -7l-112 55l-112 -54q-12 -5 -19 7l-10 16q-6 12 2 20l130 76q6 2 9 2q2 0 8 -2l131 -76q8 -8 2 -20z" />
    <glyph glyph-name="atilde" unicode="&#xe3;" horiz-adv-x="593" 
d="M451 157v139l-237 -34q-53 -9 -83 -34.5t-30 -67.5q0 -53 40.5 -80.5t96.5 -27.5q139 0 213 105zM466 86h-5q-92 -94 -221 -94q-98 0 -151.5 47.5t-53.5 120.5q0 67 48 109t123 52l245 32v25q0 53 -42 84t-108 31q-114 0 -192 -61q-9 -7 -14 1l-23 32q-5 8 2 14
q91 74 227 74q92 0 154 -45.5t62 -129.5v-201q0 -71 30 -135l7 -15q6 -11 -4 -15l-32 -14q-14 -6 -19 5zM436 687l22 -26q6 -7 0 -13q-37 -45 -100 -45q-34 0 -77 24t-65 24q-24 0 -46 -20q-8 -8 -15 -1l-20 20q-7 7 -1 15q32 41 83 41q34 0 77 -24t64 -24q39 0 66 28
q6 6 12 1z" />
    <glyph glyph-name="adieresis" unicode="&#xe4;" horiz-adv-x="593" 
d="M451 157v139l-237 -34q-53 -9 -83 -34.5t-30 -67.5q0 -53 40.5 -80.5t96.5 -27.5q139 0 213 105zM466 86h-5q-92 -94 -221 -94q-98 0 -151.5 47.5t-53.5 120.5q0 67 48 109t123 52l245 32v25q0 53 -42 84t-108 31q-114 0 -192 -61q-9 -7 -14 1l-23 32q-5 8 2 14
q91 74 227 74q92 0 154 -45.5t62 -129.5v-201q0 -71 30 -135l7 -15q6 -11 -4 -15l-32 -14q-14 -6 -19 5zM187 610q-23 0 -40 16.5t-17 39.5t17 39.5t40 16.5t40 -16.5t17 -39.5t-17 -39.5t-40 -16.5zM406 610q-23 0 -40 16.5t-17 39.5t17 39.5t40 16.5t40 -16.5t17 -39.5
t-17 -39.5t-40 -16.5z" />
    <glyph glyph-name="aring" unicode="&#xe5;" horiz-adv-x="593" 
d="M451 157v139l-237 -34q-53 -9 -83 -34.5t-30 -67.5q0 -53 40.5 -80.5t96.5 -27.5q139 0 213 105zM466 86h-5q-92 -94 -221 -94q-98 0 -151.5 47.5t-53.5 120.5q0 67 48 109t123 52l245 32v25q0 53 -42 84t-108 31q-114 0 -192 -61q-9 -7 -14 1l-23 32q-5 8 2 14
q91 74 227 74q92 0 154 -45.5t62 -129.5v-201q0 -71 30 -135l7 -15q6 -11 -4 -15l-32 -14q-14 -6 -19 5zM296 808q45 0 75.5 -28.5t30.5 -73.5t-30.5 -73.5t-75.5 -28.5q-44 0 -75 29t-31 73t31 73t75 29zM296 760q-24 0 -39.5 -15t-15.5 -39t15.5 -39t39.5 -15t39.5 15
t15.5 39t-15.5 39t-39.5 15z" />
    <glyph glyph-name="ae" unicode="&#xe6;" horiz-adv-x="1047" 
d="M738 -8q-158 0 -239 114q-97 -114 -259 -114q-98 0 -151.5 47.5t-53.5 120.5q0 67 48 109t123 52l249 32v25q0 53 -44 84t-110 31q-114 0 -192 -61q-9 -7 -14 1l-23 32q-5 8 2 14q91 74 227 74q70 0 126.5 -30t77.5 -84q36 54 95 84t133 30q119 0 196.5 -79.5
t77.5 -201.5v-18q0 -12 -12 -12h-478q8 -83 67.5 -136.5t153.5 -53.5q97 0 186 65q10 7 18 -2l20 -27q9 -11 -3 -20q-95 -76 -221 -76zM449 272q0 16 1 24l-239 -34q-110 -18 -110 -102q0 -53 40.5 -80.5t96.5 -27.5q140 0 234 104q-23 55 -23 116zM516 302h425
q-8 83 -65 137t-143 54q-89 0 -149 -53.5t-68 -137.5z" />
    <glyph glyph-name="ccedilla" unicode="&#xe7;" horiz-adv-x="585" 
d="M322 553q139 0 224 -105q4 -4 3.5 -9.5t-5.5 -8.5l-30 -24q-10 -8 -18 2q-66 85 -174 85q-93 0 -154 -63t-61 -157t61 -157.5t154 -63.5q109 0 175 84q8 10 18 2l29 -24q11 -8 2 -18q-84 -104 -224 -104q-121 0 -201.5 79.5t-80.5 201.5q0 120 81.5 200t200.5 80z
M313 -42q40 0 61.5 -23t21.5 -60q0 -38 -32.5 -72t-85.5 -44q-13 -3 -16 9l-7 22q-2 5 1 9.5t9 5.5q34 6 54.5 27t20.5 43q0 32 -36 32q-17 0 -34 -7q-8 -3 -13 5l-11 27q-3 8 6 13q27 13 61 13z" />
    <glyph glyph-name="egrave" unicode="&#xe8;" horiz-adv-x="638" 
d="M40 272q0 122 80.5 201.5t203.5 79.5q119 0 196.5 -79.5t77.5 -201.5v-18q0 -12 -12 -12h-478q8 -83 67.5 -136.5t153.5 -53.5q97 0 186 65q10 7 18 -2l20 -27q9 -11 -3 -20q-95 -76 -221 -76q-128 0 -208.5 79t-80.5 201zM324 493q-89 0 -149 -53.5t-68 -137.5h425
q-8 83 -65 137t-143 54zM227 779l38 15q10 4 16 -9l49 -151q4 -11 -10 -17l-30 -7q-11 -3 -16 11l-55 140q-5 12 8 18z" />
    <glyph glyph-name="eacute" unicode="&#xe9;" horiz-adv-x="638" 
d="M40 272q0 122 80.5 201.5t203.5 79.5q119 0 196.5 -79.5t77.5 -201.5v-18q0 -12 -12 -12h-478q8 -83 67.5 -136.5t153.5 -53.5q97 0 186 65q10 7 18 -2l20 -27q9 -11 -3 -20q-95 -76 -221 -76q-128 0 -208.5 79t-80.5 201zM324 493q-89 0 -149 -53.5t-68 -137.5h425
q-8 83 -65 137t-143 54zM385 794l37 -15q13 -6 8 -18l-55 -140q-6 -14 -18 -11l-28 7q-14 6 -10 17l49 151q6 14 17 9z" />
    <glyph glyph-name="ecircumflex" unicode="&#xea;" horiz-adv-x="638" 
d="M40 272q0 122 80.5 201.5t203.5 79.5q119 0 196.5 -79.5t77.5 -201.5v-18q0 -12 -12 -12h-478q8 -83 67.5 -136.5t153.5 -53.5q97 0 186 65q10 7 18 -2l20 -27q9 -11 -3 -20q-95 -76 -221 -76q-128 0 -208.5 79t-80.5 201zM324 493q-89 0 -149 -53.5t-68 -137.5h425
q-8 83 -65 137t-143 54zM473 632l-10 -17q-7 -12 -19 -7l-112 55l-112 -54q-12 -5 -19 7l-10 16q-6 12 2 20l130 76q6 2 9 2q2 0 8 -2l131 -76q8 -8 2 -20z" />
    <glyph glyph-name="edieresis" unicode="&#xeb;" horiz-adv-x="638" 
d="M40 272q0 122 80.5 201.5t203.5 79.5q119 0 196.5 -79.5t77.5 -201.5v-18q0 -12 -12 -12h-478q8 -83 67.5 -136.5t153.5 -53.5q97 0 186 65q10 7 18 -2l20 -27q9 -11 -3 -20q-95 -76 -221 -76q-128 0 -208.5 79t-80.5 201zM324 493q-89 0 -149 -53.5t-68 -137.5h425
q-8 83 -65 137t-143 54zM220 610q-23 0 -40 16.5t-17 39.5t17 39.5t40 16.5t40 -16.5t17 -39.5t-17 -39.5t-40 -16.5zM439 610q-23 0 -40 16.5t-17 39.5t17 39.5t40 16.5t40 -16.5t17 -39.5t-17 -39.5t-40 -16.5z" />
    <glyph glyph-name="igrave" unicode="&#xec;" horiz-adv-x="186" 
d="M73 545h40q13 0 13 -13v-519q0 -13 -13 -13h-40q-13 0 -13 13v519q0 13 13 13zM9 779l38 15q10 4 16 -9l49 -151q4 -11 -10 -17l-30 -7q-11 -3 -16 11l-55 140q-5 12 8 18z" />
    <glyph glyph-name="iacute" unicode="&#xed;" horiz-adv-x="186" 
d="M73 545h40q13 0 13 -13v-519q0 -13 -13 -13h-40q-13 0 -13 13v519q0 13 13 13zM137 794l37 -15q13 -6 8 -18l-55 -140q-6 -14 -18 -11l-28 7q-14 6 -10 17l49 151q6 14 17 9z" />
    <glyph glyph-name="icircumflex" unicode="&#xee;" horiz-adv-x="186" 
d="M73 545h40q13 0 13 -13v-519q0 -13 -13 -13h-40q-13 0 -13 13v519q0 13 13 13zM235 632l-10 -17q-7 -12 -19 -7l-112 55l-112 -54q-12 -5 -19 7l-10 16q-6 12 2 20l130 76q6 2 9 2q2 0 8 -2l131 -76q8 -8 2 -20z" />
    <glyph glyph-name="idieresis" unicode="&#xef;" horiz-adv-x="186" 
d="M73 545h40q13 0 13 -13v-519q0 -13 -13 -13h-40q-13 0 -13 13v519q0 13 13 13zM0 620q-23 0 -40 16.5t-17 39.5t17 39.5t40 16.5t40 -16.5t17 -39.5t-17 -39.5t-40 -16.5zM189 620q-23 0 -40 16.5t-17 39.5t17 39.5t40 16.5t40 -16.5t17 -39.5t-17 -39.5t-40 -16.5z" />
    <glyph glyph-name="eth" unicode="&#xf0;" horiz-adv-x="634" 
d="M264 583l-27 14q-10 4 -5 17l25 51q-53 12 -116 12q-10 0 -9 13l4 33q2 9 11 9q72 0 136 -15l33 66q8 12 18 6l27 -15q11 -6 4 -18l-28 -56q115 -40 186 -137.5t71 -259.5q0 -137 -76 -224t-203 -87q-116 0 -195.5 78t-79.5 194q0 118 76.5 195t195.5 77q64 0 119 -30
t90 -87l5 2q-47 167 -214 228l-30 -61q-8 -11 -18 -5zM312 476q-94 0 -150 -59t-56 -153q0 -91 60 -151.5t149 -60.5q91 0 150 61.5t59 150.5q0 91 -62.5 151.5t-149.5 60.5z" />
    <glyph glyph-name="ntilde" unicode="&#xf1;" horiz-adv-x="599" 
d="M60 14v518q0 13 14 13h32q13 0 13 -13l3 -56l4 -2q73 79 186 79q109 0 173 -62t64 -181v-296q0 -14 -13 -14h-40q-13 0 -13 14v292q0 90 -43.5 138.5t-127.5 48.5q-114 0 -186 -91v-388q0 -14 -14 -14h-38q-14 0 -14 14zM447 687l22 -26q6 -7 0 -13q-37 -45 -100 -45
q-34 0 -77 24t-65 24q-24 0 -46 -20q-8 -8 -15 -1l-20 20q-7 7 -1 15q32 41 83 41q34 0 77 -24t64 -24q39 0 66 28q6 6 12 1z" />
    <glyph glyph-name="ograve" unicode="&#xf2;" 
d="M321 493q-94 0 -154 -63t-60 -158q0 -94 60 -157t154 -63q95 0 155 63t60 157q0 95 -60 158t-155 63zM40 272q0 121 81 201t200 80q121 0 201.5 -79.5t80.5 -201.5q0 -121 -80.5 -200.5t-201.5 -79.5q-119 0 -200 79.5t-81 200.5zM222 779l38 15q10 4 16 -9l49 -151
q4 -11 -10 -17l-30 -7q-11 -3 -16 11l-55 140q-5 12 8 18z" />
    <glyph glyph-name="oacute" unicode="&#xf3;" 
d="M321 493q-94 0 -154 -63t-60 -158q0 -94 60 -157t154 -63q95 0 155 63t60 157q0 95 -60 158t-155 63zM40 272q0 121 81 201t200 80q121 0 201.5 -79.5t80.5 -201.5q0 -121 -80.5 -200.5t-201.5 -79.5q-119 0 -200 79.5t-81 200.5zM380 794l37 -15q13 -6 8 -18l-55 -140
q-6 -14 -18 -11l-28 7q-14 6 -10 17l49 151q6 14 17 9z" />
    <glyph glyph-name="ocircumflex" unicode="&#xf4;" 
d="M321 493q-94 0 -154 -63t-60 -158q0 -94 60 -157t154 -63q95 0 155 63t60 157q0 95 -60 158t-155 63zM40 272q0 121 81 201t200 80q121 0 201.5 -79.5t80.5 -201.5q0 -121 -80.5 -200.5t-201.5 -79.5q-119 0 -200 79.5t-81 200.5zM462 632l-10 -17q-7 -12 -19 -7l-112 55
l-112 -54q-12 -5 -19 7l-10 16q-6 12 2 20l130 76q6 2 9 2q2 0 8 -2l131 -76q8 -8 2 -20z" />
    <glyph glyph-name="otilde" unicode="&#xf5;" 
d="M321 493q-94 0 -154 -63t-60 -158q0 -94 60 -157t154 -63q95 0 155 63t60 157q0 95 -60 158t-155 63zM40 272q0 121 81 201t200 80q121 0 201.5 -79.5t80.5 -201.5q0 -121 -80.5 -200.5t-201.5 -79.5q-119 0 -200 79.5t-81 200.5zM471 687l22 -26q6 -7 0 -13
q-37 -45 -100 -45q-34 0 -77 24t-65 24q-24 0 -46 -20q-8 -8 -15 -1l-20 20q-7 7 -1 15q32 41 83 41q34 0 77 -24t64 -24q39 0 66 28q6 6 12 1z" />
    <glyph glyph-name="odieresis" unicode="&#xf6;" 
d="M321 493q-94 0 -154 -63t-60 -158q0 -94 60 -157t154 -63q95 0 155 63t60 157q0 95 -60 158t-155 63zM40 272q0 121 81 201t200 80q121 0 201.5 -79.5t80.5 -201.5q0 -121 -80.5 -200.5t-201.5 -79.5q-119 0 -200 79.5t-81 200.5zM212 610q-23 0 -40 16.5t-17 39.5
t17 39.5t40 16.5t40 -16.5t17 -39.5t-17 -39.5t-40 -16.5zM431 610q-23 0 -40 16.5t-17 39.5t17 39.5t40 16.5t40 -16.5t17 -39.5t-17 -39.5t-40 -16.5z" />
    <glyph glyph-name="divide" unicode="&#xf7;" horiz-adv-x="398" 
d="M144 147q0 23 16 39t39 16t39 -16t16 -39t-16 -39t-39 -16t-39 16t-16 39zM144 424q0 23 16 39t39 16t39 -16t16 -39t-16 -39t-39 -16t-39 16t-16 39zM73 315h251q14 0 14 -13v-34q0 -13 -14 -13h-251q-13 0 -13 13v34q0 13 13 13z" />
    <glyph glyph-name="oslash" unicode="&#xf8;" 
d="M40 272q0 121 81 201t200 80q75 0 144 -37l29 40q7 10 18 3l29 -17q11 -8 3 -20l-30 -42q89 -81 89 -208q0 -121 -80.5 -200.5t-201.5 -79.5q-74 0 -137 33l-30 -42q-5 -11 -18 -2l-28 17q-10 8 -3 18l30 42q-95 81 -95 214zM172 109l257 357q-49 27 -108 27
q-94 0 -154 -63t-60 -158q0 -100 65 -163zM477 429l-257 -354q48 -23 101 -23q95 0 155 63t60 157q0 93 -59 157z" />
    <glyph glyph-name="ugrave" unicode="&#xf9;" horiz-adv-x="599" 
d="M63 545h40q13 0 13 -13v-289q0 -93 43.5 -142t127.5 -49q113 0 186 92v388q0 13 14 13h39q13 0 13 -13v-519q0 -13 -13 -13h-33q-13 0 -13 13l-3 57l-4 2q-75 -80 -186 -80q-110 0 -173.5 64t-63.5 183v293q0 13 13 13zM222 779l38 15q10 4 16 -9l49 -151q4 -11 -10 -17
l-30 -7q-11 -3 -16 11l-55 140q-5 12 8 18z" />
    <glyph glyph-name="uacute" unicode="&#xfa;" horiz-adv-x="599" 
d="M63 545h40q13 0 13 -13v-289q0 -93 43.5 -142t127.5 -49q113 0 186 92v388q0 13 14 13h39q13 0 13 -13v-519q0 -13 -13 -13h-33q-13 0 -13 13l-3 57l-4 2q-75 -80 -186 -80q-110 0 -173.5 64t-63.5 183v293q0 13 13 13zM340 794l37 -15q13 -6 8 -18l-55 -140
q-6 -14 -18 -11l-28 7q-14 6 -10 17l49 151q6 14 17 9z" />
    <glyph glyph-name="ucircumflex" unicode="&#xfb;" horiz-adv-x="599" 
d="M63 545h40q13 0 13 -13v-289q0 -93 43.5 -142t127.5 -49q113 0 186 92v388q0 13 14 13h39q13 0 13 -13v-519q0 -13 -13 -13h-33q-13 0 -13 13l-3 57l-4 2q-75 -80 -186 -80q-110 0 -173.5 64t-63.5 183v293q0 13 13 13zM440 632l-10 -17q-7 -12 -19 -7l-112 55l-112 -54
q-12 -5 -19 7l-10 16q-6 12 2 20l130 76q6 2 9 2q2 0 8 -2l131 -76q8 -8 2 -20z" />
    <glyph glyph-name="udieresis" unicode="&#xfc;" horiz-adv-x="599" 
d="M63 545h40q13 0 13 -13v-289q0 -93 43.5 -142t127.5 -49q113 0 186 92v388q0 13 14 13h39q13 0 13 -13v-519q0 -13 -13 -13h-33q-13 0 -13 13l-3 57l-4 2q-75 -80 -186 -80q-110 0 -173.5 64t-63.5 183v293q0 13 13 13zM190 610q-23 0 -40 16.5t-17 39.5t17 39.5t40 16.5
t40 -16.5t17 -39.5t-17 -39.5t-40 -16.5zM409 610q-23 0 -40 16.5t-17 39.5t17 39.5t40 16.5t40 -16.5t17 -39.5t-17 -39.5t-40 -16.5z" />
    <glyph glyph-name="yacute" unicode="&#xfd;" horiz-adv-x="603" 
d="M507 545h52q11 0 7 -10l-233 -572q-24 -56 -65 -91t-97 -35q-6 0 -20 2q-12 2 -12 13v36q0 11 10 11q3 0 8 -0.5t8 -0.5q36 0 65 21.5t41 55.5l11 30l-245 530q-4 10 7 10h54q10 0 13 -10l200 -447h10l173 447q4 10 13 10zM345 794l37 -15q13 -6 8 -18l-55 -140
q-6 -14 -18 -11l-28 7q-14 6 -10 17l49 151q6 14 17 9z" />
    <glyph glyph-name="thorn" unicode="&#xfe;" horiz-adv-x="641" 
d="M112 -177h-39q-13 0 -13 13v863q0 13 13 13h39q14 0 14 -13v-226q80 80 199 80t197.5 -78t78.5 -202q0 -125 -78.5 -203t-197.5 -78q-120 0 -199 79v-235q0 -13 -14 -13zM126 402v-259q33 -43 86 -67t113 -24q93 0 151 61.5t58 159.5t-58 159t-151 61q-61 0 -113.5 -23.5
t-85.5 -67.5z" />
    <glyph glyph-name="ydieresis" unicode="&#xff;" horiz-adv-x="603" 
d="M507 545h52q11 0 7 -10l-233 -572q-24 -56 -65 -91t-97 -35q-6 0 -20 2q-12 2 -12 13v36q0 11 10 11q3 0 8 -0.5t8 -0.5q36 0 65 21.5t41 55.5l11 30l-245 530q-4 10 7 10h54q10 0 13 -10l200 -447h10l173 447q4 10 13 10zM192 610q-23 0 -40 16.5t-17 39.5t17 39.5
t40 16.5t40 -16.5t17 -39.5t-17 -39.5t-40 -16.5zM411 610q-23 0 -40 16.5t-17 39.5t17 39.5t40 16.5t40 -16.5t17 -39.5t-17 -39.5t-40 -16.5z" />
    <glyph glyph-name="Amacron" unicode="&#x100;" horiz-adv-x="640" 
d="M283 545h78q12 0 16 -10l227 -521q2 -5 0 -9.5t-7 -4.5h-47q-11 0 -15 10l-45 106h-337l-46 -106q-3 -10 -15 -10h-48q-13 0 -7 14l230 520q5 11 16 11zM312 489l-134 -313h287l-134 313h-19zM158 645v30q0 13 13 13h297q14 0 14 -13v-30q0 -13 -14 -13h-297
q-13 0 -13 13z" />
    <glyph glyph-name="amacron" unicode="&#x101;" horiz-adv-x="593" 
d="M451 157v139l-237 -34q-53 -9 -83 -34.5t-30 -67.5q0 -53 40.5 -80.5t96.5 -27.5q139 0 213 105zM466 86h-5q-92 -94 -221 -94q-98 0 -151.5 47.5t-53.5 120.5q0 67 48 109t123 52l245 32v25q0 53 -42 84t-108 31q-114 0 -192 -61q-9 -7 -14 1l-23 32q-5 8 2 14
q91 74 227 74q92 0 154 -45.5t62 -129.5v-201q0 -71 30 -135l7 -15q6 -11 -4 -15l-32 -14q-14 -6 -19 5zM134 645v30q0 13 13 13h297q14 0 14 -13v-30q0 -13 -14 -13h-297q-13 0 -13 13z" />
    <glyph glyph-name="Abreve" unicode="&#x102;" horiz-adv-x="640" 
d="M283 545h78q12 0 16 -10l227 -521q2 -5 0 -9.5t-7 -4.5h-47q-11 0 -15 10l-45 106h-337l-46 -106q-3 -10 -15 -10h-48q-13 0 -7 14l230 520q5 11 16 11zM312 489l-134 -313h287l-134 313h-19zM192 707l31 13q11 5 17 -5q24 -47 81 -47q56 0 80 47q6 10 17 5l31 -13
q10 -4 5 -17q-37 -79 -133 -79q-95 0 -134 79q-5 13 5 17z" />
    <glyph glyph-name="abreve" unicode="&#x103;" horiz-adv-x="593" 
d="M451 157v139l-237 -34q-53 -9 -83 -34.5t-30 -67.5q0 -53 40.5 -80.5t96.5 -27.5q139 0 213 105zM466 86h-5q-92 -94 -221 -94q-98 0 -151.5 47.5t-53.5 120.5q0 67 48 109t123 52l245 32v25q0 53 -42 84t-108 31q-114 0 -192 -61q-9 -7 -14 1l-23 32q-5 8 2 14
q91 74 227 74q92 0 154 -45.5t62 -129.5v-201q0 -71 30 -135l7 -15q6 -11 -4 -15l-32 -14q-14 -6 -19 5zM168 707l31 13q11 5 17 -5q24 -47 81 -47q56 0 80 47q6 10 17 5l31 -13q10 -4 5 -17q-37 -79 -133 -79q-95 0 -134 79q-5 13 5 17z" />
    <glyph glyph-name="Aogonek" unicode="&#x104;" horiz-adv-x="640" 
d="M283 545h78q12 0 16 -10l227 -521q5 -11 -7 -14q-48 -13 -48 -60t60 -64q14 -6 10 -15l-7 -27q-3 -12 -16 -9q-104 21 -104 115q0 51 40 75l-42 101h-337l-46 -106q-3 -10 -15 -10h-48q-13 0 -7 14l230 520q5 11 16 11zM312 489l-134 -313h287l-134 313h-19z" />
    <glyph glyph-name="aogonek" unicode="&#x105;" horiz-adv-x="593" 
d="M466 86h-5q-92 -94 -221 -94q-98 0 -151.5 47.5t-53.5 120.5q0 67 48 109t123 52l245 32v25q0 53 -42 84t-108 31q-114 0 -192 -61q-9 -7 -14 1l-23 32q-5 8 2 14q91 74 227 74q92 0 154 -45.5t62 -129.5v-201q0 -71 30 -135l7 -15q6 -11 -4 -15l-34 -15q-26 -12 -26 -51
q0 -50 60 -67q14 -6 10 -15l-7 -27q-3 -12 -16 -9q-52 9 -78 41t-26 77q0 58 52 91zM451 157v139l-237 -34q-53 -9 -83 -34.5t-30 -67.5q0 -53 40.5 -80.5t96.5 -27.5q139 0 213 105z" />
    <glyph glyph-name="Cacute" unicode="&#x106;" horiz-adv-x="585" 
d="M322 553q139 0 224 -105q4 -4 3.5 -9.5t-5.5 -8.5l-30 -24q-10 -8 -18 2q-66 85 -174 85q-93 0 -154 -63t-61 -157t61 -157.5t154 -63.5q109 0 175 84q8 10 18 2l29 -24q11 -8 2 -18q-84 -104 -224 -104q-121 0 -201.5 79.5t-80.5 201.5q0 120 81.5 200t200.5 80z
M390 794l37 -15q13 -6 8 -18l-55 -140q-6 -14 -18 -11l-28 7q-14 6 -10 17l49 151q6 14 17 9z" />
    <glyph glyph-name="cacute" unicode="&#x107;" horiz-adv-x="585" 
d="M322 553q139 0 224 -105q4 -4 3.5 -9.5t-5.5 -8.5l-30 -24q-10 -8 -18 2q-66 85 -174 85q-93 0 -154 -63t-61 -157t61 -157.5t154 -63.5q109 0 175 84q8 10 18 2l29 -24q11 -8 2 -18q-84 -104 -224 -104q-121 0 -201.5 79.5t-80.5 201.5q0 120 81.5 200t200.5 80z
M380 794l37 -15q13 -6 8 -18l-55 -140q-6 -14 -18 -11l-28 7q-14 6 -10 17l49 151q6 14 17 9z" />
    <glyph glyph-name="Ccircumflex" unicode="&#x108;" horiz-adv-x="585" 
d="M322 553q139 0 224 -105q4 -4 3.5 -9.5t-5.5 -8.5l-30 -24q-10 -8 -18 2q-66 85 -174 85q-93 0 -154 -63t-61 -157t61 -157.5t154 -63.5q109 0 175 84q8 10 18 2l29 -24q11 -8 2 -18q-84 -104 -224 -104q-121 0 -201.5 79.5t-80.5 201.5q0 120 81.5 200t200.5 80z
M461 632l-10 -17q-7 -12 -19 -7l-112 55l-112 -54q-12 -5 -19 7l-10 16q-6 12 2 20l130 76q6 2 9 2q2 0 8 -2l131 -76q8 -8 2 -20z" />
    <glyph glyph-name="ccircumflex" unicode="&#x109;" horiz-adv-x="585" 
d="M322 553q139 0 224 -105q4 -4 3.5 -9.5t-5.5 -8.5l-30 -24q-10 -8 -18 2q-66 85 -174 85q-93 0 -154 -63t-61 -157t61 -157.5t154 -63.5q109 0 175 84q8 10 18 2l29 -24q11 -8 2 -18q-84 -104 -224 -104q-121 0 -201.5 79.5t-80.5 201.5q0 120 81.5 200t200.5 80z
M460 632l-10 -17q-7 -12 -19 -7l-112 55l-112 -54q-12 -5 -19 7l-10 16q-6 12 2 20l130 76q6 2 9 2q2 0 8 -2l131 -76q8 -8 2 -20z" />
    <glyph glyph-name="Cdotaccent" unicode="&#x10a;" horiz-adv-x="585" 
d="M322 553q139 0 224 -105q4 -4 3.5 -9.5t-5.5 -8.5l-30 -24q-10 -8 -18 2q-66 85 -174 85q-93 0 -154 -63t-61 -157t61 -157.5t154 -63.5q109 0 175 84q8 10 18 2l29 -24q11 -8 2 -18q-84 -104 -224 -104q-121 0 -201.5 79.5t-80.5 201.5q0 120 81.5 200t200.5 80z
M322 607q-25 0 -44 18.5t-19 44.5t19 44t44 18q26 0 45 -18t19 -44t-19 -44.5t-45 -18.5z" />
    <glyph glyph-name="cdotaccent" unicode="&#x10b;" horiz-adv-x="585" 
d="M322 553q139 0 224 -105q4 -4 3.5 -9.5t-5.5 -8.5l-30 -24q-10 -8 -18 2q-66 85 -174 85q-93 0 -154 -63t-61 -157t61 -157.5t154 -63.5q109 0 175 84q8 10 18 2l29 -24q11 -8 2 -18q-84 -104 -224 -104q-121 0 -201.5 79.5t-80.5 201.5q0 120 81.5 200t200.5 80z
M322 607q-25 0 -44 18.5t-19 44.5t19 44t44 18q26 0 45 -18t19 -44t-19 -44.5t-45 -18.5z" />
    <glyph glyph-name="Ccaron" unicode="&#x10c;" horiz-adv-x="585" 
d="M322 553q139 0 224 -105q4 -4 3.5 -9.5t-5.5 -8.5l-30 -24q-10 -8 -18 2q-66 85 -174 85q-93 0 -154 -63t-61 -157t61 -157.5t154 -63.5q109 0 175 84q8 10 18 2l29 -24q11 -8 2 -18q-84 -104 -224 -104q-121 0 -201.5 79.5t-80.5 201.5q0 120 81.5 200t200.5 80z
M178 702l10 17q7 12 19 7l112 -55l112 54q12 5 19 -7l10 -16q6 -12 -2 -20l-130 -76q-6 -2 -9 -2q-2 0 -8 2l-131 76q-8 8 -2 20z" />
    <glyph glyph-name="ccaron" unicode="&#x10d;" horiz-adv-x="585" 
d="M322 553q139 0 224 -105q4 -4 3.5 -9.5t-5.5 -8.5l-30 -24q-10 -8 -18 2q-66 85 -174 85q-93 0 -154 -63t-61 -157t61 -157.5t154 -63.5q109 0 175 84q8 10 18 2l29 -24q11 -8 2 -18q-84 -104 -224 -104q-121 0 -201.5 79.5t-80.5 201.5q0 120 81.5 200t200.5 80z
M190 702l10 17q7 12 19 7l112 -55l112 54q12 5 19 -7l10 -16q6 -12 -2 -20l-130 -76q-6 -2 -9 -2q-2 0 -8 2l-131 76q-8 8 -2 20z" />
    <glyph glyph-name="Dcaron" unicode="&#x10e;" horiz-adv-x="598" 
d="M126 485v-424h150q93 0 153.5 59.5t60.5 152.5t-60.5 152.5t-153.5 59.5h-150zM73 545h203q121 0 201.5 -76.5t80.5 -195.5q0 -120 -80.5 -196.5t-201.5 -76.5h-203q-13 0 -13 13v518q0 14 13 14zM129 702l10 17q7 12 19 7l112 -55l112 54q12 5 19 -7l10 -16
q6 -12 -2 -20l-130 -76q-6 -2 -9 -2q-2 0 -8 2l-131 76q-8 8 -2 20z" />
    <glyph glyph-name="dcaron" unicode="&#x10f;" horiz-adv-x="729" 
d="M515 144v257q-70 92 -199 92q-93 0 -151.5 -61t-58.5 -159q0 -99 58.5 -160t151.5 -61q129 0 199 92zM528 722h40q13 0 13 -13v-696q0 -13 -13 -13h-34q-13 0 -13 13l-2 58l-4 1q-80 -80 -199 -80t-197.5 78t-78.5 203q0 124 78.5 202t197.5 78t199 -80v236q0 13 13 13z
M728 634l-39 -92q-5 -9 -15 -6l-20 6q-10 2 -6 15l15 52q-35 9 -35 49q0 23 15 37t37 14q21 0 36.5 -14.5t15.5 -36.5q0 -13 -4 -24z" />
    <glyph glyph-name="Dcroat" unicode="&#x110;" horiz-adv-x="608" 
d="M83 545h203q121 0 201.5 -76.5t80.5 -195.5q0 -120 -80.5 -196.5t-201.5 -76.5h-203q-13 0 -13 13v238h-39q-13 0 -13 13v32q0 13 13 13h39v222q0 14 13 14zM136 485v-176h162q14 0 14 -13v-32q0 -13 -14 -13h-162v-190h150q93 0 153.5 59.5t60.5 152.5t-60.5 152.5
t-153.5 59.5h-150z" />
    <glyph glyph-name="dslash" unicode="&#x111;" horiz-adv-x="641" 
d="M528 722h40q13 0 13 -13v-56h61q14 0 14 -13v-30q0 -13 -14 -13h-61v-584q0 -13 -13 -13h-34q-13 0 -13 13l-2 58l-4 1q-80 -80 -199 -80t-197.5 78t-78.5 203q0 124 78.5 202t197.5 78t199 -80v124h-124q-13 0 -13 13v30q0 13 13 13h124v56q0 13 13 13zM515 144v257
q-70 92 -199 92q-93 0 -151.5 -61t-58.5 -159q0 -99 58.5 -160t151.5 -61q129 0 199 92z" />
    <glyph glyph-name="Emacron" unicode="&#x112;" horiz-adv-x="534" 
d="M73 545h388q13 0 13 -13v-34q0 -13 -13 -13h-335v-168h316q13 0 13 -13v-34q0 -13 -13 -13h-316v-197h345q13 0 13 -12v-35q0 -13 -13 -13h-398q-13 0 -13 13v519q0 13 13 13zM108 645v30q0 13 13 13h297q14 0 14 -13v-30q0 -13 -14 -13h-297q-13 0 -13 13z" />
    <glyph glyph-name="emacron" unicode="&#x113;" horiz-adv-x="638" 
d="M40 272q0 122 80.5 201.5t203.5 79.5q119 0 196.5 -79.5t77.5 -201.5v-18q0 -12 -12 -12h-478q8 -83 67.5 -136.5t153.5 -53.5q97 0 186 65q10 7 18 -2l20 -27q9 -11 -3 -20q-95 -76 -221 -76q-128 0 -208.5 79t-80.5 201zM324 493q-89 0 -149 -53.5t-68 -137.5h425
q-8 83 -65 137t-143 54zM167 645v30q0 13 13 13h297q14 0 14 -13v-30q0 -13 -14 -13h-297q-13 0 -13 13z" />
    <glyph glyph-name="Ebreve" unicode="&#x114;" horiz-adv-x="534" 
d="M73 545h388q13 0 13 -13v-34q0 -13 -13 -13h-335v-168h316q13 0 13 -13v-34q0 -13 -13 -13h-316v-197h345q13 0 13 -12v-35q0 -13 -13 -13h-398q-13 0 -13 13v519q0 13 13 13zM148 707l31 13q11 5 17 -5q24 -47 81 -47q56 0 80 47q6 10 17 5l31 -13q10 -4 5 -17
q-37 -79 -133 -79q-95 0 -134 79q-5 13 5 17z" />
    <glyph glyph-name="ebreve" unicode="&#x115;" horiz-adv-x="638" 
d="M40 272q0 122 80.5 201.5t203.5 79.5q119 0 196.5 -79.5t77.5 -201.5v-18q0 -12 -12 -12h-478q8 -83 67.5 -136.5t153.5 -53.5q97 0 186 65q10 7 18 -2l20 -27q9 -11 -3 -20q-95 -76 -221 -76q-128 0 -208.5 79t-80.5 201zM324 493q-89 0 -149 -53.5t-68 -137.5h425
q-8 83 -65 137t-143 54zM201 707l31 13q11 5 17 -5q24 -47 81 -47q56 0 80 47q6 10 17 5l31 -13q10 -4 5 -17q-37 -79 -133 -79q-95 0 -134 79q-5 13 5 17z" />
    <glyph glyph-name="Edotaccent" unicode="&#x116;" horiz-adv-x="534" 
d="M73 545h388q13 0 13 -13v-34q0 -13 -13 -13h-335v-168h316q13 0 13 -13v-34q0 -13 -13 -13h-316v-197h345q13 0 13 -12v-35q0 -13 -13 -13h-398q-13 0 -13 13v519q0 13 13 13zM277 607q-25 0 -44 18.5t-19 44.5t19 44t44 18q26 0 45 -18t19 -44t-19 -44.5t-45 -18.5z" />
    <glyph glyph-name="edotaccent" unicode="&#x117;" horiz-adv-x="638" 
d="M40 272q0 122 80.5 201.5t203.5 79.5q119 0 196.5 -79.5t77.5 -201.5v-18q0 -12 -12 -12h-478q8 -83 67.5 -136.5t153.5 -53.5q97 0 186 65q10 7 18 -2l20 -27q9 -11 -3 -20q-95 -76 -221 -76q-128 0 -208.5 79t-80.5 201zM324 493q-89 0 -149 -53.5t-68 -137.5h425
q-8 83 -65 137t-143 54zM329 607q-25 0 -44 18.5t-19 44.5t19 44t44 18q26 0 45 -18t19 -44t-19 -44.5t-45 -18.5z" />
    <glyph glyph-name="Eogonek" unicode="&#x118;" horiz-adv-x="534" 
d="M73 545h388q13 0 13 -13v-34q0 -13 -13 -13h-335v-168h316q13 0 13 -13v-34q0 -13 -13 -13h-316v-197h345q13 0 13 -12v-34q0 -12 -13 -16q-33 -10 -33 -56q0 -49 60 -66q14 -6 10 -15l-7 -27q-3 -12 -16 -9q-52 9 -78 40.5t-26 76.5q0 32 21 58h-329q-13 0 -13 13v519
q0 13 13 13z" />
    <glyph glyph-name="eogonek" unicode="&#x119;" horiz-adv-x="638" 
d="M40 272q0 122 80.5 201.5t203.5 79.5q119 0 196.5 -79.5t77.5 -201.5v-18q0 -12 -12 -12h-478q8 -83 67.5 -136.5t153.5 -53.5q97 0 186 65q10 7 18 -2l20 -27q9 -11 -3 -20l-20 -15q-25 -19 -25 -50q0 -50 60 -67q14 -6 10 -15l-7 -27q-3 -12 -16 -9q-51 9 -76.5 39.5
t-25.5 68.5q0 12 1 19q-58 -20 -122 -20q-128 0 -208.5 79t-80.5 201zM324 493q-89 0 -149 -53.5t-68 -137.5h425q-8 83 -65 137t-143 54z" />
    <glyph glyph-name="Ecaron" unicode="&#x11a;" horiz-adv-x="534" 
d="M73 545h388q13 0 13 -13v-34q0 -13 -13 -13h-335v-168h316q13 0 13 -13v-34q0 -13 -13 -13h-316v-197h345q13 0 13 -12v-35q0 -13 -13 -13h-398q-13 0 -13 13v519q0 13 13 13zM135 702l10 17q7 12 19 7l112 -55l112 54q12 5 19 -7l10 -16q6 -12 -2 -20l-130 -76
q-6 -2 -9 -2q-2 0 -8 2l-131 76q-8 8 -2 20z" />
    <glyph glyph-name="ecaron" unicode="&#x11b;" horiz-adv-x="638" 
d="M40 272q0 122 80.5 201.5t203.5 79.5q119 0 196.5 -79.5t77.5 -201.5v-18q0 -12 -12 -12h-478q8 -83 67.5 -136.5t153.5 -53.5q97 0 186 65q10 7 18 -2l20 -27q9 -11 -3 -20q-95 -76 -221 -76q-128 0 -208.5 79t-80.5 201zM324 493q-89 0 -149 -53.5t-68 -137.5h425
q-8 83 -65 137t-143 54zM188 702l10 17q7 12 19 7l112 -55l112 54q12 5 19 -7l10 -16q6 -12 -2 -20l-130 -76q-6 -2 -9 -2q-2 0 -8 2l-131 76q-8 8 -2 20z" />
    <glyph glyph-name="Gcircumflex" unicode="&#x11c;" horiz-adv-x="602" 
d="M500 294h39q13 0 13 -13v-268q0 -13 -13 -13h-26q-14 0 -15 13l-7 43q-68 -64 -169 -64q-120 0 -201 80t-81 200q0 122 80.5 201.5t201.5 79.5q140 0 224 -104q7 -10 -2 -18l-28 -24q-10 -9 -19 2q-65 84 -175 84q-92 0 -153 -63.5t-61 -157.5t61 -157t153 -63
q93 0 164 74v155q0 13 14 13zM466 632l-10 -17q-7 -12 -19 -7l-112 55l-112 -54q-12 -5 -19 7l-10 16q-6 12 2 20l130 76q6 2 9 2q2 0 8 -2l131 -76q8 -8 2 -20z" />
    <glyph glyph-name="gcircumflex" unicode="&#x11d;" horiz-adv-x="641" 
d="M515 144v257q-34 44 -86 68t-112 24q-93 0 -151.5 -61.5t-58.5 -159.5q0 -97 58.5 -158.5t151.5 -61.5q128 0 198 92zM535 545h33q13 0 13 -13v-460q0 -130 -70.5 -209.5t-199.5 -79.5q-146 0 -231 91q-4 4 -3.5 9.5t5.5 8.5l28 27q9 7 18 -2q68 -74 183 -74
q96 0 151.5 57t55.5 168h-6q-76 -76 -195 -76q-120 0 -198.5 78t-78.5 202q0 125 78.5 203t198.5 78q118 0 198 -80l4 2l2 57q1 13 14 13zM464 632l-10 -17q-7 -12 -19 -7l-112 55l-112 -54q-12 -5 -19 7l-10 16q-6 12 2 20l130 76q6 2 9 2q2 0 8 -2l131 -76q8 -8 2 -20z
" />
    <glyph glyph-name="Gbreve" unicode="&#x11e;" horiz-adv-x="602" 
d="M500 294h39q13 0 13 -13v-268q0 -13 -13 -13h-26q-14 0 -15 13l-7 43q-68 -64 -169 -64q-120 0 -201 80t-81 200q0 122 80.5 201.5t201.5 79.5q140 0 224 -104q7 -10 -2 -18l-28 -24q-10 -9 -19 2q-65 84 -175 84q-92 0 -153 -63.5t-61 -157.5t61 -157t153 -63
q93 0 164 74v155q0 13 14 13zM192 707l31 13q11 5 17 -5q24 -47 81 -47q56 0 80 47q6 10 17 5l31 -13q10 -4 5 -17q-37 -79 -133 -79q-95 0 -134 79q-5 13 5 17z" />
    <glyph glyph-name="gbreve" unicode="&#x11f;" horiz-adv-x="641" 
d="M515 144v257q-34 44 -86 68t-112 24q-93 0 -151.5 -61.5t-58.5 -159.5q0 -97 58.5 -158.5t151.5 -61.5q128 0 198 92zM535 545h33q13 0 13 -13v-460q0 -130 -70.5 -209.5t-199.5 -79.5q-146 0 -231 91q-4 4 -3.5 9.5t5.5 8.5l28 27q9 7 18 -2q68 -74 183 -74
q96 0 151.5 57t55.5 168h-6q-76 -76 -195 -76q-120 0 -198.5 78t-78.5 202q0 125 78.5 203t198.5 78q118 0 198 -80l4 2l2 57q1 13 14 13zM192 707l31 13q11 5 17 -5q24 -47 81 -47q56 0 80 47q6 10 17 5l31 -13q10 -4 5 -17q-37 -79 -133 -79q-95 0 -134 79q-5 13 5 17z
" />
    <glyph glyph-name="Gdotaccent" unicode="&#x120;" horiz-adv-x="602" 
d="M500 294h39q13 0 13 -13v-268q0 -13 -13 -13h-26q-14 0 -15 13l-7 43q-68 -64 -169 -64q-120 0 -201 80t-81 200q0 122 80.5 201.5t201.5 79.5q140 0 224 -104q7 -10 -2 -18l-28 -24q-10 -9 -19 2q-65 84 -175 84q-92 0 -153 -63.5t-61 -157.5t61 -157t153 -63
q93 0 164 74v155q0 13 14 13zM325 607q-25 0 -44 18.5t-19 44.5t19 44t44 18q26 0 45 -18t19 -44t-19 -44.5t-45 -18.5z" />
    <glyph glyph-name="gdotaccent" unicode="&#x121;" horiz-adv-x="641" 
d="M515 144v257q-34 44 -86 68t-112 24q-93 0 -151.5 -61.5t-58.5 -159.5q0 -97 58.5 -158.5t151.5 -61.5q128 0 198 92zM535 545h33q13 0 13 -13v-460q0 -130 -70.5 -209.5t-199.5 -79.5q-146 0 -231 91q-4 4 -3.5 9.5t5.5 8.5l28 27q9 7 18 -2q68 -74 183 -74
q96 0 151.5 57t55.5 168h-6q-76 -76 -195 -76q-120 0 -198.5 78t-78.5 202q0 125 78.5 203t198.5 78q118 0 198 -80l4 2l2 57q1 13 14 13zM327 607q-25 0 -44 18.5t-19 44.5t19 44t44 18q26 0 45 -18t19 -44t-19 -44.5t-45 -18.5z" />
    <glyph glyph-name="Gcommaaccent" unicode="&#x122;" horiz-adv-x="602" 
d="M500 294h39q13 0 13 -13v-268q0 -13 -13 -13h-26q-14 0 -15 13l-7 43q-68 -64 -169 -64q-120 0 -201 80t-81 200q0 122 80.5 201.5t201.5 79.5q140 0 224 -104q7 -10 -2 -18l-28 -24q-10 -9 -19 2q-65 84 -175 84q-92 0 -153 -63.5t-61 -157.5t61 -157t153 -63
q93 0 164 74v155q0 13 14 13zM373 -132l-40 -98q-3 -9 -16 -6l-22 6q-7 3 -6 16l16 55q-16 5 -26 19.5t-10 32.5q0 24 15.5 39t38.5 15q22 0 38 -15.5t16 -38.5q0 -14 -4 -25z" />
    <glyph glyph-name="gcommaaccent" unicode="&#x123;" horiz-adv-x="641" 
d="M515 144v257q-34 44 -86 68t-112 24q-93 0 -151.5 -61.5t-58.5 -159.5q0 -97 58.5 -158.5t151.5 -61.5q128 0 198 92zM535 545h33q13 0 13 -13v-460q0 -130 -70.5 -209.5t-199.5 -79.5q-146 0 -231 91q-4 4 -3.5 9.5t5.5 8.5l28 27q9 7 18 -2q68 -74 183 -74
q96 0 151.5 57t55.5 168h-6q-76 -76 -195 -76q-120 0 -198.5 78t-78.5 202q0 125 78.5 203t198.5 78q118 0 198 -80l4 2l2 57q1 13 14 13zM275 686l40 98q3 9 16 6l22 -6q7 -3 6 -16l-16 -55q16 -5 26 -19.5t10 -32.5q0 -24 -15.5 -39t-38.5 -15q-22 0 -38 15.5t-16 38.5
q0 14 4 25z" />
    <glyph glyph-name="Hcircumflex" unicode="&#x124;" horiz-adv-x="582" 
d="M73 545h39q14 0 14 -13v-218h340v218q0 13 14 13h38q14 0 14 -13v-519q0 -13 -14 -13h-38q-14 0 -14 13v241h-340v-241q0 -13 -14 -13h-39q-13 0 -13 13v519q0 13 13 13zM432 632l-10 -17q-7 -12 -19 -7l-112 55l-112 -54q-12 -5 -19 7l-10 16q-6 12 2 20l130 76q6 2 9 2
q2 0 8 -2l131 -76q8 -8 2 -20z" />
    <glyph glyph-name="hcircumflex" unicode="&#x125;" horiz-adv-x="599" 
d="M73 722h39q14 0 14 -13v-236q71 80 186 80q108 0 172.5 -63t64.5 -181v-296q0 -13 -13 -13h-40q-13 0 -13 13v292q0 91 -43.5 139.5t-127.5 48.5q-113 0 -186 -92v-388q0 -13 -14 -13h-39q-13 0 -13 13v696q0 13 13 13zM236 779l-10 -17q-7 -12 -19 -7l-112 55l-112 -54
q-12 -5 -19 7l-10 16q-6 12 2 20l130 76q6 2 9 2q2 0 8 -2l131 -76q8 -8 2 -20z" />
    <glyph glyph-name="Hbar" unicode="&#x126;" horiz-adv-x="582" 
d="M73 545h39q14 0 14 -13v-74h330v74q0 13 14 13h38q14 0 14 -13v-74h31q14 0 14 -13v-30q0 -13 -14 -13h-31v-389q0 -13 -14 -13h-38q-14 0 -14 13v241h-330v-241q0 -13 -14 -13h-39q-13 0 -13 13v389h-32q-13 0 -13 13v30q0 13 13 13h32v74q0 13 13 13zM126 314h330v88
h-330v-88z" />
    <glyph glyph-name="hbar" unicode="&#x127;" horiz-adv-x="599" 
d="M60 653v56q0 13 13 13h39q14 0 14 -13v-56h123q14 0 14 -13v-30q0 -13 -14 -13h-123v-124q71 80 186 80q108 0 172.5 -63t64.5 -181v-296q0 -13 -13 -13h-40q-13 0 -13 13v292q0 91 -43.5 139.5t-127.5 48.5q-113 0 -186 -92v-388q0 -13 -14 -13h-39q-13 0 -13 13v584
h-62q-13 0 -13 13v30q0 13 13 13h62z" />
    <glyph glyph-name="Itilde" unicode="&#x128;" horiz-adv-x="186" 
d="M73 545h40q13 0 13 -13v-519q0 -13 -13 -13h-40q-13 0 -13 13v519q0 13 13 13zM234 687l22 -26q6 -7 0 -13q-38 -45 -100 -45q-34 0 -77 24t-65 24q-24 0 -46 -20q-8 -8 -15 -1l-20 20q-7 7 -1 15q32 41 83 41q34 0 77 -24t64 -24q39 0 66 28q6 6 12 1z" />
    <glyph glyph-name="itilde" unicode="&#x129;" horiz-adv-x="186" 
d="M73 545h40q13 0 13 -13v-519q0 -13 -13 -13h-40q-13 0 -13 13v519q0 13 13 13zM234 687l22 -26q6 -7 0 -13q-38 -45 -100 -45q-34 0 -77 24t-65 24q-24 0 -46 -20q-8 -8 -15 -1l-20 20q-7 7 -1 15q32 41 83 41q34 0 77 -24t64 -24q39 0 66 28q6 6 12 1z" />
    <glyph glyph-name="uni012A" unicode="&#x12a;" horiz-adv-x="186" 
d="M73 545h40q13 0 13 -13v-519q0 -13 -13 -13h-40q-13 0 -13 13v519q0 13 13 13zM-43 637v34q0 13 13 13h247q14 0 14 -13v-34q0 -13 -14 -13h-247q-13 0 -13 13z" />
    <glyph glyph-name="imacron" unicode="&#x12b;" horiz-adv-x="186" 
d="M73 545h40q13 0 13 -13v-519q0 -13 -13 -13h-40q-13 0 -13 13v519q0 13 13 13zM-43 637v34q0 13 13 13h247q14 0 14 -13v-34q0 -13 -14 -13h-247q-13 0 -13 13z" />
    <glyph glyph-name="Ibreve" unicode="&#x12c;" horiz-adv-x="186" 
d="M73 545h40q13 0 13 -13v-519q0 -13 -13 -13h-40q-13 0 -13 13v519q0 13 13 13zM-34 707l31 13q11 5 17 -5q24 -47 81 -47q56 0 80 47q6 10 17 5l31 -13q10 -4 5 -17q-37 -79 -133 -79q-95 0 -134 79q-5 13 5 17z" />
    <glyph glyph-name="Iogonek" unicode="&#x12e;" horiz-adv-x="186" 
d="M73 545h40q13 0 13 -13v-519q0 -11 -13 -15q-34 -12 -34 -55q0 -50 60 -67q14 -6 10 -15l-7 -27q-3 -12 -16 -9q-52 9 -78 41t-26 77q0 47 38 79v510q0 13 13 13z" />
    <glyph glyph-name="iogonek" unicode="&#x12f;" horiz-adv-x="186" 
d="M93 614q-25 0 -42.5 17.5t-17.5 43.5q0 25 17.5 42.5t42.5 17.5t42.5 -17.5t17.5 -42.5q0 -26 -17.5 -43.5t-42.5 -17.5zM73 545h40q13 0 13 -13v-519q0 -11 -13 -15q-34 -12 -34 -55q0 -50 60 -67q14 -6 10 -15l-7 -27q-3 -12 -16 -9q-52 9 -78 41t-26 77q0 47 38 79
v510q0 13 13 13z" />
    <glyph glyph-name="Idot" unicode="&#x130;" horiz-adv-x="186" 
d="M93 624q-25 0 -42.5 17.5t-17.5 43.5q0 25 17.5 42.5t42.5 17.5t42.5 -17.5t17.5 -42.5q0 -26 -17.5 -43.5t-42.5 -17.5zM73 545h40q13 0 13 -13v-519q0 -13 -13 -13h-40q-13 0 -13 13v519q0 13 13 13z" />
    <glyph glyph-name="dotlessi" unicode="&#x131;" horiz-adv-x="186" 
d="M73 545h40q13 0 13 -13v-519q0 -13 -13 -13h-40q-13 0 -13 13v519q0 13 13 13z" />
    <glyph glyph-name="Jcircumflex" unicode="&#x134;" horiz-adv-x="371" 
d="M258 545h43q10 0 10 -11v-339q0 -94 -50.5 -144.5t-144.5 -50.5h-62q-14 0 -13 16l2 33q0 11 14 11h61q62 0 94.5 35t32.5 100v338q0 12 13 12zM418 632l-10 -17q-7 -12 -19 -7l-112 55l-112 -54q-12 -5 -19 7l-10 16q-6 12 2 20l130 76q6 2 9 2q2 0 8 -2l131 -76
q8 -8 2 -20z" />
    <glyph glyph-name="jcircumflex" unicode="&#x135;" horiz-adv-x="206" 
d="M93 545h40q13 0 13 -13v-519q0 -80 -45.5 -127t-119.5 -47q-56 0 -98 23q-10 6 -6 16l14 31q4 10 15 5q31 -15 73 -15q101 0 101 113v520q0 13 13 13zM255 632l-10 -17q-7 -12 -19 -7l-112 55l-112 -54q-12 -5 -19 7l-10 16q-6 12 2 20l130 76q6 2 9 2q2 0 8 -2l131 -76
q8 -8 2 -20z" />
    <glyph glyph-name="Kcommaaccent" unicode="&#x136;" horiz-adv-x="550" 
d="M73 545h40q13 0 13 -13v-270l297 275q8 8 18 8h57q10 0 11 -7.5t-4 -11.5l-236 -214l256 -293q14 -19 -6 -19h-54q-12 0 -19 9l-222 261l-98 -81v-176q0 -13 -13 -13h-40q-13 0 -13 13v519q0 13 13 13zM329 -95l-40 -98q-3 -9 -16 -6l-22 6q-7 3 -6 16l16 55
q-16 5 -26 19.5t-10 32.5q0 24 15.5 39t38.5 15q22 0 38 -15.5t16 -38.5q0 -14 -4 -25z" />
    <glyph glyph-name="kcommaaccent" unicode="&#x137;" horiz-adv-x="550" 
d="M73 722h40q13 0 13 -13v-446l298 274q8 8 19 8h58q10 0 10.5 -7.5t-4.5 -11.5l-237 -213l256 -294q5 -4 4 -11.5t-11 -7.5h-55q-9 0 -18 9l-222 262l-98 -81v-177q0 -13 -13 -13h-40q-13 0 -13 13v696q0 13 13 13zM325 -86l-40 -98q-3 -9 -16 -6l-22 6q-7 3 -6 16l16 55
q-16 5 -26 19.5t-10 32.5q0 24 15.5 39t38.5 15q22 0 38 -15.5t16 -38.5q0 -14 -4 -25z" />
    <glyph glyph-name="kgreenlandic" unicode="&#x138;" horiz-adv-x="550" 
d="M73 545h40q13 0 13 -13v-270l297 275q8 8 18 8h57q10 0 11 -7.5t-4 -11.5l-236 -214l256 -293q14 -19 -6 -19h-54q-12 0 -19 9l-222 261l-98 -81v-176q0 -13 -13 -13h-40q-13 0 -13 13v519q0 13 13 13z" />
    <glyph glyph-name="Lacute" unicode="&#x139;" horiz-adv-x="529" 
d="M73 545h40q13 0 13 -13v-472h349q14 0 14 -14v-32q0 -14 -14 -14h-401q-14 0 -14 14v518q0 13 13 13zM146 794l37 -15q13 -6 8 -18l-55 -140q-6 -14 -18 -11l-28 7q-14 6 -10 17l49 151q6 14 17 9z" />
    <glyph glyph-name="lacute" unicode="&#x13a;" horiz-adv-x="186" 
d="M73 722h40q13 0 13 -13v-696q0 -13 -13 -13h-40q-13 0 -13 13v696q0 13 13 13zM146 967l37 -15q13 -6 8 -18l-55 -140q-6 -14 -18 -11l-28 7q-14 6 -10 17l49 151q6 14 17 9z" />
    <glyph glyph-name="Lcommaaccent" unicode="&#x13b;" horiz-adv-x="529" 
d="M73 545h40q13 0 13 -13v-472h349q14 0 14 -14v-32q0 -14 -14 -14h-401q-14 0 -14 14v518q0 13 13 13zM325 -117l-40 -98q-3 -9 -16 -6l-22 6q-7 3 -6 16l16 55q-16 5 -26 19.5t-10 32.5q0 24 15.5 39t38.5 15q22 0 38 -15.5t16 -38.5q0 -14 -4 -25z" />
    <glyph glyph-name="lcommaaccent" unicode="&#x13c;" horiz-adv-x="186" 
d="M73 722h40q13 0 13 -13v-696q0 -13 -13 -13h-40q-13 0 -13 13v696q0 13 13 13zM143 -129l-40 -98q-3 -9 -16 -6l-22 6q-7 3 -6 16l16 55q-16 5 -26 19.5t-10 32.5q0 24 15.5 39t38.5 15q22 0 38 -15.5t16 -38.5q0 -14 -4 -25z" />
    <glyph glyph-name="Lcaron" unicode="&#x13d;" horiz-adv-x="529" 
d="M73 545h40q13 0 13 -13v-472h349q14 0 14 -14v-32q0 -14 -14 -14h-401q-14 0 -14 14v518q0 13 13 13zM393 356l-40 -98q-3 -9 -16 -6l-22 6q-7 3 -6 16l16 55q-16 5 -26 19.5t-10 32.5q0 24 15.5 39t38.5 15q22 0 38 -15.5t16 -38.5q0 -14 -4 -25z" />
    <glyph glyph-name="lcaron" unicode="&#x13e;" horiz-adv-x="255" 
d="M73 722h40q13 0 13 -13v-696q0 -13 -13 -13h-40q-13 0 -13 13v696q0 13 13 13zM267 633l-39 -92q-4 -9 -15 -6l-20 6q-11 1 -6 15l15 52q-35 9 -35 49q0 23 15 37t37 14q21 0 36.5 -14.5t15.5 -36.5q0 -13 -4 -24z" />
    <glyph glyph-name="Ldot" unicode="&#x13f;" horiz-adv-x="529" 
d="M73 545h40q13 0 13 -13v-472h349q14 0 14 -14v-32q0 -14 -14 -14h-401q-14 0 -14 14v518q0 13 13 13zM271 329q0 23 16 39t39 16t39 -16t16 -39t-16 -39t-39 -16t-39 16t-16 39z" />
    <glyph glyph-name="ldot" unicode="&#x140;" horiz-adv-x="288" 
d="M73 722h40q13 0 13 -13v-696q0 -13 -13 -13h-40q-13 0 -13 13v696q0 13 13 13zM176 363q0 23 16 39t39 16t39 -16t16 -39t-16 -39t-39 -16t-39 16t-16 39z" />
    <glyph glyph-name="Lslash" unicode="&#x141;" horiz-adv-x="549" 
d="M93 545h40q13 0 13 -13v-219l118 32q11 4 17 -9l8 -30q5 -11 -10 -17l-133 -35v-194h349q14 0 14 -14v-32q0 -14 -14 -14h-401q-14 0 -14 14v222l-40 -10q-10 -4 -16 9l-8 30q-3 12 10 16l54 14v237q0 13 13 13z" />
    <glyph glyph-name="lslash" unicode="&#x142;" horiz-adv-x="205" 
d="M18 276l-15 26q-5 14 5 18l62 35v354q0 13 13 13h40q13 0 13 -13v-316l43 25q11 7 19 -4l15 -26q7 -12 -6 -19l-71 -40v-316q0 -13 -13 -13h-40q-13 0 -13 13v278l-34 -19q-10 -7 -18 4z" />
    <glyph glyph-name="Nacute" unicode="&#x143;" horiz-adv-x="613" 
d="M540 0h-46q-12 0 -18 9l-185 233l-163 216l-7 -2l5 -202v-241q0 -13 -14 -13h-39q-13 0 -13 14v518q0 13 13 13h44q14 0 22 -11l198 -247l148 -198l7 1l-5 202v240q0 13 13 13h40q13 0 13 -13v-519q0 -13 -13 -13zM355 794l37 -15q13 -6 8 -18l-55 -140q-6 -14 -18 -11
l-28 7q-14 6 -10 17l49 151q6 14 17 9z" />
    <glyph glyph-name="nacute" unicode="&#x144;" horiz-adv-x="599" 
d="M60 14v518q0 13 14 13h32q13 0 13 -13l3 -56l4 -2q73 79 186 79q109 0 173 -62t64 -181v-296q0 -14 -13 -14h-40q-13 0 -13 14v292q0 90 -43.5 138.5t-127.5 48.5q-114 0 -186 -91v-388q0 -14 -14 -14h-38q-14 0 -14 14zM360 794l37 -15q13 -6 8 -18l-55 -140
q-6 -14 -18 -11l-28 7q-14 6 -10 17l49 151q6 14 17 9z" />
    <glyph glyph-name="Ncommaaccent" unicode="&#x145;" horiz-adv-x="613" 
d="M540 0h-46q-12 0 -18 9l-185 233l-163 216l-7 -2l5 -202v-241q0 -13 -14 -13h-39q-13 0 -13 14v518q0 13 13 13h44q14 0 22 -11l198 -247l148 -198l7 1l-5 202v240q0 13 13 13h40q13 0 13 -13v-519q0 -13 -13 -13zM356 -95l-40 -98q-3 -9 -16 -6l-22 6q-7 3 -6 16l16 55
q-16 5 -26 19.5t-10 32.5q0 24 15.5 39t38.5 15q22 0 38 -15.5t16 -38.5q0 -14 -4 -25z" />
    <glyph glyph-name="ncommaaccent" unicode="&#x146;" horiz-adv-x="599" 
d="M60 14v518q0 13 14 13h32q13 0 13 -13l3 -56l4 -2q73 79 186 79q109 0 173 -62t64 -181v-296q0 -14 -13 -14h-40q-13 0 -13 14v292q0 90 -43.5 138.5t-127.5 48.5q-114 0 -186 -91v-388q0 -14 -14 -14h-38q-14 0 -14 14zM359 -87l-40 -98q-3 -9 -16 -6l-22 6q-7 3 -6 16
l16 55q-16 5 -26 19.5t-10 32.5q0 24 15.5 39t38.5 15q22 0 38 -15.5t16 -38.5q0 -14 -4 -25z" />
    <glyph glyph-name="Ncaron" unicode="&#x147;" horiz-adv-x="613" 
d="M540 0h-46q-12 0 -18 9l-185 233l-163 216l-7 -2l5 -202v-241q0 -13 -14 -13h-39q-13 0 -13 14v518q0 13 13 13h44q14 0 22 -11l198 -247l148 -198l7 1l-5 202v240q0 13 13 13h40q13 0 13 -13v-519q0 -13 -13 -13zM165 702l10 17q7 12 19 7l112 -55l112 54q12 5 19 -7
l10 -16q6 -12 -2 -20l-130 -76q-6 -2 -9 -2q-2 0 -8 2l-131 76q-8 8 -2 20z" />
    <glyph glyph-name="ncaron" unicode="&#x148;" horiz-adv-x="599" 
d="M60 14v518q0 13 14 13h32q13 0 13 -13l3 -56l4 -2q73 79 186 79q109 0 173 -62t64 -181v-296q0 -14 -13 -14h-40q-13 0 -13 14v292q0 90 -43.5 138.5t-127.5 48.5q-114 0 -186 -91v-388q0 -14 -14 -14h-38q-14 0 -14 14zM173 702l10 17q7 12 19 7l112 -55l112 54
q12 5 19 -7l10 -16q6 -12 -2 -20l-130 -76q-6 -2 -9 -2q-2 0 -8 2l-131 76q-8 8 -2 20z" />
    <glyph glyph-name="napostrophe" unicode="&#x149;" horiz-adv-x="630" 
d="M91 14v518q0 13 14 13h32q13 0 13 -13l3 -56l4 -2q73 79 186 79q109 0 173 -62t64 -181v-296q0 -14 -13 -14h-40q-13 0 -13 14v292q0 90 -43.5 138.5t-127.5 48.5q-114 0 -186 -91v-388q0 -14 -14 -14h-38q-14 0 -14 14zM96 688l-40 -98q-3 -9 -16 -6l-22 6q-7 3 -6 16
l16 55q-16 5 -26 19.5t-10 32.5q0 24 15.5 39t38.5 15q22 0 38 -15.5t16 -38.5q0 -14 -4 -25z" />
    <glyph glyph-name="Omacron" unicode="&#x14c;" 
d="M321 493q-94 0 -154 -63t-60 -158q0 -94 60 -157t154 -63q95 0 155 63t60 157q0 95 -60 158t-155 63zM40 272q0 121 81 201t200 80q121 0 201.5 -79.5t80.5 -201.5q0 -121 -80.5 -200.5t-201.5 -79.5q-119 0 -200 79.5t-81 200.5zM159 645v30q0 13 13 13h297q14 0 14 -13
v-30q0 -13 -14 -13h-297q-13 0 -13 13z" />
    <glyph glyph-name="omacron" unicode="&#x14d;" 
d="M321 493q-94 0 -154 -63t-60 -158q0 -94 60 -157t154 -63q95 0 155 63t60 157q0 95 -60 158t-155 63zM40 272q0 121 81 201t200 80q121 0 201.5 -79.5t80.5 -201.5q0 -121 -80.5 -200.5t-201.5 -79.5q-119 0 -200 79.5t-81 200.5zM159 645v30q0 13 13 13h297q14 0 14 -13
v-30q0 -13 -14 -13h-297q-13 0 -13 13z" />
    <glyph glyph-name="Obreve" unicode="&#x14e;" 
d="M321 493q-94 0 -154 -63t-60 -158q0 -94 60 -157t154 -63q95 0 155 63t60 157q0 95 -60 158t-155 63zM40 272q0 121 81 201t200 80q121 0 201.5 -79.5t80.5 -201.5q0 -121 -80.5 -200.5t-201.5 -79.5q-119 0 -200 79.5t-81 200.5zM193 707l31 13q11 5 17 -5
q24 -47 81 -47q56 0 80 47q6 10 17 5l31 -13q10 -4 5 -17q-37 -79 -133 -79q-95 0 -134 79q-5 13 5 17z" />
    <glyph glyph-name="obreve" unicode="&#x14f;" 
d="M321 493q-94 0 -154 -63t-60 -158q0 -94 60 -157t154 -63q95 0 155 63t60 157q0 95 -60 158t-155 63zM40 272q0 121 81 201t200 80q121 0 201.5 -79.5t80.5 -201.5q0 -121 -80.5 -200.5t-201.5 -79.5q-119 0 -200 79.5t-81 200.5zM193 707l31 13q11 5 17 -5
q24 -47 81 -47q56 0 80 47q6 10 17 5l31 -13q10 -4 5 -17q-37 -79 -133 -79q-95 0 -134 79q-5 13 5 17z" />
    <glyph glyph-name="Ohungarumlaut" unicode="&#x150;" 
d="M321 493q-94 0 -154 -63t-60 -158q0 -94 60 -157t154 -63q95 0 155 63t60 157q0 95 -60 158t-155 63zM40 272q0 121 81 201t200 80q121 0 201.5 -79.5t80.5 -201.5q0 -121 -80.5 -200.5t-201.5 -79.5q-119 0 -200 79.5t-81 200.5zM313 794l35 -12q13 -6 8 -18l-45 -143
q-5 -14 -16 -11l-27 7q-13 4 -10 17l39 151q6 13 16 9zM426 768l35 -12q13 -6 8 -18l-53 -123q-5 -14 -16 -11l-27 7q-14 6 -10 17l47 131q6 13 16 9z" />
    <glyph glyph-name="ohungarumlaut" unicode="&#x151;" 
d="M321 493q-94 0 -154 -63t-60 -158q0 -94 60 -157t154 -63q95 0 155 63t60 157q0 95 -60 158t-155 63zM40 272q0 121 81 201t200 80q121 0 201.5 -79.5t80.5 -201.5q0 -121 -80.5 -200.5t-201.5 -79.5q-119 0 -200 79.5t-81 200.5zM313 794l35 -12q13 -6 8 -18l-45 -143
q-5 -14 -16 -11l-27 7q-13 4 -10 17l39 151q6 13 16 9zM426 768l35 -12q13 -6 8 -18l-53 -123q-5 -14 -16 -11l-27 7q-14 6 -10 17l47 131q6 13 16 9z" />
    <glyph glyph-name="OE" unicode="&#x152;" horiz-adv-x="991" 
d="M541 545h377q13 0 13 -13v-34q0 -13 -13 -13h-325v-168h306q13 0 13 -13v-34q0 -13 -13 -13h-306v-197h335q13 0 13 -12v-35q0 -13 -13 -13h-387q-13 0 -13 13v70q-77 -91 -207 -91q-119 0 -200 79.5t-81 200.5t81 201t200 80q129 0 207 -92v71q0 13 13 13zM321 493
q-94 0 -154 -63t-60 -158q0 -94 60 -157t154 -63q95 0 155 63t60 157q0 95 -60 158t-155 63z" />
    <glyph glyph-name="oe" unicode="&#x153;" horiz-adv-x="1121" 
d="M40 272q0 121 81 201t200 80q81 0 144.5 -38.5t96.5 -105.5q34 67 98 105.5t147 38.5q119 0 196.5 -79.5t77.5 -201.5v-18q0 -12 -12 -12h-478q8 -83 67.5 -136.5t153.5 -53.5q97 0 186 65q10 7 18 -2l20 -27q9 -11 -3 -20q-95 -76 -221 -76q-88 0 -152 37t-98 104
q-34 -66 -97 -103.5t-144 -37.5q-119 0 -200 79.5t-81 200.5zM321 493q-94 0 -154 -63t-60 -158q0 -94 60 -157t154 -63q95 0 155 63t60 157q0 95 -60 158t-155 63zM807 493q-89 0 -149 -53.5t-68 -137.5h425q-8 83 -65 137t-143 54z" />
    <glyph glyph-name="Racute" unicode="&#x154;" horiz-adv-x="576" 
d="M73 545h250q87 0 145 -55t58 -136q0 -60 -31 -106t-85 -68l93 -166q3 -6 0 -10t-9 -4h-48q-10 0 -18 12l-80 152q-8 -1 -25 -1h-197v-150q0 -13 -13 -13h-40q-13 0 -13 13v519q0 13 13 13zM126 223h197q65 0 101 36.5t36 94.5t-36.5 94.5t-100.5 36.5h-197v-262zM314 794
l37 -15q13 -6 8 -18l-55 -140q-6 -14 -18 -11l-28 7q-14 6 -10 17l49 151q6 14 17 9z" />
    <glyph glyph-name="racute" unicode="&#x155;" horiz-adv-x="550" 
d="M73 545h33q13 0 13 -14l2 -57h5q72 79 178 79q78 0 134.5 -38.5t80.5 -111.5q3 -10 -6 -13l-41 -15q-10 -3 -13 7q-36 109 -155 109q-108 0 -178 -90v-388q0 -13 -14 -13h-39q-13 0 -13 13v518q0 14 13 14zM364 794l37 -15q13 -6 8 -18l-55 -140q-6 -14 -18 -11l-28 7
q-14 6 -10 17l49 151q6 14 17 9z" />
    <glyph glyph-name="Rcommaaccent" unicode="&#x156;" horiz-adv-x="576" 
d="M73 545h250q87 0 145 -55t58 -136q0 -60 -31 -106t-85 -68l93 -166q3 -6 0 -10t-9 -4h-48q-10 0 -18 12l-80 152q-8 -1 -25 -1h-197v-150q0 -13 -13 -13h-40q-13 0 -13 13v519q0 13 13 13zM126 223h197q65 0 101 36.5t36 94.5t-36.5 94.5t-100.5 36.5h-197v-262zM325 -96
l-40 -98q-3 -9 -16 -6l-22 6q-7 3 -6 16l16 55q-16 5 -26 19.5t-10 32.5q0 24 15.5 39t38.5 15q22 0 38 -15.5t16 -38.5q0 -14 -4 -25z" />
    <glyph glyph-name="rcommaaccent" unicode="&#x157;" horiz-adv-x="550" 
d="M73 545h33q13 0 13 -14l2 -57h5q72 79 178 79q78 0 134.5 -38.5t80.5 -111.5q3 -10 -6 -13l-41 -15q-10 -3 -13 7q-36 109 -155 109q-108 0 -178 -90v-388q0 -13 -14 -13h-39q-13 0 -13 13v518q0 14 13 14zM144 -130l-40 -98q-3 -9 -16 -6l-22 6q-7 3 -6 16l16 55
q-16 5 -26 19.5t-10 32.5q0 24 15.5 39t38.5 15q22 0 38 -15.5t16 -38.5q0 -14 -4 -25z" />
    <glyph glyph-name="Rcaron" unicode="&#x158;" horiz-adv-x="576" 
d="M73 545h250q87 0 145 -55t58 -136q0 -60 -31 -106t-85 -68l93 -166q3 -6 0 -10t-9 -4h-48q-10 0 -18 12l-80 152q-8 -1 -25 -1h-197v-150q0 -13 -13 -13h-40q-13 0 -13 13v519q0 13 13 13zM126 223h197q65 0 101 36.5t36 94.5t-36.5 94.5t-100.5 36.5h-197v-262zM127 702
l10 17q7 12 19 7l112 -55l112 54q12 5 19 -7l10 -16q6 -12 -2 -20l-130 -76q-6 -2 -9 -2q-2 0 -8 2l-131 76q-8 8 -2 20z" />
    <glyph glyph-name="rcaron" unicode="&#x159;" horiz-adv-x="550" 
d="M73 545h33q13 0 13 -14l2 -57h5q72 79 178 79q78 0 134.5 -38.5t80.5 -111.5q3 -10 -6 -13l-41 -15q-10 -3 -13 7q-36 109 -155 109q-108 0 -178 -90v-388q0 -13 -14 -13h-39q-13 0 -13 13v518q0 14 13 14zM167 702l10 17q7 12 19 7l112 -55l112 54q12 5 19 -7l10 -16
q6 -12 -2 -20l-130 -76q-6 -2 -9 -2q-2 0 -8 2l-131 76q-8 8 -2 20z" />
    <glyph glyph-name="Sacute" unicode="&#x15a;" horiz-adv-x="553" 
d="M272 553q136 0 224 -78q9 -9 1 -18l-25 -29q-8 -9 -18 -1q-76 67 -184 67q-151 0 -151 -85q0 -41 38.5 -58t126.5 -28q58 -8 97 -18t73.5 -28.5t51.5 -48t17 -71.5q0 -79 -68.5 -122t-173.5 -43q-147 0 -247 88q-8 8 0 18l24 33q9 10 18 1q84 -80 206 -80
q85 0 130.5 28.5t45.5 76.5q0 49 -44.5 70.5t-138.5 32.5q-38 4 -66.5 9.5t-59.5 16.5t-50 26t-32 40t-13 57q0 65 59.5 104.5t158.5 39.5zM326 794l37 -15q13 -6 8 -18l-55 -140q-6 -14 -18 -11l-28 7q-14 6 -10 17l49 151q6 14 17 9z" />
    <glyph glyph-name="sacute" unicode="&#x15b;" horiz-adv-x="553" 
d="M272 553q136 0 224 -78q9 -9 1 -18l-25 -29q-8 -9 -18 -1q-76 67 -184 67q-151 0 -151 -85q0 -41 38.5 -58t126.5 -28q58 -8 97 -18t73.5 -28.5t51.5 -48t17 -71.5q0 -79 -68.5 -122t-173.5 -43q-147 0 -247 88q-8 8 0 18l24 33q9 10 18 1q84 -80 206 -80
q85 0 130.5 28.5t45.5 76.5q0 49 -44.5 70.5t-138.5 32.5q-38 4 -66.5 9.5t-59.5 16.5t-50 26t-32 40t-13 57q0 65 59.5 104.5t158.5 39.5zM326 794l37 -15q13 -6 8 -18l-55 -140q-6 -14 -18 -11l-28 7q-14 6 -10 17l49 151q6 14 17 9z" />
    <glyph glyph-name="Scircumflex" unicode="&#x15c;" horiz-adv-x="553" 
d="M272 553q136 0 224 -78q9 -9 1 -18l-25 -29q-8 -9 -18 -1q-76 67 -184 67q-151 0 -151 -85q0 -41 38.5 -58t126.5 -28q58 -8 97 -18t73.5 -28.5t51.5 -48t17 -71.5q0 -79 -68.5 -122t-173.5 -43q-147 0 -247 88q-8 8 0 18l24 33q9 10 18 1q84 -80 206 -80
q85 0 130.5 28.5t45.5 76.5q0 49 -44.5 70.5t-138.5 32.5q-38 4 -66.5 9.5t-59.5 16.5t-50 26t-32 40t-13 57q0 65 59.5 104.5t158.5 39.5zM421 632l-10 -17q-7 -12 -19 -7l-112 55l-112 -54q-12 -5 -19 7l-10 16q-6 12 2 20l130 76q6 2 9 2q2 0 8 -2l131 -76q8 -8 2 -20z
" />
    <glyph glyph-name="scircumflex" unicode="&#x15d;" horiz-adv-x="553" 
d="M272 553q136 0 224 -78q9 -9 1 -18l-25 -29q-8 -9 -18 -1q-76 67 -184 67q-151 0 -151 -85q0 -41 38.5 -58t126.5 -28q58 -8 97 -18t73.5 -28.5t51.5 -48t17 -71.5q0 -79 -68.5 -122t-173.5 -43q-147 0 -247 88q-8 8 0 18l24 33q9 10 18 1q84 -80 206 -80
q85 0 130.5 28.5t45.5 76.5q0 49 -44.5 70.5t-138.5 32.5q-38 4 -66.5 9.5t-59.5 16.5t-50 26t-32 40t-13 57q0 65 59.5 104.5t158.5 39.5zM427 632l-10 -17q-7 -12 -19 -7l-112 55l-112 -54q-12 -5 -19 7l-10 16q-6 12 2 20l130 76q6 2 9 2q2 0 8 -2l131 -76q8 -8 2 -20z
" />
    <glyph glyph-name="Scedilla" unicode="&#x15e;" horiz-adv-x="553" 
d="M272 553q136 0 224 -78q9 -9 1 -18l-25 -29q-8 -9 -18 -1q-76 67 -184 67q-151 0 -151 -85q0 -41 38.5 -58t126.5 -28q58 -8 97 -18t73.5 -28.5t51.5 -48t17 -71.5q0 -79 -68.5 -122t-173.5 -43q-147 0 -247 88q-8 8 0 18l24 33q9 10 18 1q84 -80 206 -80
q85 0 130.5 28.5t45.5 76.5q0 49 -44.5 70.5t-138.5 32.5q-38 4 -66.5 9.5t-59.5 16.5t-50 26t-32 40t-13 57q0 65 59.5 104.5t158.5 39.5zM277 -41q40 0 61.5 -23t21.5 -60q0 -38 -32.5 -72t-85.5 -44q-13 -3 -16 9l-7 22q-2 5 1 9.5t9 5.5q34 6 54.5 27t20.5 43
q0 32 -36 32q-17 0 -34 -7q-8 -3 -13 5l-11 27q-3 8 6 13q27 13 61 13z" />
    <glyph glyph-name="scedilla" unicode="&#x15f;" horiz-adv-x="553" 
d="M272 553q136 0 224 -78q9 -9 1 -18l-25 -29q-8 -9 -18 -1q-76 67 -184 67q-151 0 -151 -85q0 -41 38.5 -58t126.5 -28q58 -8 97 -18t73.5 -28.5t51.5 -48t17 -71.5q0 -79 -68.5 -122t-173.5 -43q-147 0 -247 88q-8 8 0 18l24 33q9 10 18 1q84 -80 206 -80
q85 0 130.5 28.5t45.5 76.5q0 49 -44.5 70.5t-138.5 32.5q-38 4 -66.5 9.5t-59.5 16.5t-50 26t-32 40t-13 57q0 65 59.5 104.5t158.5 39.5zM269 -41q40 0 61.5 -23t21.5 -60q0 -38 -32.5 -72t-85.5 -44q-13 -3 -16 9l-7 22q-2 5 1 9.5t9 5.5q34 6 54.5 27t20.5 43
q0 32 -36 32q-17 0 -34 -7q-8 -3 -13 5l-11 27q-3 8 6 13q27 13 61 13z" />
    <glyph glyph-name="Scaron" unicode="&#x160;" horiz-adv-x="553" 
d="M272 553q136 0 224 -78q9 -9 1 -18l-25 -29q-8 -9 -18 -1q-76 67 -184 67q-151 0 -151 -85q0 -41 38.5 -58t126.5 -28q58 -8 97 -18t73.5 -28.5t51.5 -48t17 -71.5q0 -79 -68.5 -122t-173.5 -43q-147 0 -247 88q-8 8 0 18l24 33q9 10 18 1q84 -80 206 -80
q85 0 130.5 28.5t45.5 76.5q0 49 -44.5 70.5t-138.5 32.5q-38 4 -66.5 9.5t-59.5 16.5t-50 26t-32 40t-13 57q0 65 59.5 104.5t158.5 39.5zM139 702l10 17q7 12 19 7l112 -55l112 54q12 5 19 -7l10 -16q6 -12 -2 -20l-130 -76q-6 -2 -9 -2q-2 0 -8 2l-131 76q-8 8 -2 20z
" />
    <glyph glyph-name="scaron" unicode="&#x161;" horiz-adv-x="553" 
d="M272 553q136 0 224 -78q9 -9 1 -18l-25 -29q-8 -9 -18 -1q-76 67 -184 67q-151 0 -151 -85q0 -41 38.5 -58t126.5 -28q58 -8 97 -18t73.5 -28.5t51.5 -48t17 -71.5q0 -79 -68.5 -122t-173.5 -43q-147 0 -247 88q-8 8 0 18l24 33q9 10 18 1q84 -80 206 -80
q85 0 130.5 28.5t45.5 76.5q0 49 -44.5 70.5t-138.5 32.5q-38 4 -66.5 9.5t-59.5 16.5t-50 26t-32 40t-13 57q0 65 59.5 104.5t158.5 39.5zM139 702l10 17q7 12 19 7l112 -55l112 54q12 5 19 -7l10 -16q6 -12 -2 -20l-130 -76q-6 -2 -9 -2q-2 0 -8 2l-131 76q-8 8 -2 20z
" />
    <glyph glyph-name="Tcommaaccent" unicode="&#x162;" horiz-adv-x="526" 
d="M34 545h458q14 0 14 -14v-32q0 -14 -14 -14h-196v-471q0 -14 -14 -14h-38q-14 0 -14 14v471h-196q-14 0 -14 14v32q0 14 14 14zM313 -120l-40 -98q-3 -9 -16 -6l-22 6q-7 3 -6 16l16 55q-16 5 -26 19.5t-10 32.5q0 24 15.5 39t38.5 15q22 0 38 -15.5t16 -38.5
q0 -14 -4 -25z" />
    <glyph glyph-name="tcommaaccent" unicode="&#x163;" horiz-adv-x="402" 
d="M108 545l12 121q0 13 13 13h31q13 0 13 -13v-121h167q13 0 13 -14v-33q0 -13 -13 -13h-167v-321q0 -54 26.5 -83t74.5 -29q38 0 75 17q10 6 15 -5l12 -31q5 -11 -6 -17q-44 -24 -98 -24q-74 0 -119.5 45t-45.5 124v324h-73q-13 0 -13 13v27q0 13 13 14zM313 -136l-40 -98
q-3 -9 -16 -6l-22 6q-7 3 -6 16l16 55q-16 5 -26 19.5t-10 32.5q0 24 15.5 39t38.5 15q22 0 38 -15.5t16 -38.5q0 -14 -4 -25z" />
    <glyph glyph-name="Tcaron" unicode="&#x164;" horiz-adv-x="526" 
d="M34 545h458q14 0 14 -14v-32q0 -14 -14 -14h-196v-471q0 -14 -14 -14h-38q-14 0 -14 14v471h-196q-14 0 -14 14v32q0 14 14 14zM122 702l10 17q7 12 19 7l112 -55l112 54q12 5 19 -7l10 -16q6 -12 -2 -20l-130 -76q-6 -2 -9 -2q-2 0 -8 2l-131 76q-8 8 -2 20z" />
    <glyph glyph-name="tcaron" unicode="&#x165;" horiz-adv-x="426" 
d="M108 545l12 121q0 13 13 13h31q13 0 13 -13v-121h167q13 0 13 -14v-33q0 -13 -13 -13h-167v-321q0 -54 26.5 -83t74.5 -29q38 0 75 17q10 6 15 -5l12 -31q5 -11 -6 -17q-44 -24 -98 -24q-74 0 -119.5 45t-45.5 124v324h-73q-13 0 -13 13v27q0 13 13 14zM430 695l-40 -98
q-3 -9 -16 -6l-22 6q-7 3 -6 16l16 55q-16 5 -26 19.5t-10 32.5q0 24 15.5 39t38.5 15q22 0 38 -15.5t16 -38.5q0 -14 -4 -25z" />
    <glyph glyph-name="Utilde" unicode="&#x168;" horiz-adv-x="601" 
d="M60 236v296q0 13 13 13h40q13 0 13 -13v-294q0 -82 46.5 -134t127.5 -52q82 0 128.5 51.5t46.5 134.5v294q0 13 14 13h39q13 0 13 -13v-296q0 -107 -65.5 -175.5t-175.5 -68.5q-109 0 -174.5 68.5t-65.5 175.5zM440 687l22 -26q6 -7 0 -13q-38 -45 -100 -45q-34 0 -77 24
t-65 24q-24 0 -46 -20q-8 -8 -15 -1l-20 20q-7 7 -1 15q32 41 83 41q34 0 77 -24t64 -24q39 0 66 28q6 6 12 1z" />
    <glyph glyph-name="utilde" unicode="&#x169;" horiz-adv-x="599" 
d="M63 545h40q13 0 13 -13v-289q0 -93 43.5 -142t127.5 -49q113 0 186 92v388q0 13 14 13h39q13 0 13 -13v-519q0 -13 -13 -13h-33q-13 0 -13 13l-3 57l-4 2q-75 -80 -186 -80q-110 0 -173.5 64t-63.5 183v293q0 13 13 13zM439 687l22 -26q6 -7 0 -13q-38 -45 -100 -45
q-34 0 -77 24t-65 24q-24 0 -46 -20q-8 -8 -15 -1l-20 20q-7 7 -1 15q32 41 83 41q34 0 77 -24t64 -24q39 0 66 28q6 6 12 1z" />
    <glyph glyph-name="Umacron" unicode="&#x16a;" horiz-adv-x="601" 
d="M60 236v296q0 13 13 13h40q13 0 13 -13v-294q0 -82 46.5 -134t127.5 -52q82 0 128.5 51.5t46.5 134.5v294q0 13 14 13h39q13 0 13 -13v-296q0 -107 -65.5 -175.5t-175.5 -68.5q-109 0 -174.5 68.5t-65.5 175.5zM138 645v30q0 13 13 13h297q14 0 14 -13v-30q0 -13 -14 -13
h-297q-13 0 -13 13z" />
    <glyph glyph-name="umacron" unicode="&#x16b;" horiz-adv-x="599" 
d="M63 545h40q13 0 13 -13v-289q0 -93 43.5 -142t127.5 -49q113 0 186 92v388q0 13 14 13h39q13 0 13 -13v-519q0 -13 -13 -13h-33q-13 0 -13 13l-3 57l-4 2q-75 -80 -186 -80q-110 0 -173.5 64t-63.5 183v293q0 13 13 13zM137 645v30q0 13 13 13h297q14 0 14 -13v-30
q0 -13 -14 -13h-297q-13 0 -13 13z" />
    <glyph glyph-name="Ubreve" unicode="&#x16c;" horiz-adv-x="601" 
d="M60 236v296q0 13 13 13h40q13 0 13 -13v-294q0 -82 46.5 -134t127.5 -52q82 0 128.5 51.5t46.5 134.5v294q0 13 14 13h39q13 0 13 -13v-296q0 -107 -65.5 -175.5t-175.5 -68.5q-109 0 -174.5 68.5t-65.5 175.5zM172 707l31 13q11 5 17 -5q24 -47 81 -47q56 0 80 47
q6 10 17 5l31 -13q10 -4 5 -17q-37 -79 -133 -79q-95 0 -134 79q-5 13 5 17z" />
    <glyph glyph-name="ubreve" unicode="&#x16d;" horiz-adv-x="599" 
d="M63 545h40q13 0 13 -13v-289q0 -93 43.5 -142t127.5 -49q113 0 186 92v388q0 13 14 13h39q13 0 13 -13v-519q0 -13 -13 -13h-33q-13 0 -13 13l-3 57l-4 2q-75 -80 -186 -80q-110 0 -173.5 64t-63.5 183v293q0 13 13 13zM171 707l31 13q11 5 17 -5q24 -47 81 -47
q56 0 80 47q6 10 17 5l31 -13q10 -4 5 -17q-37 -79 -133 -79q-95 0 -134 79q-5 13 5 17z" />
    <glyph glyph-name="Uring" unicode="&#x16e;" horiz-adv-x="601" 
d="M60 236v296q0 13 13 13h40q13 0 13 -13v-294q0 -82 46.5 -134t127.5 -52q82 0 128.5 51.5t46.5 134.5v294q0 13 14 13h39q13 0 13 -13v-296q0 -107 -65.5 -175.5t-175.5 -68.5q-109 0 -174.5 68.5t-65.5 175.5zM300 808q45 0 75.5 -28.5t30.5 -73.5t-30.5 -73.5
t-75.5 -28.5q-44 0 -75 29t-31 73t31 73t75 29zM300 760q-24 0 -39.5 -15t-15.5 -39t15.5 -39t39.5 -15t39.5 15t15.5 39t-15.5 39t-39.5 15z" />
    <glyph glyph-name="uring" unicode="&#x16f;" horiz-adv-x="599" 
d="M63 545h40q13 0 13 -13v-289q0 -93 43.5 -142t127.5 -49q113 0 186 92v388q0 13 14 13h39q13 0 13 -13v-519q0 -13 -13 -13h-33q-13 0 -13 13l-3 57l-4 2q-75 -80 -186 -80q-110 0 -173.5 64t-63.5 183v293q0 13 13 13zM299 808q45 0 75.5 -28.5t30.5 -73.5t-30.5 -73.5
t-75.5 -28.5q-44 0 -75 29t-31 73t31 73t75 29zM299 760q-24 0 -39.5 -15t-15.5 -39t15.5 -39t39.5 -15t39.5 15t15.5 39t-15.5 39t-39.5 15z" />
    <glyph glyph-name="Uhungarumlaut" unicode="&#x170;" horiz-adv-x="601" 
d="M60 236v296q0 13 13 13h40q13 0 13 -13v-294q0 -82 46.5 -134t127.5 -52q82 0 128.5 51.5t46.5 134.5v294q0 13 14 13h39q13 0 13 -13v-296q0 -107 -65.5 -175.5t-175.5 -68.5q-109 0 -174.5 68.5t-65.5 175.5zM271 794l35 -12q13 -6 8 -18l-45 -143q-5 -14 -16 -11
l-27 7q-13 4 -10 17l39 151q6 13 16 9zM384 768l35 -12q13 -6 8 -18l-53 -123q-5 -14 -16 -11l-27 7q-14 6 -10 17l47 131q6 13 16 9z" />
    <glyph glyph-name="uhungarumlaut" unicode="&#x171;" horiz-adv-x="599" 
d="M63 545h40q13 0 13 -13v-289q0 -93 43.5 -142t127.5 -49q113 0 186 92v388q0 13 14 13h39q13 0 13 -13v-519q0 -13 -13 -13h-33q-13 0 -13 13l-3 57l-4 2q-75 -80 -186 -80q-110 0 -173.5 64t-63.5 183v293q0 13 13 13zM268 794l35 -12q13 -6 8 -18l-45 -143
q-5 -14 -16 -11l-27 7q-13 4 -10 17l39 151q6 13 16 9zM381 768l35 -12q13 -6 8 -18l-53 -123q-5 -14 -16 -11l-27 7q-14 6 -10 17l47 131q6 13 16 9z" />
    <glyph glyph-name="Uogonek" unicode="&#x172;" horiz-adv-x="601" 
d="M60 236v296q0 13 13 13h40q13 0 13 -13v-294q0 -82 46.5 -134t127.5 -52q82 0 128.5 51.5t46.5 134.5v294q0 13 14 13h39q13 0 13 -13v-296q0 -94 -52 -160t-141 -80q-35 -14 -35 -57q0 -50 60 -67q14 -6 10 -15l-7 -27q-3 -12 -16 -9q-52 9 -78 41t-26 77q0 32 16 54
q-97 8 -154.5 76t-57.5 167z" />
    <glyph glyph-name="uogonek" unicode="&#x173;" horiz-adv-x="599" 
d="M63 545h40q13 0 13 -13v-289q0 -93 43.5 -142t127.5 -49q113 0 186 92v388q0 13 14 13h39q13 0 13 -13v-519q0 -11 -11 -13q-35 -10 -35 -57q0 -50 60 -67q14 -6 10 -15l-7 -27q-3 -12 -16 -9q-52 9 -78 41t-26 77q0 51 44 83l-3 44l-4 2q-75 -80 -186 -80
q-110 0 -173.5 64t-63.5 183v293q0 13 13 13z" />
    <glyph glyph-name="Wcircumflex" unicode="&#x174;" horiz-adv-x="871" 
d="M45 545h45q14 0 19 -15l143 -464h6l138 468q3 11 17 11h44q12 0 15 -11l141 -468h8l143 467q4 12 18 12h44q6 0 8.5 -4t0.5 -9l-168 -515q-5 -17 -20 -17h-64q-14 0 -18 16l-129 425h-6l-124 -425q-4 -16 -19 -16h-63q-15 0 -19 15l-169 518q-3 12 9 12zM576 632l-10 -17
q-7 -12 -19 -7l-112 55l-112 -54q-12 -5 -19 7l-10 16q-6 12 2 20l130 76q6 2 9 2q2 0 8 -2l131 -76q8 -8 2 -20z" />
    <glyph glyph-name="wcircumflex" unicode="&#x175;" horiz-adv-x="871" 
d="M45 545h45q14 0 19 -15l143 -464h6l138 468q3 11 17 11h44q12 0 15 -11l141 -468h8l143 467q4 12 18 12h44q6 0 8.5 -4t0.5 -9l-168 -515q-5 -17 -20 -17h-64q-14 0 -18 16l-129 425h-6l-124 -425q-4 -16 -19 -16h-63q-15 0 -19 15l-169 518q-3 12 9 12zM576 632l-10 -17
q-7 -12 -19 -7l-112 55l-112 -54q-12 -5 -19 7l-10 16q-6 12 2 20l130 76q6 2 9 2q2 0 8 -2l131 -76q8 -8 2 -20z" />
    <glyph glyph-name="Ycircumflex" unicode="&#x176;" horiz-adv-x="599" 
d="M333 134v-120q0 -14 -13 -14h-40q-13 0 -13 14v119l-230 399q-6 13 7 13h52q10 0 15 -8l186 -336h9l183 336q5 8 14 8h53q13 0 6 -13zM440 632l-10 -17q-7 -12 -19 -7l-112 55l-112 -54q-12 -5 -19 7l-10 16q-6 12 2 20l130 76q6 2 9 2q2 0 8 -2l131 -76q8 -8 2 -20z" />
    <glyph glyph-name="ycircumflex" unicode="&#x177;" horiz-adv-x="603" 
d="M507 545h52q11 0 7 -10l-233 -572q-24 -56 -65 -91t-97 -35q-6 0 -20 2q-12 2 -12 13v36q0 11 10 11q3 0 8 -0.5t8 -0.5q36 0 65 21.5t41 55.5l11 30l-245 530q-4 10 7 10h54q10 0 13 -10l200 -447h10l173 447q4 10 13 10zM449 632l-10 -17q-7 -12 -19 -7l-112 55
l-112 -54q-12 -5 -19 7l-10 16q-6 12 2 20l130 76q6 2 9 2q2 0 8 -2l131 -76q8 -8 2 -20z" />
    <glyph glyph-name="Ydieresis" unicode="&#x178;" horiz-adv-x="599" 
d="M333 134v-120q0 -14 -13 -14h-40q-13 0 -13 14v119l-230 399q-6 13 7 13h52q10 0 15 -8l186 -336h9l183 336q5 8 14 8h53q13 0 6 -13zM190 610q-23 0 -40 16.5t-17 39.5t17 39.5t40 16.5t40 -16.5t17 -39.5t-17 -39.5t-40 -16.5zM409 610q-23 0 -40 16.5t-17 39.5
t17 39.5t40 16.5t40 -16.5t17 -39.5t-17 -39.5t-40 -16.5z" />
    <glyph glyph-name="Zacute" unicode="&#x179;" horiz-adv-x="538" 
d="M63 498v34q0 13 13 13h403q13 0 14 -13l3 -36q2 -11 -8 -22l-366 -411l3 -6l199 3h161q13 0 13 -14v-33q0 -13 -13 -13h-428q-13 0 -13 13l-3 40q-1 10 8 21l363 408l-3 6l-166 -3h-167q-13 0 -13 13zM311 794l37 -15q13 -6 8 -18l-55 -140q-6 -14 -18 -11l-28 7
q-14 6 -10 17l49 151q6 14 17 9z" />
    <glyph glyph-name="zacute" unicode="&#x17a;" horiz-adv-x="538" 
d="M63 498v34q0 13 13 13h403q13 0 14 -13l3 -36q2 -11 -8 -22l-366 -411l3 -6l199 3h161q13 0 13 -14v-33q0 -13 -13 -13h-428q-13 0 -13 13l-3 40q-1 10 8 21l363 408l-3 6l-166 -3h-167q-13 0 -13 13zM321 794l37 -15q13 -6 8 -18l-55 -140q-6 -14 -18 -11l-28 7
q-14 6 -10 17l49 151q6 14 17 9z" />
    <glyph glyph-name="Zdotaccent" unicode="&#x17b;" horiz-adv-x="538" 
d="M63 498v34q0 13 13 13h403q13 0 14 -13l3 -36q2 -11 -8 -22l-366 -411l3 -6l199 3h161q13 0 13 -14v-33q0 -13 -13 -13h-428q-13 0 -13 13l-3 40q-1 10 8 21l363 408l-3 6l-166 -3h-167q-13 0 -13 13zM274 607q-25 0 -44 18.5t-19 44.5t19 44t44 18q26 0 45 -18t19 -44
t-19 -44.5t-45 -18.5z" />
    <glyph glyph-name="zdotaccent" unicode="&#x17c;" horiz-adv-x="538" 
d="M63 498v34q0 13 13 13h403q13 0 14 -13l3 -36q2 -11 -8 -22l-366 -411l3 -6l199 3h161q13 0 13 -14v-33q0 -13 -13 -13h-428q-13 0 -13 13l-3 40q-1 10 8 21l363 408l-3 6l-166 -3h-167q-13 0 -13 13zM279 607q-25 0 -44 18.5t-19 44.5t19 44t44 18q26 0 45 -18t19 -44
t-19 -44.5t-45 -18.5z" />
    <glyph glyph-name="Zcaron" unicode="&#x17d;" horiz-adv-x="538" 
d="M63 498v34q0 13 13 13h403q13 0 14 -13l3 -36q2 -11 -8 -22l-366 -411l3 -6l199 3h161q13 0 13 -14v-33q0 -13 -13 -13h-428q-13 0 -13 13l-3 40q-1 10 8 21l363 408l-3 6l-166 -3h-167q-13 0 -13 13zM134 702l10 17q7 12 19 7l112 -55l112 54q12 5 19 -7l10 -16
q6 -12 -2 -20l-130 -76q-6 -2 -9 -2q-2 0 -8 2l-131 76q-8 8 -2 20z" />
    <glyph glyph-name="zcaron" unicode="&#x17e;" horiz-adv-x="538" 
d="M63 498v34q0 13 13 13h403q13 0 14 -13l3 -36q2 -11 -8 -22l-366 -411l3 -6l199 3h161q13 0 13 -14v-33q0 -13 -13 -13h-428q-13 0 -13 13l-3 40q-1 10 8 21l363 408l-3 6l-166 -3h-167q-13 0 -13 13zM134 702l10 17q7 12 19 7l112 -55l112 54q12 5 19 -7l10 -16
q6 -12 -2 -20l-130 -76q-6 -2 -9 -2q-2 0 -8 2l-131 76q-8 8 -2 20z" />
    <glyph glyph-name="longs" unicode="&#x17f;" horiz-adv-x="216" 
d="M60 13v573q0 76 48.5 123t120.5 47q65 0 117 -33q11 -6 6 -17l-16 -30q-4 -10 -15 -5q-45 26 -92 26q-49 0 -76 -29.5t-27 -81.5v-573q0 -13 -13 -13h-40q-13 0 -13 13z" />
    <glyph glyph-name="florin" unicode="&#x192;" horiz-adv-x="367" 
d="M103 545v44q0 78 46 122.5t119 44.5q78 0 136 -33q11 -6 6 -17l-16 -30q-4 -10 -15 -5q-54 26 -111 26q-48 0 -73.5 -28t-25.5 -80v-44h166q13 0 13 -13v-33q0 -14 -13 -14h-166v-370l-9 -279q0 -13 -13 -13h-31q-13 0 -13 13v649l-65 6q-13 0 -13 13v28q0 13 13 13h65z
" />
    <glyph glyph-name="uni0200" unicode="&#x200;" horiz-adv-x="640" 
d="M283 545h78q12 0 16 -10l227 -521q2 -5 0 -9.5t-7 -4.5h-47q-11 0 -15 10l-45 106h-337l-46 -106q-3 -10 -15 -10h-48q-13 0 -7 14l230 520q5 11 16 11zM312 489l-134 -313h287l-134 313h-19zM294 782l35 12q10 4 16 -9l39 -151q3 -13 -10 -17l-27 -7q-11 -3 -16 11
l-45 143q-5 12 8 18zM181 756l35 12q10 4 16 -9l47 -131q4 -11 -10 -17l-27 -7q-11 -3 -16 11l-53 123q-5 12 8 18z" />
    <glyph glyph-name="uni0201" unicode="&#x201;" horiz-adv-x="593" 
d="M451 157v139l-237 -34q-53 -9 -83 -34.5t-30 -67.5q0 -53 40.5 -80.5t96.5 -27.5q139 0 213 105zM466 86h-5q-92 -94 -221 -94q-98 0 -151.5 47.5t-53.5 120.5q0 67 48 109t123 52l245 32v25q0 53 -42 84t-108 31q-114 0 -192 -61q-9 -7 -14 1l-23 32q-5 8 2 14
q91 74 227 74q92 0 154 -45.5t62 -129.5v-201q0 -71 30 -135l7 -15q6 -11 -4 -15l-32 -14q-14 -6 -19 5zM265 782l35 12q10 4 16 -9l39 -151q3 -13 -10 -17l-27 -7q-11 -3 -16 11l-45 143q-5 12 8 18zM152 756l35 12q10 4 16 -9l47 -131q4 -11 -10 -17l-27 -7q-11 -3 -16 11
l-53 123q-5 12 8 18z" />
    <glyph glyph-name="uni0202" unicode="&#x202;" horiz-adv-x="640" 
d="M283 545h78q12 0 16 -10l227 -521q2 -5 0 -9.5t-7 -4.5h-47q-11 0 -15 10l-45 106h-337l-46 -106q-3 -10 -15 -10h-48q-13 0 -7 14l230 520q5 11 16 11zM312 489l-134 -313h287l-134 313h-19zM461 632l-10 -17q-7 -12 -19 -7l-112 55l-112 -54q-12 -5 -19 7l-10 16
q-6 12 2 20l130 76q6 2 9 2q2 0 8 -2l131 -76q8 -8 2 -20z" />
    <glyph glyph-name="uni0203" unicode="&#x203;" horiz-adv-x="593" 
d="M451 157v139l-237 -34q-53 -9 -83 -34.5t-30 -67.5q0 -53 40.5 -80.5t96.5 -27.5q139 0 213 105zM466 86h-5q-92 -94 -221 -94q-98 0 -151.5 47.5t-53.5 120.5q0 67 48 109t123 52l245 32v25q0 53 -42 84t-108 31q-114 0 -192 -61q-9 -7 -14 1l-23 32q-5 8 2 14
q91 74 227 74q92 0 154 -45.5t62 -129.5v-201q0 -71 30 -135l7 -15q6 -11 -4 -15l-32 -14q-14 -6 -19 5zM437 632l-10 -17q-7 -12 -19 -7l-112 55l-112 -54q-12 -5 -19 7l-10 16q-6 12 2 20l130 76q6 2 9 2q2 0 8 -2l131 -76q8 -8 2 -20z" />
    <glyph glyph-name="uni0204" unicode="&#x204;" horiz-adv-x="534" 
d="M73 545h388q13 0 13 -13v-34q0 -13 -13 -13h-335v-168h316q13 0 13 -13v-34q0 -13 -13 -13h-316v-197h345q13 0 13 -12v-35q0 -13 -13 -13h-398q-13 0 -13 13v519q0 13 13 13zM255 782l35 12q10 4 16 -9l39 -151q3 -13 -10 -17l-27 -7q-11 -3 -16 11l-45 143q-5 12 8 18z
M142 756l35 12q10 4 16 -9l47 -131q4 -11 -10 -17l-27 -7q-11 -3 -16 11l-53 123q-5 12 8 18z" />
    <glyph glyph-name="uni0205" unicode="&#x205;" horiz-adv-x="638" 
d="M40 272q0 122 80.5 201.5t203.5 79.5q119 0 196.5 -79.5t77.5 -201.5v-18q0 -12 -12 -12h-478q8 -83 67.5 -136.5t153.5 -53.5q97 0 186 65q10 7 18 -2l20 -27q9 -11 -3 -20q-95 -76 -221 -76q-128 0 -208.5 79t-80.5 201zM324 493q-89 0 -149 -53.5t-68 -137.5h425
q-8 83 -65 137t-143 54zM293 782l35 12q10 4 16 -9l39 -151q3 -13 -10 -17l-27 -7q-11 -3 -16 11l-45 143q-5 12 8 18zM180 756l35 12q10 4 16 -9l47 -131q4 -11 -10 -17l-27 -7q-11 -3 -16 11l-53 123q-5 12 8 18z" />
    <glyph glyph-name="uni0206" unicode="&#x206;" horiz-adv-x="534" 
d="M73 545h388q13 0 13 -13v-34q0 -13 -13 -13h-335v-168h316q13 0 13 -13v-34q0 -13 -13 -13h-316v-197h345q13 0 13 -12v-35q0 -13 -13 -13h-398q-13 0 -13 13v519q0 13 13 13zM415 632l-10 -17q-7 -12 -19 -7l-112 55l-112 -54q-12 -5 -19 7l-10 16q-6 12 2 20l130 76
q6 2 9 2q2 0 8 -2l131 -76q8 -8 2 -20z" />
    <glyph glyph-name="uni0207" unicode="&#x207;" horiz-adv-x="638" 
d="M40 272q0 122 80.5 201.5t203.5 79.5q119 0 196.5 -79.5t77.5 -201.5v-18q0 -12 -12 -12h-478q8 -83 67.5 -136.5t153.5 -53.5q97 0 186 65q10 7 18 -2l20 -27q9 -11 -3 -20q-95 -76 -221 -76q-128 0 -208.5 79t-80.5 201zM324 493q-89 0 -149 -53.5t-68 -137.5h425
q-8 83 -65 137t-143 54zM460 632l-10 -17q-7 -12 -19 -7l-112 55l-112 -54q-12 -5 -19 7l-10 16q-6 12 2 20l130 76q6 2 9 2q2 0 8 -2l131 -76q8 -8 2 -20z" />
    <glyph glyph-name="uni0208" unicode="&#x208;" horiz-adv-x="186" 
d="M73 545h40q13 0 13 -13v-519q0 -13 -13 -13h-40q-13 0 -13 13v519q0 13 13 13zM76 782l35 12q10 4 16 -9l39 -151q3 -13 -10 -17l-27 -7q-11 -3 -16 11l-45 143q-5 12 8 18zM-37 756l35 12q10 4 16 -9l47 -131q4 -11 -10 -17l-27 -7q-11 -3 -16 11l-53 123q-5 12 8 18z
" />
    <glyph glyph-name="uni0209" unicode="&#x209;" horiz-adv-x="186" 
d="M73 545h40q13 0 13 -13v-519q0 -13 -13 -13h-40q-13 0 -13 13v519q0 13 13 13zM76 782l35 12q10 4 16 -9l39 -151q3 -13 -10 -17l-27 -7q-11 -3 -16 11l-45 143q-5 12 8 18zM-37 756l35 12q10 4 16 -9l47 -131q4 -11 -10 -17l-27 -7q-11 -3 -16 11l-53 123q-5 12 8 18z
" />
    <glyph glyph-name="uni020A" unicode="&#x20a;" horiz-adv-x="186" 
d="M73 545h40q13 0 13 -13v-519q0 -13 -13 -13h-40q-13 0 -13 13v519q0 13 13 13zM235 632l-10 -17q-7 -12 -19 -7l-112 55l-112 -54q-12 -5 -19 7l-10 16q-6 12 2 20l130 76q6 2 9 2q2 0 8 -2l131 -76q8 -8 2 -20z" />
    <glyph glyph-name="uni020B" unicode="&#x20b;" horiz-adv-x="186" 
d="M73 545h40q13 0 13 -13v-519q0 -13 -13 -13h-40q-13 0 -13 13v519q0 13 13 13zM235 632l-10 -17q-7 -12 -19 -7l-112 55l-112 -54q-12 -5 -19 7l-10 16q-6 12 2 20l130 76q6 2 9 2q2 0 8 -2l131 -76q8 -8 2 -20z" />
    <glyph glyph-name="uni020C" unicode="&#x20c;" 
d="M321 493q-94 0 -154 -63t-60 -158q0 -94 60 -157t154 -63q95 0 155 63t60 157q0 95 -60 158t-155 63zM40 272q0 121 81 201t200 80q121 0 201.5 -79.5t80.5 -201.5q0 -121 -80.5 -200.5t-201.5 -79.5q-119 0 -200 79.5t-81 200.5zM297 782l35 12q10 4 16 -9l39 -151
q3 -13 -10 -17l-27 -7q-11 -3 -16 11l-45 143q-5 12 8 18zM184 756l35 12q10 4 16 -9l47 -131q4 -11 -10 -17l-27 -7q-11 -3 -16 11l-53 123q-5 12 8 18z" />
    <glyph glyph-name="uni020D" unicode="&#x20d;" 
d="M321 493q-94 0 -154 -63t-60 -158q0 -94 60 -157t154 -63q95 0 155 63t60 157q0 95 -60 158t-155 63zM40 272q0 121 81 201t200 80q121 0 201.5 -79.5t80.5 -201.5q0 -121 -80.5 -200.5t-201.5 -79.5q-119 0 -200 79.5t-81 200.5zM297 782l35 12q10 4 16 -9l39 -151
q3 -13 -10 -17l-27 -7q-11 -3 -16 11l-45 143q-5 12 8 18zM184 756l35 12q10 4 16 -9l47 -131q4 -11 -10 -17l-27 -7q-11 -3 -16 11l-53 123q-5 12 8 18z" />
    <glyph glyph-name="uni020E" unicode="&#x20e;" 
d="M321 493q-94 0 -154 -63t-60 -158q0 -94 60 -157t154 -63q95 0 155 63t60 157q0 95 -60 158t-155 63zM40 272q0 121 81 201t200 80q121 0 201.5 -79.5t80.5 -201.5q0 -121 -80.5 -200.5t-201.5 -79.5q-119 0 -200 79.5t-81 200.5zM462 632l-10 -17q-7 -12 -19 -7l-112 55
l-112 -54q-12 -5 -19 7l-10 16q-6 12 2 20l130 76q6 2 9 2q2 0 8 -2l131 -76q8 -8 2 -20z" />
    <glyph glyph-name="uni020F" unicode="&#x20f;" 
d="M321 493q-94 0 -154 -63t-60 -158q0 -94 60 -157t154 -63q95 0 155 63t60 157q0 95 -60 158t-155 63zM40 272q0 121 81 201t200 80q121 0 201.5 -79.5t80.5 -201.5q0 -121 -80.5 -200.5t-201.5 -79.5q-119 0 -200 79.5t-81 200.5zM462 632l-10 -17q-7 -12 -19 -7l-112 55
l-112 -54q-12 -5 -19 7l-10 16q-6 12 2 20l130 76q6 2 9 2q2 0 8 -2l131 -76q8 -8 2 -20z" />
    <glyph glyph-name="uni0210" unicode="&#x210;" horiz-adv-x="576" 
d="M73 545h250q87 0 145 -55t58 -136q0 -60 -31 -106t-85 -68l93 -166q3 -6 0 -10t-9 -4h-48q-10 0 -18 12l-80 152q-8 -1 -25 -1h-197v-150q0 -13 -13 -13h-40q-13 0 -13 13v519q0 13 13 13zM126 223h197q65 0 101 36.5t36 94.5t-36.5 94.5t-100.5 36.5h-197v-262zM265 782
l35 12q10 4 16 -9l39 -151q3 -13 -10 -17l-27 -7q-11 -3 -16 11l-45 143q-5 12 8 18zM152 756l35 12q10 4 16 -9l47 -131q4 -11 -10 -17l-27 -7q-11 -3 -16 11l-53 123q-5 12 8 18z" />
    <glyph glyph-name="uni0211" unicode="&#x211;" horiz-adv-x="550" 
d="M73 545h33q13 0 13 -14l2 -57h5q72 79 178 79q78 0 134.5 -38.5t80.5 -111.5q3 -10 -6 -13l-41 -15q-10 -3 -13 7q-36 109 -155 109q-108 0 -178 -90v-388q0 -13 -14 -13h-39q-13 0 -13 13v518q0 14 13 14zM273 782l35 12q10 4 16 -9l39 -151q3 -13 -10 -17l-27 -7
q-11 -3 -16 11l-45 143q-5 12 8 18zM160 756l35 12q10 4 16 -9l47 -131q4 -11 -10 -17l-27 -7q-11 -3 -16 11l-53 123q-5 12 8 18z" />
    <glyph glyph-name="uni0212" unicode="&#x212;" horiz-adv-x="576" 
d="M73 545h250q87 0 145 -55t58 -136q0 -60 -31 -106t-85 -68l93 -166q3 -6 0 -10t-9 -4h-48q-10 0 -18 12l-80 152q-8 -1 -25 -1h-197v-150q0 -13 -13 -13h-40q-13 0 -13 13v519q0 13 13 13zM126 223h197q65 0 101 36.5t36 94.5t-36.5 94.5t-100.5 36.5h-197v-262zM417 632
l-10 -17q-7 -12 -19 -7l-112 55l-112 -54q-12 -5 -19 7l-10 16q-6 12 2 20l130 76q6 2 9 2q2 0 8 -2l131 -76q8 -8 2 -20z" />
    <glyph glyph-name="uni0213" unicode="&#x213;" horiz-adv-x="550" 
d="M73 545h33q13 0 13 -14l2 -57h5q72 79 178 79q78 0 134.5 -38.5t80.5 -111.5q3 -10 -6 -13l-41 -15q-10 -3 -13 7q-36 109 -155 109q-108 0 -178 -90v-388q0 -13 -14 -13h-39q-13 0 -13 13v518q0 14 13 14zM441 632l-10 -17q-7 -12 -19 -7l-112 55l-112 -54q-12 -5 -19 7
l-10 16q-6 12 2 20l130 76q6 2 9 2q2 0 8 -2l131 -76q8 -8 2 -20z" />
    <glyph glyph-name="uni0214" unicode="&#x214;" horiz-adv-x="601" 
d="M60 236v296q0 13 13 13h40q13 0 13 -13v-294q0 -82 46.5 -134t127.5 -52q82 0 128.5 51.5t46.5 134.5v294q0 13 14 13h39q13 0 13 -13v-296q0 -107 -65.5 -175.5t-175.5 -68.5q-109 0 -174.5 68.5t-65.5 175.5zM287 782l35 12q10 4 16 -9l39 -151q3 -13 -10 -17l-27 -7
q-11 -3 -16 11l-45 143q-5 12 8 18zM174 756l35 12q10 4 16 -9l47 -131q4 -11 -10 -17l-27 -7q-11 -3 -16 11l-53 123q-5 12 8 18z" />
    <glyph glyph-name="uni0215" unicode="&#x215;" horiz-adv-x="599" 
d="M63 545h40q13 0 13 -13v-289q0 -93 43.5 -142t127.5 -49q113 0 186 92v388q0 13 14 13h39q13 0 13 -13v-519q0 -13 -13 -13h-33q-13 0 -13 13l-3 57l-4 2q-75 -80 -186 -80q-110 0 -173.5 64t-63.5 183v293q0 13 13 13zM280 782l35 12q10 4 16 -9l39 -151q3 -13 -10 -17
l-27 -7q-11 -3 -16 11l-45 143q-5 12 8 18zM167 756l35 12q10 4 16 -9l47 -131q4 -11 -10 -17l-27 -7q-11 -3 -16 11l-53 123q-5 12 8 18z" />
    <glyph glyph-name="uni0216" unicode="&#x216;" horiz-adv-x="601" 
d="M60 236v296q0 13 13 13h40q13 0 13 -13v-294q0 -82 46.5 -134t127.5 -52q82 0 128.5 51.5t46.5 134.5v294q0 13 14 13h39q13 0 13 -13v-296q0 -107 -65.5 -175.5t-175.5 -68.5q-109 0 -174.5 68.5t-65.5 175.5zM441 632l-10 -17q-7 -12 -19 -7l-112 55l-112 -54
q-12 -5 -19 7l-10 16q-6 12 2 20l130 76q6 2 9 2q2 0 8 -2l131 -76q8 -8 2 -20z" />
    <glyph glyph-name="uni0217" unicode="&#x217;" horiz-adv-x="599" 
d="M63 545h40q13 0 13 -13v-289q0 -93 43.5 -142t127.5 -49q113 0 186 92v388q0 13 14 13h39q13 0 13 -13v-519q0 -13 -13 -13h-33q-13 0 -13 13l-3 57l-4 2q-75 -80 -186 -80q-110 0 -173.5 64t-63.5 183v293q0 13 13 13zM440 632l-10 -17q-7 -12 -19 -7l-112 55l-112 -54
q-12 -5 -19 7l-10 16q-6 12 2 20l130 76q6 2 9 2q2 0 8 -2l131 -76q8 -8 2 -20z" />
    <glyph glyph-name="Scommaaccent" unicode="&#x218;" horiz-adv-x="553" 
d="M272 553q136 0 224 -78q9 -9 1 -18l-25 -29q-8 -9 -18 -1q-76 67 -184 67q-151 0 -151 -85q0 -41 38.5 -58t126.5 -28q58 -8 97 -18t73.5 -28.5t51.5 -48t17 -71.5q0 -79 -68.5 -122t-173.5 -43q-147 0 -247 88q-8 8 0 18l24 33q9 10 18 1q84 -80 206 -80
q85 0 130.5 28.5t45.5 76.5q0 49 -44.5 70.5t-138.5 32.5q-38 4 -66.5 9.5t-59.5 16.5t-50 26t-32 40t-13 57q0 65 59.5 104.5t158.5 39.5zM325 -123l-40 -98q-3 -9 -16 -6l-22 6q-7 3 -6 16l16 55q-16 5 -26 19.5t-10 32.5q0 24 15.5 39t38.5 15q22 0 38 -15.5t16 -38.5
q0 -14 -4 -25z" />
    <glyph glyph-name="scommaaccent" unicode="&#x219;" horiz-adv-x="553" 
d="M272 553q136 0 224 -78q9 -9 1 -18l-25 -29q-8 -9 -18 -1q-76 67 -184 67q-151 0 -151 -85q0 -41 38.5 -58t126.5 -28q58 -8 97 -18t73.5 -28.5t51.5 -48t17 -71.5q0 -79 -68.5 -122t-173.5 -43q-147 0 -247 88q-8 8 0 18l24 33q9 10 18 1q84 -80 206 -80
q85 0 130.5 28.5t45.5 76.5q0 49 -44.5 70.5t-138.5 32.5q-38 4 -66.5 9.5t-59.5 16.5t-50 26t-32 40t-13 57q0 65 59.5 104.5t158.5 39.5zM326 -129l-40 -98q-3 -9 -16 -6l-22 6q-7 3 -6 16l16 55q-16 5 -26 19.5t-10 32.5q0 24 15.5 39t38.5 15q22 0 38 -15.5t16 -38.5
q0 -14 -4 -25z" />
    <glyph glyph-name="uni021A" unicode="&#x21a;" horiz-adv-x="526" 
d="M34 545h458q14 0 14 -14v-32q0 -14 -14 -14h-196v-471q0 -14 -14 -14h-38q-14 0 -14 14v471h-196q-14 0 -14 14v32q0 14 14 14zM256 -41q40 0 61.5 -23t21.5 -60q0 -38 -32.5 -72t-85.5 -44q-13 -3 -16 9l-7 22q-2 5 1 9.5t9 5.5q34 6 54.5 27t20.5 43q0 32 -36 32
q-17 0 -34 -7q-8 -3 -13 5l-11 27q-3 8 6 13q27 13 61 13z" />
    <glyph glyph-name="uni021B" unicode="&#x21b;" horiz-adv-x="402" 
d="M108 545l12 121q0 13 13 13h31q13 0 13 -13v-121h167q13 0 13 -14v-33q0 -13 -13 -13h-167v-321q0 -54 26.5 -83t74.5 -29q38 0 75 17q10 6 15 -5l12 -31q5 -11 -6 -17q-44 -24 -98 -24q-74 0 -119.5 45t-45.5 124v324h-73q-13 0 -13 13v27q0 13 13 14zM245 -41
q40 0 61.5 -23t21.5 -60q0 -38 -32.5 -72t-85.5 -44q-13 -3 -16 9l-7 22q-2 5 1 9.5t9 5.5q34 6 54.5 27t20.5 43q0 32 -36 32q-17 0 -34 -7q-8 -3 -13 5l-11 27q-3 8 6 13q27 13 61 13z" />
    <glyph glyph-name="dotlessj" unicode="&#x237;" horiz-adv-x="206" 
d="M93 545h40q13 0 13 -13v-519q0 -80 -45.5 -127t-119.5 -47q-56 0 -98 23q-10 6 -6 16l14 31q4 10 15 5q31 -15 73 -15q101 0 101 113v520q0 13 13 13z" />
    <glyph glyph-name="circumflex" unicode="&#x2c6;" horiz-adv-x="321" 
d="M302 632l-10 -17q-7 -12 -19 -7l-112 55l-112 -54q-12 -5 -19 7l-10 16q-6 12 2 20l130 76q6 2 9 2q2 0 8 -2l131 -76q8 -8 2 -20z" />
    <glyph glyph-name="caron" unicode="&#x2c7;" horiz-adv-x="321" 
d="M20 702l10 17q7 12 19 7l112 -55l112 54q12 5 19 -7l10 -16q6 -12 -2 -20l-130 -76q-6 -2 -9 -2q-2 0 -8 2l-131 76q-8 8 -2 20z" />
    <glyph glyph-name="breve" unicode="&#x2d8;" horiz-adv-x="391" 
d="M67 707l31 13q11 5 17 -5q24 -47 81 -47q56 0 80 47q6 10 17 5l31 -13q10 -4 5 -17q-37 -79 -133 -79q-95 0 -134 79q-5 13 5 17z" />
    <glyph glyph-name="dotaccent" unicode="&#x2d9;" horiz-adv-x="337" 
d="M168 607q-25 0 -44 18.5t-19 44.5t19 44t44 18q26 0 45 -18t19 -44t-19 -44.5t-45 -18.5z" />
    <glyph glyph-name="ring" unicode="&#x2da;" horiz-adv-x="270" 
d="M135 808q45 0 75.5 -28.5t30.5 -73.5t-30.5 -73.5t-75.5 -28.5q-44 0 -75 29t-31 73t31 73t75 29zM135 760q-24 0 -39.5 -15t-15.5 -39t15.5 -39t39.5 -15t39.5 15t15.5 39t-15.5 39t-39.5 15z" />
    <glyph glyph-name="ogonek" unicode="&#x2db;" horiz-adv-x="206" 
d="M125 49l9 -49q-35 -14 -35 -57q0 -50 60 -67q14 -6 10 -15l-7 -27q-3 -12 -16 -9q-52 9 -78 41t-26 77q0 37 20.5 66t62.5 40z" />
    <glyph glyph-name="tilde" unicode="&#x2dc;" horiz-adv-x="360" 
d="M320 687l22 -26q6 -7 0 -13q-38 -45 -100 -45q-34 0 -77 24t-65 24q-24 0 -46 -20q-8 -8 -15 -1l-20 20q-7 7 -1 15q32 41 83 41q34 0 77 -24t64 -24q39 0 66 28q6 6 12 1z" />
    <glyph glyph-name="hungarumlaut" unicode="&#x2dd;" horiz-adv-x="294" 
d="M96 794l35 -12q13 -6 8 -18l-45 -143q-5 -14 -16 -11l-27 7q-13 4 -10 17l39 151q6 13 16 9zM209 768l35 -12q13 -6 8 -18l-53 -123q-5 -14 -16 -11l-27 7q-14 6 -10 17l47 131q6 13 16 9z" />
    <glyph glyph-name="afii10023" unicode="&#x401;" horiz-adv-x="534" 
d="M73 545h388q13 0 13 -13v-34q0 -13 -13 -13h-335v-168h316q13 0 13 -13v-34q0 -13 -13 -13h-316v-197h345q13 0 13 -12v-35q0 -13 -13 -13h-398q-13 0 -13 13v519q0 13 13 13zM161 610q-23 0 -40 16.5t-17 39.5t17 39.5t40 16.5t40 -16.5t17 -39.5t-17 -39.5t-40 -16.5z
M380 610q-23 0 -40 16.5t-17 39.5t17 39.5t40 16.5t40 -16.5t17 -39.5t-17 -39.5t-40 -16.5z" />
    <glyph glyph-name="afii10051" unicode="&#x402;" horiz-adv-x="749" 
d="M230 485h-196q-14 0 -14 14v32q0 14 14 14h458q14 0 14 -14v-32q0 -14 -14 -14h-196v-142q71 80 176 80q108 0 167.5 -62t59.5 -182v-126q0 -79 -39.5 -135.5t-107.5 -72.5q-16 -4 -20 9l-9 26q-5 17 11 21q48 16 73.5 55.5t25.5 94.5v124q0 189 -161 189
q-57 0 -98 -22.5t-78 -69.5v-259q0 -13 -14 -13h-39q-13 0 -13 13v472z" />
    <glyph glyph-name="afii10052" unicode="&#x403;" horiz-adv-x="499" 
d="M113 0h-40q-13 0 -13 13v519q0 13 13 13h378q13 0 13 -13v-34q0 -13 -13 -13h-325v-472q0 -13 -13 -13zM307 794l37 -15q13 -6 8 -18l-55 -140q-6 -14 -18 -11l-28 7q-14 6 -10 17l49 151q6 14 17 9z" />
    <glyph glyph-name="afii10053" unicode="&#x404;" horiz-adv-x="585" 
d="M322 553q139 0 224 -105q4 -4 3.5 -9.5t-5.5 -8.5l-30 -24q-10 -8 -18 2q-66 85 -174 85q-82 0 -141 -51t-71 -131h273q14 0 14 -14v-32q0 -14 -14 -14h-275q8 -87 67.5 -143t146.5 -56q109 0 175 84q8 10 18 2l29 -24q11 -8 2 -18q-84 -104 -224 -104q-119 0 -200.5 80
t-81.5 201q0 120 81.5 200t200.5 80z" />
    <glyph glyph-name="afii10054" unicode="&#x405;" horiz-adv-x="553" 
d="M272 553q136 0 224 -78q9 -9 1 -18l-25 -29q-8 -9 -18 -1q-76 67 -184 67q-151 0 -151 -85q0 -41 38.5 -58t126.5 -28q58 -8 97 -18t73.5 -28.5t51.5 -48t17 -71.5q0 -79 -68.5 -122t-173.5 -43q-147 0 -247 88q-8 8 0 18l24 33q9 10 18 1q84 -80 206 -80
q85 0 130.5 28.5t45.5 76.5q0 49 -44.5 70.5t-138.5 32.5q-38 4 -66.5 9.5t-59.5 16.5t-50 26t-32 40t-13 57q0 65 59.5 104.5t158.5 39.5z" />
    <glyph glyph-name="afii10055" unicode="&#x406;" horiz-adv-x="186" 
d="M73 545h40q13 0 13 -13v-519q0 -13 -13 -13h-40q-13 0 -13 13v519q0 13 13 13z" />
    <glyph glyph-name="afii10056" unicode="&#x407;" horiz-adv-x="186" 
d="M73 545h40q13 0 13 -13v-519q0 -13 -13 -13h-40q-13 0 -13 13v519q0 13 13 13zM0 620q-23 0 -40 16.5t-17 39.5t17 39.5t40 16.5t40 -16.5t17 -39.5t-17 -39.5t-40 -16.5zM189 620q-23 0 -40 16.5t-17 39.5t17 39.5t40 16.5t40 -16.5t17 -39.5t-17 -39.5t-40 -16.5z" />
    <glyph glyph-name="afii10057" unicode="&#x408;" horiz-adv-x="371" 
d="M258 545h43q10 0 10 -11v-339q0 -94 -50.5 -144.5t-144.5 -50.5h-62q-14 0 -13 16l2 33q0 11 14 11h61q62 0 94.5 35t32.5 100v338q0 12 13 12z" />
    <glyph glyph-name="afii10058" unicode="&#x409;" horiz-adv-x="1002" 
d="M275 485l-47 -374q-15 -117 -123 -117q-56 0 -92 38q-7 9 0 16l28 31q7 7 14 0q21 -23 49 -23q50 0 59 63l56 415q2 11 14 11h336q13 0 13 -13v-148h178q86 0 144 -55t58 -137t-58 -137t-144 -55h-231q-13 0 -13 13v472h-241zM582 324v-264h177q64 0 100 37t36 95t-36 95
t-100 37h-177z" />
    <glyph glyph-name="afii10059" unicode="&#x40a;" horiz-adv-x="942" 
d="M126 314h330v218q0 13 14 13h38q14 0 14 -13v-148h178q86 0 144 -55t58 -137t-58 -137t-144 -55h-230q-14 0 -14 13v241h-330v-241q0 -13 -14 -13h-39q-13 0 -13 13v519q0 13 13 13h39q14 0 14 -13v-218zM522 324v-264h177q64 0 100 37t36 95t-36 95t-100 37h-177z" />
    <glyph glyph-name="afii10060" unicode="&#x40b;" horiz-adv-x="749" 
d="M230 485h-196q-14 0 -14 14v32q0 14 14 14h458q14 0 14 -14v-32q0 -14 -14 -14h-196v-142q71 80 176 80q108 0 167.5 -62t59.5 -182v-166q0 -13 -13 -13h-40q-13 0 -13 13v162q0 189 -161 189q-57 0 -98 -22.5t-78 -69.5v-259q0 -13 -14 -13h-39q-13 0 -13 13v472z" />
    <glyph glyph-name="afii10061" unicode="&#x40c;" horiz-adv-x="550" 
d="M73 545h40q13 0 13 -13v-270l297 275q8 8 18 8h57q10 0 11 -7.5t-4 -11.5l-236 -214l256 -293q14 -19 -6 -19h-54q-12 0 -19 9l-222 261l-98 -81v-176q0 -13 -13 -13h-40q-13 0 -13 13v519q0 13 13 13zM310 794l37 -15q13 -6 8 -18l-55 -140q-6 -14 -18 -11l-28 7
q-14 6 -10 17l49 151q6 14 17 9z" />
    <glyph glyph-name="afii10062" unicode="&#x40e;" horiz-adv-x="600" 
d="M44 545h51q11 0 17 -11l197 -333h5l178 335q4 9 15 9h47q17 0 9 -18l-290 -517q-4 -10 -16 -10h-47q-6 0 -8 4.5t1 9.5l73 126l-239 392q-6 13 7 13zM172 707l31 13q11 5 17 -5q24 -47 81 -47q56 0 80 47q6 10 17 5l31 -13q10 -4 5 -17q-37 -79 -133 -79q-95 0 -134 79
q-5 13 5 17z" />
    <glyph glyph-name="afii10145" unicode="&#x40f;" horiz-adv-x="579" 
d="M505 0h-181l-3 -121q0 -13 -13 -13h-31q-14 0 -14 13l-3 121h-187q-13 0 -13 13v519q0 13 13 13h39q14 0 14 -13v-472h327v472q0 13 13 13h39q14 0 14 -13v-519q0 -13 -14 -13z" />
    <glyph glyph-name="afii10017" unicode="&#x410;" horiz-adv-x="640" 
d="M283 545h78q12 0 16 -10l227 -521q2 -5 0 -9.5t-7 -4.5h-47q-11 0 -15 10l-45 106h-337l-46 -106q-3 -10 -15 -10h-48q-13 0 -7 14l230 520q5 11 16 11zM312 489l-134 -313h287l-134 313h-19z" />
    <glyph glyph-name="afii10018" unicode="&#x411;" horiz-adv-x="559" 
d="M73 545h388q13 0 13 -13v-35q0 -12 -13 -12h-335v-124h202q86 0 143.5 -50.5t57.5 -130.5t-57.5 -130t-143.5 -50h-255q-13 0 -13 13v519q0 13 13 13zM126 301v-241h202q62 0 98.5 33t36.5 87q0 55 -36 88t-99 33h-202z" />
    <glyph glyph-name="afii10019" unicode="&#x412;" horiz-adv-x="583" 
d="M126 485v-152h229q35 0 59 20t24 55q0 36 -23 56.5t-65 20.5h-224zM452 309v-4q42 -14 66.5 -53t24.5 -84q0 -70 -51 -119t-126 -49h-293q-13 0 -13 13v520q0 12 12 12h277q71 0 113 -39.5t42 -97.5q0 -28 -14.5 -56.5t-37.5 -42.5zM126 272v-211h237q51 0 82.5 29.5
t31.5 77.5t-30.5 76t-83.5 28h-237z" />
    <glyph glyph-name="afii10020" unicode="&#x413;" horiz-adv-x="499" 
d="M113 0h-40q-13 0 -13 13v519q0 13 13 13h378q13 0 13 -13v-34q0 -13 -13 -13h-325v-472q0 -13 -13 -13z" />
    <glyph glyph-name="afii10021" unicode="&#x414;" horiz-adv-x="653" 
d="M492 485h-259l-47 -370q-4 -35 -24 -55h330v425zM189 545h356q13 0 13 -13v-472h52q13 0 13 -13v-168q0 -13 -14 -13h-34q-13 0 -13 13l-4 121h-463l-4 -121q-1 -13 -14 -13h-34q-13 0 -13 13v168q0 13 13 13h19q22 0 38.5 18.5t20.5 48.5l54 406q1 12 14 12z" />
    <glyph glyph-name="afii10022" unicode="&#x415;" horiz-adv-x="534" 
d="M73 545h388q13 0 13 -13v-34q0 -13 -13 -13h-335v-168h316q13 0 13 -13v-34q0 -13 -13 -13h-316v-197h345q13 0 13 -12v-35q0 -13 -13 -13h-398q-13 0 -13 13v519q0 13 13 13z" />
    <glyph glyph-name="afii10024" unicode="&#x416;" horiz-adv-x="879" 
d="M420 545h39q13 0 13 -13v-240l260 246q8 7 18 7h52q9 0 11.5 -7t-3.5 -12l-211 -197l242 -311q5 -6 2 -12t-11 -6h-49q-11 0 -17 9l-213 281l-81 -66v-211q0 -13 -13 -13h-39q-13 0 -13 13v212l-81 66l-213 -282q-7 -9 -18 -9h-48q-8 0 -11 6t2 12l243 311l-211 197
q-5 5 -3 12t10 7h53q9 0 18 -7l259 -246v240q0 13 13 13z" />
    <glyph glyph-name="afii10025" unicode="&#x417;" horiz-adv-x="549" 
d="M57 481q90 72 216 72q78 0 142.5 -37t64.5 -110q0 -31 -17.5 -57.5t-49.5 -40.5v-5q96 -31 96 -133q0 -83 -69.5 -130.5t-171.5 -47.5q-81 0 -136.5 22t-103.5 73q-9 9 0 18l23 27q9 9 18 1q44 -44 89 -62.5t112 -18.5q76 0 124.5 31.5t48.5 86.5q0 54 -37 78t-95 24
h-115q-13 0 -13 13v34q0 13 13 13h119q41 0 70.5 18t29.5 56q0 42 -42 64.5t-106 22.5q-57 0 -95.5 -13t-74.5 -45q-14 -10 -20 1l-20 27q-7 11 0 18z" />
    <glyph glyph-name="afii10026" unicode="&#x418;" horiz-adv-x="603" 
d="M73 545h40q13 0 13 -14v-258l-5 -176l7 -2l215 283l122 156q11 11 22 11h43q13 0 13 -14v-518q0 -13 -13 -13h-40q-13 0 -13 13v258l5 177l-8 2l-173 -230l-166 -212q-6 -8 -17 -8h-45q-13 0 -13 13v518q0 14 13 14z" />
    <glyph glyph-name="afii10027" unicode="&#x419;" horiz-adv-x="603" 
d="M172 707l31 13q11 5 17 -5q24 -47 81 -47q56 0 80 47q6 10 17 5l31 -13q10 -4 5 -17q-37 -79 -133 -79q-95 0 -134 79q-5 13 5 17zM73 545h40q13 0 13 -14v-258l-5 -176l7 -2l215 283l122 156q11 11 22 11h43q13 0 13 -14v-518q0 -13 -13 -13h-40q-13 0 -13 13v258l5 177
l-8 2l-173 -230l-166 -212q-6 -8 -17 -8h-45q-13 0 -13 13v518q0 14 13 14z" />
    <glyph glyph-name="afii10028" unicode="&#x41a;" horiz-adv-x="550" 
d="M73 545h40q13 0 13 -13v-270l297 275q8 8 18 8h57q10 0 11 -7.5t-4 -11.5l-236 -214l256 -293q14 -19 -6 -19h-54q-12 0 -19 9l-222 261l-98 -81v-176q0 -13 -13 -13h-40q-13 0 -13 13v519q0 13 13 13z" />
    <glyph glyph-name="afii10029" unicode="&#x41b;" horiz-adv-x="652" 
d="M579 0h-40q-13 0 -13 13v472h-251l-47 -374q-15 -117 -123 -117q-56 0 -92 38q-7 9 0 16l28 30q7 7 14 0q21 -23 49 -23q50 0 59 63l56 416q2 11 14 11h346q13 0 13 -13v-519q0 -13 -13 -13z" />
    <glyph glyph-name="afii10030" unicode="&#x41c;" horiz-adv-x="729" 
d="M583 545h73q13 0 13 -13v-518q0 -14 -13 -14h-39q-14 0 -14 14v259l4 201l-5 1l-84 -199l-122 -263q-6 -13 -17 -13h-28q-12 0 -18 13l-124 270l-83 192l-4 -1l4 -190v-270q0 -14 -13 -14h-40q-13 0 -13 14v518q0 13 13 13h74q13 0 19 -14l116 -249l82 -194h6l94 221
l100 222q6 14 19 14z" />
    <glyph glyph-name="afii10031" unicode="&#x41d;" horiz-adv-x="592" 
d="M73 545h39q14 0 14 -13v-218h340v218q0 13 14 13h38q14 0 14 -13v-519q0 -13 -14 -13h-38q-14 0 -14 13v241h-340v-241q0 -13 -14 -13h-39q-13 0 -13 13v519q0 13 13 13z" />
    <glyph glyph-name="afii10032" unicode="&#x41e;" 
d="M321 493q-94 0 -154 -63t-60 -158q0 -94 60 -157t154 -63q95 0 155 63t60 157q0 95 -60 158t-155 63zM40 272q0 121 81 201t200 80q121 0 201.5 -79.5t80.5 -201.5q0 -121 -80.5 -200.5t-201.5 -79.5q-119 0 -200 79.5t-81 200.5z" />
    <glyph glyph-name="afii10033" unicode="&#x41f;" horiz-adv-x="579" 
d="M74 545h432q13 0 13 -13v-519q0 -13 -13 -13h-39q-14 0 -14 13v472h-327v-472q0 -13 -13 -13h-39q-14 0 -14 13v519q0 13 14 13z" />
    <glyph glyph-name="afii10034" unicode="&#x420;" horiz-adv-x="565" 
d="M126 223h197q64 0 100 36t36 95q0 58 -36 94.5t-100 36.5h-197v-262zM73 545h250q87 0 144.5 -55t57.5 -136q0 -82 -57.5 -136.5t-144.5 -54.5h-197v-150q0 -13 -13 -13h-40q-13 0 -13 13v519q0 13 13 13z" />
    <glyph glyph-name="afii10035" unicode="&#x421;" horiz-adv-x="585" 
d="M322 553q139 0 224 -105q4 -4 3.5 -9.5t-5.5 -8.5l-30 -24q-10 -8 -18 2q-66 85 -174 85q-93 0 -154 -63t-61 -157t61 -157.5t154 -63.5q109 0 175 84q8 10 18 2l29 -24q11 -8 2 -18q-84 -104 -224 -104q-121 0 -201.5 79.5t-80.5 201.5q0 120 81.5 200t200.5 80z" />
    <glyph glyph-name="afii10036" unicode="&#x422;" horiz-adv-x="526" 
d="M34 545h458q14 0 14 -14v-32q0 -14 -14 -14h-196v-471q0 -14 -14 -14h-38q-14 0 -14 14v471h-196q-14 0 -14 14v32q0 14 14 14z" />
    <glyph glyph-name="afii10037" unicode="&#x423;" horiz-adv-x="600" 
d="M44 545h51q11 0 17 -11l197 -333h5l178 335q4 9 15 9h47q17 0 9 -18l-290 -517q-4 -10 -16 -10h-47q-6 0 -8 4.5t1 9.5l73 126l-239 392q-6 13 7 13z" />
    <glyph glyph-name="afii10038" unicode="&#x424;" horiz-adv-x="794" 
d="M429 424v-282h123q63 0 99 38.5t36 102.5t-36 102.5t-99 38.5h-123zM364 142v282h-123q-63 0 -98.5 -38.5t-35.5 -102.5t35.5 -102.5t98.5 -38.5h123zM364 484v56q0 13 13 13h39q13 0 13 -13v-56h124q83 0 142 -57.5t59 -143.5t-59 -143.5t-142 -57.5h-124v-69
q0 -13 -13 -13h-39q-13 0 -13 13v69h-123q-84 0 -142.5 57t-58.5 144t58.5 144t142.5 57h123z" />
    <glyph glyph-name="afii10039" unicode="&#x425;" horiz-adv-x="597" 
d="M65 545h54q12 0 18 -9l159 -206h5l154 206q7 9 19 9h56q5 0 7 -4.5t-2 -9.5l-194 -243l219 -276q3 -4 1 -8t-8 -4h-58q-9 0 -17 9l-180 236h-5l-174 -235q-7 -10 -18 -10h-58q-13 0 -6 12l215 275l-193 245q-3 4 -1.5 8.5t7.5 4.5z" />
    <glyph glyph-name="afii10040" unicode="&#x426;" horiz-adv-x="601" 
d="M516 0h-443q-13 0 -13 13v518q0 14 13 14h40q13 0 13 -14v-471h323v471q0 14 13 14h40q13 0 13 -14v-471h53q13 0 13 -13l-6 -168q0 -13 -13 -13h-29q-13 0 -13 13z" />
    <glyph glyph-name="afii10041" unicode="&#x427;" horiz-adv-x="566" 
d="M64 545h39q13 0 13 -14v-157q0 -73 42 -113.5t118 -40.5q95 0 164 26v285q0 14 13 14h39q14 0 14 -14v-518q0 -13 -14 -13h-39q-13 0 -13 13v175q-77 -28 -164 -28q-104 0 -165 57t-61 157v157q0 14 14 14z" />
    <glyph glyph-name="afii10042" unicode="&#x428;" horiz-adv-x="804" 
d="M126 60h243v472q0 13 13 13h39q14 0 14 -13v-472h243v472q0 13 13 13h40q13 0 13 -13v-519q0 -13 -13 -13h-658q-13 0 -13 13v519q0 13 13 13h40q13 0 13 -13v-472z" />
    <glyph glyph-name="afii10043" unicode="&#x429;" horiz-adv-x="830" 
d="M745 0h-672q-13 0 -13 13v519q0 13 13 13h40q13 0 13 -13v-472h243v472q0 13 13 13h39q14 0 14 -13v-472h243v472q0 13 13 13h40q13 0 13 -13v-472h53q13 0 13 -13l-6 -168q0 -13 -13 -13h-29q-13 0 -13 13z" />
    <glyph glyph-name="afii10044" unicode="&#x42a;" horiz-adv-x="648" 
d="M208 323v-263h197q64 0 100 37t36 95t-36 94.5t-100 36.5h-197zM36 545h159q13 0 13 -13v-149h197q87 0 145 -55t58 -136q0 -82 -58 -137t-145 -55h-250q-13 0 -13 13v472l-106 4q-13 0 -13 13v30q0 13 13 13z" />
    <glyph glyph-name="afii10045" unicode="&#x42b;" horiz-adv-x="718" 
d="M605 545h40q13 0 13 -13v-519q0 -13 -13 -13h-40q-13 0 -13 13v519q0 13 13 13zM126 324v-264h197q64 0 100 37t36 95t-36 95t-100 37h-197zM60 13v519q0 13 13 13h41q12 0 12 -13v-148h198q86 0 144 -55t58 -137t-58 -137t-144 -55h-251q-13 0 -13 13z" />
    <glyph glyph-name="afii10046" unicode="&#x42c;" horiz-adv-x="566" 
d="M126 324v-264h197q64 0 100 37t36 95t-36 95t-100 37h-197zM60 13v519q0 13 13 13h41q12 0 12 -13v-148h198q86 0 144 -55t58 -137t-58 -137t-144 -55h-251q-13 0 -13 13z" />
    <glyph glyph-name="afii10047" unicode="&#x42d;" horiz-adv-x="585" 
d="M263 553q121 0 201.5 -79t80.5 -201t-81.5 -201.5t-200.5 -79.5q-140 0 -224 104q-9 10 2 18l29 24q10 8 18 -2q66 -84 175 -84q90 0 149.5 55.5t65.5 143.5h-285q-14 0 -14 14v32q0 14 14 14h283q-12 82 -69.5 132t-143.5 50q-108 0 -174 -85q-8 -10 -18 -2l-30 24
q-5 3 -5.5 8.5t3.5 9.5q85 105 224 105z" />
    <glyph glyph-name="afii10048" unicode="&#x42e;" horiz-adv-x="807" 
d="M73 545h40q13 0 13 -14v-216h83q14 103 92.5 170.5t185.5 67.5q119 0 199.5 -80.5t80.5 -199.5q0 -118 -82 -199.5t-198 -81.5q-112 0 -193.5 75.5t-87.5 187.5h-80v-242q0 -13 -13 -13h-40q-13 0 -13 13v518q0 14 13 14zM487 493q-93 0 -154 -62t-61 -158
q0 -95 62.5 -158t152.5 -63q91 0 152.5 63t61.5 158q0 96 -60.5 158t-153.5 62z" />
    <glyph glyph-name="afii10049" unicode="&#x42f;" horiz-adv-x="576" 
d="M65 14l108 163q-57 21 -90 68t-33 109q0 81 58 136t145 55h250q13 0 13 -13v-519q0 -13 -13 -13h-40q-13 0 -13 13v150h-215l-94 -151q-7 -12 -18 -12h-50q-5 0 -8 4.5t0 9.5zM450 485h-194q-65 0 -102 -36.5t-37 -94.5t37 -94.5t102 -36.5h194v262z" />
    <glyph glyph-name="afii10065" unicode="&#x430;" horiz-adv-x="593" 
d="M451 157v139l-237 -34q-53 -9 -83 -34.5t-30 -67.5q0 -53 40.5 -80.5t96.5 -27.5q139 0 213 105zM466 86h-5q-92 -94 -221 -94q-98 0 -151.5 47.5t-53.5 120.5q0 67 48 109t123 52l245 32v25q0 53 -42 84t-108 31q-114 0 -192 -61q-9 -7 -14 1l-23 32q-5 8 2 14
q91 74 227 74q92 0 154 -45.5t62 -129.5v-201q0 -71 30 -135l7 -15q6 -11 -4 -15l-32 -14q-14 -6 -19 5z" />
    <glyph glyph-name="afii10066" unicode="&#x431;" horiz-adv-x="634" 
d="M322 476q-87 0 -149.5 -60.5t-62.5 -151.5q0 -88 60.5 -150t148.5 -62q89 0 149 60.5t60 151.5q0 94 -56 153t-150 59zM108 421l5 -2q77 117 209 117q119 0 195.5 -77t76.5 -195q0 -116 -79.5 -194t-195.5 -78q-129 0 -204 87t-75 224q0 106 25.5 185t70.5 123t98 65
t115 21q79 0 113.5 12t44.5 39q4 13 16 8l34 -15q10 -4 7 -16q-18 -55 -69 -73t-153 -18q-94 0 -155.5 -56t-78.5 -157z" />
    <glyph glyph-name="afii10067" unicode="&#x432;" horiz-adv-x="583" 
d="M126 485v-152h229q35 0 59 20t24 55q0 36 -23 56.5t-65 20.5h-224zM452 309v-4q42 -14 66.5 -53t24.5 -84q0 -70 -51 -119t-126 -49h-293q-13 0 -13 13v520q0 12 12 12h277q71 0 113 -39.5t42 -97.5q0 -28 -14.5 -56.5t-37.5 -42.5zM126 272v-211h237q51 0 82.5 29.5
t31.5 77.5t-30.5 76t-83.5 28h-237z" />
    <glyph glyph-name="afii10068" unicode="&#x433;" horiz-adv-x="499" 
d="M113 0h-40q-13 0 -13 13v519q0 13 13 13h378q13 0 13 -13v-34q0 -13 -13 -13h-325v-472q0 -13 -13 -13z" />
    <glyph glyph-name="afii10069" unicode="&#x434;" horiz-adv-x="653" 
d="M492 485h-259l-47 -370q-4 -35 -24 -55h330v425zM189 545h356q13 0 13 -13v-472h52q13 0 13 -13v-168q0 -13 -14 -13h-34q-13 0 -13 13l-4 121h-463l-4 -121q-1 -13 -14 -13h-34q-13 0 -13 13v168q0 13 13 13h19q22 0 38.5 18.5t20.5 48.5l54 406q1 12 14 12z" />
    <glyph glyph-name="afii10070" unicode="&#x435;" horiz-adv-x="638" 
d="M40 272q0 122 80.5 201.5t203.5 79.5q119 0 196.5 -79.5t77.5 -201.5v-18q0 -12 -12 -12h-478q8 -83 67.5 -136.5t153.5 -53.5q97 0 186 65q10 7 18 -2l20 -27q9 -11 -3 -20q-95 -76 -221 -76q-128 0 -208.5 79t-80.5 201zM324 493q-89 0 -149 -53.5t-68 -137.5h425
q-8 83 -65 137t-143 54z" />
    <glyph glyph-name="afii10072" unicode="&#x436;" horiz-adv-x="879" 
d="M420 545h39q13 0 13 -13v-240l260 246q8 7 18 7h52q9 0 11.5 -7t-3.5 -12l-211 -197l242 -311q5 -6 2 -12t-11 -6h-49q-11 0 -17 9l-213 281l-81 -66v-211q0 -13 -13 -13h-39q-13 0 -13 13v212l-81 66l-213 -282q-7 -9 -18 -9h-48q-8 0 -11 6t2 12l243 311l-211 197
q-5 5 -3 12t10 7h53q9 0 18 -7l259 -246v240q0 13 13 13z" />
    <glyph glyph-name="afii10073" unicode="&#x437;" horiz-adv-x="549" 
d="M57 481q90 72 216 72q78 0 142.5 -37t64.5 -110q0 -31 -17.5 -57.5t-49.5 -40.5v-5q96 -31 96 -133q0 -83 -69.5 -130.5t-171.5 -47.5q-81 0 -136.5 22t-103.5 73q-9 9 0 18l23 27q9 9 18 1q44 -44 89 -62.5t112 -18.5q76 0 124.5 31.5t48.5 86.5q0 54 -37 78t-95 24
h-115q-13 0 -13 13v34q0 13 13 13h119q41 0 70.5 18t29.5 56q0 42 -42 64.5t-106 22.5q-57 0 -95.5 -13t-74.5 -45q-14 -10 -20 1l-20 27q-7 11 0 18z" />
    <glyph glyph-name="afii10074" unicode="&#x438;" horiz-adv-x="603" 
d="M73 545h40q13 0 13 -14v-258l-5 -176l7 -2l215 283l122 156q11 11 22 11h43q13 0 13 -14v-518q0 -13 -13 -13h-40q-13 0 -13 13v258l5 177l-8 2l-173 -230l-166 -212q-6 -8 -17 -8h-45q-13 0 -13 13v518q0 14 13 14z" />
    <glyph glyph-name="afii10075" unicode="&#x439;" horiz-adv-x="603" 
d="M73 545h40q13 0 13 -14v-258l-5 -176l7 -2l215 283l122 156q11 11 22 11h43q13 0 13 -14v-518q0 -13 -13 -13h-40q-13 0 -13 13v258l5 177l-8 2l-173 -230l-166 -212q-6 -8 -17 -8h-45q-13 0 -13 13v518q0 14 13 14zM173 707l31 13q11 5 17 -5q24 -47 81 -47q56 0 80 47
q6 10 17 5l31 -13q10 -4 5 -17q-37 -79 -133 -79q-95 0 -134 79q-5 13 5 17z" />
    <glyph glyph-name="afii10076" unicode="&#x43a;" horiz-adv-x="550" 
d="M73 545h40q13 0 13 -13v-270l297 275q8 8 18 8h57q10 0 11 -7.5t-4 -11.5l-236 -214l256 -293q14 -19 -6 -19h-54q-12 0 -19 9l-222 261l-98 -81v-176q0 -13 -13 -13h-40q-13 0 -13 13v519q0 13 13 13z" />
    <glyph glyph-name="afii10077" unicode="&#x43b;" horiz-adv-x="652" 
d="M579 0h-40q-13 0 -13 13v472h-251l-47 -374q-15 -117 -123 -117q-56 0 -92 38q-7 9 0 16l28 30q7 7 14 0q21 -23 49 -23q50 0 59 63l56 416q2 11 14 11h346q13 0 13 -13v-519q0 -13 -13 -13z" />
    <glyph glyph-name="afii10078" unicode="&#x43c;" horiz-adv-x="729" 
d="M583 545h73q13 0 13 -13v-518q0 -14 -13 -14h-39q-14 0 -14 14v259l4 201l-5 1l-84 -199l-122 -263q-6 -13 -17 -13h-28q-12 0 -18 13l-124 270l-83 192l-4 -1l4 -190v-270q0 -14 -13 -14h-40q-13 0 -13 14v518q0 13 13 13h74q13 0 19 -14l116 -249l82 -194h6l94 221
l100 222q6 14 19 14z" />
    <glyph glyph-name="afii10079" unicode="&#x43d;" horiz-adv-x="592" 
d="M73 545h39q14 0 14 -13v-218h340v218q0 13 14 13h38q14 0 14 -13v-519q0 -13 -14 -13h-38q-14 0 -14 13v241h-340v-241q0 -13 -14 -13h-39q-13 0 -13 13v519q0 13 13 13z" />
    <glyph glyph-name="afii10080" unicode="&#x43e;" 
d="M321 493q-94 0 -154 -63t-60 -158q0 -94 60 -157t154 -63q95 0 155 63t60 157q0 95 -60 158t-155 63zM40 272q0 121 81 201t200 80q121 0 201.5 -79.5t80.5 -201.5q0 -121 -80.5 -200.5t-201.5 -79.5q-119 0 -200 79.5t-81 200.5z" />
    <glyph glyph-name="afii10081" unicode="&#x43f;" horiz-adv-x="579" 
d="M74 545h432q13 0 13 -13v-519q0 -13 -13 -13h-39q-14 0 -14 13v472h-327v-472q0 -13 -13 -13h-39q-14 0 -14 13v519q0 13 14 13z" />
    <glyph glyph-name="afii10082" unicode="&#x440;" horiz-adv-x="641" 
d="M126 401v-258q33 -43 86 -67t113 -24q93 0 151 61.5t58 159.5t-58 159t-151 61q-61 0 -113.5 -24t-85.5 -68zM112 -177h-39q-13 0 -13 13v695q0 14 13 14h33q13 0 13 -14l2 -56l5 -1q79 79 199 79q119 0 197.5 -78t78.5 -202q0 -125 -78.5 -203t-197.5 -78
q-120 0 -199 79v-235q0 -13 -14 -13z" />
    <glyph glyph-name="afii10083" unicode="&#x441;" horiz-adv-x="585" 
d="M322 553q139 0 224 -105q4 -4 3.5 -9.5t-5.5 -8.5l-30 -24q-10 -8 -18 2q-66 85 -174 85q-93 0 -154 -63t-61 -157t61 -157.5t154 -63.5q109 0 175 84q8 10 18 2l29 -24q11 -8 2 -18q-84 -104 -224 -104q-121 0 -201.5 79.5t-80.5 201.5q0 120 81.5 200t200.5 80z" />
    <glyph glyph-name="afii10084" unicode="&#x442;" horiz-adv-x="526" 
d="M34 545h458q14 0 14 -14v-32q0 -14 -14 -14h-196v-471q0 -14 -14 -14h-38q-14 0 -14 14v471h-196q-14 0 -14 14v32q0 14 14 14z" />
    <glyph glyph-name="afii10085" unicode="&#x443;" horiz-adv-x="603" 
d="M507 545h52q11 0 7 -10l-233 -572q-24 -56 -65 -91t-97 -35q-6 0 -20 2q-12 2 -12 13v36q0 11 10 11q3 0 8 -0.5t8 -0.5q36 0 65 21.5t41 55.5l11 30l-245 530q-4 10 7 10h54q10 0 13 -10l200 -447h10l173 447q4 10 13 10z" />
    <glyph glyph-name="afii10086" unicode="&#x444;" horiz-adv-x="926" 
d="M443 712h40q13 0 13 -13v-196q59 50 142 50q116 0 182 -77.5t66 -202.5t-66.5 -203t-181.5 -78q-84 0 -142 51v-207q0 -13 -13 -13h-40q-13 0 -13 13v207q-58 -51 -142 -51q-115 0 -181.5 78t-66.5 203q0 124 66.5 202t181.5 78q85 0 142 -50v196q0 13 13 13zM430 110
v325q-61 58 -142 58q-88 0 -135 -61t-47 -159t47 -159.5t135 -61.5q79 0 142 58zM496 435v-325q63 -58 142 -58q88 0 135 61.5t47 159.5t-47 159t-135 61q-81 0 -142 -58z" />
    <glyph glyph-name="afii10087" unicode="&#x445;" horiz-adv-x="597" 
d="M65 545h54q12 0 18 -9l159 -206h5l154 206q7 9 19 9h56q5 0 7 -4.5t-2 -9.5l-194 -243l219 -276q3 -4 1 -8t-8 -4h-58q-9 0 -17 9l-180 236h-5l-174 -235q-7 -10 -18 -10h-58q-13 0 -6 12l215 275l-193 245q-3 4 -1.5 8.5t7.5 4.5z" />
    <glyph glyph-name="afii10088" unicode="&#x446;" horiz-adv-x="601" 
d="M516 0h-443q-13 0 -13 13v518q0 14 13 14h40q13 0 13 -14v-471h323v471q0 14 13 14h40q13 0 13 -14v-471h53q13 0 13 -13l-6 -168q0 -13 -13 -13h-29q-13 0 -13 13z" />
    <glyph glyph-name="afii10089" unicode="&#x447;" horiz-adv-x="566" 
d="M64 545h39q13 0 13 -14v-157q0 -73 42 -113.5t118 -40.5q95 0 164 26v285q0 14 13 14h39q14 0 14 -14v-518q0 -13 -14 -13h-39q-13 0 -13 13v175q-77 -28 -164 -28q-104 0 -165 57t-61 157v157q0 14 14 14z" />
    <glyph glyph-name="afii10090" unicode="&#x448;" horiz-adv-x="804" 
d="M126 60h243v472q0 13 13 13h39q14 0 14 -13v-472h243v472q0 13 13 13h40q13 0 13 -13v-519q0 -13 -13 -13h-658q-13 0 -13 13v519q0 13 13 13h40q13 0 13 -13v-472z" />
    <glyph glyph-name="afii10091" unicode="&#x449;" horiz-adv-x="830" 
d="M745 0h-672q-13 0 -13 13v519q0 13 13 13h40q13 0 13 -13v-472h243v472q0 13 13 13h39q14 0 14 -13v-472h243v472q0 13 13 13h40q13 0 13 -13v-472h53q13 0 13 -13l-6 -168q0 -13 -13 -13h-29q-13 0 -13 13z" />
    <glyph glyph-name="afii10092" unicode="&#x44a;" horiz-adv-x="648" 
d="M208 323v-263h197q64 0 100 37t36 95t-36 94.5t-100 36.5h-197zM36 545h159q13 0 13 -13v-149h197q87 0 145 -55t58 -136q0 -82 -58 -137t-145 -55h-250q-13 0 -13 13v472l-106 4q-13 0 -13 13v30q0 13 13 13z" />
    <glyph glyph-name="afii10093" unicode="&#x44b;" horiz-adv-x="718" 
d="M605 545h40q13 0 13 -13v-519q0 -13 -13 -13h-40q-13 0 -13 13v519q0 13 13 13zM126 324v-264h197q64 0 100 37t36 95t-36 95t-100 37h-197zM60 13v519q0 13 13 13h41q12 0 12 -13v-148h198q86 0 144 -55t58 -137t-58 -137t-144 -55h-251q-13 0 -13 13z" />
    <glyph glyph-name="afii10094" unicode="&#x44c;" horiz-adv-x="566" 
d="M126 324v-264h197q64 0 100 37t36 95t-36 95t-100 37h-197zM60 13v519q0 13 13 13h41q12 0 12 -13v-148h198q86 0 144 -55t58 -137t-58 -137t-144 -55h-251q-13 0 -13 13z" />
    <glyph glyph-name="afii10095" unicode="&#x44d;" horiz-adv-x="585" 
d="M263 553q121 0 201.5 -79t80.5 -201t-81.5 -201.5t-200.5 -79.5q-140 0 -224 104q-9 10 2 18l29 24q10 8 18 -2q66 -84 175 -84q90 0 149.5 55.5t65.5 143.5h-285q-14 0 -14 14v32q0 14 14 14h283q-12 82 -69.5 132t-143.5 50q-108 0 -174 -85q-8 -10 -18 -2l-30 24
q-5 3 -5.5 8.5t3.5 9.5q85 105 224 105z" />
    <glyph glyph-name="afii10096" unicode="&#x44e;" horiz-adv-x="807" 
d="M73 545h40q13 0 13 -14v-216h83q14 103 92.5 170.5t185.5 67.5q119 0 199.5 -80.5t80.5 -199.5q0 -118 -82 -199.5t-198 -81.5q-112 0 -193.5 75.5t-87.5 187.5h-80v-242q0 -13 -13 -13h-40q-13 0 -13 13v518q0 14 13 14zM487 493q-93 0 -154 -62t-61 -158
q0 -95 62.5 -158t152.5 -63q91 0 152.5 63t61.5 158q0 96 -60.5 158t-153.5 62z" />
    <glyph glyph-name="afii10097" unicode="&#x44f;" horiz-adv-x="576" 
d="M65 14l108 163q-57 21 -90 68t-33 109q0 81 58 136t145 55h250q13 0 13 -13v-519q0 -13 -13 -13h-40q-13 0 -13 13v150h-215l-94 -151q-7 -12 -18 -12h-50q-5 0 -8 4.5t0 9.5zM450 485h-194q-65 0 -102 -36.5t-37 -94.5t37 -94.5t102 -36.5h194v262z" />
    <glyph glyph-name="afii10071" unicode="&#x451;" horiz-adv-x="638" 
d="M40 272q0 122 80.5 201.5t203.5 79.5q119 0 196.5 -79.5t77.5 -201.5v-18q0 -12 -12 -12h-478q8 -83 67.5 -136.5t153.5 -53.5q97 0 186 65q10 7 18 -2l20 -27q9 -11 -3 -20q-95 -76 -221 -76q-128 0 -208.5 79t-80.5 201zM324 493q-89 0 -149 -53.5t-68 -137.5h425
q-8 83 -65 137t-143 54zM207 610q-23 0 -40 16.5t-17 39.5t17 39.5t40 16.5t40 -16.5t17 -39.5t-17 -39.5t-40 -16.5zM426 610q-23 0 -40 16.5t-17 39.5t17 39.5t40 16.5t40 -16.5t17 -39.5t-17 -39.5t-40 -16.5z" />
    <glyph glyph-name="afii10099" unicode="&#x452;" horiz-adv-x="599" 
d="M60 653v56q0 13 13 13h39q14 0 14 -13v-56h123q14 0 14 -13v-30q0 -13 -14 -13h-123v-124q71 80 186 80q108 0 172.5 -63t64.5 -181v-256q0 -79 -39.5 -135.5t-107.5 -72.5q-16 -4 -20 9l-9 26q-5 17 11 21q48 16 73.5 55.5t25.5 94.5v254q0 91 -43.5 139.5t-127.5 48.5
q-113 0 -186 -92v-388q0 -13 -14 -13h-39q-13 0 -13 13v584h-62q-13 0 -13 13v30q0 13 13 13h62z" />
    <glyph glyph-name="afii10100" unicode="&#x453;" horiz-adv-x="499" 
d="M307 794l37 -15q13 -6 8 -18l-55 -140q-6 -14 -18 -11l-28 7q-14 6 -10 17l49 151q6 14 17 9zM113 0h-40q-13 0 -13 13v519q0 13 13 13h378q13 0 13 -13v-34q0 -13 -13 -13h-325v-472q0 -13 -13 -13z" />
    <glyph glyph-name="afii10101" unicode="&#x454;" horiz-adv-x="585" 
d="M322 553q139 0 224 -105q4 -4 3.5 -9.5t-5.5 -8.5l-30 -24q-10 -8 -18 2q-66 85 -174 85q-82 0 -141 -51t-71 -131h273q14 0 14 -14v-32q0 -14 -14 -14h-275q8 -87 67.5 -143t146.5 -56q109 0 175 84q8 10 18 2l29 -24q11 -8 2 -18q-84 -104 -224 -104q-119 0 -200.5 80
t-81.5 201q0 120 81.5 200t200.5 80z" />
    <glyph glyph-name="afii10102" unicode="&#x455;" horiz-adv-x="553" 
d="M272 553q136 0 224 -78q9 -9 1 -18l-25 -29q-8 -9 -18 -1q-76 67 -184 67q-151 0 -151 -85q0 -41 38.5 -58t126.5 -28q58 -8 97 -18t73.5 -28.5t51.5 -48t17 -71.5q0 -79 -68.5 -122t-173.5 -43q-147 0 -247 88q-8 8 0 18l24 33q9 10 18 1q84 -80 206 -80
q85 0 130.5 28.5t45.5 76.5q0 49 -44.5 70.5t-138.5 32.5q-38 4 -66.5 9.5t-59.5 16.5t-50 26t-32 40t-13 57q0 65 59.5 104.5t158.5 39.5z" />
    <glyph glyph-name="afii10103" unicode="&#x456;" horiz-adv-x="186" 
d="M93 624q-25 0 -42.5 17.5t-17.5 43.5q0 25 17.5 42.5t42.5 17.5t42.5 -17.5t17.5 -42.5q0 -26 -17.5 -43.5t-42.5 -17.5zM73 545h40q13 0 13 -13v-519q0 -13 -13 -13h-40q-13 0 -13 13v519q0 13 13 13z" />
    <glyph glyph-name="afii10104" unicode="&#x457;" horiz-adv-x="186" 
d="M73 545h40q13 0 13 -13v-519q0 -13 -13 -13h-40q-13 0 -13 13v519q0 13 13 13zM0 620q-23 0 -40 16.5t-17 39.5t17 39.5t40 16.5t40 -16.5t17 -39.5t-17 -39.5t-40 -16.5zM189 620q-23 0 -40 16.5t-17 39.5t17 39.5t40 16.5t40 -16.5t17 -39.5t-17 -39.5t-40 -16.5z" />
    <glyph glyph-name="afii10105" unicode="&#x458;" horiz-adv-x="206" 
d="M114 624q-26 0 -43 17.5t-17 43.5q0 25 17 42.5t43 17.5q25 0 42.5 -17.5t17.5 -42.5q0 -26 -17.5 -43.5t-42.5 -17.5zM93 545h40q13 0 13 -13v-519q0 -80 -45.5 -127t-119.5 -47q-56 0 -98 23q-10 6 -6 16l14 31q4 10 15 5q31 -15 73 -15q101 0 101 113v520q0 13 13 13z
" />
    <glyph glyph-name="afii10106" unicode="&#x459;" horiz-adv-x="1002" 
d="M275 485l-47 -374q-15 -117 -123 -117q-56 0 -92 38q-7 9 0 16l28 31q7 7 14 0q21 -23 49 -23q50 0 59 63l56 415q2 11 14 11h336q13 0 13 -13v-148h178q86 0 144 -55t58 -137t-58 -137t-144 -55h-231q-13 0 -13 13v472h-241zM582 324v-264h177q64 0 100 37t36 95t-36 95
t-100 37h-177z" />
    <glyph glyph-name="afii10107" unicode="&#x45a;" horiz-adv-x="942" 
d="M126 314h330v218q0 13 14 13h38q14 0 14 -13v-148h178q86 0 144 -55t58 -137t-58 -137t-144 -55h-230q-14 0 -14 13v241h-330v-241q0 -13 -14 -13h-39q-13 0 -13 13v519q0 13 13 13h39q14 0 14 -13v-218zM522 324v-264h177q64 0 100 37t36 95t-36 95t-100 37h-177z" />
    <glyph glyph-name="afii10108" unicode="&#x45b;" horiz-adv-x="599" 
d="M73 722h39q14 0 14 -13v-56h123q14 0 14 -13v-30q0 -13 -14 -13h-123v-124q71 80 186 80q108 0 172.5 -63t64.5 -181v-296q0 -13 -14 -13h-39q-13 0 -13 13v292q0 91 -43.5 139.5t-127.5 48.5q-113 0 -186 -92v-388q0 -13 -14 -13h-39q-13 0 -13 13v584h-62q-13 0 -13 13
v30q0 13 13 13h62v56q0 13 13 13z" />
    <glyph glyph-name="afii10109" unicode="&#x45c;" horiz-adv-x="550" 
d="M73 545h40q13 0 13 -13v-270l297 275q8 8 18 8h57q10 0 11 -7.5t-4 -11.5l-236 -214l256 -293q14 -19 -6 -19h-54q-12 0 -19 9l-222 261l-98 -81v-176q0 -13 -13 -13h-40q-13 0 -13 13v519q0 13 13 13zM310 794l37 -15q13 -6 8 -18l-55 -140q-6 -14 -18 -11l-28 7
q-14 6 -10 17l49 151q6 14 17 9z" />
    <glyph glyph-name="afii10110" unicode="&#x45e;" horiz-adv-x="603" 
d="M507 545h52q11 0 7 -10l-233 -572q-24 -56 -65 -91t-97 -35q-6 0 -20 2q-12 2 -12 13v36q0 11 10 11q3 0 8 -0.5t8 -0.5q36 0 65 21.5t41 55.5l11 30l-245 530q-4 10 7 10h54q10 0 13 -10l200 -447h10l173 447q4 10 13 10zM173 707l31 13q11 5 17 -5q24 -47 81 -47
q56 0 80 47q6 10 17 5l31 -13q10 -4 5 -17q-37 -79 -133 -79q-95 0 -134 79q-5 13 5 17z" />
    <glyph glyph-name="afii10193" unicode="&#x45f;" horiz-adv-x="579" 
d="M505 0h-181l-3 -121q0 -13 -13 -13h-31q-14 0 -14 13l-3 121h-187q-13 0 -13 13v519q0 13 13 13h39q14 0 14 -13v-472h327v472q0 13 13 13h39q14 0 14 -13v-519q0 -13 -14 -13z" />
    <glyph glyph-name="afii10050" unicode="&#x490;" horiz-adv-x="499" 
d="M400 545l8 88q1 13 13 13h30q13 0 13 -13v-135q0 -13 -13 -13h-325v-472q0 -13 -13 -13h-40q-13 0 -13 13v519q0 13 13 13h327z" />
    <glyph glyph-name="afii10098" unicode="&#x491;" horiz-adv-x="499" 
d="M400 545l8 88q1 13 13 13h30q13 0 13 -13v-135q0 -13 -13 -13h-325v-472q0 -13 -13 -13h-40q-13 0 -13 13v519q0 13 13 13h327z" />
    <glyph glyph-name="endash" unicode="&#x2013;" horiz-adv-x="574" 
d="M60 268v34q0 13 13 13h427q14 0 14 -13v-34q0 -13 -14 -13h-427q-13 0 -13 13z" />
    <glyph glyph-name="emdash" unicode="&#x2014;" horiz-adv-x="674" 
d="M60 268v34q0 13 13 13h527q14 0 14 -13v-34q0 -13 -14 -13h-527q-13 0 -13 13z" />
    <glyph glyph-name="quoteleft" unicode="&#x2018;" horiz-adv-x="172" 
d="M38 463l39 92q5 9 15 6l20 -6q10 -1 6 -15l-15 -52q35 -9 35 -49q0 -23 -15 -37t-37 -14q-21 0 -36.5 14.5t-15.5 36.5q0 13 4 24z" />
    <glyph glyph-name="quoteright" unicode="&#x2019;" horiz-adv-x="172" 
d="M134 478l-39 -92q-5 -9 -15 -6l-20 6q-10 2 -6 15l15 52q-35 9 -35 49q0 23 15 37t37 14q21 0 36.5 -14.5t15.5 -36.5q0 -13 -4 -24z" />
    <glyph glyph-name="quotesinglbase" unicode="&#x201a;" horiz-adv-x="192" 
d="M144 17l-39 -92q-1 -9 -15 -6l-20 6q-8 1 -6 15l15 52q-15 4 -25 18t-10 31q0 23 15 37t37 14q21 0 36.5 -14.5t15.5 -36.5q0 -13 -4 -24z" />
    <glyph glyph-name="quotedblleft" unicode="&#x201c;" horiz-adv-x="279" 
d="M155 453l37 88q2 9 15 6l20 -6q8 -1 6 -15l-13 -48q15 -4 25 -18t10 -31q0 -23 -15 -37t-37 -14q-21 0 -36.5 14.5t-15.5 36.5q0 13 4 24zM28 453l40 102q2 9 15 6l20 -6q8 -1 6 -15l-16 -62q15 -4 25 -18t10 -31q0 -23 -15 -37t-37 -14q-21 0 -36.5 14.5t-15.5 36.5
q0 13 4 24z" />
    <glyph glyph-name="quotedblright" unicode="&#x201d;" horiz-adv-x="279" 
d="M124 478l-37 -88q-1 -9 -15 -6l-20 6q-8 1 -6 15l13 48q-15 4 -25 18t-10 31q0 23 15 37t37 14q21 0 36.5 -14.5t15.5 -36.5q0 -13 -4 -24zM251 478l-40 -102q-1 -9 -15 -6l-20 6q-8 1 -6 15l16 62q-15 4 -25 18t-10 31q0 23 15 37t37 14q21 0 36.5 -14.5t15.5 -36.5
q0 -13 -4 -24z" />
    <glyph glyph-name="quotedblbase" unicode="&#x201e;" horiz-adv-x="279" 
d="M124 17l-37 -88q-1 -9 -15 -6l-20 6q-8 1 -6 15l13 48q-15 4 -25 18t-10 31q0 23 15 37t37 14q21 0 36.5 -14.5t15.5 -36.5q0 -13 -4 -24zM251 17l-40 -102q-1 -9 -15 -6l-20 6q-8 1 -6 15l16 62q-15 4 -25 18t-10 31q0 23 15 37t37 14q21 0 36.5 -14.5t15.5 -36.5
q0 -13 -4 -24z" />
    <glyph glyph-name="bullet" unicode="&#x2022;" horiz-adv-x="216" 
d="M44 284q0 27 18.5 45t45.5 18t45.5 -18t18.5 -45t-18.5 -45t-45.5 -18t-45.5 18t-18.5 45z" />
    <glyph glyph-name="ellipsis" unicode="&#x2026;" horiz-adv-x="574" 
d="M44 47q0 23 16 39t39 16t39 -16t16 -39t-16 -39t-39 -16t-39 16t-16 39zM232 47q0 23 16 39t39 16t39 -16t16 -39t-16 -39t-39 -16t-39 16t-16 39zM420 47q0 23 16 39t39 16t39 -16t16 -39t-16 -39t-39 -16t-39 16t-16 39z" />
    <glyph glyph-name="guilsinglleft" unicode="&#x2039;" horiz-adv-x="221" 
d="M171 426l20 -16q11 -8 1 -18l-94 -108l94 -108q10 -10 -1 -18l-20 -16q-10 -7 -19 3l-124 129q-3 4 -3 10t3 10l124 129q9 10 19 3z" />
    <glyph glyph-name="guilsinglright" unicode="&#x203a;" horiz-adv-x="221" 
d="M50 142l-20 16q-11 8 -1 18l94 108l-94 108q-10 10 1 18l20 16q10 7 19 -3l124 -129q3 -4 3 -10t-3 -10l-124 -129q-9 -10 -19 -3z" />
    <glyph glyph-name="Euro" unicode="&#x20ac;" horiz-adv-x="610" 
d="M38 248h321q14 0 14 -13v-34q0 -13 -14 -13h-212q23 -63 76 -99.5t124 -36.5q109 0 175 84q8 10 18 2l29 -24q11 -8 2 -18q-84 -104 -224 -104q-96 0 -170 54t-100 142h-39q-13 0 -13 13v34q0 13 13 13zM38 366h41q28 84 101.5 135.5t166.5 51.5q139 0 224 -105
q4 -4 3.5 -9.5t-5.5 -8.5l-30 -24q-10 -8 -18 2q-66 85 -174 85q-68 0 -120 -34.5t-77 -92.5h209q14 0 14 -13v-34q0 -13 -14 -13h-321q-13 0 -13 13v34q0 13 13 13z" />
    <glyph glyph-name="afii61352" unicode="&#x2116;" horiz-adv-x="924" 
d="M754 445q58 0 99 -39.5t41 -98.5t-41 -98.5t-99 -39.5t-99 39.5t-41 98.5t41 98.5t99 39.5zM754 391q-38 0 -60 -24t-22 -60t22 -59.5t60 -23.5t60.5 23.5t22.5 59.5t-22.5 60t-60.5 24zM627 82v33q0 13 13 13h227q14 0 14 -13v-33q0 -13 -14 -13h-227q-13 0 -13 13z
M73 545h44q14 0 22 -11l198 -247l148 -198l7 1l-5 202v240q0 13 13 13h40q13 0 13 -13v-519q0 -13 -13 -13h-46q-12 0 -18 9l-185 233l-163 216l-7 -2l5 -202v-241q0 -13 -14 -13h-39q-13 0 -13 14v518q0 13 13 13z" />
    <glyph glyph-name="trademark" unicode="&#x2122;" horiz-adv-x="702" 
d="M602 468l-79 -187q-4 -13 -16 -13h-27q-9 0 -15 13l-78 187h-4v-187q0 -12 -11 -12h-33q-12 0 -12 11v253q0 12 12 12h59q12 0 18 -13l79 -187l80 187q4 13 16 13h58q13 0 13 -11v-253q0 -12 -11 -12h-32q-13 0 -13 12v187h-4zM184 492v-211q0 -12 -11 -12h-34
q-11 0 -11 12v211h-91q-12 0 -12 12v29q0 12 11 12h239q12 0 12 -11v-30q0 -12 -12 -12h-91z" />
    <glyph glyph-name="minus" unicode="&#x2212;" horiz-adv-x="378" 
d="M73 315h231q14 0 14 -13v-34q0 -13 -14 -13h-231q-13 0 -13 13v34q0 13 13 13z" />
    <glyph glyph-name="NULL" horiz-adv-x="0" 
 />
    <glyph glyph-name="CR" horiz-adv-x="333" 
 />
    <glyph glyph-name="dblgrave" horiz-adv-x="294" 
d="M163 782l35 12q10 4 16 -9l39 -151q3 -13 -10 -17l-27 -7q-11 -3 -16 11l-45 143q-5 12 8 18zM50 756l35 12q10 4 16 -9l47 -131q4 -11 -10 -17l-27 -7q-11 -3 -16 11l-53 123q-5 12 8 18z" />
    <glyph glyph-name="commaaccent" horiz-adv-x="216" 
d="M149 23l-40 -98q-3 -9 -16 -6l-22 6q-7 3 -6 16l16 55q-16 5 -26 19.5t-10 32.5q0 24 15.5 39t38.5 15q22 0 38 -15.5t16 -38.5q0 -14 -4 -25z" />
    <glyph glyph-name="ibreve" horiz-adv-x="186" 
d="M73 545h40q13 0 13 -13v-519q0 -13 -13 -13h-40q-13 0 -13 13v519q0 13 13 13zM-34 707l31 13q11 5 17 -5q24 -47 81 -47q56 0 80 47q6 10 17 5l31 -13q10 -4 5 -17q-37 -79 -133 -79q-95 0 -134 79q-5 13 5 17z" />
    <glyph glyph-name="Imacron" horiz-adv-x="186" 
d="M73 545h40q13 0 13 -13v-519q0 -13 -13 -13h-40q-13 0 -13 13v519q0 13 13 13zM-43 637v34q0 13 13 13h247q14 0 14 -13v-34q0 -13 -14 -13h-247q-13 0 -13 13z" />
    <glyph glyph-name="zero.slash" 
d="M40 272q0 121 81 201t200 80q121 0 201.5 -79.5t80.5 -201.5q0 -121 -80.5 -200.5t-201.5 -79.5q-119 0 -200 79.5t-81 200.5zM186 97l221 380q-36 16 -86 16q-94 0 -154 -63t-60 -158q0 -115 79 -175zM461 444l-221 -377q33 -15 81 -15q95 0 155 63t60 157
q0 108 -75 172z" />
    <glyph glyph-name="gjcopy" horiz-adv-x="345" 
d="M238 638h42q12 0 12 -11v-17q0 -10 -12 -10h-42v-177q0 -104 -79 -155q-38 -25 -73 -27q-7 0 -8 4l-5 24q-3 6 5 8q57 12 57 69v146l-27 -5q-26 0 -46 22t-20 58q0 35 23.5 56t59.5 21q12 0 21 -3l7 14q3 7 11 5l5 -2q7 -1 7 -10v-281q0 -24 -7 -37h4q24 30 24 84v211
l6 73q0 9 8 9l18 -1q9 0 9 -8v-60zM135 529v75q-8 2 -12 2q-40 0 -40 -42q0 -17 11 -27t28 -10q5 0 13 2z" />
    <glyph glyph-name="gjlogo" horiz-adv-x="1808" 
d="M170 266q-46 12 -75.5 49.5t-29.5 83.5q1 67 56 113q50 46 102 46q8 0 23.5 -1t23.5 -1q13 0 24 13l25 31q5 0 7 -2l7 -531q2 -41 -10 -76l3 -1q23 29 31 66q7 29 7 72l-2 55v12l-1 120l-5 321q0 7 5 15l28 35q1 1 3 1q5 0 8 -3q2 -2 2 -4l1 -109q0 -12 12 -12l114 7
q3 0 6 -3q9 -9 11 -25q0 -3 -2 -5q-9 -7 -14 -8q-1 -1 -8 -1l-103 2q-15 0 -15 -12l6 -351q0 -82 -21 -138q-26 -62 -70 -92l-69 -49q-50 -34 -110 -34q-20 0 -42.5 9.5t-22.5 28.5q0 5 1 6q10 28 32 38q6 2 8 2q16 0 46 -15.5t49 -15.5q30 0 51 30q26 42 24 139l-1 38
q0 7 -0.5 20.5t-0.5 21.5l-5 356q0 10 -13 14q-25 5 -44 5q-38 0 -64 -24q-33 -29 -33 -81q0 -54 29 -89q33 -40 97 -41q1 -1 1 -8q-37 -18 -82 -18zM1197 382h24v-172h-22l-114 133v-133h-24v172h20l116 -133v133zM1684 249v133h24v-172h-21l-115 133v-133h-24v172h21z
M655 306h64v-85q-27 -13 -63 -13q-42 0 -67 24q-26 26 -26 63q0 38 26 64q28 25 67 25q36 0 60 -14l-9 -19q-23 12 -52 12q-27 0 -47 -19q-20 -20 -20 -48q0 -31 20 -49t50 -18q19 0 37 6v50h-40v21zM908 382h100v-22h-75v-52h73v-22h-73v-54h80v-22h-105v172zM1417 384h18
l77 -174h-27l-58 136h-2l-56 -136h-26zM766 382h25v-149h77v-23h-102v172zM1284 382h25v-167q0 -25 -19 -44q-13 -13 -36 -16l-5 21q17 3 25 11q10 10 10 29v166z" />
    <glyph glyph-name="rupiah" horiz-adv-x="585" 
d="M90 243v289q0 13 13 13h240q88 0 145 -51t57 -130t-57 -130t-145 -51h-187v-56h179q14 0 14 -13v-27q0 -13 -14 -13l-179 -5v-56q0 -13 -13 -13h-40q-13 0 -13 13v56l-52 5q-13 0 -13 13v27q0 13 13 13h52v56l-52 5q-13 0 -13 13v29q0 13 13 13h52zM156 243h187
q65 0 100.5 33t35.5 88t-35.5 88t-100.5 33h-187v-242z" />
    <glyph glyph-name="A.c" horiz-adv-x="499" 
d="M212 545h77q13 0 16 -10l158 -521q2 -5 0 -9.5t-7 -4.5h-47q-12 0 -15 10l-31 106h-227l-29 -106q-3 -10 -15 -10h-48q-13 0 -7 14l159 520q3 11 16 11zM241 489l-88 -313h193l-90 313h-15z" />
    <glyph glyph-name="Aacute.c" horiz-adv-x="499" 
d="M212 545h77q13 0 16 -10l158 -521q2 -5 0 -9.5t-7 -4.5h-47q-12 0 -15 10l-31 106h-227l-29 -106q-3 -10 -15 -10h-48q-13 0 -7 14l159 520q3 11 16 11zM241 489l-88 -313h193l-90 313h-15zM297 794l37 -15q13 -6 8 -18l-55 -140q-6 -14 -18 -11l-28 7q-14 6 -10 17
l49 151q6 14 17 9z" />
    <glyph glyph-name="Abreve.c" horiz-adv-x="499" 
d="M212 545h77q13 0 16 -10l158 -521q2 -5 0 -9.5t-7 -4.5h-47q-12 0 -15 10l-31 106h-227l-29 -106q-3 -10 -15 -10h-48q-13 0 -7 14l159 520q3 11 16 11zM241 489l-88 -313h193l-90 313h-15zM121 707l31 13q11 5 17 -5q24 -47 81 -47q56 0 80 47q6 10 17 5l31 -13
q10 -4 5 -17q-37 -79 -133 -79q-95 0 -134 79q-5 13 5 17z" />
    <glyph glyph-name="Acircumflex.c" horiz-adv-x="499" 
d="M212 545h77q13 0 16 -10l158 -521q2 -5 0 -9.5t-7 -4.5h-47q-12 0 -15 10l-31 106h-227l-29 -106q-3 -10 -15 -10h-48q-13 0 -7 14l159 520q3 11 16 11zM241 489l-88 -313h193l-90 313h-15zM390 632l-10 -17q-7 -12 -19 -7l-112 55l-112 -54q-12 -5 -19 7l-10 16
q-6 12 2 20l130 76q6 2 9 2q2 0 8 -2l131 -76q8 -8 2 -20z" />
    <glyph glyph-name="Agrave.c" horiz-adv-x="499" 
d="M212 545h77q13 0 16 -10l158 -521q2 -5 0 -9.5t-7 -4.5h-47q-12 0 -15 10l-31 106h-227l-29 -106q-3 -10 -15 -10h-48q-13 0 -7 14l159 520q3 11 16 11zM241 489l-88 -313h193l-90 313h-15zM165 779l38 15q10 4 16 -9l49 -151q4 -11 -10 -17l-30 -7q-11 -3 -16 11
l-55 140q-5 12 8 18z" />
    <glyph glyph-name="Adieresis.c" horiz-adv-x="499" 
d="M212 545h77q13 0 16 -10l158 -521q2 -5 0 -9.5t-7 -4.5h-47q-12 0 -15 10l-31 106h-227l-29 -106q-3 -10 -15 -10h-48q-13 0 -7 14l159 520q3 11 16 11zM241 489l-88 -313h193l-90 313h-15zM156 610q-23 0 -40 16.5t-17 39.5t17 39.5t40 16.5t40 -16.5t17 -39.5
t-17 -39.5t-40 -16.5zM345 610q-23 0 -40 16.5t-17 39.5t17 39.5t40 16.5t40 -16.5t17 -39.5t-17 -39.5t-40 -16.5z" />
    <glyph glyph-name="Amacron.c" horiz-adv-x="499" 
d="M212 545h77q13 0 16 -10l158 -521q2 -5 0 -9.5t-7 -4.5h-47q-12 0 -15 10l-31 106h-227l-29 -106q-3 -10 -15 -10h-48q-13 0 -7 14l159 520q3 11 16 11zM241 489l-88 -313h193l-90 313h-15zM87 645v30q0 13 13 13h297q14 0 14 -13v-30q0 -13 -14 -13h-297q-13 0 -13 13z
" />
    <glyph glyph-name="Aogonek.c" horiz-adv-x="499" 
d="M212 545h77q13 0 16 -10l158 -521q5 -11 -6 -14q-34 -13 -34 -57q0 -50 60 -67q14 -6 10 -15l-7 -27q-3 -12 -16 -9q-52 9 -78 41t-26 77q0 44 27 70l-30 103h-227l-29 -106q-3 -10 -15 -10h-48q-13 0 -7 14l159 520q3 11 16 11zM241 489l-88 -313h193l-90 313h-15z" />
    <glyph glyph-name="Aring.c" horiz-adv-x="499" 
d="M212 545h77q13 0 16 -10l158 -521q2 -5 0 -9.5t-7 -4.5h-47q-12 0 -15 10l-31 106h-227l-29 -106q-3 -10 -15 -10h-48q-13 0 -7 14l159 520q3 11 16 11zM241 489l-88 -313h193l-90 313h-15zM249 808q45 0 75.5 -28.5t30.5 -73.5t-30.5 -73.5t-75.5 -28.5q-44 0 -75 29
t-31 73t31 73t75 29zM249 760q-24 0 -39.5 -15t-15.5 -39t15.5 -39t39.5 -15t39.5 15t15.5 39t-15.5 39t-39.5 15z" />
    <glyph glyph-name="Atilde.c" horiz-adv-x="499" 
d="M212 545h77q13 0 16 -10l158 -521q2 -5 0 -9.5t-7 -4.5h-47q-12 0 -15 10l-31 106h-227l-29 -106q-3 -10 -15 -10h-48q-13 0 -7 14l159 520q3 11 16 11zM241 489l-88 -313h193l-90 313h-15zM389 687l22 -26q6 -7 0 -13q-37 -45 -100 -45q-34 0 -77 24t-65 24
q-24 0 -46 -20q-8 -8 -15 -1l-20 20q-7 7 -1 15q32 41 83 41q34 0 77 -24t64 -24q39 0 66 28q6 6 12 1z" />
    <glyph glyph-name="AE.c" horiz-adv-x="676" 
d="M388 485v-168h196q13 0 13 -13v-34q0 -13 -13 -13h-196v-197h225q13 0 13 -12v-35q0 -13 -13 -13h-278q-13 0 -13 13v103h-187l-45 -106q-4 -10 -19 -10h-47q-13 0 -7 14l231 520q4 11 22 11h333q13 0 13 -13v-34q0 -13 -13 -13h-215zM291 485l-131 -309h162v309h-31z
" />
    <glyph glyph-name="B.c" horiz-adv-x="473" 
d="M126 485v-152h119q35 0 59 20t24 55q0 36 -23 56.5t-65 20.5h-114zM342 309v-4q42 -14 66.5 -53t24.5 -84q0 -70 -51 -119t-126 -49h-183q-13 0 -13 13v520q0 12 12 12h167q71 0 113 -39.5t42 -97.5q0 -28 -14.5 -56.5t-37.5 -42.5zM126 272v-211h127q51 0 82.5 29.5
t31.5 77.5t-30.5 76t-83.5 28h-127z" />
    <glyph glyph-name="C.c" horiz-adv-x="459" 
d="M40 273q0 127 58.5 203.5t150.5 76.5q61 0 105 -29t65 -77q6 -14 -2 -18l-32 -20q-12 -7 -19 5q-36 79 -117 79q-67 0 -104.5 -58.5t-37.5 -161.5t38.5 -162t105.5 -59q81 0 117 79q7 12 19 5l32 -20q8 -4 2 -18q-21 -48 -65 -77t-105 -29q-98 0 -154.5 76t-56.5 205z
" />
    <glyph glyph-name="Cacute.c" horiz-adv-x="459" 
d="M40 273q0 127 58.5 203.5t150.5 76.5q61 0 105 -29t65 -77q6 -14 -2 -18l-32 -20q-12 -7 -19 5q-36 79 -117 79q-67 0 -104.5 -58.5t-37.5 -161.5t38.5 -162t105.5 -59q81 0 117 79q7 12 19 5l32 -20q8 -4 2 -18q-21 -48 -65 -77t-105 -29q-98 0 -154.5 76t-56.5 205z
M300 794l37 -15q13 -6 8 -18l-55 -140q-6 -14 -18 -11l-28 7q-14 6 -10 17l49 151q6 14 17 9z" />
    <glyph glyph-name="Ccaron.c" horiz-adv-x="459" 
d="M40 273q0 127 58.5 203.5t150.5 76.5q61 0 105 -29t65 -77q6 -14 -2 -18l-32 -20q-12 -7 -19 5q-36 79 -117 79q-67 0 -104.5 -58.5t-37.5 -161.5t38.5 -162t105.5 -59q81 0 117 79q7 12 19 5l32 -20q8 -4 2 -18q-21 -48 -65 -77t-105 -29q-98 0 -154.5 76t-56.5 205z
M108 702l10 17q7 12 19 7l112 -55l112 54q12 5 19 -7l10 -16q6 -12 -2 -20l-130 -76q-6 -2 -9 -2q-2 0 -8 2l-131 76q-8 8 -2 20z" />
    <glyph glyph-name="Ccedilla.c" horiz-adv-x="459" 
d="M40 273q0 127 58.5 203.5t150.5 76.5q61 0 105 -29t65 -77q6 -14 -2 -18l-32 -20q-12 -7 -19 5q-36 79 -117 79q-67 0 -104.5 -58.5t-37.5 -161.5t38.5 -162t105.5 -59q81 0 117 79q7 12 19 5l32 -20q8 -4 2 -18q-21 -48 -65 -77t-105 -29q-98 0 -154.5 76t-56.5 205z
M243 -42q40 0 61.5 -23t21.5 -60q0 -38 -32.5 -72t-85.5 -44q-13 -3 -16 9l-7 22q-2 5 1 9.5t9 5.5q34 6 54.5 27t20.5 43q0 32 -36 32q-17 0 -34 -7q-8 -3 -13 5l-11 27q-3 8 6 13q27 13 61 13z" />
    <glyph glyph-name="Ccircumflex.c" horiz-adv-x="459" 
d="M40 273q0 127 58.5 203.5t150.5 76.5q61 0 105 -29t65 -77q6 -14 -2 -18l-32 -20q-12 -7 -19 5q-36 79 -117 79q-67 0 -104.5 -58.5t-37.5 -161.5t38.5 -162t105.5 -59q81 0 117 79q7 12 19 5l32 -20q8 -4 2 -18q-21 -48 -65 -77t-105 -29q-98 0 -154.5 76t-56.5 205z
M394 632l-10 -17q-7 -12 -19 -7l-112 55l-112 -54q-12 -5 -19 7l-10 16q-6 12 2 20l130 76q6 2 9 2q2 0 8 -2l131 -76q8 -8 2 -20z" />
    <glyph glyph-name="Cdotaccent.c" horiz-adv-x="459" 
d="M40 273q0 127 58.5 203.5t150.5 76.5q61 0 105 -29t65 -77q6 -14 -2 -18l-32 -20q-12 -7 -19 5q-36 79 -117 79q-67 0 -104.5 -58.5t-37.5 -161.5t38.5 -162t105.5 -59q81 0 117 79q7 12 19 5l32 -20q8 -4 2 -18q-21 -48 -65 -77t-105 -29q-98 0 -154.5 76t-56.5 205z
M252 607q-25 0 -44 18.5t-19 44.5t19 44t44 18q26 0 45 -18t19 -44t-19 -44.5t-45 -18.5z" />
    <glyph glyph-name="D.c" horiz-adv-x="488" 
d="M126 485v-424h58q92 0 144 58t52 154q0 95 -52 153.5t-144 58.5h-58zM73 545h108q119 0 193 -76t74 -196q0 -122 -74 -197.5t-193 -75.5h-108q-13 0 -13 13v518q0 14 13 14z" />
    <glyph glyph-name="Dcaron.c" horiz-adv-x="498" 
d="M126 485v-424h58q92 0 144 58t52 154q0 95 -52 153.5t-144 58.5h-58zM73 545h108q119 0 193 -76t74 -196q0 -122 -74 -197.5t-193 -75.5h-108q-13 0 -13 13v518q0 14 13 14zM71 702l10 17q7 12 19 7l112 -55l112 54q12 5 19 -7l10 -16q6 -12 -2 -20l-130 -76q-6 -2 -9 -2
q-2 0 -8 2l-131 76q-8 8 -2 20z" />
    <glyph glyph-name="Dcroat.c" horiz-adv-x="508" 
d="M83 545h103q121 0 201.5 -76.5t80.5 -195.5q0 -120 -80.5 -196.5t-201.5 -76.5h-103q-13 0 -13 13v238h-39q-13 0 -13 13v32q0 13 13 13h39v222q0 14 13 14zM136 485v-176h112q14 0 14 -13v-32q0 -13 -14 -13h-112v-190h53q94 0 152.5 59t58.5 153q0 93 -59 152.5
t-152 59.5h-53z" />
    <glyph glyph-name="E.c" horiz-adv-x="434" 
d="M73 545h288q13 0 13 -13v-34q0 -13 -13 -13h-235v-168h216q13 0 13 -13v-34q0 -13 -13 -13h-216v-197h245q13 0 13 -12v-35q0 -13 -13 -13h-298q-13 0 -13 13v519q0 13 13 13z" />
    <glyph glyph-name="Eacute.c" horiz-adv-x="434" 
d="M73 545h288q13 0 13 -13v-34q0 -13 -13 -13h-235v-168h216q13 0 13 -13v-34q0 -13 -13 -13h-216v-197h245q13 0 13 -12v-35q0 -13 -13 -13h-298q-13 0 -13 13v519q0 13 13 13zM267 794l37 -15q13 -6 8 -18l-55 -140q-6 -14 -18 -11l-28 7q-14 6 -10 17l49 151q6 14 17 9z
" />
    <glyph glyph-name="Ebreve.c" horiz-adv-x="434" 
d="M73 545h288q13 0 13 -13v-34q0 -13 -13 -13h-235v-168h216q13 0 13 -13v-34q0 -13 -13 -13h-216v-197h245q13 0 13 -12v-35q0 -13 -13 -13h-298q-13 0 -13 13v519q0 13 13 13zM88 707l31 13q11 5 17 -5q24 -47 81 -47q56 0 80 47q6 10 17 5l31 -13q10 -4 5 -17
q-37 -79 -133 -79q-95 0 -134 79q-5 13 5 17z" />
    <glyph glyph-name="Ecaron.c" horiz-adv-x="434" 
d="M73 545h288q13 0 13 -13v-34q0 -13 -13 -13h-235v-168h216q13 0 13 -13v-34q0 -13 -13 -13h-216v-197h245q13 0 13 -12v-35q0 -13 -13 -13h-298q-13 0 -13 13v519q0 13 13 13zM76 702l10 17q7 12 19 7l112 -55l112 54q12 5 19 -7l10 -16q6 -12 -2 -20l-130 -76
q-6 -2 -9 -2q-2 0 -8 2l-131 76q-8 8 -2 20z" />
    <glyph glyph-name="Ecircumflex.c" horiz-adv-x="434" 
d="M73 545h288q13 0 13 -13v-34q0 -13 -13 -13h-235v-168h216q13 0 13 -13v-34q0 -13 -13 -13h-216v-197h245q13 0 13 -12v-35q0 -13 -13 -13h-298q-13 0 -13 13v519q0 13 13 13zM362 632l-10 -17q-7 -12 -19 -7l-112 55l-112 -54q-12 -5 -19 7l-10 16q-6 12 2 20l130 76
q6 2 9 2q2 0 8 -2l131 -76q8 -8 2 -20z" />
    <glyph glyph-name="Edieresis.c" horiz-adv-x="434" 
d="M73 545h288q13 0 13 -13v-34q0 -13 -13 -13h-235v-168h216q13 0 13 -13v-34q0 -13 -13 -13h-216v-197h245q13 0 13 -12v-35q0 -13 -13 -13h-298q-13 0 -13 13v519q0 13 13 13zM124 610q-23 0 -40 16.5t-17 39.5t17 39.5t40 16.5t40 -16.5t17 -39.5t-17 -39.5t-40 -16.5z
M313 610q-23 0 -40 16.5t-17 39.5t17 39.5t40 16.5t40 -16.5t17 -39.5t-17 -39.5t-40 -16.5z" />
    <glyph glyph-name="Edotaccent.c" horiz-adv-x="434" 
d="M73 545h288q13 0 13 -13v-34q0 -13 -13 -13h-235v-168h216q13 0 13 -13v-34q0 -13 -13 -13h-216v-197h245q13 0 13 -12v-35q0 -13 -13 -13h-298q-13 0 -13 13v519q0 13 13 13zM225 607q-25 0 -44 18.5t-19 44.5t19 44t44 18q26 0 45 -18t19 -44t-19 -44.5t-45 -18.5z" />
    <glyph glyph-name="Egrave.c" horiz-adv-x="434" 
d="M73 545h288q13 0 13 -13v-34q0 -13 -13 -13h-235v-168h216q13 0 13 -13v-34q0 -13 -13 -13h-216v-197h245q13 0 13 -12v-35q0 -13 -13 -13h-298q-13 0 -13 13v519q0 13 13 13zM149 779l38 15q10 4 16 -9l49 -151q4 -11 -10 -17l-30 -7q-11 -3 -16 11l-55 140q-5 12 8 18z
" />
    <glyph glyph-name="Emacron.c" horiz-adv-x="434" 
d="M73 545h288q13 0 13 -13v-34q0 -13 -13 -13h-235v-168h216q13 0 13 -13v-34q0 -13 -13 -13h-216v-197h245q13 0 13 -12v-35q0 -13 -13 -13h-298q-13 0 -13 13v519q0 13 13 13zM55 645v30q0 13 13 13h297q14 0 14 -13v-30q0 -13 -14 -13h-297q-13 0 -13 13z" />
    <glyph glyph-name="Eogonek.c" horiz-adv-x="434" 
d="M73 545h288q13 0 13 -13v-34q0 -13 -13 -13h-235v-168h216q13 0 13 -13v-34q0 -13 -13 -13h-216v-197h245q13 0 13 -12v-32q0 -11 -10 -15q-36 -19 -36 -58q0 -50 60 -67q14 -6 10 -15l-7 -27q-3 -12 -16 -9q-52 9 -78 39.5t-26 68.5q0 45 25 67h-233q-13 0 -13 13v519
q0 13 13 13z" />
    <glyph glyph-name="F.c" horiz-adv-x="422" 
d="M73 545h286q13 0 13 -13v-34q0 -13 -13 -13h-233v-172h204q12 0 12 -13v-34q0 -13 -12 -13h-204v-240q0 -13 -13 -13h-40q-13 0 -13 13v519q0 13 13 13z" />
    <glyph glyph-name="G.c" horiz-adv-x="479" 
d="M379 294h37q13 0 13 -13v-268q0 -13 -13 -13h-24q-11 0 -14 13l-7 40q-52 -61 -123 -61q-96 0 -152 79t-56 202q0 127 58.5 203.5t150.5 76.5q61 0 105 -29t65 -77q6 -14 -2 -18l-32 -20q-12 -7 -19 5q-36 79 -117 79q-67 0 -104.5 -58.5t-37.5 -161.5q0 -99 35 -160
t106 -61q78 0 117 77v152q0 13 14 13z" />
    <glyph glyph-name="Gbreve.c" horiz-adv-x="489" 
d="M379 294h37q13 0 13 -13v-268q0 -13 -13 -13h-24q-11 0 -14 13l-7 40q-52 -61 -123 -61q-96 0 -152 79t-56 202q0 127 58.5 203.5t150.5 76.5q61 0 105 -29t65 -77q6 -14 -2 -18l-32 -20q-12 -7 -19 5q-36 79 -117 79q-67 0 -104.5 -58.5t-37.5 -161.5q0 -99 35 -160
t106 -61q78 0 117 77v152q0 13 14 13zM123 707l31 13q11 5 17 -5q24 -47 81 -47q56 0 80 47q6 10 17 5l31 -13q10 -4 5 -17q-37 -79 -133 -79q-95 0 -134 79q-5 13 5 17z" />
    <glyph glyph-name="Gcircumflex.c" horiz-adv-x="489" 
d="M379 294h37q13 0 13 -13v-268q0 -13 -13 -13h-24q-11 0 -14 13l-7 40q-52 -61 -123 -61q-96 0 -152 79t-56 202q0 127 58.5 203.5t150.5 76.5q61 0 105 -29t65 -77q6 -14 -2 -18l-32 -20q-12 -7 -19 5q-36 79 -117 79q-67 0 -104.5 -58.5t-37.5 -161.5q0 -99 35 -160
t106 -61q78 0 117 77v152q0 13 14 13zM393 632l-10 -17q-7 -12 -19 -7l-112 55l-112 -54q-12 -5 -19 7l-10 16q-6 12 2 20l130 76q6 2 9 2q2 0 8 -2l131 -76q8 -8 2 -20z" />
    <glyph glyph-name="Gcommaaccent.c" horiz-adv-x="489" 
d="M379 294h37q13 0 13 -13v-268q0 -13 -13 -13h-24q-11 0 -14 13l-7 40q-52 -61 -123 -61q-96 0 -152 79t-56 202q0 127 58.5 203.5t150.5 76.5q61 0 105 -29t65 -77q6 -14 -2 -18l-32 -20q-12 -7 -19 5q-36 79 -117 79q-67 0 -104.5 -58.5t-37.5 -161.5q0 -99 35 -160
t106 -61q78 0 117 77v152q0 13 14 13zM303 -132l-40 -98q-3 -9 -16 -6l-22 6q-7 3 -6 16l16 55q-16 5 -26 19.5t-10 32.5q0 24 15.5 39t38.5 15q22 0 38 -15.5t16 -38.5q0 -14 -4 -25z" />
    <glyph glyph-name="Gdotaccent.c" horiz-adv-x="489" 
d="M379 294h37q13 0 13 -13v-268q0 -13 -13 -13h-24q-11 0 -14 13l-7 40q-52 -61 -123 -61q-96 0 -152 79t-56 202q0 127 58.5 203.5t150.5 76.5q61 0 105 -29t65 -77q6 -14 -2 -18l-32 -20q-12 -7 -19 5q-36 79 -117 79q-67 0 -104.5 -58.5t-37.5 -161.5q0 -99 35 -160
t106 -61q78 0 117 77v152q0 13 14 13zM254 607q-25 0 -44 18.5t-19 44.5t19 44t44 18q26 0 45 -18t19 -44t-19 -44.5t-45 -18.5z" />
    <glyph glyph-name="H.c" horiz-adv-x="492" 
d="M73 545h39q14 0 14 -13v-218h240v218q0 13 14 13h38q14 0 14 -13v-519q0 -13 -14 -13h-38q-14 0 -14 13v241h-240v-241q0 -13 -14 -13h-39q-13 0 -13 13v519q0 13 13 13z" />
    <glyph glyph-name="Hbar.c" horiz-adv-x="482" 
d="M73 545h39q14 0 14 -13v-74h230v74q0 13 14 13h38q14 0 14 -13v-74h31q14 0 14 -13v-30q0 -13 -14 -13h-31v-389q0 -13 -14 -13h-38q-14 0 -14 13v241h-230v-241q0 -13 -14 -13h-39q-13 0 -13 13v389h-32q-13 0 -13 13v30q0 13 13 13h32v74q0 13 13 13zM126 314h230v88
h-230v-88z" />
    <glyph glyph-name="Hcircumflex.c" horiz-adv-x="492" 
d="M73 545h39q14 0 14 -13v-218h240v218q0 13 14 13h38q14 0 14 -13v-519q0 -13 -14 -13h-38q-14 0 -14 13v241h-240v-241q0 -13 -14 -13h-39q-13 0 -13 13v519q0 13 13 13zM387 632l-10 -17q-7 -12 -19 -7l-112 55l-112 -54q-12 -5 -19 7l-10 16q-6 12 2 20l130 76q6 2 9 2
q2 0 8 -2l131 -76q8 -8 2 -20z" />
    <glyph glyph-name="J.c" horiz-adv-x="311" 
d="M198 545h43q10 0 10 -11v-339q0 -195 -185 -195h-22q-14 0 -13 16l2 33q0 11 14 11h21q117 0 117 135v338q0 12 13 12z" />
    <glyph glyph-name="Jcircumflex.c" horiz-adv-x="311" 
d="M198 545h43q10 0 10 -11v-339q0 -195 -185 -195h-22q-14 0 -13 16l2 33q0 11 14 11h21q117 0 117 135v338q0 12 13 12zM358 632l-10 -17q-7 -12 -19 -7l-112 55l-112 -54q-12 -5 -19 7l-10 16q-6 12 2 20l130 76q6 2 9 2q2 0 8 -2l131 -76q8 -8 2 -20z" />
    <glyph glyph-name="K.c" horiz-adv-x="450" 
d="M73 545h40q13 0 13 -13v-246l201 251q5 8 18 8h49q10 0 11 -7.5t-4 -11.5l-181 -219l205 -288q14 -19 -6 -19h-50q-11 0 -19 9l-173 254l-51 -54v-196q0 -13 -13 -13h-40q-13 0 -13 13v519q0 13 13 13z" />
    <glyph glyph-name="Kcommaaccent.c" horiz-adv-x="450" 
d="M73 545h40q13 0 13 -13v-246l201 251q5 8 18 8h49q10 0 11 -7.5t-4 -11.5l-181 -219l205 -288q14 -19 -6 -19h-50q-11 0 -19 9l-173 254l-51 -54v-196q0 -13 -13 -13h-40q-13 0 -13 13v519q0 13 13 13zM293 -95l-40 -98q-3 -9 -16 -6l-22 6q-7 3 -6 16l16 55
q-16 5 -26 19.5t-10 32.5q0 24 15.5 39t38.5 15q22 0 38 -15.5t16 -38.5q0 -14 -4 -25z" />
    <glyph glyph-name="L.c" horiz-adv-x="399" 
d="M73 545h40q13 0 13 -13v-472h219q14 0 14 -14v-32q0 -14 -14 -14h-271q-14 0 -14 14v518q0 13 13 13z" />
    <glyph glyph-name="Lacute.c" horiz-adv-x="399" 
d="M73 545h40q13 0 13 -13v-472h219q14 0 14 -14v-32q0 -14 -14 -14h-271q-14 0 -14 14v518q0 13 13 13zM140 794l37 -15q13 -6 8 -18l-55 -140q-6 -14 -18 -11l-28 7q-14 6 -10 17l49 151q6 14 17 9z" />
    <glyph glyph-name="Lcaron.c" horiz-adv-x="399" 
d="M73 545h40q13 0 13 -13v-472h219q14 0 14 -14v-32q0 -14 -14 -14h-271q-14 0 -14 14v518q0 13 13 13zM343 356l-40 -98q-3 -9 -16 -6l-22 6q-7 3 -6 16l16 55q-16 5 -26 19.5t-10 32.5q0 24 15.5 39t38.5 15q22 0 38 -15.5t16 -38.5q0 -14 -4 -25z" />
    <glyph glyph-name="Lcommaaccent.c" horiz-adv-x="399" 
d="M73 545h40q13 0 13 -13v-472h219q14 0 14 -14v-32q0 -14 -14 -14h-271q-14 0 -14 14v518q0 13 13 13zM270 -117l-40 -98q-3 -9 -16 -6l-22 6q-7 3 -6 16l16 55q-16 5 -26 19.5t-10 32.5q0 24 15.5 39t38.5 15q22 0 38 -15.5t16 -38.5q0 -14 -4 -25z" />
    <glyph glyph-name="Ldot.c" horiz-adv-x="399" 
d="M73 545h40q13 0 13 -13v-472h219q14 0 14 -14v-32q0 -14 -14 -14h-271q-14 0 -14 14v518q0 13 13 13zM211 329q0 23 16 39t39 16t39 -16t16 -39t-16 -39t-39 -16t-39 16t-16 39z" />
    <glyph glyph-name="Lslash.c" horiz-adv-x="419" 
d="M93 545h40q13 0 13 -13v-216l98 29q11 4 17 -9l8 -30q5 -11 -10 -17l-113 -33v-196h219q14 0 14 -14v-32q0 -14 -14 -14h-271q-14 0 -14 14v223l-40 -11q-10 -4 -16 9l-8 30q-3 12 10 16l54 16v235q0 13 13 13z" />
    <glyph glyph-name="M.c" horiz-adv-x="579" 
d="M436 545h70q13 0 13 -13v-518q0 -14 -13 -14h-39q-14 0 -14 14v259l4 192l-5 1l-129 -309q-4 -13 -17 -13h-30q-12 0 -18 13l-131 309l-5 -1l4 -181v-270q0 -14 -13 -14h-40q-13 0 -13 14v518q0 13 13 13h71q13 0 19 -14l127 -297h5l122 297q6 14 19 14z" />
    <glyph glyph-name="N.c" horiz-adv-x="501" 
d="M423 0h-53q-12 0 -18 9l-123 233l-105 214l-4 -2l5 -200v-241q0 -13 -14 -13h-38q-13 0 -13 14v518q0 13 13 13h49q14 0 22 -11l131 -247l97 -196l4 1l-5 200v240q0 13 13 13h39q13 0 13 -13v-519q0 -13 -13 -13z" />
    <glyph glyph-name="Nacute.c" horiz-adv-x="501" 
d="M423 0h-53q-12 0 -18 9l-123 233l-105 214l-4 -2l5 -200v-241q0 -13 -14 -13h-38q-13 0 -13 14v518q0 13 13 13h49q14 0 22 -11l131 -247l97 -196l4 1l-5 200v240q0 13 13 13h39q13 0 13 -13v-519q0 -13 -13 -13zM295 794l37 -15q13 -6 8 -18l-55 -140q-6 -14 -18 -11
l-28 7q-14 6 -10 17l49 151q6 14 17 9z" />
    <glyph glyph-name="Ncaron.c" horiz-adv-x="501" 
d="M423 0h-53q-12 0 -18 9l-123 233l-105 214l-4 -2l5 -200v-241q0 -13 -14 -13h-38q-13 0 -13 14v518q0 13 13 13h49q14 0 22 -11l131 -247l97 -196l4 1l-5 200v240q0 13 13 13h39q13 0 13 -13v-519q0 -13 -13 -13zM109 702l10 17q7 12 19 7l112 -55l112 54q12 5 19 -7
l10 -16q6 -12 -2 -20l-130 -76q-6 -2 -9 -2q-2 0 -8 2l-131 76q-8 8 -2 20z" />
    <glyph glyph-name="Ncommaaccent.c" horiz-adv-x="501" 
d="M423 0h-53q-12 0 -18 9l-123 233l-105 214l-4 -2l5 -200v-241q0 -13 -14 -13h-38q-13 0 -13 14v518q0 13 13 13h49q14 0 22 -11l131 -247l97 -196l4 1l-5 200v240q0 13 13 13h39q13 0 13 -13v-519q0 -13 -13 -13zM300 -95l-40 -98q-3 -9 -16 -6l-22 6q-7 3 -6 16l16 55
q-16 5 -26 19.5t-10 32.5q0 24 15.5 39t38.5 15q22 0 38 -15.5t16 -38.5q0 -14 -4 -25z" />
    <glyph glyph-name="Ntilde.c" horiz-adv-x="501" 
d="M423 0h-53q-12 0 -18 9l-123 233l-105 214l-4 -2l5 -200v-241q0 -13 -14 -13h-38q-13 0 -13 14v518q0 13 13 13h49q14 0 22 -11l131 -247l97 -196l4 1l-5 200v240q0 13 13 13h39q13 0 13 -13v-519q0 -13 -13 -13zM390 687l22 -26q6 -7 0 -13q-38 -45 -100 -45
q-34 0 -77 24t-65 24q-24 0 -46 -20q-8 -8 -15 -1l-20 20q-7 7 -1 15q32 41 83 41q34 0 77 -24t64 -24q39 0 66 28q6 6 12 1z" />
    <glyph glyph-name="O.c" horiz-adv-x="512" 
d="M472 273q0 -124 -60.5 -202.5t-155.5 -78.5q-98 0 -157 78t-59 203q0 124 60 202t156 78q98 0 157 -77.5t59 -202.5zM107 273q0 -104 39.5 -162.5t109.5 -58.5t109.5 58.5t39.5 162.5t-39.5 162t-109.5 58t-109.5 -58t-39.5 -162z" />
    <glyph glyph-name="Oacute.c" horiz-adv-x="512" 
d="M472 273q0 -124 -60.5 -202.5t-155.5 -78.5q-98 0 -157 78t-59 203q0 124 60 202t156 78q98 0 157 -77.5t59 -202.5zM107 273q0 -104 39.5 -162.5t109.5 -58.5t109.5 58.5t39.5 162.5t-39.5 162t-109.5 58t-109.5 -58t-39.5 -162zM313 794l37 -15q13 -6 8 -18l-55 -140
q-6 -14 -18 -11l-28 7q-14 6 -10 17l49 151q6 14 17 9z" />
    <glyph glyph-name="Obreve.c" horiz-adv-x="512" 
d="M472 273q0 -124 -60.5 -202.5t-155.5 -78.5q-98 0 -157 78t-59 203q0 124 60 202t156 78q98 0 157 -77.5t59 -202.5zM107 273q0 -104 39.5 -162.5t109.5 -58.5t109.5 58.5t39.5 162.5t-39.5 162t-109.5 58t-109.5 -58t-39.5 -162zM128 707l31 13q11 5 17 -5
q24 -47 81 -47q56 0 80 47q6 10 17 5l31 -13q10 -4 5 -17q-37 -79 -133 -79q-95 0 -134 79q-5 13 5 17z" />
    <glyph glyph-name="Ocircumflex.c" horiz-adv-x="512" 
d="M472 273q0 -124 -60.5 -202.5t-155.5 -78.5q-98 0 -157 78t-59 203q0 124 60 202t156 78q98 0 157 -77.5t59 -202.5zM107 273q0 -104 39.5 -162.5t109.5 -58.5t109.5 58.5t39.5 162.5t-39.5 162t-109.5 58t-109.5 -58t-39.5 -162zM397 632l-10 -17q-7 -12 -19 -7l-112 55
l-112 -54q-12 -5 -19 7l-10 16q-6 12 2 20l130 76q6 2 9 2q2 0 8 -2l131 -76q8 -8 2 -20z" />
    <glyph glyph-name="Odieresis.c" horiz-adv-x="512" 
d="M472 273q0 -124 -60.5 -202.5t-155.5 -78.5q-98 0 -157 78t-59 203q0 124 60 202t156 78q98 0 157 -77.5t59 -202.5zM107 273q0 -104 39.5 -162.5t109.5 -58.5t109.5 58.5t39.5 162.5t-39.5 162t-109.5 58t-109.5 -58t-39.5 -162zM162 610q-23 0 -40 16.5t-17 39.5
t17 39.5t40 16.5t40 -16.5t17 -39.5t-17 -39.5t-40 -16.5zM351 610q-23 0 -40 16.5t-17 39.5t17 39.5t40 16.5t40 -16.5t17 -39.5t-17 -39.5t-40 -16.5z" />
    <glyph glyph-name="Ograve.c" horiz-adv-x="512" 
d="M472 273q0 -124 -60.5 -202.5t-155.5 -78.5q-98 0 -157 78t-59 203q0 124 60 202t156 78q98 0 157 -77.5t59 -202.5zM107 273q0 -104 39.5 -162.5t109.5 -58.5t109.5 58.5t39.5 162.5t-39.5 162t-109.5 58t-109.5 -58t-39.5 -162zM178 779l38 15q10 4 16 -9l49 -151
q4 -11 -10 -17l-30 -7q-11 -3 -16 11l-55 140q-5 12 8 18z" />
    <glyph glyph-name="Ohungarumlaut.c" horiz-adv-x="512" 
d="M472 273q0 -124 -60.5 -202.5t-155.5 -78.5q-98 0 -157 78t-59 203q0 124 60 202t156 78q98 0 157 -77.5t59 -202.5zM107 273q0 -104 39.5 -162.5t109.5 -58.5t109.5 58.5t39.5 162.5t-39.5 162t-109.5 58t-109.5 -58t-39.5 -162zM243 794l35 -12q13 -6 8 -18l-45 -143
q-5 -14 -16 -11l-27 7q-13 4 -10 17l39 151q6 13 16 9zM356 768l35 -12q13 -6 8 -18l-53 -123q-5 -14 -16 -11l-27 7q-14 6 -10 17l47 131q6 13 16 9z" />
    <glyph glyph-name="Omacron.c" horiz-adv-x="512" 
d="M472 273q0 -124 -60.5 -202.5t-155.5 -78.5q-98 0 -157 78t-59 203q0 124 60 202t156 78q98 0 157 -77.5t59 -202.5zM107 273q0 -104 39.5 -162.5t109.5 -58.5t109.5 58.5t39.5 162.5t-39.5 162t-109.5 58t-109.5 -58t-39.5 -162zM94 645v30q0 13 13 13h297q14 0 14 -13
v-30q0 -13 -14 -13h-297q-13 0 -13 13z" />
    <glyph glyph-name="Oslash.c" horiz-adv-x="512" 
d="M357 589l32 -9q12 -5 8 -18l-19 -51q94 -74 94 -238q0 -124 -60.5 -202.5t-155.5 -78.5q-32 0 -71 12l-15 -40q-5 -12 -17 -7l-32 9q-12 5 -7 17l19 51q-93 74 -93 239q0 124 60 202t156 78q38 0 69 -12l15 40q6 13 17 8zM354 449l-147 -388q23 -9 49 -9q70 0 109.5 58.5
t39.5 162.5q0 114 -51 176zM157 97l146 387q-21 9 -47 9q-70 0 -109.5 -58t-39.5 -162q0 -117 50 -176z" />
    <glyph glyph-name="Otilde.c" horiz-adv-x="512" 
d="M472 273q0 -124 -60.5 -202.5t-155.5 -78.5q-98 0 -157 78t-59 203q0 124 60 202t156 78q98 0 157 -77.5t59 -202.5zM107 273q0 -104 39.5 -162.5t109.5 -58.5t109.5 58.5t39.5 162.5t-39.5 162t-109.5 58t-109.5 -58t-39.5 -162zM396 687l22 -26q6 -7 0 -13
q-38 -45 -100 -45q-34 0 -77 24t-65 24q-24 0 -46 -20q-8 -8 -15 -1l-20 20q-7 7 -1 15q32 41 83 41q34 0 77 -24t64 -24q39 0 66 28q6 6 12 1z" />
    <glyph glyph-name="OE.c" horiz-adv-x="710" 
d="M376 545h261q13 0 13 -13v-34q0 -13 -13 -13h-215v-168h196q13 0 13 -13v-34q0 -13 -13 -13h-196v-197h225q13 0 13 -12v-35q0 -13 -13 -13h-271q-13 0 -13 13v48q-47 -69 -127 -69q-90 0 -143 77.5t-53 203.5q0 124 54 202t142 78q37 0 71.5 -18t55.5 -50v47q0 13 13 13
zM107 273q0 -105 33.5 -163t95.5 -58t95.5 58t33.5 163t-33 162.5t-96 57.5t-96 -57.5t-33 -162.5z" />
    <glyph glyph-name="P.c" horiz-adv-x="455" 
d="M126 223h87q64 0 100 36t36 95q0 58 -36 94.5t-100 36.5h-87v-262zM73 545h137q88 0 146.5 -55t58.5 -136q0 -82 -58.5 -136.5t-146.5 -54.5h-84v-150q0 -13 -13 -13h-40q-13 0 -13 13v519q0 13 13 13z" />
    <glyph glyph-name="Q.c" horiz-adv-x="512" 
d="M472 273q0 -126 -61 -203l42 -44q7 -11 -1 -19l-24 -21q-10 -10 -19 0l-40 42q-48 -36 -113 -36q-98 0 -157 78t-59 203q0 124 60 202t156 78q98 0 157 -77.5t59 -202.5zM264 159l24 24q4 4 9.5 3.5t8.5 -4.5l62 -67q37 58 37 158q0 104 -39.5 162t-109.5 58t-109.5 -58
t-39.5 -162t39.5 -162.5t109.5 -58.5q39 0 71 20l-64 68q-11 11 1 19z" />
    <glyph glyph-name="R.c" horiz-adv-x="456" 
d="M73 545h130q87 0 145 -55t58 -136q0 -57 -29 -102t-79 -69l85 -169q3 -6 0 -10t-9 -4h-47q-11 0 -16 12l-73 153q-22 -2 -35 -2h-77v-150q0 -13 -13 -13h-40q-13 0 -13 13v519q0 13 13 13zM126 223h77q65 0 101 36.5t36 94.5t-36.5 94.5t-100.5 36.5h-77v-262z" />
    <glyph glyph-name="Racute.c" horiz-adv-x="456" 
d="M73 545h130q87 0 145 -55t58 -136q0 -57 -29 -102t-79 -69l85 -169q3 -6 0 -10t-9 -4h-47q-11 0 -16 12l-73 153q-22 -2 -35 -2h-77v-150q0 -13 -13 -13h-40q-13 0 -13 13v519q0 13 13 13zM126 223h77q65 0 101 36.5t36 94.5t-36.5 94.5t-100.5 36.5h-77v-262zM258 794
l37 -15q13 -6 8 -18l-55 -140q-6 -14 -18 -11l-28 7q-14 6 -10 17l49 151q6 14 17 9z" />
    <glyph glyph-name="Rcaron.c" horiz-adv-x="456" 
d="M73 545h130q87 0 145 -55t58 -136q0 -57 -29 -102t-79 -69l85 -169q3 -6 0 -10t-9 -4h-47q-11 0 -16 12l-73 153q-22 -2 -35 -2h-77v-150q0 -13 -13 -13h-40q-13 0 -13 13v519q0 13 13 13zM126 223h77q65 0 101 36.5t36 94.5t-36.5 94.5t-100.5 36.5h-77v-262zM67 702
l10 17q7 12 19 7l112 -55l112 54q12 5 19 -7l10 -16q6 -12 -2 -20l-130 -76q-6 -2 -9 -2q-2 0 -8 2l-131 76q-8 8 -2 20z" />
    <glyph glyph-name="Rcommaaccent.c" horiz-adv-x="456" 
d="M73 545h130q87 0 145 -55t58 -136q0 -57 -29 -102t-79 -69l85 -169q3 -6 0 -10t-9 -4h-47q-11 0 -16 12l-73 153q-22 -2 -35 -2h-77v-150q0 -13 -13 -13h-40q-13 0 -13 13v519q0 13 13 13zM126 223h77q65 0 101 36.5t36 94.5t-36.5 94.5t-100.5 36.5h-77v-262zM271 -96
l-40 -98q-3 -9 -16 -6l-22 6q-7 3 -6 16l16 55q-16 5 -26 19.5t-10 32.5q0 24 15.5 39t38.5 15q22 0 38 -15.5t16 -38.5q0 -14 -4 -25z" />
    <glyph glyph-name="S.c" horiz-adv-x="409" 
d="M202 553q95 0 153 -73q8 -11 1 -18l-30 -21q-3 -4 -9 -4.5t-9 3.5q-24 30 -47.5 42.5t-60.5 12.5q-43 0 -65 -21t-22 -56q0 -37 23.5 -57.5t76.5 -35.5q80 -24 123 -62.5t43 -105.5q0 -73 -49.5 -119t-120.5 -46q-123 0 -176 100q-7 12 1 17l35 22q13 8 18 -4
q41 -76 123 -76q48 0 76 29t28 77q0 76 -110 105q-155 39 -155 156q0 56 43 95.5t110 39.5z" />
    <glyph glyph-name="Sacute.c" horiz-adv-x="409" 
d="M202 553q95 0 153 -73q8 -11 1 -18l-30 -21q-3 -4 -9 -4.5t-9 3.5q-24 30 -47.5 42.5t-60.5 12.5q-43 0 -65 -21t-22 -56q0 -37 23.5 -57.5t76.5 -35.5q80 -24 123 -62.5t43 -105.5q0 -73 -49.5 -119t-120.5 -46q-123 0 -176 100q-7 12 1 17l35 22q13 8 18 -4
q41 -76 123 -76q48 0 76 29t28 77q0 76 -110 105q-155 39 -155 156q0 56 43 95.5t110 39.5zM266 794l37 -15q13 -6 8 -18l-55 -140q-6 -14 -18 -11l-28 7q-14 6 -10 17l49 151q6 14 17 9z" />
    <glyph glyph-name="Scaron.c" horiz-adv-x="409" 
d="M202 553q95 0 153 -73q8 -11 1 -18l-30 -21q-3 -4 -9 -4.5t-9 3.5q-24 30 -47.5 42.5t-60.5 12.5q-43 0 -65 -21t-22 -56q0 -37 23.5 -57.5t76.5 -35.5q80 -24 123 -62.5t43 -105.5q0 -73 -49.5 -119t-120.5 -46q-123 0 -176 100q-7 12 1 17l35 22q13 8 18 -4
q41 -76 123 -76q48 0 76 29t28 77q0 76 -110 105q-155 39 -155 156q0 56 43 95.5t110 39.5zM73 702l10 17q7 12 19 7l112 -55l112 54q12 5 19 -7l10 -16q6 -12 -2 -20l-130 -76q-6 -2 -9 -2q-2 0 -8 2l-131 76q-8 8 -2 20z" />
    <glyph glyph-name="Scedilla.c" horiz-adv-x="409" 
d="M202 553q95 0 153 -73q8 -11 1 -18l-30 -21q-3 -4 -9 -4.5t-9 3.5q-24 30 -47.5 42.5t-60.5 12.5q-43 0 -65 -21t-22 -56q0 -37 23.5 -57.5t76.5 -35.5q80 -24 123 -62.5t43 -105.5q0 -73 -49.5 -119t-120.5 -46q-123 0 -176 100q-7 12 1 17l35 22q13 8 18 -4
q41 -76 123 -76q48 0 76 29t28 77q0 76 -110 105q-155 39 -155 156q0 56 43 95.5t110 39.5zM207 -41q40 0 61.5 -23t21.5 -60q0 -38 -32.5 -72t-85.5 -44q-13 -3 -16 9l-7 22q-2 5 1 9.5t9 5.5q34 6 54.5 27t20.5 43q0 32 -36 32q-17 0 -34 -7q-8 -3 -13 5l-11 27q-3 8 6 13
q27 13 61 13z" />
    <glyph glyph-name="Scircumflex.c" horiz-adv-x="409" 
d="M202 553q95 0 153 -73q8 -11 1 -18l-30 -21q-3 -4 -9 -4.5t-9 3.5q-24 30 -47.5 42.5t-60.5 12.5q-43 0 -65 -21t-22 -56q0 -37 23.5 -57.5t76.5 -35.5q80 -24 123 -62.5t43 -105.5q0 -73 -49.5 -119t-120.5 -46q-123 0 -176 100q-7 12 1 17l35 22q13 8 18 -4
q41 -76 123 -76q48 0 76 29t28 77q0 76 -110 105q-155 39 -155 156q0 56 43 95.5t110 39.5zM355 632l-10 -17q-7 -12 -19 -7l-112 55l-112 -54q-12 -5 -19 7l-10 16q-6 12 2 20l130 76q6 2 9 2q2 0 8 -2l131 -76q8 -8 2 -20z" />
    <glyph glyph-name="Scommaaccent.c" horiz-adv-x="409" 
d="M202 553q95 0 153 -73q8 -11 1 -18l-30 -21q-3 -4 -9 -4.5t-9 3.5q-24 30 -47.5 42.5t-60.5 12.5q-43 0 -65 -21t-22 -56q0 -37 23.5 -57.5t76.5 -35.5q80 -24 123 -62.5t43 -105.5q0 -73 -49.5 -119t-120.5 -46q-123 0 -176 100q-7 12 1 17l35 22q13 8 18 -4
q41 -76 123 -76q48 0 76 29t28 77q0 76 -110 105q-155 39 -155 156q0 56 43 95.5t110 39.5zM254 -123l-40 -98q-3 -9 -16 -6l-22 6q-7 3 -6 16l16 55q-16 5 -26 19.5t-10 32.5q0 24 15.5 39t38.5 15q22 0 38 -15.5t16 -38.5q0 -14 -4 -25z" />
    <glyph glyph-name="T.c" horiz-adv-x="406" 
d="M34 545h338q14 0 14 -14v-32q0 -14 -14 -14h-136v-471q0 -14 -14 -14h-38q-14 0 -14 14v471h-136q-14 0 -14 14v32q0 14 14 14z" />
    <glyph glyph-name="Tcaron.c" horiz-adv-x="406" 
d="M34 545h338q14 0 14 -14v-32q0 -14 -14 -14h-136v-471q0 -14 -14 -14h-38q-14 0 -14 14v471h-136q-14 0 -14 14v32q0 14 14 14zM62 702l10 17q7 12 19 7l112 -55l112 54q12 5 19 -7l10 -16q6 -12 -2 -20l-130 -76q-6 -2 -9 -2q-2 0 -8 2l-131 76q-8 8 -2 20z" />
    <glyph glyph-name="Tcommaaccent.c" horiz-adv-x="406" 
d="M34 545h338q14 0 14 -14v-32q0 -14 -14 -14h-136v-471q0 -14 -14 -14h-38q-14 0 -14 14v471h-136q-14 0 -14 14v32q0 14 14 14zM253 -120l-40 -98q-3 -9 -16 -6l-22 6q-7 3 -6 16l16 55q-16 5 -26 19.5t-10 32.5q0 24 15.5 39t38.5 15q22 0 38 -15.5t16 -38.5
q0 -14 -4 -25z" />
    <glyph glyph-name="U.c" horiz-adv-x="491" 
d="M60 232v300q0 13 13 13h40q13 0 13 -13v-301q0 -179 119 -179q120 0 120 179v301q0 13 14 13h39q13 0 13 -13v-300q0 -240 -186 -240q-90 0 -137.5 63t-47.5 177z" />
    <glyph glyph-name="Uacute.c" horiz-adv-x="491" 
d="M60 232v300q0 13 13 13h40q13 0 13 -13v-301q0 -179 119 -179q120 0 120 179v301q0 13 14 13h39q13 0 13 -13v-300q0 -240 -186 -240q-90 0 -137.5 63t-47.5 177zM278 794l37 -15q13 -6 8 -18l-55 -140q-6 -14 -18 -11l-28 7q-14 6 -10 17l49 151q6 14 17 9z" />
    <glyph glyph-name="Ubreve.c" horiz-adv-x="491" 
d="M60 232v300q0 13 13 13h40q13 0 13 -13v-301q0 -179 119 -179q120 0 120 179v301q0 13 14 13h39q13 0 13 -13v-300q0 -240 -186 -240q-90 0 -137.5 63t-47.5 177zM117 707l31 13q11 5 17 -5q24 -47 81 -47q56 0 80 47q6 10 17 5l31 -13q10 -4 5 -17q-37 -79 -133 -79
q-95 0 -134 79q-5 13 5 17z" />
    <glyph glyph-name="Ucircumflex.c" horiz-adv-x="491" 
d="M60 232v300q0 13 13 13h40q13 0 13 -13v-301q0 -179 119 -179q120 0 120 179v301q0 13 14 13h39q13 0 13 -13v-300q0 -240 -186 -240q-90 0 -137.5 63t-47.5 177zM386 632l-10 -17q-7 -12 -19 -7l-112 55l-112 -54q-12 -5 -19 7l-10 16q-6 12 2 20l130 76q6 2 9 2
q2 0 8 -2l131 -76q8 -8 2 -20z" />
    <glyph glyph-name="Udieresis.c" horiz-adv-x="491" 
d="M60 232v300q0 13 13 13h40q13 0 13 -13v-301q0 -179 119 -179q120 0 120 179v301q0 13 14 13h39q13 0 13 -13v-300q0 -240 -186 -240q-90 0 -137.5 63t-47.5 177zM152 610q-23 0 -40 16.5t-17 39.5t17 39.5t40 16.5t40 -16.5t17 -39.5t-17 -39.5t-40 -16.5zM341 610
q-23 0 -40 16.5t-17 39.5t17 39.5t40 16.5t40 -16.5t17 -39.5t-17 -39.5t-40 -16.5z" />
    <glyph glyph-name="Ugrave.c" horiz-adv-x="491" 
d="M60 232v300q0 13 13 13h40q13 0 13 -13v-301q0 -179 119 -179q120 0 120 179v301q0 13 14 13h39q13 0 13 -13v-300q0 -240 -186 -240q-90 0 -137.5 63t-47.5 177zM170 779l38 15q10 4 16 -9l49 -151q4 -11 -10 -17l-30 -7q-11 -3 -16 11l-55 140q-5 12 8 18z" />
    <glyph glyph-name="Uhungarumlaut.c" horiz-adv-x="491" 
d="M60 232v300q0 13 13 13h40q13 0 13 -13v-301q0 -179 119 -179q120 0 120 179v301q0 13 14 13h39q13 0 13 -13v-300q0 -240 -186 -240q-90 0 -137.5 63t-47.5 177zM221 794l35 -12q13 -6 8 -18l-45 -143q-5 -14 -16 -11l-27 7q-13 4 -10 17l39 151q6 13 16 9zM334 768
l35 -12q13 -6 8 -18l-53 -123q-5 -14 -16 -11l-27 7q-14 6 -10 17l47 131q6 13 16 9z" />
    <glyph glyph-name="Umacron.c" horiz-adv-x="491" 
d="M60 232v300q0 13 13 13h40q13 0 13 -13v-301q0 -179 119 -179q120 0 120 179v301q0 13 14 13h39q13 0 13 -13v-300q0 -240 -186 -240q-90 0 -137.5 63t-47.5 177zM83 645v30q0 13 13 13h297q14 0 14 -13v-30q0 -13 -14 -13h-297q-13 0 -13 13z" />
    <glyph glyph-name="Uogonek.c" horiz-adv-x="491" 
d="M60 232v300q0 13 13 13h40q13 0 13 -13v-301q0 -179 119 -179q120 0 120 179v301q0 13 14 13h39q13 0 13 -13v-300q0 -212 -146 -237q-32 -14 -32 -56q0 -50 60 -67q14 -6 10 -15l-7 -27q-3 -12 -16 -9q-52 9 -78 41t-26 77q0 31 14 56q-74 11 -112 72.5t-38 164.5z" />
    <glyph glyph-name="Uring.c" horiz-adv-x="491" 
d="M60 232v300q0 13 13 13h40q13 0 13 -13v-301q0 -179 119 -179q120 0 120 179v301q0 13 14 13h39q13 0 13 -13v-300q0 -240 -186 -240q-90 0 -137.5 63t-47.5 177zM245 808q45 0 75.5 -28.5t30.5 -73.5t-30.5 -73.5t-75.5 -28.5q-44 0 -75 29t-31 73t31 73t75 29zM245 760
q-24 0 -39.5 -15t-15.5 -39t15.5 -39t39.5 -15t39.5 15t15.5 39t-15.5 39t-39.5 15z" />
    <glyph glyph-name="Utilde.c" horiz-adv-x="491" 
d="M60 232v300q0 13 13 13h40q13 0 13 -13v-301q0 -179 119 -179q120 0 120 179v301q0 13 14 13h39q13 0 13 -13v-300q0 -240 -186 -240q-90 0 -137.5 63t-47.5 177zM385 687l22 -26q6 -7 0 -13q-37 -45 -100 -45q-34 0 -77 24t-65 24q-24 0 -46 -20q-8 -8 -15 -1l-20 20
q-7 7 -1 15q32 41 83 41q34 0 77 -24t64 -24q39 0 66 28q6 6 12 1z" />
    <glyph glyph-name="V.c" horiz-adv-x="490" 
d="M276 0h-65q-11 0 -15 10l-159 521q-6 14 7 14h51q11 0 15 -9l130 -471h9l131 471q4 9 15 9h51q5 0 7 -4.5t0 -9.5l-162 -521q-4 -10 -15 -10z" />
    <glyph glyph-name="W.c" horiz-adv-x="671" 
d="M45 545h45q16 0 19 -15l86 -460h6l92 464q2 11 17 11h50q12 0 15 -11l100 -464h6l83 463q2 12 17 12h45q11 0 9 -13l-106 -515q-5 -17 -20 -17h-66q-15 0 -18 16l-89 424h-6l-81 -424q-3 -16 -19 -16h-66q-15 0 -19 15l-109 518q-3 12 9 12z" />
    <glyph glyph-name="Wcircumflex.c" horiz-adv-x="671" 
d="M45 545h45q16 0 19 -15l86 -460h6l92 464q2 11 17 11h50q12 0 15 -11l100 -464h6l83 463q2 12 17 12h45q11 0 9 -13l-106 -515q-5 -17 -20 -17h-66q-15 0 -18 16l-89 424h-6l-81 -424q-3 -16 -19 -16h-66q-15 0 -19 15l-109 518q-3 12 9 12zM476 632l-10 -17
q-7 -12 -19 -7l-112 55l-112 -54q-12 -5 -19 7l-10 16q-6 12 2 20l130 76q6 2 9 2q2 0 8 -2l131 -76q8 -8 2 -20z" />
    <glyph glyph-name="X.c" horiz-adv-x="468" 
d="M63 545h47q14 0 18 -9l104 -207h5l97 207q4 9 19 9h49q5 0 7.5 -4t-0.5 -10l-132 -246l154 -273q5 -12 -7 -12h-52q-12 0 -17 9l-121 231h-5l-114 -230q-4 -10 -18 -10h-54q-13 0 -5 12l150 272l-131 248q-3 4 -1.5 8.5t7.5 4.5z" />
    <glyph glyph-name="Y.c" horiz-adv-x="464" 
d="M265 134v-120q0 -14 -13 -14h-40q-13 0 -13 14v119l-162 399q-6 13 7 13h51q12 0 15 -8l118 -326h9l117 326q5 8 14 8h53q12 0 6 -13z" />
    <glyph glyph-name="Yacute.c" horiz-adv-x="464" 
d="M265 134v-120q0 -14 -13 -14h-40q-13 0 -13 14v119l-162 399q-6 13 7 13h51q12 0 15 -8l118 -326h9l117 326q5 8 14 8h53q12 0 6 -13zM280 794l37 -15q13 -6 8 -18l-55 -140q-6 -14 -18 -11l-28 7q-14 6 -10 17l49 151q6 14 17 9z" />
    <glyph glyph-name="Ycircumflex.c" horiz-adv-x="464" 
d="M265 134v-120q0 -14 -13 -14h-40q-13 0 -13 14v119l-162 399q-6 13 7 13h51q12 0 15 -8l118 -326h9l117 326q5 8 14 8h53q12 0 6 -13zM373 632l-10 -17q-7 -12 -19 -7l-112 55l-112 -54q-12 -5 -19 7l-10 16q-6 12 2 20l130 76q6 2 9 2q2 0 8 -2l131 -76q8 -8 2 -20z" />
    <glyph glyph-name="Ydieresis.c" horiz-adv-x="464" 
d="M265 134v-120q0 -14 -13 -14h-40q-13 0 -13 14v119l-162 399q-6 13 7 13h51q12 0 15 -8l118 -326h9l117 326q5 8 14 8h53q12 0 6 -13zM139 610q-23 0 -40 16.5t-17 39.5t17 39.5t40 16.5t40 -16.5t17 -39.5t-17 -39.5t-40 -16.5zM328 610q-23 0 -40 16.5t-17 39.5
t17 39.5t40 16.5t40 -16.5t17 -39.5t-17 -39.5t-40 -16.5z" />
    <glyph glyph-name="Z.c" horiz-adv-x="433" 
d="M63 498v34q0 13 13 13h298q13 0 14 -13l3 -36q2 -11 -8 -22l-263 -411l3 -6l136 3h121q13 0 13 -14v-33q0 -13 -13 -13h-323q-13 0 -13 13l-3 40q-1 10 8 21l265 408l-3 6l-118 -3h-117q-13 0 -13 13z" />
    <glyph glyph-name="Zacute.c" horiz-adv-x="433" 
d="M63 498v34q0 13 13 13h298q13 0 14 -13l3 -36q2 -11 -8 -22l-263 -411l3 -6l136 3h121q13 0 13 -14v-33q0 -13 -13 -13h-323q-13 0 -13 13l-3 40q-1 10 8 21l265 408l-3 6l-118 -3h-117q-13 0 -13 13zM259 794l37 -15q13 -6 8 -18l-55 -140q-6 -14 -18 -11l-28 7
q-14 6 -10 17l49 151q6 14 17 9z" />
    <glyph glyph-name="Zcaron.c" horiz-adv-x="433" 
d="M63 498v34q0 13 13 13h298q13 0 14 -13l3 -36q2 -11 -8 -22l-263 -411l3 -6l136 3h121q13 0 13 -14v-33q0 -13 -13 -13h-323q-13 0 -13 13l-3 40q-1 10 8 21l265 408l-3 6l-118 -3h-117q-13 0 -13 13zM85 702l10 17q7 12 19 7l112 -55l112 54q12 5 19 -7l10 -16
q6 -12 -2 -20l-130 -76q-6 -2 -9 -2q-2 0 -8 2l-131 76q-8 8 -2 20z" />
    <glyph glyph-name="Zdotaccent.c" horiz-adv-x="433" 
d="M63 498v34q0 13 13 13h298q13 0 14 -13l3 -36q2 -11 -8 -22l-263 -411l3 -6l136 3h121q13 0 13 -14v-33q0 -13 -13 -13h-323q-13 0 -13 13l-3 40q-1 10 8 21l265 408l-3 6l-118 -3h-117q-13 0 -13 13zM226 607q-25 0 -44 18.5t-19 44.5t19 44t44 18q26 0 45 -18t19 -44
t-19 -44.5t-45 -18.5z" />
    <glyph glyph-name="Eth.c" horiz-adv-x="508" 
d="M83 545h103q121 0 201.5 -76.5t80.5 -195.5q0 -120 -80.5 -196.5t-201.5 -76.5h-103q-13 0 -13 13v238h-39q-13 0 -13 13v32q0 13 13 13h39v222q0 14 13 14zM136 485v-176h112q14 0 14 -13v-32q0 -13 -14 -13h-112v-190h53q94 0 152.5 59t58.5 153q0 93 -59 152.5
t-152 59.5h-53z" />
    <glyph glyph-name="Thorn.c" horiz-adv-x="455" 
d="M73 553h40q13 0 13 -13v-59h90q87 0 143 -54.5t56 -136.5t-56 -136.5t-143 -54.5h-90v-86q0 -13 -13 -13h-40q-13 0 -13 13v527q0 13 13 13zM126 159h90q64 0 98.5 36t34.5 95q0 58 -35 94.5t-98 36.5h-90v-262z" />
    <glyph glyph-name="a.c" horiz-adv-x="480" 
d="M338 160v128l-119 -19q-56 -9 -87 -38t-31 -76t23.5 -75t64.5 -28q99 0 149 108zM355 86h-5q-23 -45 -65 -69.5t-94 -24.5q-73 0 -114.5 43t-41.5 120q0 67 51 114t128 57l124 17v45q0 49 -26.5 77t-73.5 28q-80 0 -128 -55q-8 -9 -15 -3l-29 26q-8 8 -1 16q67 76 175 76
q71 0 117.5 -43.5t46.5 -121.5v-201q0 -73 24 -148l5 -18q6 -11 -4 -15l-31 -9q-15 -5 -19 7z" />
    <glyph glyph-name="aacute.c" horiz-adv-x="480" 
d="M338 160v128l-119 -19q-56 -9 -87 -38t-31 -76t23.5 -75t64.5 -28q99 0 149 108zM355 86h-5q-23 -45 -65 -69.5t-94 -24.5q-73 0 -114.5 43t-41.5 120q0 67 51 114t128 57l124 17v45q0 49 -26.5 77t-73.5 28q-80 0 -128 -55q-8 -9 -15 -3l-29 26q-8 8 -1 16q67 76 175 76
q71 0 117.5 -43.5t46.5 -121.5v-201q0 -73 24 -148l5 -18q6 -11 -4 -15l-31 -9q-15 -5 -19 7zM283 794l37 -15q13 -6 8 -18l-55 -140q-6 -14 -18 -11l-28 7q-14 6 -10 17l49 151q6 14 17 9z" />
    </font>
</defs>
</svg>
