<?xml version="1.0" standalone="no"?>
<!DOCTYPE svg PUBLIC "-//W3C//DTD SVG 1.1//EN" "http://www.w3.org/Graphics/SVG/1.1/DTD/svg11.dtd" >
<svg xmlns="http://www.w3.org/2000/svg" xmlns:xlink="http://www.w3.org/1999/xlink" version="1.1">
<metadata>
Created by FontForge 20161003 at Fri Sep 20 12:29:46 2019
 By www-data
Copyright 1990-2000 Bitstream Inc.  All rights reserved.
</metadata>
<defs>
<font id="tt6805m" horiz-adv-x="1024" >
  <font-face 
    font-family="tt6805m"
    font-weight="400"
    font-style="italic"
    font-stretch="normal"
    units-per-em="2048"
    panose-1="2 4 6 3 5 5 5 9 3 3"
    ascent="1556"
    descent="-492"
    x-height="956"
    cap-height="1479"
    bbox="-387 -483 2363 1991"
    underline-thickness="123"
    underline-position="-396"
    slope="-14.3"
    unicode-range="U+0020-2219"
  />
<missing-glyph horiz-adv-x="1229" 
d="M102 -362v1806h1024v-1806h-1024zM217 -248h795v1577h-795v-1577z" />
    <glyph glyph-name=".notdef" horiz-adv-x="1229" 
d="M102 -362v1806h1024v-1806h-1024zM217 -248h795v1577h-795v-1577z" />
    <glyph glyph-name=".null" horiz-adv-x="0" 
 />
    <glyph glyph-name="nonmarkingreturn" horiz-adv-x="559" 
 />
    <glyph glyph-name="space" unicode=" " horiz-adv-x="559" 
 />
    <glyph glyph-name="space" unicode="&#xa0;" horiz-adv-x="559" 
 />
    <glyph glyph-name="exclam" unicode="!" horiz-adv-x="680" 
d="M180 219q52 0 89.5 -37.5t37.5 -89.5t-36.5 -88.5t-90.5 -36.5q-51 0 -88 37t-37 88q0 53 36.5 90t88.5 37zM221 395q116 417 156 852q5 59 8 78q14 95 52 145t98 50q54 0 84 -33.5t30 -93.5q0 -61 -82 -238q-45 -98 -69 -156q-45 -106 -95.5 -257t-111.5 -361z" />
    <glyph glyph-name="quotedbl" unicode="&#x22;" horiz-adv-x="686" 
d="M526 860h-34l-70 459q-1 7 -1.5 14.5t-0.5 22.5q0 51 22.5 78.5t65.5 27.5q42 0 66 -27t24 -75q0 -16 -0.5 -24.5t-1.5 -16.5zM195 860h-35l-70 459q-2 17 -3 26t-1 15q0 48 24 75t66 27q44 0 67 -27.5t23 -78.5q0 -16 -0.5 -23.5t-1.5 -14.5z" />
    <glyph glyph-name="numbersign" unicode="#" horiz-adv-x="1575" 
d="M702 864l-98 -276h283l96 276h-281zM760 1458h155l-161 -454h276l162 454h156l-162 -454h301l-49 -140h-301l-97 -276h320l-49 -139h-320l-162 -453h-155l162 453h-279l-162 -453h-153l159 453h-313l51 139h312l98 276h-336l51 140h334z" />
    <glyph glyph-name="dollar" unicode="$" horiz-adv-x="1118" 
d="M563 844l137 508q-150 -6 -235.5 -79t-85.5 -194q0 -77 45.5 -135.5t138.5 -99.5zM449 57q152 6 249 86.5t97 198.5q0 94 -46.5 157t-150.5 109zM258 -297l74 274q-140 32 -228 122.5t-88 199.5q0 88 39.5 136t110.5 48q52 0 88.5 -38.5t36.5 -92.5q0 -34 -16.5 -62
t-46.5 -44q-9 -5 -24 -12q-36 -16 -36 -39q0 -37 52.5 -74.5t133.5 -57.5l156 584q-153 66 -224 152.5t-71 206.5q0 183 140 305.5t356 122.5h10l31 131h100l-37 -142q134 -31 209.5 -111t75.5 -190q0 -72 -36.5 -113.5t-100.5 -41.5q-52 0 -86.5 31.5t-34.5 78.5
q0 32 16 59t43 42q8 4 22 10q35 16 35 41q0 29 -46.5 63t-116.5 51l-146 -542q165 -67 243.5 -159t78.5 -218q0 -192 -153.5 -324.5t-383.5 -132.5h-8l-72 -264h-96z" />
    <glyph glyph-name="percent" unicode="%" horiz-adv-x="1686" 
d="M369 -35l745 1321q-55 -32 -111.5 -48.5t-109.5 -16.5q-39 0 -67.5 4t-48.5 12q3 -15 5 -32t2 -38q0 -89 -37 -188.5t-102 -181.5q-65 -84 -142 -127t-161 -43q-118 0 -189 74.5t-71 197.5q0 85 36 172t105 168q75 88 154 134t153 46q77 0 128.5 -23t84.5 -73
q28 -23 66.5 -35t85.5 -12q90 0 183 47t143 121h90l-842 -1479h-100zM1536 512q0 81 -40 130.5t-103 49.5q-51 0 -97 -37.5t-106 -130.5q-71 -111 -110.5 -206t-39.5 -154q0 -60 40 -96.5t106 -36.5q62 0 120.5 39t112.5 116q57 80 87 164.5t30 161.5zM1337 756
q124 0 190 -64.5t66 -183.5q0 -91 -37 -189t-106 -186q-65 -83 -141 -125.5t-162 -42.5q-116 0 -187 74.5t-71 196.5q0 84 36 171t105 168q74 88 153.5 134.5t153.5 46.5zM715 1261q-43 11 -76.5 34t-56.5 56q-48 -1 -94 -39t-105 -128q-72 -110 -111 -203.5t-39 -157.5
q0 -59 39.5 -96t102.5 -37t123.5 39.5t113.5 116.5q57 82 88 169t31 165q0 17 -4.5 39t-11.5 42z" />
    <glyph glyph-name="ampersand" unicode="&#x26;" horiz-adv-x="1802" 
d="M803 942q154 43 240.5 128.5t86.5 193.5q0 72 -41.5 112.5t-115.5 40.5q-94 0 -144.5 -67t-50.5 -193q0 -41 6.5 -95.5t18.5 -119.5zM864 176q-90 135 -151.5 289t-94.5 321q-139 -60 -208.5 -155.5t-69.5 -229.5q0 -137 80 -225t205 -88q56 0 115 21.5t124 66.5zM924 98
q-106 -69 -203 -101t-201 -32q-185 0 -297 105.5t-112 277.5q0 171 117 296t374 226q-10 49 -15 96.5t-5 94.5q0 211 100.5 330.5t278.5 119.5q142 0 230.5 -75t88.5 -195q0 -127 -113 -220.5t-350 -162.5q44 -184 99 -327.5t114 -229.5q108 93 172 184t64 148
q0 53 -39 77.5t-125 24.5h-23l21 86h557l-23 -84q-82 -4 -143 -42t-125 -128q-9 -12 -29 -43q-121 -183 -252 -299q45 -57 89.5 -83.5t95.5 -26.5q71 0 135 48t125 146l67 -47q-88 -145 -190.5 -215t-228.5 -70q-77 0 -139.5 30t-114.5 91z" />
    <glyph glyph-name="quotesingle" unicode="'" horiz-adv-x="352" 
d="M195 860h-35l-70 459q0 2 -1 8q-3 20 -3 29q0 50 23.5 78t66.5 28q42 0 66 -27t24 -75q0 -7 -0.5 -15t-3.5 -27z" />
    <glyph glyph-name="parenleft" unicode="(" horiz-adv-x="678" 
d="M365 -238l-43 -32q-119 146 -179.5 327t-60.5 389q0 207 73.5 405t211.5 361q96 114 205.5 192t220.5 112l14 -50q-142 -56 -249.5 -167.5t-182.5 -280.5q-84 -188 -126 -377.5t-42 -380.5q0 -149 39 -272t119 -226z" />
    <glyph glyph-name="parenright" unicode=")" horiz-adv-x="678" 
d="M309 1481l43 32q120 -147 181 -327.5t61 -386.5q0 -208 -74 -406.5t-211 -361.5q-96 -113 -205 -190t-221 -111l-16 47q142 56 250.5 168.5t183.5 281.5q84 188 126 377.5t42 380.5q0 147 -39.5 269.5t-120.5 226.5z" />
    <glyph glyph-name="asterisk" unicode="*" 
d="M594 1071v-10q0 -77 42 -171t42 -120q0 -42 -27 -68t-71 -26q-46 0 -72.5 25t-26.5 69q0 25 41 116t41 169v18q-40 -23 -72 -52t-63 -73l-9 -12q-73 -102 -130 -102q-33 0 -62.5 34.5t-29.5 73.5q0 46 37 70t118 30q79 7 120.5 20t74.5 38q-77 48 -207 57q-19 1 -28 2
q-53 5 -84 31.5t-31 64.5q0 42 29 75.5t65 33.5q58 0 124 -95q8 -13 13 -20q30 -44 63 -73.5t74 -51.5v11q0 78 -41 173t-41 119q0 42 27 67.5t72 25.5t70.5 -24.5t25.5 -68.5q0 -26 -41 -118t-41 -172v-15q38 21 69 49t66 76q6 8 16 22q67 93 123 93q34 0 63.5 -34.5
t29.5 -74.5q0 -36 -31.5 -63t-77.5 -31q-7 0 -22 -1q-143 -10 -218 -62q77 -48 203 -58q18 -1 27 -2q55 -4 87 -29.5t32 -66.5q0 -40 -29 -73t-64 -33q-61 0 -129 103q-5 7 -8 11q-30 43 -63.5 72.5t-75.5 50.5z" />
    <glyph glyph-name="plus" unicode="+" horiz-adv-x="1706" 
d="M782 1221h142v-541h528v-139h-528v-541h-142v541h-528v139h528v541z" />
    <glyph glyph-name="comma" unicode="," horiz-adv-x="559" 
d="M-41 -272q123 53 188 117.5t68 135.5l-6 1q-69 0 -105 29.5t-36 86.5q0 53 36 89t89 36q61 0 103 -48.5t42 -121.5q0 -127 -91.5 -229.5t-256.5 -161.5z" />
    <glyph glyph-name="hyphen" unicode="-" horiz-adv-x="674" 
d="M14 403l39 152h492l-39 -152h-492z" />
    <glyph glyph-name="period" unicode="." horiz-adv-x="559" 
d="M184 219q53 0 90 -37.5t37 -89.5t-36.5 -88.5t-90.5 -36.5q-51 0 -88 37t-37 88q0 53 36.5 90t88.5 37z" />
    <glyph glyph-name="slash" unicode="/" horiz-adv-x="569" 
d="M496 1516h92l-514 -1706h-94z" />
    <glyph glyph-name="zero" unicode="0" horiz-adv-x="1118" 
d="M1065 942q0 -204 -58.5 -391t-168.5 -336q-94 -126 -197.5 -190t-212.5 -64q-174 0 -277.5 139t-103.5 375q0 187 64.5 385t171.5 342q87 118 193 180t218 62q177 0 274 -131.5t97 -370.5zM690 1354q-87 0 -163 -83.5t-144 -252.5q-29 -73 -57 -174t-52 -217
q-16 -81 -24 -154.5t-8 -136.5q0 -137 48 -211t136 -74q79 0 145.5 63t126.5 195q83 179 131 385t48 381q0 134 -48.5 206.5t-138.5 72.5z" />
    <glyph glyph-name="one" unicode="1" horiz-adv-x="1118" 
d="M86 0l23 90l175 10q42 3 62.5 22.5t34.5 78.5l240 961q1 3 1.5 6t0.5 10q-1 19 -20.5 26.5t-90.5 7.5h-20h-150l23 86q149 16 265 53.5t195 96.5h52l-302 -1211q-6 -25 -10 -49t-4 -38q0 -30 20 -42t73 -14l180 -4l-25 -90h-723z" />
    <glyph glyph-name="two" unicode="2" horiz-adv-x="1118" 
d="M891 434l80 -31l-164 -403h-883l17 72q105 148 374 374q55 47 82 70q250 212 341 345.5t91 264.5q0 100 -68 160t-181 60q-109 0 -201 -68.5t-92 -138.5q0 -27 54 -43q29 -9 44 -17q31 -15 47.5 -41.5t16.5 -62.5q0 -56 -36 -90.5t-96 -34.5q-73 0 -118 52t-45 138
q0 162 143.5 283t343.5 121q181 0 291 -96.5t110 -253.5q0 -139 -88 -259.5t-311 -275.5q-35 -25 -105 -72q-283 -195 -393 -309h476q145 0 262 240z" />
    <glyph glyph-name="three" unicode="3" horiz-adv-x="1118" 
d="M709 754q120 -30 181.5 -107t61.5 -198q0 -214 -152.5 -349t-391.5 -135q-173 0 -284.5 90.5t-111.5 229.5q0 85 41 135.5t109 50.5q58 0 93.5 -34.5t35.5 -90.5q0 -32 -13.5 -57t-41.5 -45q-12 -9 -37 -18q-43 -16 -43 -46q0 -50 67.5 -90.5t161.5 -40.5q156 0 256 123
t100 317q0 106 -42.5 165t-118.5 59q-33 0 -75.5 -6.5t-51.5 -6.5q-26 0 -42 15t-16 39q0 23 16.5 40t39.5 17q9 0 45.5 -6t62.5 -6q124 0 208.5 102t84.5 252q0 98 -57.5 151.5t-163.5 53.5q-83 0 -147 -35t-64 -72q0 -14 40 -52.5t40 -84.5q0 -48 -35 -81.5t-86 -33.5
q-57 0 -91 37.5t-34 100.5q0 127 116.5 217t286.5 90q179 0 287.5 -91t108.5 -239q0 -123 -89 -216t-255 -144z" />
    <glyph glyph-name="four" unicode="4" horiz-adv-x="1118" 
d="M260 0l25 90l138 10q39 3 58.5 20.5t36.5 80.5l51 186h-581v84l956 987h103l-263 -962h244l-31 -109h-243l-41 -149q-7 -24 -11 -45t-4 -35q0 -36 28 -50t110 -16l79 -2l-24 -90h-631zM598 494l182 669l-647 -669h465z" />
    <glyph glyph-name="five" unicode="5" horiz-adv-x="1118" 
d="M346 848q62 38 128.5 56t148.5 18q162 0 264 -103.5t102 -269.5q0 -95 -32 -184.5t-93 -165.5q-87 -110 -211.5 -173t-255.5 -63q-167 0 -275 91t-108 229q0 79 42.5 129.5t107.5 50.5q54 0 89.5 -32.5t35.5 -80.5q0 -41 -16 -71t-47 -49q-10 -6 -25 -14q-41 -20 -41 -42
q0 -46 63.5 -85.5t153.5 -39.5q76 0 141.5 31t118.5 92q59 68 97 173.5t38 201.5q0 128 -65.5 198t-184.5 70q-54 0 -109.5 -21t-101.5 -59q-9 -53 -34 -83.5t-60 -30.5q-26 0 -42.5 17t-16.5 44q0 31 17.5 57.5t53.5 51.5q67 211 114 372.5t79 292.5q121 -30 220 -45.5
t165 -15.5q91 0 166.5 16t138.5 49l23 -16q-53 -117 -150 -174.5t-244 -57.5q-61 0 -130 8t-148 23q-27 -98 -56 -196.5t-61 -198.5z" />
    <glyph glyph-name="six" unicode="6" horiz-adv-x="1118" 
d="M319 721q78 81 163 122.5t171 41.5q149 0 245.5 -100t96.5 -257q0 -98 -35 -195t-100 -175q-77 -95 -179 -147t-210 -52q-186 0 -297 134t-111 362q0 172 53 344.5t148 310.5q112 163 247 248.5t282 85.5q134 0 221.5 -69.5t87.5 -172.5q0 -67 -38 -106t-103 -39
q-48 0 -80.5 31t-32.5 77q0 35 25.5 79.5t25.5 60.5q0 26 -31.5 42.5t-83.5 16.5q-155 0 -269.5 -158.5t-195.5 -484.5zM578 766q-134 0 -230 -130.5t-96 -320.5q0 -123 58 -195.5t157 -72.5q137 0 229 136.5t92 342.5q0 115 -55 177.5t-155 62.5z" />
    <glyph glyph-name="seven" unicode="7" horiz-adv-x="1118" 
d="M979 1241h-436q-96 0 -154.5 -48t-144.5 -214l-72 29l186 425q184 -11 267 -14.5t141 -3.5q69 0 167.5 3t225.5 9v-63q-213 -307 -356 -571t-213 -482q-17 -51 -37.5 -140t-36.5 -120q-25 -52 -56.5 -75t-76.5 -23q-53 0 -85 35.5t-32 95.5q0 128 425 738
q182 263 288 419z" />
    <glyph glyph-name="eight" unicode="8" horiz-adv-x="1118" 
d="M676 811q115 32 183.5 124t68.5 214q0 103 -63.5 159t-180.5 56q-118 0 -203.5 -76.5t-85.5 -181.5q0 -88 67 -158t214 -137zM768 768q111 -69 164 -152t53 -188q0 -201 -153 -334t-388 -133q-190 0 -308 93t-118 239q0 141 96.5 250.5t280.5 177.5q-81 61 -118 133
t-37 168q0 174 132 299t322 125q173 0 278 -89.5t105 -236.5q0 -117 -72.5 -200.5t-236.5 -151.5zM467 672q-141 -61 -213 -155t-72 -216q0 -113 75.5 -181.5t199.5 -68.5q158 0 254 79t96 208q0 101 -69.5 172t-270.5 162z" />
    <glyph glyph-name="nine" unicode="9" horiz-adv-x="1118" 
d="M813 686q-78 -81 -162.5 -122.5t-171.5 -41.5q-149 0 -245.5 100t-96.5 257q0 99 35 196t98 174q77 95 180 147t212 52q186 0 296.5 -134t110.5 -362q0 -172 -53 -344.5t-148 -310.5q-112 -163 -247.5 -248.5t-280.5 -85.5q-134 0 -221.5 69.5t-87.5 172.5q0 67 37.5 106
t103.5 39q48 0 79.5 -30t31.5 -76q0 -35 -26 -80.5t-26 -61.5q0 -25 32 -41t85 -16q156 0 270.5 158t194.5 483zM555 641q133 0 228.5 129t95.5 320q0 126 -57 198t-156 72q-138 0 -230 -136.5t-92 -342.5q0 -115 55 -177.5t156 -62.5z" />
    <glyph glyph-name="colon" unicode=":" horiz-adv-x="606" 
d="M139 225q52 0 88.5 -36t36.5 -89t-36 -90t-89 -37q-51 0 -89 38t-38 89q0 52 37.5 88.5t89.5 36.5zM340 958q52 0 89.5 -37t37.5 -90q0 -52 -37 -89t-90 -37q-52 0 -89.5 37.5t-37.5 88.5q0 53 37.5 90t89.5 37z" />
    <glyph glyph-name="semicolon" unicode=";" horiz-adv-x="606" 
d="M-96 -272q122 53 187 117t69 136l-6 1q-69 0 -105.5 29.5t-36.5 86.5q0 53 36.5 89t88.5 36q61 0 103.5 -48.5t42.5 -121.5q0 -127 -91 -229.5t-255 -161.5zM342 958q52 0 89.5 -37t37.5 -90q0 -52 -37 -89t-90 -37q-51 0 -88 37.5t-37 88.5q0 53 36.5 90t88.5 37z" />
    <glyph glyph-name="less" unicode="&#x3c;" horiz-adv-x="1706" 
d="M1442 1159v-153l-969 -396l969 -393v-154l-1178 484v129z" />
    <glyph glyph-name="equal" unicode="=" horiz-adv-x="1706" 
d="M254 481h1198v-139h-1198v139zM254 879h1198v-140h-1198v140z" />
    <glyph glyph-name="greater" unicode="&#x3e;" horiz-adv-x="1706" 
d="M264 1159l1178 -483v-129l-1178 -484v154l971 393l-971 396v153z" />
    <glyph glyph-name="question" unicode="?" horiz-adv-x="1020" 
d="M401 217q51 0 88 -37t37 -88t-36.5 -87t-88.5 -36q-50 0 -86 36t-36 87t36 88t86 37zM659 629h72q-15 -105 -77.5 -161t-161.5 -56q-83 0 -135 57t-52 149t52 177t173 188q29 25 83 68q180 146 180 239q0 75 -46 119.5t-122 44.5q-113 0 -188 -95t-75 -245v-27l-67 1
q-1 6 -1.5 16t-0.5 29q0 175 94 282t248 107q128 0 206.5 -78t78.5 -205q0 -110 -57.5 -199t-180.5 -170q-21 -13 -60 -38q-219 -140 -219 -242q0 -48 26.5 -75.5t72.5 -27.5q56 0 99.5 39t57.5 103z" />
    <glyph glyph-name="at" unicode="@" horiz-adv-x="2019" 
d="M1186 332q-62 -105 -138 -156t-169 -51q-129 0 -206 92t-77 246q0 109 49.5 216t140.5 195q68 65 146 99.5t155 34.5q90 0 146 -48.5t76 -142.5l51 174h158l-172 -612l-4 -12q-15 -56 -15 -86q0 -51 23.5 -79t66.5 -28q33 0 80.5 20t89.5 52q119 90 179.5 228.5
t60.5 318.5q0 133 -52.5 245t-156.5 201q-90 77 -214 118.5t-267 41.5q-180 0 -335.5 -61.5t-275.5 -180.5q-126 -124 -190 -287t-64 -358q0 -182 57 -313t179 -234q109 -92 254 -141t307 -49q170 0 327 51.5t300 155.5l33 -41q-147 -110 -312.5 -166t-345.5 -56
q-189 0 -345.5 45.5t-274.5 135.5q-151 113 -230.5 276.5t-79.5 360.5q0 203 86.5 380.5t251.5 313.5q134 111 294.5 167t342.5 56q346 0 555 -188.5t209 -499.5q0 -159 -58.5 -298t-166.5 -237q-59 -52 -126 -80t-134 -28q-96 0 -149 53t-60 156zM1104 961
q-54 0 -98.5 -30.5t-90.5 -99.5q-71 -107 -113 -233.5t-42 -228.5q0 -86 39.5 -138.5t101.5 -52.5q65 0 122.5 43.5t111.5 132.5q55 93 88.5 204t33.5 198q0 92 -42 148.5t-111 56.5z" />
    <glyph glyph-name="A" unicode="A" horiz-adv-x="1434" 
d="M780 1182l-336 -590h449zM256 256q-10 -16 -15 -36t-5 -38q0 -49 37 -70.5t122 -21.5h27l-10 -90h-555l25 90q80 5 150 61.5t134 167.5l690 1197h78l256 -1301q14 -71 48 -95.5t142 -29.5v-90h-602v90l106 6q54 4 71.5 17.5t17.5 44.5q0 18 -1.5 36t-4.5 33l-54 265h-530
z" />
    <glyph glyph-name="B" unicode="B" horiz-adv-x="1464" 
d="M717 713h-199l-117 -478q-9 -39 -12.5 -58t-3.5 -27q0 -35 33.5 -47.5t148.5 -12.5q154 0 233.5 19t133.5 63q59 47 95 127t36 168q0 132 -79 189t-269 57zM662 1300l-123 -499h137q242 0 349.5 86.5t107.5 277.5q0 126 -67.5 175t-252.5 49q-76 0 -107.5 -19.5
t-43.5 -69.5zM819 1479q167 0 241.5 -11t127.5 -36q89 -43 135.5 -115.5t46.5 -167.5q0 -167 -109 -269.5t-303 -117.5q171 -32 255.5 -115.5t84.5 -220.5q0 -184 -142.5 -305t-364.5 -121h-852l16 90l120 8q42 3 62 21.5t35 79.5l262 1042q8 30 12.5 54t4.5 34
q0 32 -25.5 44t-111.5 13l-74 3l16 90h563z" />
    <glyph glyph-name="C" unicode="C" horiz-adv-x="1432" 
d="M1194 455l84 -39q-105 -234 -254.5 -343.5t-364.5 -109.5q-265 0 -419 164t-154 446q0 180 59 345t172 305q119 144 264.5 220.5t303.5 76.5q115 0 205 -43.5t159 -133.5l127 136h66l-111 -586h-82v43q0 237 -93.5 365.5t-266.5 128.5q-96 0 -182 -50t-154 -145
q-106 -148 -166.5 -348t-60.5 -402q0 -201 96 -313.5t268 -112.5q162 0 288.5 99t215.5 297z" />
    <glyph glyph-name="D" unicode="D" horiz-adv-x="1583" 
d="M668 1294l-265 -1055q-9 -35 -12.5 -53t-3.5 -28q0 -39 29 -53.5t129 -14.5q169 0 276.5 40.5t186.5 131.5q50 57 100 156.5t88 220.5q30 98 44.5 189t14.5 178q0 209 -95.5 299t-319.5 90q-91 0 -124.5 -21t-47.5 -80zM-61 0l16 90l120 8q38 3 58.5 19.5t30.5 52.5
l270 1071q8 30 12.5 54t4.5 34q0 32 -25.5 44t-111.5 13l-74 3l16 90h649q283 0 437.5 -151t154.5 -429q0 -233 -100.5 -434t-276.5 -320q-111 -74 -232 -109.5t-267 -35.5h-682z" />
    <glyph glyph-name="E" unicode="E" horiz-adv-x="1464" 
d="M-37 90l110 10q40 4 61 21t30 51l272 1071q8 28 12.5 51t4.5 33q0 33 -23.5 45t-115.5 14l-83 3l17 90h1184l-82 -500h-84q-1 14 -2 39q-8 220 -47 276q-37 51 -108.5 71.5t-231.5 20.5q-117 0 -155 -16.5t-56 -91.5l-117 -454q30 -3 45 -4t27 -1q139 0 219.5 63
t120.5 201h92l-189 -698h-90q9 42 13 79t4 73q0 114 -46 155t-172 41h-47l-123 -495q-8 -32 -12 -50.5t-4 -29.5q0 -38 36.5 -52t164.5 -14q252 0 395.5 97t255.5 339h80l-160 -528h-1214z" />
    <glyph glyph-name="F" unicode="F" horiz-adv-x="1360" 
d="M-55 0l18 90l110 10q41 4 61.5 20.5t29.5 51.5l272 1071q7 28 11 50.5t4 35.5q0 32 -23 43.5t-114 13.5l-83 3l17 90h1184l-82 -500h-84q-5 162 -15.5 221.5t-33.5 93.5q-37 51 -108.5 71.5t-231.5 20.5q-114 0 -153.5 -16.5t-51.5 -62.5l-123 -483q30 -3 45 -4t27 -1
q139 0 219.5 63t120.5 201h92l-189 -698h-90q9 42 13 79t4 73q0 114 -46 155t-172 41h-47l-123 -496l-1 -5q-15 -56 -15 -82q0 -32 25.5 -44t112.5 -14l102 -2l-17 -90h-665z" />
    <glyph glyph-name="G" unicode="G" horiz-adv-x="1593" 
d="M1542 598h-119q-35 0 -55.5 -19t-32.5 -61l-153 -555h-78l-14 170q-92 -87 -196 -128.5t-230 -41.5q-266 0 -421 160t-155 436q0 173 61 337.5t179 309.5q122 150 280 232t324 82q116 0 210.5 -44.5t170.5 -134.5l135 138h70l-123 -582l-84 14v39q0 227 -100.5 352
t-282.5 125q-114 0 -212.5 -64.5t-180.5 -193.5q-95 -145 -152 -343.5t-57 -381.5q0 -181 96.5 -287t259.5 -106q128 0 218 58.5t149 179.5q27 57 45 129.5t18 122.5q0 33 -25 45t-108 12h-76l19 96h641z" />
    <glyph glyph-name="H" unicode="H" horiz-adv-x="1706" 
d="M1174 719h-652l-121 -482q-7 -28 -11.5 -52.5t-4.5 -34.5q0 -32 24.5 -44t111.5 -14l75 -2l-18 -90h-639l16 90l120 10q38 3 58.5 19.5t30.5 52.5l270 1071q8 30 12.5 53t4.5 33q0 32 -25.5 44t-111.5 13l-74 3l16 90h643l-20 -90l-120 -9q-38 -3 -57.5 -19t-29.5 -52
l-125 -490h651l107 425q6 25 10 48.5t4 36.5q0 32 -25 44t-111 14l-75 2l18 90h641l-18 -90l-119 -9q-39 -3 -60 -20t-30 -51l-268 -1071q-7 -27 -10.5 -50t-4.5 -38q0 -32 25 -44t111 -14l75 -2l-18 -90h-641l18 90l119 10q38 3 59.5 20t30.5 52z" />
    <glyph glyph-name="I" unicode="I" horiz-adv-x="838" 
d="M401 238q-7 -28 -11.5 -52t-4.5 -36q0 -32 24 -44t115 -14l64 -2l-19 -90h-624l18 90l110 10q41 4 61.5 20.5t29.5 51.5l272 1071q9 31 13 51.5t4 34.5q0 32 -24 44t-116 13l-69 3l18 90h619l-21 -90l-97 -9q-40 -3 -60 -19t-29 -52z" />
    <glyph glyph-name="J" unicode="J" horiz-adv-x="1208" 
d="M838 1243q6 25 9 47t3 41q0 32 -26.5 43.5t-108.5 11.5h-70l17 93h620l-16 -90l-101 -9q-39 -3 -59.5 -19t-30.5 -53l-217 -851q-68 -269 -195 -381.5t-356 -112.5q-170 0 -272.5 93.5t-102.5 248.5q0 127 71.5 210t176.5 83q69 0 112.5 -41t43.5 -104q0 -60 -41.5 -102
t-101.5 -42q-31 0 -66.5 16.5t-42.5 16.5q-27 0 -41 -19t-14 -55q0 -89 70.5 -148t181.5 -59q140 0 218 88t144 340z" />
    <glyph glyph-name="K" unicode="K" horiz-adv-x="1550" 
d="M-57 0l16 90l110 8q40 4 61 21t30 51l282 1122q1 3 4 16t3 21q0 32 -23 43.5t-114 13.5l-72 3l18 90h647l-18 -90l-126 -11q-39 -3 -59.5 -19.5t-29.5 -51.5l-156 -613l662 555q25 21 40 44t15 40q0 32 -35.5 44t-140.5 12l14 90h590l-10 -84q-82 -6 -153 -38.5
t-173 -117.5l-448 -373l331 -694q19 -40 47 -57t89 -21l75 -4l-6 -90h-649l18 90l98 4q57 2 78 12t21 33q0 10 -3.5 22t-14.5 37l-252 525l-236 -195l-74 -292q-7 -29 -11.5 -52t-4.5 -34q0 -32 23.5 -44t114.5 -14l63 -2l-19 -90h-622z" />
    <glyph glyph-name="L" unicode="L" horiz-adv-x="1356" 
d="M401 229q-9 -35 -12.5 -55t-3.5 -31q0 -32 32.5 -44.5t149.5 -12.5q249 0 395 99.5t259 342.5h82l-162 -528h-1196l18 90l110 10q41 4 61.5 20.5t29.5 51.5l272 1071q7 28 11 51t4 37q0 32 -27 43.5t-111 11.5h-82l17 93h682l-21 -90l-146 -9q-38 -3 -59 -20t-30 -51z
" />
    <glyph glyph-name="M" unicode="M" horiz-adv-x="1901" 
d="M1507 1298l-764 -1298h-61l-164 1257l-225 -898l-2 -8q-19 -78 -19 -111q0 -74 49.5 -109.5t157.5 -40.5l-10 -90h-561l17 90q114 14 168.5 64.5t84.5 173.5l250 985q-13 35 -40.5 51.5t-77.5 19.5l-122 9l13 86h501l142 -1104l647 1104h451l-17 -90l-106 -11
q-42 -3 -61.5 -20.5t-35.5 -79.5l-256 -1043q-7 -28 -11.5 -51.5t-4.5 -33.5q0 -32 24.5 -44t111.5 -14l75 -2l-19 -90h-641l19 90l120 8q41 4 60 20.5t35 80.5z" />
    <glyph glyph-name="N" unicode="N" horiz-adv-x="1671" 
d="M1739 1479l-15 -90q-95 -5 -156.5 -65.5t-90.5 -178.5l-291 -1172h-74l-594 1237l-207 -852q-2 -8 -5 -22q-15 -65 -15 -94q0 -74 49.5 -110.5t156.5 -41.5l-12 -90h-559l15 90q113 13 168 64.5t86 175.5l249 983q-13 36 -40 53t-77 21l-122 6l14 86h418l539 -1133
l204 831q6 22 8.5 40t2.5 34q0 66 -47.5 100.5t-143.5 39.5l14 88h525z" />
    <glyph glyph-name="O" unicode="O" horiz-adv-x="1593" 
d="M1507 924q0 -171 -63 -339.5t-180 -312.5q-122 -149 -279 -229t-328 -80q-260 0 -414.5 162t-154.5 436q0 174 61 339t179 308q123 151 281 231.5t331 80.5q252 0 409.5 -166t157.5 -430zM1266 1047q0 185 -85.5 280.5t-250.5 95.5q-117 0 -217 -63.5t-170 -181.5
q-101 -167 -160 -371t-59 -379q0 -183 83.5 -277t245.5 -94q126 0 229.5 68.5t180.5 202.5q93 162 148 357.5t55 361.5z" />
    <glyph glyph-name="P" unicode="P" horiz-adv-x="1370" 
d="M528 745h144q248 0 358.5 97t110.5 311q0 131 -69 183.5t-253 52.5q-80 0 -109.5 -24.5t-47.5 -98.5zM401 235q-7 -28 -11.5 -51.5t-4.5 -33.5q0 -32 24.5 -44t111.5 -14l93 -2l-16 -90h-659l16 90l120 8q42 4 61.5 21t35.5 80l262 1042q8 30 12.5 54t4.5 34
q0 32 -25.5 44t-111.5 13l-74 3l16 90h471q200 0 279 -10t135 -33q112 -47 170.5 -130t58.5 -198q0 -101 -41 -187t-119 -145q-84 -66 -189.5 -94.5t-330.5 -28.5h-59h-125z" />
    <glyph glyph-name="Q" unicode="Q" horiz-adv-x="1593" 
d="M799 -21q-43 -9 -79.5 -13.5t-64.5 -4.5q-262 0 -414.5 162t-152.5 440q0 172 61 337t179 308q123 151 281 231.5t331 80.5q252 0 409.5 -166.5t157.5 -431.5q0 -261 -133 -495t-354 -361q13 -196 36.5 -253t76.5 -57q33 0 66 32.5t83 117.5l66 -39q-57 -126 -141.5 -195
t-180.5 -69q-108 0 -171.5 72.5t-63.5 197.5q0 21 2 48.5t6 57.5zM381 188q0 5 -1 15q-3 33 -3 43q0 135 83.5 219t219.5 84q131 0 215 -83.5t102 -232.5q46 46 87 122t79 186q50 139 76.5 269.5t26.5 236.5q0 185 -85.5 280.5t-248.5 95.5q-147 0 -257.5 -92.5
t-205.5 -298.5q-69 -151 -108 -312.5t-39 -293.5q0 -76 14 -133.5t45 -104.5zM817 78q12 52 17.5 96.5t5.5 83.5q0 91 -47.5 142t-133.5 51q-90 0 -145 -61.5t-55 -162.5q0 -82 54.5 -131t145.5 -49q32 0 71 7.5t87 23.5z" />
    <glyph glyph-name="R" unicode="R" horiz-adv-x="1546" 
d="M662 1280l-115 -463h135q269 0 388.5 86t119.5 277q0 117 -75 163t-286 46q-90 0 -120.5 -21.5t-46.5 -87.5zM868 1479q284 0 419.5 -80t135.5 -246q0 -174 -136 -277.5t-390 -121.5q125 -42 176 -114t51 -206q0 -26 -3 -93.5t-3 -109.5q0 -70 16 -101.5t52 -31.5
q30 0 64 48.5t75 148.5l70 -31q-50 -144 -125.5 -220.5t-167.5 -76.5q-104 0 -161.5 66t-57.5 186q0 75 13 187t13 149q0 96 -52.5 132t-227.5 36h-105l-123 -488q-9 -39 -12.5 -58t-3.5 -27q0 -32 25 -44t111 -14l67 -2l-15 -90h-634l16 90l120 8q42 4 61.5 21t35.5 80
l262 1042q8 30 12.5 54t4.5 34q0 32 -25.5 44t-111.5 13l-74 3l16 90h612z" />
    <glyph glyph-name="S" unicode="S" horiz-adv-x="1354" 
d="M86 0h-76l113 582l84 -15v-20q0 -244 103.5 -367t307.5 -123q170 0 267.5 79t97.5 214q0 182 -327 296l-3 1q-225 78 -311 172.5t-86 249.5q0 192 135 319.5t342 127.5q116 0 210.5 -39.5t172.5 -120.5l107 110h77l-104 -534l-79 16q-3 239 -96.5 358t-279.5 119
q-134 0 -218.5 -75.5t-84.5 -194.5q0 -93 62.5 -151.5t249.5 -122.5q254 -88 342 -181.5t88 -253.5q0 -216 -153.5 -351.5t-397.5 -135.5q-129 0 -232 42t-188 128z" />
    <glyph glyph-name="T" unicode="T" horiz-adv-x="1446" 
d="M180 0l21 90l145 8q72 4 96 100v1l269 1053q9 35 12.5 53t3.5 28q0 31 -20.5 44.5t-67.5 13.5q-141 0 -239.5 -94t-227.5 -369l-74 26l176 525h1207l-82 -566l-84 1q3 54 4.5 95.5t1.5 65.5q0 166 -62 240t-200 74q-52 0 -75 -17.5t-40 -83.5l-270 -1052
q-7 -26 -10.5 -47t-4.5 -39q0 -32 25.5 -44t112.5 -14l86 -2l-6 -90h-697z" />
    <glyph glyph-name="U" unicode="U" horiz-adv-x="1655" 
d="M242 590l164 654q7 28 11.5 51.5t4.5 33.5q0 32 -25 44t-111 14l-75 2l18 90h641l-18 -90l-121 -9q-42 -3 -61.5 -20.5t-34.5 -79.5l-168 -678q-3 -13 -10 -39q-35 -141 -35 -203q0 -138 86 -220.5t231 -82.5q181 0 303.5 120.5t182.5 357.5l145 585q2 7 4 17
q17 72 17 102q0 74 -49.5 109.5t-157.5 40.5l12 90h559l-14 -90q-112 -13 -166.5 -63.5t-87.5 -174.5l-168 -657q-72 -283 -222.5 -408t-416.5 -125q-213 0 -347 107t-134 274q0 80 43 247v1z" />
    <glyph glyph-name="V" unicode="V" horiz-adv-x="1360" 
d="M563 -37h-71l-230 1301q-12 70 -48.5 95.5t-143.5 29.5v90h604v-90l-109 -7q-53 -3 -69.5 -16.5t-16.5 -46.5q0 -20 1.5 -36.5t4.5 -30.5l162 -937l537 908q12 21 18 42t6 40q0 47 -39 65.5t-155 18.5l10 90h518l-10 -90q-81 -15 -136 -60t-126 -168z" />
    <glyph glyph-name="W" unicode="W" horiz-adv-x="1870" 
d="M453 -37l-179 1301q-9 71 -39.5 98t-99.5 27h-26v90h536v-90l-68 -5q-49 -3 -67 -16.5t-18 -46.5q0 -13 1.5 -30t4.5 -40l110 -848l365 797q0 7 1 19.5t1 17.5q0 87 -33.5 119.5t-126.5 32.5h-20v90h555v-90l-84 -7q-56 -3 -72 -16t-16 -43q0 -11 4 -45q3 -18 4 -27
l114 -848l363 789q21 45 30 73.5t9 47.5q0 41 -38 57.5t-157 18.5l11 90h524l-8 -90q-97 -10 -156 -59.5t-113 -168.5l-546 -1198h-74l-150 1043l-469 -1043h-73z" />
    <glyph glyph-name="X" unicode="X" horiz-adv-x="1434" 
d="M813 905l307 318q25 24 35 45.5t10 46.5q0 38 -37.5 56t-121.5 18l20 90h543l-21 -90q-69 -8 -134 -44t-132 -104l-426 -434l256 -590q29 -66 59.5 -90.5t106.5 -30.5l74 -6v-90h-654v90l99 4q68 2 86 12t18 33q0 21 -14 53q-2 4 -2 5l-191 446l-297 -307
q-59 -61 -79.5 -94.5t-20.5 -63.5q0 -45 39.5 -66.5t120.5 -21.5h10v-90h-590l15 90q77 11 152 58t192 165l417 428l-235 545q-22 53 -43.5 69.5t-91.5 24.5l-62 9v90h592v-90l-70 -3q-65 -2 -84.5 -13t-19.5 -40q0 -11 5 -27t18 -44z" />
    <glyph glyph-name="Y" unicode="Y" horiz-adv-x="1370" 
d="M750 743l387 476q18 22 26 42.5t8 41.5q0 44 -40.5 63t-151.5 23l10 90h572l-21 -90q-73 -2 -129.5 -29.5t-103.5 -85.5l-525 -641l-98 -395q-7 -30 -10.5 -52.5t-3.5 -31.5q0 -34 24.5 -47t110.5 -15l102 -2l-16 -90h-703l21 90l149 10q41 3 60.5 20t36.5 81l110 440
l-264 645q-22 56 -60.5 78.5t-125.5 26.5v88h594v-88l-113 -2q-46 0 -64 -10.5t-18 -35.5q0 -7 3 -18.5t11 -31.5z" />
    <glyph glyph-name="Z" unicode="Z" horiz-adv-x="1341" 
d="M244 96h252q259 0 405 102t254 355l70 -27l-162 -526h-1114v76l1085 1313h-160q-248 0 -392 -94.5t-240 -317.5l-80 14l162 488h1007v-64z" />
    <glyph glyph-name="bracketleft" unicode="[" horiz-adv-x="678" 
d="M344 -221h-465l443 1700h432l-11 -64h-299l-409 -1571h317z" />
    <glyph glyph-name="backslash" unicode="\" horiz-adv-x="569" 
d="M344 -190l-211 1706h90l209 -1706h-88z" />
    <glyph glyph-name="bracketright" unicode="]" horiz-adv-x="678" 
d="M276 1479h465l-442 -1700h-432l10 65h299l410 1571h-318z" />
    <glyph glyph-name="asciicircum" unicode="^" horiz-adv-x="2048" 
d="M926 1462h194l512 -565h-98l-512 420l-514 -420h-96z" />
    <glyph glyph-name="underscore" unicode="_" 
d="M0 -340h1024v-143h-1024v143z" />
    <glyph glyph-name="grave" unicode="`" 
d="M782 1079h-80l-266 199q-29 22 -44 43.5t-15 42.5q0 33 21.5 54.5t54.5 21.5q20 0 42 -13.5t42 -37.5z" />
    <glyph glyph-name="a" unicode="a" horiz-adv-x="1135" 
d="M608 139q-67 -84 -148 -128t-167 -44q-129 0 -211 96t-82 246q0 108 32.5 214t94.5 198q81 120 180 183t209 63q92 0 155 -50t91 -145l61 162h164l-47 -127q-81 -227 -132.5 -419t-51.5 -243q0 -33 9.5 -49t29.5 -16q35 0 90 64.5t127 191.5l59 -35
q-88 -167 -168.5 -245.5t-163.5 -78.5q-63 0 -97 37t-34 107v18zM186 281q0 -96 45.5 -149.5t126.5 -53.5q72 0 132.5 48t109.5 142q45 88 73.5 201.5t28.5 198.5q0 91 -45 143.5t-122 52.5q-62 0 -119.5 -40t-106.5 -117q-54 -86 -88.5 -205.5t-34.5 -220.5z" />
    <glyph glyph-name="b" unicode="b" horiz-adv-x="1040" 
d="M188 252q0 -103 44 -153t135 -50q74 0 137.5 46t118.5 138q55 96 88.5 210t33.5 202q0 98 -47 151.5t-133 53.5q-65 0 -123 -37.5t-110 -112.5q-66 -95 -105 -217.5t-39 -230.5zM330 813q67 72 141.5 108.5t153.5 36.5q143 0 226 -87.5t83 -239.5q0 -130 -48 -254
t-132 -213q-92 -96 -196 -147.5t-208 -51.5q-153 0 -243.5 84t-90.5 225q0 78 55 257l9 30l213 688q12 41 18 67t6 40q0 36 -27 49.5t-114 13.5h-41l21 74l393 23z" />
    <glyph glyph-name="c" unicode="c" horiz-adv-x="891" 
d="M750 227q-93 -133 -194 -198.5t-216 -65.5q-155 0 -250.5 107.5t-95.5 283.5q0 107 36.5 206t110.5 192q83 103 187.5 160t212.5 57q117 0 193.5 -63t76.5 -158q0 -68 -37 -110t-96 -42q-48 0 -76.5 27.5t-28.5 74.5q0 28 12.5 51.5t34.5 36.5q7 4 22 11q36 15 36 34
q0 26 -38.5 45t-92.5 19q-74 0 -134.5 -39.5t-105.5 -116.5q-58 -100 -88.5 -206t-30.5 -211q0 -124 52 -191.5t147 -67.5q80 0 150 48.5t153 162.5z" />
    <glyph glyph-name="d" unicode="d" horiz-adv-x="1233" 
d="M645 139q-72 -84 -158 -128t-178 -44q-138 0 -223.5 96.5t-85.5 255.5q0 127 55 258t152 232q72 76 161 118t181 42q88 0 153.5 -41.5t104.5 -120.5l133 449l3 10q22 77 22 96q0 38 -30.5 51.5t-170.5 13.5l24 72l412 23l-211 -695q-116 -382 -152 -517t-36 -173
q0 -27 11 -42t32 -15q37 0 92.5 62.5t136.5 195.5l62 -37q-93 -166 -178 -245t-173 -79q-68 0 -103.5 36t-35.5 106v20zM190 279q0 -101 49 -156t136 -55q75 0 141.5 50t120.5 148q47 89 79 208.5t32 207.5q0 96 -48 149.5t-133 53.5q-68 0 -129.5 -41t-113.5 -121
q-58 -90 -96 -216t-38 -228z" />
    <glyph glyph-name="e" unicode="e" horiz-adv-x="891" 
d="M745 186q-76 -109 -180 -166t-225 -57q-154 0 -249 103.5t-95 271.5q0 102 38.5 203.5t112.5 193.5q88 108 196 168t216 60q119 0 186.5 -55.5t67.5 -151.5q0 -132 -156.5 -232t-470.5 -168q0 -11 -3 -39t-3 -41q0 -101 49 -157t138 -56q85 0 168 43t161 127zM195 432
q221 49 331.5 132.5t110.5 201.5q0 54 -30.5 86.5t-80.5 32.5q-110 0 -197 -118.5t-134 -334.5z" />
    <glyph glyph-name="f" unicode="f" horiz-adv-x="678" 
d="M250 844h-187l27 90h186q67 292 182.5 437t282.5 145q93 0 150 -47t57 -121q0 -55 -30.5 -89t-79.5 -34q-41 0 -70 28.5t-29 67.5q0 23 16.5 50.5t16.5 35.5q0 15 -14.5 24t-40.5 9q-84 0 -139 -91.5t-136 -414.5h252l-18 -90h-256l-174 -713q-45 -181 -81.5 -299.5
t-74.5 -216.5l-223 -39q73 149 130 307t97 322z" />
    <glyph glyph-name="g" unicode="g" horiz-adv-x="1130" 
d="M285 403q-64 37 -93.5 86.5t-29.5 116.5q0 150 118 255.5t289 105.5q39 0 83 -10t102 -31q49 51 106 77.5t117 26.5q63 0 97 -27t34 -77q0 -38 -22.5 -62t-57.5 -24q-40 0 -67 45t-60 45q-23 0 -43 -11t-37 -32q61 -48 91 -102t30 -113q0 -154 -118 -255.5t-300 -101.5
q-43 0 -115 8.5t-102 8.5q-61 0 -94 -22t-33 -62q0 -72 190 -84q23 -1 36 -2q264 -18 354 -73.5t90 -182.5q0 -160 -144.5 -248t-408.5 -88q-204 0 -313 63t-109 181q0 89 69.5 145.5t207.5 77.5q-66 17 -99 55t-33 98q0 82 72 140.5t193 72.5zM250 4q-102 -19 -156.5 -67.5
t-54.5 -118.5q0 -80 74 -123t213 -43q176 0 275 51.5t99 142.5q0 81 -105 118t-345 40zM336 563q0 -84 48 -130t136 -46q107 0 175.5 94t68.5 242q0 78 -48.5 122t-135.5 44q-110 0 -177 -90t-67 -236z" />
    <glyph glyph-name="h" unicode="h" horiz-adv-x="1241" 
d="M201 0h-187l357 1256l3 10q21 77 21 98q0 36 -29 48.5t-149 12.5l21 74l387 23l-230 -832q94 130 193.5 199t189.5 69q87 0 142 -50.5t55 -129.5q0 -24 -9 -68t-26 -98l-135 -419q-7 -21 -10.5 -40t-3.5 -32q0 -23 10.5 -34t32.5 -11q41 0 105 64t144 186l58 -39
q-92 -153 -181 -230t-174 -77q-70 0 -115.5 43.5t-45.5 109.5q0 24 7 55.5t32 108.5l116 356q13 39 19 68t6 49q0 40 -24 61t-70 21q-53 0 -118.5 -47t-133.5 -133q-68 -85 -116.5 -196t-94.5 -294z" />
    <glyph glyph-name="i" unicode="i" horiz-adv-x="690" 
d="M578 285q-103 -161 -187.5 -233t-169.5 -72q-70 0 -117 42.5t-47 106.5q0 24 7.5 57t31.5 111l127 393q12 35 18.5 63.5t6.5 43.5q0 37 -27 50t-151 13l20 74l393 22l-243 -763q-7 -21 -11 -40t-4 -32q0 -23 11 -35t32 -12q38 0 102 64.5t148 187.5zM342 1372q0 45 31 76
t76 31t76.5 -31t31.5 -76q0 -44 -32 -76t-76 -32t-75.5 32t-31.5 76z" />
    <glyph glyph-name="j" unicode="j" horiz-adv-x="678" 
d="M379 1372q0 44 31.5 75.5t76.5 31.5q46 0 77.5 -31t31.5 -76q0 -44 -32 -76t-77 -32q-43 0 -75.5 32t-32.5 76zM287 690v2q24 82 24 105q0 37 -26.5 50t-151.5 13l21 74l381 22l-236 -835q-85 -297 -194.5 -423t-278.5 -126q-95 0 -154 46.5t-59 121.5q0 58 30 90.5
t83 32.5q44 0 71 -28t27 -73q0 -22 -14.5 -47.5t-14.5 -33.5q0 -16 13 -24.5t36 -8.5q138 0 257 405l10 33z" />
    <glyph glyph-name="k" unicode="k" horiz-adv-x="1124" 
d="M176 0h-186l370 1236l4 13q21 76 21 94q0 39 -28.5 52.5t-149.5 13.5l18 72l385 22l-231 -813q110 144 202 207.5t187 63.5q82 0 136 -54t54 -137q0 -97 -89.5 -179t-276.5 -155q40 -32 61 -70.5t33 -115.5q6 -37 10 -92q7 -86 41 -86q31 0 88 68t111 175l63 -32
q-61 -145 -149 -229.5t-174 -84.5q-81 0 -119.5 51.5t-38.5 161.5q0 76 5 158q1 18 1 22q0 30 -11.5 40t-70.5 10q-37 0 -50 9t-13 32q0 20 13.5 32.5t37.5 12.5q14 0 33.5 -3.5t50.5 -11.5q127 33 206 107t79 158q0 49 -28 77.5t-77 28.5q-45 0 -99.5 -34t-113.5 -99
q-89 -99 -150 -228.5t-128 -390.5z" />
    <glyph glyph-name="l" unicode="l" horiz-adv-x="678" 
d="M211 197q-6 -21 -9 -40t-3 -32q0 -27 9.5 -38t33.5 -11q38 0 96.5 57.5t153.5 190.5l59 -39q-100 -157 -187.5 -231t-173.5 -74q-67 0 -111 43t-44 110q0 28 8.5 69t26.5 97l282 938q13 39 19 65t6 41q0 39 -28.5 52.5t-149.5 13.5l18 72l381 22z" />
    <glyph glyph-name="m" unicode="m" horiz-adv-x="1802" 
d="M18 0l218 690q10 35 16 63.5t6 43.5q0 37 -26.5 50t-149.5 13l18 74l353 22l-54 -266q92 131 187.5 199.5t183.5 68.5q93 0 144 -59t51 -166v-28q95 123 191 188t183 65t142 -50.5t55 -129.5q0 -28 -9.5 -73t-25.5 -93l-137 -420q-7 -20 -11.5 -40t-4.5 -31
q0 -22 11 -33.5t34 -11.5q40 0 100 60.5t147 189.5l60 -39q-105 -163 -188.5 -235t-168.5 -72q-70 0 -115.5 43.5t-45.5 109.5q0 25 8 60t31 104l120 356q12 33 18.5 63.5t6.5 53.5q0 40 -23.5 61t-68.5 21q-53 0 -120 -47t-134 -133q-63 -80 -108.5 -179.5t-102.5 -310.5
l-49 -182h-174q15 45 76 250l6 19l114 382q9 26 13 52t4 53q0 49 -23.5 72.5t-70.5 23.5q-50 0 -115.5 -48t-134.5 -136q-59 -75 -107 -189.5t-96 -296.5l-49 -182h-185z" />
    <glyph glyph-name="n" unicode="n" horiz-adv-x="1241" 
d="M18 0l218 690q10 35 16 63.5t6 43.5q0 37 -26.5 50t-149.5 13l18 74l361 22l-62 -266q94 130 193.5 199t189.5 69q87 0 142 -50.5t55 -129.5q0 -28 -9.5 -73t-25.5 -93l-139 -419q-7 -20 -10.5 -39t-3.5 -33q0 -23 10.5 -34t32.5 -11q39 0 99.5 60t149.5 190l58 -39
q-91 -151 -181 -229t-174 -78q-70 0 -115.5 42t-45.5 107q0 30 9 70.5t30 97.5l120 356q12 33 18.5 63.5t6.5 53.5q0 40 -24 61t-70 21q-53 0 -118.5 -47t-133.5 -133q-63 -80 -108.5 -179.5t-102.5 -310.5l-49 -182h-185z" />
    <glyph glyph-name="o" unicode="o" 
d="M-6 352q0 97 33.5 199t93.5 184q84 117 191.5 175.5t236.5 58.5q158 0 259 -108.5t101 -278.5q0 -112 -39.5 -220.5t-109.5 -191.5q-88 -103 -185 -154t-206 -51q-171 0 -273 105.5t-102 281.5zM178 264q0 -105 48.5 -163t135.5 -58q64 0 122.5 34.5t99.5 96.5
q64 97 103.5 233t39.5 259q0 109 -49 168t-139 59q-71 0 -133.5 -44.5t-110.5 -129.5q-52 -89 -84.5 -215.5t-32.5 -239.5z" />
    <glyph glyph-name="p" unicode="p" horiz-adv-x="1124" 
d="M113 -227q-7 -23 -10 -41.5t-3 -32.5q0 -28 22.5 -38.5t84.5 -10.5h43l-12 -76h-488l21 76l88 6q29 3 43.5 18t29.5 68l285 991q6 22 9 40.5t3 29.5q0 34 -27.5 46.5t-154.5 12.5l21 74l352 22l-39 -186q79 95 160.5 142t167.5 47q131 0 209.5 -89.5t78.5 -240.5
q0 -128 -42.5 -249.5t-118.5 -213.5q-79 -96 -174 -148.5t-191 -52.5q-85 0 -151 39.5t-107 114.5zM272 254q0 -92 46.5 -143.5t127.5 -51.5q77 0 138.5 45t113.5 140q52 92 83.5 203t31.5 198q0 97 -46 150t-130 53q-65 0 -122.5 -38t-106.5 -114q-58 -87 -97 -214.5
t-39 -227.5z" />
    <glyph glyph-name="q" unicode="q" horiz-adv-x="1104" 
d="M602 123q-52 -73 -132 -113.5t-173 -40.5q-131 0 -216 96.5t-85 245.5q0 128 57.5 261t155.5 231q76 76 167.5 118t182.5 42q82 0 146.5 -34.5t121.5 -109.5l115 139h70l-334 -1185q-6 -20 -9 -39.5t-3 -34.5q0 -28 22.5 -38.5t85.5 -10.5h45l-22 -76h-494l23 76l90 6
q31 3 46 16.5t32 69.5zM186 276q0 -101 46.5 -154.5t134.5 -53.5q81 0 144.5 48.5t115.5 151.5q51 101 81.5 215t30.5 197q0 99 -45.5 153t-130.5 54q-66 0 -129.5 -42.5t-114.5 -121.5q-57 -88 -95 -214.5t-38 -232.5z" />
    <glyph glyph-name="r" unicode="r" horiz-adv-x="903" 
d="M20 0l211 690q13 39 19 65.5t6 41.5q0 37 -27 50t-151 13l18 74l355 22l-48 -247q84 125 165.5 186t164.5 61q75 0 118.5 -40.5t43.5 -110.5q0 -56 -31.5 -91.5t-81.5 -35.5q-32 0 -59 18.5t-41 51.5q-7 17 -9 48q-3 43 -38 44q-91 0 -203.5 -201.5t-195.5 -529.5
l-29 -109h-187z" />
    <glyph glyph-name="s" unicode="s" horiz-adv-x="901" 
d="M322 -35q-146 0 -237 67.5t-91 174.5q0 62 33 100.5t86 38.5q42 0 70 -29t28 -73q0 -59 -57 -101q-13 -10 -13 -12q0 -36 48.5 -62t123.5 -26q116 0 184 54t68 145q0 88 -155 148q-13 5 -18 7q-162 62 -215.5 120t-53.5 151q0 130 99.5 214.5t256.5 84.5
q140 0 224.5 -57.5t84.5 -149.5q0 -55 -30 -88t-80 -33q-44 0 -74.5 27t-30.5 67q0 34 26 67.5t26 41.5q0 21 -39 37t-99 16q-99 0 -161 -46.5t-62 -117.5q0 -100 193 -171q41 -15 63 -23q104 -40 149.5 -97t45.5 -147q0 -148 -108 -238t-285 -90z" />
    <glyph glyph-name="t" unicode="t" horiz-adv-x="674" 
d="M207 193q-7 -25 -10.5 -44t-3.5 -28q0 -22 11 -33.5t34 -11.5q40 0 100.5 60t155.5 196l59 -37q-91 -153 -185 -234t-180 -81q-75 0 -118 40.5t-43 112.5q0 27 6.5 59t29.5 105l177 551h-189l25 86h192l115 348h162l-111 -348h225l-26 -86h-225z" />
    <glyph glyph-name="u" unicode="u" horiz-adv-x="1241" 
d="M647 231q-94 -129 -192.5 -197.5t-192.5 -68.5q-93 0 -143.5 47.5t-50.5 134.5q0 24 9 68.5t25 93.5l127 381q12 34 18.5 63.5t6.5 43.5q0 37 -27.5 50t-144.5 13l18 74l387 22l-219 -675q-14 -43 -20 -71t-6 -48q0 -39 24 -61.5t66 -22.5q127 0 247 173t226 511l55 172
h184q-123 -318 -189.5 -530t-66.5 -287q0 -30 10.5 -43t32.5 -13q37 0 94 60t142 188l55 -39q-92 -155 -174.5 -230t-161.5 -75q-67 0 -110 44t-43 114q0 19 3 44.5t11 63.5z" />
    <glyph glyph-name="v" unicode="v" horiz-adv-x="1030" 
d="M49 860l10 74l373 22l-170 -589q-10 -35 -16 -71t-6 -65q0 -70 42.5 -112.5t112.5 -42.5q59 0 120 42.5t120 123.5q70 97 113 214.5t43 202.5q0 57 -51.5 119.5t-51.5 100.5t28 64t68 26q58 0 88.5 -41.5t30.5 -118.5q0 -128 -47 -282.5t-129 -295.5
q-76 -131 -175.5 -198.5t-215.5 -67.5q-120 0 -193 76t-73 201q0 33 5.5 67t18.5 82l82 299q15 51 20 73.5t5 35.5q0 35 -28 48t-124 13z" />
    <glyph glyph-name="w" unicode="w" horiz-adv-x="1569" 
d="M205 690q11 35 17.5 63.5t6.5 43.5q0 37 -27 50t-124 13l10 74l358 22l-180 -589q-17 -53 -26 -100t-9 -81q0 -47 27 -75.5t72 -28.5q139 0 273 232.5t212 619.5h184q-95 -317 -132.5 -475.5t-37.5 -241.5q0 -66 27 -100.5t78 -34.5q52 0 108.5 37.5t108.5 107.5
q75 101 120.5 222t45.5 210q0 57 -51.5 120.5t-51.5 92.5q0 41 29.5 69t73.5 28q53 0 81.5 -42t28.5 -118q0 -106 -32 -233.5t-90 -247.5q-83 -172 -188.5 -264.5t-217.5 -92.5t-172.5 64.5t-60.5 183.5q0 20 1.5 40.5t4.5 41.5q-68 -154 -176 -244t-222 -90q-92 0 -150 61
t-58 156q0 38 11 91t32 116z" />
    <glyph glyph-name="x" unicode="x" horiz-adv-x="1012" 
d="M397 319q-105 -191 -184 -272.5t-158 -81.5q-63 0 -103 39.5t-40 101.5q0 49 30 82t70 33q36 0 57.5 -16t30.5 -49q2 -8 5 -21q6 -35 26 -35q27 0 67 50t101 159l76 135l-41 189q-22 101 -44.5 148.5t-47.5 47.5q-24 0 -61 -41t-103 -143l-58 35q90 152 158.5 218.5
t134.5 66.5q62 0 100.5 -51t61.5 -164l25 -117q97 175 173.5 253.5t149.5 78.5q55 0 87 -32t32 -85q0 -50 -26 -79.5t-70 -29.5t-69.5 42t-41.5 42q-22 0 -82 -85.5t-129 -219.5l39 -192q29 -147 49.5 -189.5t53.5 -42.5q30 0 74.5 48.5t111.5 154.5l57 -39
q-79 -143 -159 -218t-152 -75q-73 0 -116.5 73.5t-84.5 280.5z" />
    <glyph glyph-name="y" unicode="y" horiz-adv-x="977" 
d="M385 -6q-47 363 -105 587t-102 224q-25 0 -55 -43.5t-80 -153.5l-66 27q67 160 135 243t134 83q119 0 255 -626q15 -69 23 -106l15 26q192 336 192 460q0 36 -3 80.5t-3 52.5q0 50 27 80t71 30q41 0 65.5 -27.5t24.5 -72.5q0 -95 -232 -515l-3 -5l-10 -18
q-419 -752 -668 -752q-85 0 -137.5 42.5t-52.5 110.5q0 53 28 85t74 32q48 0 76 -28.5t28 -75.5q0 -12 -2 -28t-2 -19q0 -14 10 -22.5t27 -8.5q65 0 160.5 94t175.5 244z" />
    <glyph glyph-name="z" unicode="z" horiz-adv-x="895" 
d="M47 94v-14q0 -62 -14 -88.5t-45 -26.5q-19 0 -32 16.5t-13 41.5q0 61 59.5 148.5t179.5 203.5q101 96 291 215.5t248 181.5q-31 -13 -68.5 -19.5t-83.5 -7.5q-58 0 -152.5 33t-129.5 33q-42 0 -78 -34.5t-92 -131.5l-58 37q68 136 150.5 206t173.5 70q71 0 173 -49
t151 -49q24 1 34.5 10.5t18.5 43.5q7 31 17 42t28 11q20 0 30.5 -15t10.5 -43q0 -71 -87.5 -190.5t-219.5 -218.5q-42 -32 -206.5 -130t-240.5 -190q21 10 53.5 15.5t77.5 5.5q82 0 188 -38t140 -38q51 0 95.5 46.5t86.5 143.5l66 -26q-54 -156 -141 -239t-197 -83
q-41 0 -86 12t-135 52q-25 11 -67 32q-76 37 -95 37q-8 0 -16 -1.5t-15 -4.5z" />
    <glyph glyph-name="braceleft" unicode="{" 
d="M848 1516v-53q-136 -2 -186 -55t-50 -210v-141q0 -227 -59 -308.5t-217 -113.5q159 -32 217.5 -113.5t58.5 -308.5v-141q0 -157 49.5 -209t186.5 -54v-53h-10q-219 0 -301 74t-82 272v207q0 161 -59 221.5t-218 73.5v64q161 13 219 73.5t58 221.5v206q0 199 82 273
t301 74h10z" />
    <glyph glyph-name="bar" unicode="|" 
d="M438 1565h150v-2048h-150v2048z" />
    <glyph glyph-name="braceright" unicode="}" 
d="M176 1516h10q220 0 302.5 -74t82.5 -273v-206q0 -161 58 -221.5t219 -73.5v-64q-161 -13 -219 -73.5t-58 -221.5v-207q0 -198 -82.5 -272t-302.5 -74h-10v53q137 2 186.5 54.5t49.5 208.5v141q0 227 58.5 308.5t217.5 113.5q-158 32 -217 113.5t-59 308.5v141
q0 157 -50 210t-186 55v53z" />
    <glyph glyph-name="asciitilde" unicode="~" horiz-adv-x="1706" 
d="M1530 770v-156q-104 -72 -199 -106.5t-190 -34.5q-93 0 -256 58q-22 8 -34 12l-15 5q-176 60 -273 60q-84 0 -175 -37t-210 -120v155q106 72 202 108t185 36q62 0 127.5 -13.5t163.5 -48.5q16 -5 47 -17q159 -57 240 -57q88 0 179.5 37t207.5 119z" />
    <glyph glyph-name="currency" unicode="&#xa4;" horiz-adv-x="1241" 
d="M623 1190q-126 0 -215 -89t-89 -214q0 -126 89 -215.5t215 -89.5q125 0 214 89.5t89 215.5q0 125 -89 214t-214 89zM162 1423l205 -204q57 43 120 64.5t134 21.5t134.5 -21.5t121.5 -64.5l204 204l82 -80l-205 -206q41 -55 61.5 -118t20.5 -134q0 -73 -20 -135.5
t-62 -116.5l205 -205l-82 -82l-204 205q-59 -44 -122 -65t-132 -21q-72 0 -135.5 21.5t-120.5 64.5l-205 -205l-82 82l207 205q-41 51 -62.5 116t-21.5 136q0 70 21 133t63 119l-207 206z" />
    <glyph glyph-name="brokenbar" unicode="&#xa6;" 
d="M438 408h150v-758h-150v758zM438 1432h150v-758h-150v758z" />
    <glyph glyph-name="section" unicode="&#xa7;" 
d="M580 358q65 -79 98 -150.5t33 -133.5q0 -113 -93.5 -184.5t-240.5 -71.5q-128 0 -209.5 62.5t-81.5 156.5q0 53 34.5 88t88.5 35q41 0 69.5 -29t28.5 -72q0 -32 -35.5 -75t-35.5 -54q0 -27 37.5 -45t97.5 -18q75 0 127.5 48t52.5 118q0 81 -142 259q-15 19 -22 27
l-102 130q-80 100 -110 165t-30 127q0 105 80 178.5t189 73.5q18 0 29.5 -0.5t20.5 -0.5q-64 72 -96 138.5t-32 129.5q0 112 92.5 186t237.5 74q119 0 195.5 -57.5t76.5 -143.5q0 -53 -33 -88t-82 -35q-43 0 -72.5 27t-29.5 65q0 34 31.5 71t31.5 50q0 24 -32.5 41.5
t-79.5 17.5q-85 0 -136 -42.5t-51 -110.5q0 -80 158 -273l8 -10l103 -127q78 -96 109.5 -164t31.5 -135q0 -109 -75.5 -180.5t-186.5 -71.5q-9 0 -39 3q-10 1 -14 1zM289 805q0 -42 26.5 -100t77.5 -127q82 -110 125 -139t96 -29q60 0 99 36.5t39 92.5q0 43 -24 97t-79 130
q-64 89 -114 130.5t-95 41.5q-60 0 -105.5 -40t-45.5 -93z" />
    <glyph glyph-name="copyright" unicode="&#xa9;" horiz-adv-x="1683" 
d="M1122 1098h37l2 -316h-43q-32 135 -103 204t-177 69q-119 0 -179.5 -93.5t-60.5 -277.5q0 -187 66.5 -284t193.5 -97q84 0 153.5 44t127.5 132l39 -26q-61 -105 -148 -158t-199 -53q-173 0 -292 124t-119 304q0 183 118.5 307.5t290.5 124.5q75 0 149.5 -33t80.5 -33
q27 0 42 14.5t21 47.5zM844 1305q-123 0 -238 -49t-203 -138q-88 -90 -134 -202.5t-46 -237.5q0 -127 46.5 -239t136.5 -201q91 -90 201.5 -136.5t234.5 -46.5q126 0 237 46.5t199 136.5q89 90 136.5 204t47.5 236q0 123 -48 241t-134 203q-86 86 -201 134.5t-235 48.5z
M844 1391q138 0 269 -54.5t230 -152.5q100 -99 154.5 -232t54.5 -274q0 -140 -53.5 -269.5t-155.5 -232.5q-99 -101 -228 -155t-273 -54q-142 0 -270 53.5t-232 155.5q-103 102 -156 229t-53 273q0 141 53.5 270t155.5 232q100 101 230.5 156t273.5 55z" />
    <glyph glyph-name="guillemotleft" unicode="&#xab;" horiz-adv-x="999" 
d="M461 483q130 89 257 195t140 106q7 0 11.5 -6t4.5 -16q0 -26 -61.5 -95t-198.5 -194q74 -125 107 -188.5t33 -77.5t-6.5 -21.5t-18.5 -7.5q-22 0 -106 110.5t-162 194.5zM109 483q130 89 257 195t140 106q7 0 12.5 -6.5t5.5 -15.5q0 -26 -60.5 -93t-201.5 -196
q73 -125 106 -188.5t33 -77.5q0 -15 -5 -21.5t-17 -7.5q-22 0 -107.5 111t-162.5 194z" />
    <glyph glyph-name="logicalnot" unicode="&#xac;" horiz-adv-x="1706" 
d="M254 860h1198v-502h-137v363h-1061v139z" />
    <glyph glyph-name="sfthyphen" unicode="&#xad;" horiz-adv-x="674" 
d="M14 403l39 152h492l-39 -152h-492z" />
    <glyph glyph-name="registered" unicode="&#xae;" horiz-adv-x="1124" 
d="M487 1006q7 0 18 -1t17 -1q77 0 120.5 30t43.5 82q0 47 -34 76t-91 29q-37 0 -55.5 -11.5t-18.5 -33.5v-170zM311 1249h264q101 0 159.5 -36.5t58.5 -98.5q0 -55 -50 -89t-149 -46q62 -10 95.5 -43t49.5 -100q4 -15 8 -38q14 -69 44 -69q22 0 33.5 17.5t11.5 52.5v16h28
v-20q0 -57 -25.5 -82t-82.5 -25q-77 0 -104 125q-5 25 -9 39q-14 53 -52 81t-97 28h-7v-170q0 -29 18.5 -43.5t57.5 -16.5v-31h-252v31q42 0 61 16t19 50v358q0 32 -19.5 47t-60.5 15v32zM561 1391q-171 0 -294.5 -125t-123.5 -299q0 -173 122.5 -296.5t295.5 -123.5
q174 0 296 124t122 298t-122.5 298t-295.5 124zM563 1466q206 0 351 -145.5t145 -351.5q0 -205 -146 -351.5t-352 -146.5t-352 145.5t-146 352.5q0 205 147.5 351t352.5 146z" />
    <glyph glyph-name="degree" unicode="&#xb0;" horiz-adv-x="674" 
d="M338 1362q-81 0 -138 -56t-57 -137t57 -138.5t138 -57.5t136.5 57.5t55.5 138.5t-55.5 137t-136.5 56zM338 1456q118 0 202.5 -84.5t84.5 -204.5q0 -119 -84 -202.5t-205 -83.5t-204 83t-83 203t85 204.5t204 84.5z" />
    <glyph glyph-name="plusminus" unicode="&#xb1;" horiz-adv-x="1706" 
d="M254 170h1198v-141h-1198v141zM782 1192h142v-340h528v-139h-528v-340h-142v340h-528v139h528v340z" />
    <glyph glyph-name="mu" unicode="&#xb5;" horiz-adv-x="1169" 
d="M166 195q-33 -143 -64 -355q-37 -260 -116 -260q-43 0 -65.5 24.5t-22.5 69.5q0 44 70 277t110 422l108 512h168l-100 -475q-9 -40 -13.5 -74.5t-4.5 -59.5q0 -70 41.5 -108.5t119.5 -38.5q97 0 154 54.5t82 172.5l112 529h173l-115 -532q-9 -43 -14 -75.5t-5 -52.5
q0 -48 26.5 -74t76.5 -26q44 0 81 25t58 69q13 27 27 73q17 56 39 56q9 0 15.5 -8t6.5 -21q0 -34 -13.5 -88t-35.5 -100q-39 -78 -92.5 -117t-122.5 -39q-81 0 -125.5 55t-44.5 154v13q-52 -115 -123 -168.5t-172 -53.5q-95 0 -151 56t-68 164z" />
    <glyph glyph-name="paragraph" unicode="&#xb6;" 
d="M958 1479v-86h-120v-1393h-111v1393h-176v-1393h-113v782q-170 8 -271 102.5t-101 245.5q0 157 107.5 253t285.5 96h499z" />
    <glyph glyph-name="glyph110" unicode="&#xb7;" horiz-adv-x="559" 
d="M279 825q48 0 84 -36.5t36 -86.5q0 -49 -35 -84.5t-85 -35.5q-51 0 -86 35.5t-35 84.5q0 51 35.5 87t85.5 36z" />
    <glyph glyph-name="guillemotright" unicode="&#xbb;" horiz-adv-x="999" 
d="M813 479q-130 -88 -257 -194.5t-140 -106.5q-7 0 -11.5 6t-5.5 17q0 25 60 91.5t200 194.5q-70 119 -104.5 185.5t-34.5 83.5q0 13 6.5 20.5t16.5 7.5q23 0 107.5 -110.5t162.5 -194.5zM463 479q-131 -88 -258 -194.5t-139 -106.5q-8 1 -12.5 7t-4.5 16q0 25 58.5 89.5
t203.5 196.5q-70 119 -104.5 185.5t-34.5 83.5q0 13 5.5 20.5t15.5 7.5q22 0 107 -110.5t163 -194.5z" />
    <glyph glyph-name="afii10023" unicode="&#x401;" horiz-adv-x="1464" 
d="M1006 1792q0 43 32 76t74 33q44 0 76.5 -32.5t32.5 -74.5q0 -47 -31.5 -79t-77.5 -32q-43 0 -74.5 32.5t-31.5 76.5zM653 1792q0 43 32.5 76t74.5 33q43 0 75.5 -32.5t32.5 -74.5q0 -47 -31 -79t-77 -32q-43 0 -75 32.5t-32 76.5zM-37 90l110 10q40 4 61 21t30 51
l272 1071l1 4q16 68 16 82q0 32 -26 44t-113 13l-83 3l17 90h1184l-82 -500h-84q0 267 -68 337t-321 70q-184 0 -211 -107v-1l-117 -455q8 0 29 -1t34 -1q149 0 226 59t123 203h92l-189 -698h-90q9 43 13 79t4 73q0 115 -46 155.5t-180 40.5h-39l-123 -496q-2 -11 -7 -30
q-9 -37 -9 -49q0 -39 36 -52.5t165 -13.5q254 0 394.5 95.5t256.5 340.5h80l-160 -528h-1214z" />
    <glyph glyph-name="afii10051" unicode="&#x402;" horiz-adv-x="1688" 
d="M707 705q101 115 208 171t228 56q170 0 269 -100.5t99 -274.5q0 -239 -155 -419.5t-367 -180.5q-107 0 -166 56.5t-59 158.5q0 78 47 134t113 56q49 0 80.5 -28t31.5 -72q0 -42 -21.5 -75t-56.5 -44q-7 -2 -19 -5q-44 -12 -44 -44q0 -26 21 -42.5t55 -16.5
q56 0 107.5 40.5t95.5 119.5q50 89 80 192t30 182q0 116 -57 178t-162 62q-132 0 -260.5 -117.5t-175.5 -285.5l-47 -170q-8 -27 -12.5 -49.5t-4.5 -36.5q0 -29 21.5 -42.5t67.5 -15.5l48 -2l-22 -90h-584l19 90l145 8q42 3 62.5 20.5t35.5 80.5l269 1052q9 38 12.5 55.5
t3.5 26.5q0 31 -25.5 47.5t-74.5 16.5q-96 0 -185 -78.5t-192 -255.5l-64 22l131 394h1123l-68 -435h-71q-10 190 -65 267.5t-177 77.5q-52 0 -75.5 -16.5t-41.5 -84.5z" />
    <glyph glyph-name="afii10052" unicode="&#x403;" horiz-adv-x="1319" 
d="M262 1479h1094l-82 -500h-86q-2 263 -67.5 335t-272.5 72q-154 0 -182 -105v-3l-265 -1040q-9 -43 -12.5 -61.5t-3.5 -26.5q0 -33 23.5 -44.5t116.5 -13.5l63 -2l-19 -90h-624l18 90l110 10q41 4 61.5 20.5t29.5 51.5l272 1071q10 37 13.5 55.5t3.5 30.5q0 32 -24 44
t-116 13l-69 3zM782 1630h-88l293 297q32 33 60.5 48.5t54.5 15.5q33 0 55.5 -23.5t22.5 -58.5q0 -25 -16.5 -44.5t-59.5 -45.5z" />
    <glyph glyph-name="afii10053" unicode="&#x404;" horiz-adv-x="1432" 
d="M1249 1343l127 136h66l-111 -586h-82v68q0 217 -96.5 343t-263.5 126q-170 0 -306 -157.5t-212 -443.5h553l-25 -100h-549q-11 -42 -16.5 -99t-5.5 -128q0 -219 93.5 -330t278.5 -111q138 0 259.5 66t121.5 119q0 15 -13.5 24.5t-43.5 16.5q-31 7 -46 29t-15 59
q0 71 47 119.5t118 48.5q67 0 108.5 -42.5t41.5 -111.5q0 -164 -185 -295t-431 -131q-267 0 -421.5 164t-154.5 446q0 198 73.5 380.5t211.5 328.5q110 115 242 175.5t274 60.5q116 0 203.5 -42.5t158.5 -132.5z" />
    <glyph glyph-name="afii10054" unicode="&#x405;" horiz-adv-x="1354" 
d="M1116 1356l107 110h77l-104 -534l-79 16q-4 239 -97.5 358t-278.5 119q-133 0 -218 -75.5t-85 -194.5q0 -94 65.5 -154.5t246.5 -119.5q251 -84 340.5 -179t89.5 -256q0 -216 -153.5 -351.5t-397.5 -135.5q-129 0 -232 42t-188 128l-123 -129h-76l113 582l84 -15v-20
q0 -243 103.5 -366.5t307.5 -123.5q169 0 267 79.5t98 213.5q0 102 -58 163t-272 134q-223 75 -310 170.5t-87 251.5q0 191 135.5 319t341.5 128q115 0 209 -39.5t174 -120.5z" />
    <glyph glyph-name="afii10055" unicode="&#x406;" horiz-adv-x="838" 
d="M401 238q-9 -43 -12.5 -61.5t-3.5 -26.5q0 -33 23.5 -44.5t116.5 -13.5l63 -2l-19 -90h-624l18 90l110 10q41 4 61.5 20.5t29.5 51.5l272 1071q10 37 13.5 55.5t3.5 30.5q0 32 -24 44t-116 13l-69 3l18 90h619l-21 -90l-97 -9q-39 -3 -59.5 -19.5t-29.5 -51.5z" />
    <glyph glyph-name="afii10056" unicode="&#x407;" horiz-adv-x="838" 
d="M725 1792q0 43 32.5 76t73.5 33q44 0 76.5 -32.5t32.5 -74.5q0 -47 -31 -79t-78 -32q-43 0 -74.5 32.5t-31.5 76.5zM373 1792q0 43 32.5 76t73.5 33q44 0 76.5 -32.5t32.5 -74.5q0 -47 -31 -79t-78 -32q-43 0 -74.5 32.5t-31.5 76.5zM401 238q-9 -43 -12.5 -61.5
t-3.5 -26.5q0 -33 23.5 -44.5t116.5 -13.5l63 -2l-19 -90h-624l18 90l110 10q41 4 61.5 20.5t29.5 51.5l272 1071q10 37 13.5 55.5t3.5 30.5q0 32 -24 44t-116 13l-69 3l18 90h619l-21 -90l-97 -9q-39 -3 -59.5 -19.5t-29.5 -51.5z" />
    <glyph glyph-name="afii10057" unicode="&#x408;" horiz-adv-x="1208" 
d="M838 1243q6 25 9 47t3 41q0 32 -26 43.5t-109 11.5h-70l17 93h620l-16 -90l-101 -9q-39 -3 -59.5 -19t-30.5 -53l-217 -851q-69 -272 -195.5 -383t-355.5 -111q-170 0 -272.5 93.5t-102.5 248.5q0 127 72 210t176 83q69 0 112.5 -41.5t43.5 -103.5q0 -60 -41.5 -102
t-101.5 -42q-31 0 -66.5 16.5t-42.5 16.5q-27 0 -41 -19t-14 -55q0 -88 70.5 -147.5t181.5 -59.5q140 0 218.5 88.5t143.5 339.5z" />
    <glyph glyph-name="afii10058" unicode="&#x409;" horiz-adv-x="2058" 
d="M1217 731l-121 -495q-10 -40 -13.5 -59t-3.5 -27q0 -35 32.5 -47.5t129.5 -12.5q123 0 199 19.5t129 62.5q60 48 97.5 132.5t37.5 174.5q0 136 -77 194t-269 58h-141zM532 1479h1059l-20 -90l-119 -9q-39 -3 -58.5 -19t-29.5 -52l-125 -488h78q190 0 280.5 -12t151.5 -41
q93 -43 141.5 -121t48.5 -182q0 -211 -140 -338t-372 -127h-761l18 92l86 10q43 6 61 20.5t27 49.5l313 1217h-145q-177 0 -286 -331q-20 -61 -31 -95l-68 -204q-257 -786 -510 -786q-101 0 -160 66t-59 176q0 105 58 178.5t139 73.5q57 0 93 -37.5t36 -97.5
q0 -47 -30.5 -85.5t-73.5 -49.5q-8 -2 -24 -4q-71 -9 -71 -54q0 -28 27.5 -48.5t66.5 -20.5q88 0 158 92.5t155 333.5q120 335 195.5 569t75.5 266q0 30 -25 42t-112 13l-66 3z" />
    <glyph glyph-name="afii10059" unicode="&#x40a;" horiz-adv-x="2101" 
d="M1255 719l-116 -481l-1 -4q-16 -69 -16 -82q0 -36 33.5 -48t167.5 -12q202 0 311 99.5t109 283.5q0 131 -78 187.5t-268 56.5h-142zM303 1479h551l-18 -93l-77 -6q-38 -3 -58 -19t-29 -52l-125 -490h516l107 425q7 29 11.5 52t4.5 33q0 31 -23.5 43.5t-90.5 13.5l-58 3
l18 90h555l-22 -95l-70 -4q-39 -3 -58.5 -19t-29.5 -52l-129 -490h76q357 0 490.5 -86.5t133.5 -292.5q0 -195 -141 -317.5t-367 -122.5h-759l18 92l84 8q39 3 59 19t29 53l137 547h-516l-121 -481q-7 -28 -11.5 -52t-4.5 -36q0 -31 22.5 -43.5t78.5 -14.5l65 -2l-16 -90
h-549l16 94l73 6q41 4 60.5 20t28.5 52l270 1071q8 30 12.5 54t4.5 32q0 31 -24 43.5t-88 14.5l-54 2z" />
    <glyph glyph-name="afii10060" unicode="&#x40b;" horiz-adv-x="1706" 
d="M233 1479h1123l-68 -435h-71q-10 190 -65 267.5t-177 77.5q-52 0 -75.5 -16.5t-41.5 -84.5l-151 -583q106 120 212 173.5t240 53.5q141 0 224 -68.5t83 -185.5q0 -29 -5 -63t-17 -83l-70 -296q-1 -7 -5 -22q-11 -45 -11 -64q0 -30 21.5 -42t117.5 -16l59 -2l-22 -90h-606
l22 94l97 4q72 4 95 97l1 4l84 327q8 31 12 57.5t4 45.5q0 78 -45.5 121t-128.5 43q-146 0 -269.5 -108.5t-170.5 -278.5l-47 -170q-8 -27 -12.5 -49.5t-4.5 -36.5q0 -33 23.5 -44.5t114.5 -13.5l67 -2l-22 -90h-652l19 90l145 8q42 3 62.5 20.5t35.5 80.5l269 1052
q9 38 12.5 55.5t3.5 26.5q0 31 -25.5 47.5t-74.5 16.5q-96 0 -185 -78.5t-192 -255.5l-64 22z" />
    <glyph glyph-name="afii10061" unicode="&#x40c;" horiz-adv-x="1538" 
d="M770 795q182 -22 265 -113t83 -270q0 -29 -2 -90t-2 -95q0 -67 16 -98t52 -31q30 0 64.5 48.5t74.5 148.5l70 -31q-50 -144 -125.5 -220.5t-167.5 -76.5q-105 0 -162 66t-57 188q0 65 11 168t11 139q0 107 -58.5 151t-217.5 44h-105l-121 -488q-9 -39 -12.5 -58t-3.5 -27
q0 -33 23 -44.5t115 -13.5l63 -2l-19 -90h-622l16 90l110 8q41 4 61.5 20.5t29.5 51.5l282 1122q4 12 5 20.5t2 16.5q0 32 -25 44t-112 13l-72 3l18 90h647l-18 -90l-126 -11q-39 -3 -59.5 -19.5t-29.5 -51.5l-129 -490h75q154 0 349 348l8 15q111 199 194.5 268.5
t194.5 69.5q108 0 174 -54.5t66 -142.5q0 -69 -38 -110.5t-102 -41.5t-100.5 31.5t-36.5 85.5q0 38 19.5 69t19.5 40q0 12 -12.5 19t-34.5 7q-52 0 -108 -63t-183 -289q-77 -139 -133.5 -197.5t-124.5 -76.5zM891 1630h-88l293 297q32 33 60.5 48.5t54.5 15.5
q33 0 55.5 -23.5t22.5 -58.5q0 -25 -16.5 -44.5t-59.5 -45.5z" />
    <glyph glyph-name="afii10062" unicode="&#x40e;" horiz-adv-x="1419" 
d="M819 305q-111 -191 -218 -267.5t-251 -76.5q-135 0 -215 77.5t-80 207.5q0 106 60.5 180t146.5 74q59 0 100 -41.5t41 -100.5q0 -69 -46 -108t-130 -39q-12 0 -21 -9.5t-9 -25.5q0 -50 45 -82.5t114 -32.5q100 0 182 62.5t154 191.5l-381 949q-33 82 -69 102t-121 23v90
h602v-90l-109 -7q-55 -3 -76.5 -18t-21.5 -49q0 -10 5 -26.5t14 -37.5l292 -708l406 680q12 21 18 42t6 40q0 45 -36 63.5t-158 20.5l12 90h516l-10 -90q-83 -17 -137 -60.5t-125 -167.5zM748 1775q18 -24 60 -37t103 -13q62 0 119.5 14.5t103.5 42.5q-26 5 -39.5 22
t-13.5 45q0 41 27.5 71t64.5 30q41 0 65.5 -24t24.5 -64q0 -80 -106 -140.5t-254 -60.5q-117 0 -185.5 49t-68.5 129q0 46 29 77.5t69 31.5t63 -24.5t23 -65.5q0 -37 -23 -59t-62 -24z" />
    <glyph glyph-name="afii10145" unicode="&#x40f;" horiz-adv-x="1683" 
d="M256 1479h643l-20 -90l-120 -9q-38 -3 -58 -19t-29 -52l-271 -1071q-7 -28 -11.5 -52t-4.5 -36q0 -35 28 -47.5t107 -12.5h383q50 0 73 17t36 65l268 1071q8 30 12 53t4 33q0 32 -24.5 44t-109.5 13l-77 3l19 90h641l-19 -90l-121 -9q-38 -3 -58 -19t-29 -52l-269 -1071
q-7 -28 -11.5 -52t-4.5 -36q0 -33 24.5 -44.5t113.5 -13.5l75 -2l-14 -90h-705l-68 -410h-196l135 410h-659l16 90l120 10q38 3 58.5 19.5t30.5 52.5l270 1071q8 30 12.5 54t4.5 32q0 32 -24.5 43.5t-112.5 13.5l-74 3z" />
    <glyph glyph-name="afii10017" unicode="&#x410;" horiz-adv-x="1434" 
d="M780 1182l-336 -590h449zM856 1516h78l256 -1301q13 -70 44.5 -94t145.5 -31v-90h-602v90l107 6q55 4 71.5 17.5t16.5 44.5q0 19 -2 38t-4 31l-54 265h-530l-127 -236q-9 -18 -14.5 -38t-5.5 -36q0 -49 38.5 -70.5t131.5 -21.5h16l-10 -90h-555l25 90q79 5 148.5 60.5
t135.5 168.5z" />
    <glyph glyph-name="afii10018" unicode="&#x411;" horiz-adv-x="1464" 
d="M522 731l-121 -496q-9 -39 -12.5 -58t-3.5 -27q0 -36 34 -48t169 -12q134 0 212.5 19t133.5 63q61 50 98 133.5t37 173.5q0 136 -77 194t-269 58h-201zM1401 1479l-123 -500h-76q0 265 -67 336t-281 71q-166 0 -193 -102l-2 -7l-114 -456h135q191 0 282 -12t152 -41
q93 -43 142 -121t49 -182q0 -210 -141 -337.5t-373 -127.5h-852l16 90l120 8q42 3 62 21t35 80l262 1042q8 30 12.5 54t4.5 34q0 32 -24.5 43.5t-112.5 13.5l-74 3l16 90h1145z" />
    <glyph glyph-name="afii10019" unicode="&#x412;" horiz-adv-x="1464" 
d="M518 713l-117 -478q-9 -39 -12.5 -58t-3.5 -27q0 -36 34 -48t169 -12q138 0 215.5 19t130.5 63q59 47 95 127t36 168q0 131 -78.5 188.5t-269.5 57.5h-199zM676 801q243 0 350 86.5t107 277.5q0 124 -66.5 174t-243.5 50q-87 0 -118 -19.5t-43 -69.5l-123 -499h137z
M256 1479h676q208 0 323 -87t115 -243q0 -167 -109.5 -270.5t-302.5 -116.5q171 -32 255.5 -115.5t84.5 -220.5q0 -184 -142.5 -305t-364.5 -121h-852l16 90l120 8q42 3 62 21t35 80l262 1042q8 30 12.5 54t4.5 34q0 32 -24.5 43.5t-112.5 13.5l-74 3z" />
    <glyph glyph-name="afii10020" unicode="&#x413;" horiz-adv-x="1319" 
d="M262 1479h1094l-82 -500h-86q-2 263 -67.5 335t-272.5 72q-154 0 -182 -105v-3l-265 -1040q-9 -43 -12.5 -61.5t-3.5 -26.5q0 -33 23.5 -44.5t116.5 -13.5l63 -2l-19 -90h-624l18 90l110 10q41 4 61.5 20.5t29.5 51.5l272 1071q10 37 13.5 55.5t3.5 30.5q0 32 -24 44
t-116 13l-69 3z" />
    <glyph glyph-name="afii10021" unicode="&#x414;" horiz-adv-x="1569" 
d="M770 1389q-193 -636 -306 -905.5t-224 -391.5h544l330 1297h-344zM-80 92h186q71 57 150.5 188.5t146.5 307.5q95 246 156.5 446t61.5 248q0 50 -27.5 74.5t-85.5 27.5l-76 5l19 90h1083l-18 -90l-122 -9q-38 -3 -58 -19t-29 -52l-306 -1217h232l-125 -508h-70
q0 274 -70.5 345t-318.5 71h-301q-175 0 -274.5 -82.5t-206.5 -333.5h-72z" />
    <glyph glyph-name="afii10022" unicode="&#x415;" horiz-adv-x="1464" 
d="M-37 90l110 10q40 4 61 21t30 51l272 1071l1 4q16 68 16 82q0 32 -26 44t-113 13l-83 3l17 90h1184l-82 -500h-84q0 267 -68 337t-321 70q-184 0 -211 -107v-1l-117 -455q8 0 29 -1t34 -1q149 0 226 59t123 203h92l-189 -698h-90q9 43 13 79t4 73q0 115 -46 155.5
t-180 40.5h-39l-123 -496q-2 -11 -7 -30q-9 -37 -9 -49q0 -39 36 -52.5t165 -13.5q254 0 394.5 95.5t256.5 340.5h80l-160 -528h-1214z" />
    <glyph glyph-name="afii10024" unicode="&#x416;" horiz-adv-x="2083" 
d="M1315 795q169 -34 244 -123.5t75 -259.5q0 -29 -2 -90t-2 -95q0 -67 16.5 -98t51.5 -31q29 0 60.5 42t58.5 116l69 -31q-40 -123 -111.5 -190.5t-160.5 -67.5q-105 0 -162 66t-57 188q0 65 11 168t11 139q0 104 -58 150.5t-188 46.5q-6 0 -21 -1t-24 -1l-120 -487
q-10 -40 -13.5 -59t-3.5 -27q0 -31 20 -42.5t99 -15.5l43 -2l-16 -90h-531l19 90l71 8q44 6 62.5 21.5t27.5 49.5l144 554h-31q-149 0 -232.5 -59t-146.5 -215l-4 -10q-189 -476 -414 -476q-89 0 -135.5 45.5t-46.5 132.5q0 28 5.5 57t17.5 60l73 6q-5 -27 -7.5 -52
t-2.5 -42q0 -35 15.5 -54.5t41.5 -19.5q73 0 171 224q32 74 51 114q82 173 204 258t316 103q-54 16 -81 74.5t-44 225.5l-2 14q-33 308 -135 308q-26 0 -44 -14t-18 -33q0 -17 6.5 -42t6.5 -34q0 -50 -40.5 -87.5t-99.5 -37.5q-57 0 -89 31t-32 86q0 97 82.5 162t210.5 65
q117 0 171.5 -69t72.5 -259q1 -11 3 -35q29 -319 179 -333l117 476q3 10 4.5 19.5t1.5 16.5q0 30 -19.5 42t-97.5 15l-53 3l19 90h553l-21 -95l-88 -6q-39 -3 -59 -19t-29 -52l-129 -490q183 6 351 310q32 58 50 90q99 172 180.5 236.5t188.5 64.5q108 0 173 -54.5
t65 -142.5q0 -69 -37.5 -110.5t-100.5 -41.5q-64 0 -101.5 31.5t-37.5 85.5q0 38 19.5 69t19.5 40q0 12 -12 19t-33 7q-53 0 -111 -65t-182 -287q-84 -150 -141 -206t-125 -68z" />
    <glyph glyph-name="afii10025" unicode="&#x417;" horiz-adv-x="1278" 
d="M780 793q154 -38 227.5 -118.5t73.5 -209.5q0 -226 -169 -366t-449 -140q-215 0 -342 99t-127 264q0 94 49 155.5t123 61.5q65 0 106 -40.5t41 -103.5q0 -39 -18 -69t-55 -54q-12 -8 -33 -18q-37 -17 -37 -47q0 -59 86 -108.5t201 -49.5q167 0 277 126t110 314
q0 129 -64 190.5t-198 61.5h-203l22 99h168q187 0 288 94t101 266q0 102 -58 158.5t-163 56.5q-130 0 -237.5 -89t-208.5 -282h-86l135 435h82l31 -76q75 56 154 83t163 27q175 0 287 -98t112 -250q0 -130 -99.5 -225.5t-289.5 -146.5z" />
    <glyph glyph-name="afii10026" unicode="&#x418;" horiz-adv-x="1706" 
d="M256 1479h643l-20 -90l-120 -9q-38 -3 -58 -19t-29 -52l-221 -854l849 759q3 13 7 33q12 64 12 82q0 32 -24.5 44t-111.5 14l-75 2l18 90h641l-18 -90l-119 -9q-39 -3 -59.5 -19t-30.5 -52l-268 -1071q-7 -26 -11 -49.5t-4 -38.5q0 -33 24.5 -44.5t111.5 -13.5l75 -2
l-18 -90h-641l18 90l119 10q40 4 60.5 20t29.5 52l217 858l-845 -751q-2 -9 -6 -26q-17 -78 -17 -103q0 -33 24.5 -44.5t111.5 -13.5l75 -2l-18 -90h-639l16 90l120 10q38 3 58.5 19.5t30.5 52.5l270 1071q8 30 12.5 54t4.5 32q0 32 -24.5 43.5t-112.5 13.5l-74 3z" />
    <glyph glyph-name="afii10027" unicode="&#x419;" horiz-adv-x="1706" 
d="M256 1479h643l-20 -90l-120 -9q-38 -3 -58 -19t-29 -52l-221 -854l849 759q3 13 7 33q12 64 12 82q0 32 -24.5 44t-111.5 14l-75 2l18 90h641l-18 -90l-119 -9q-39 -3 -59.5 -19t-30.5 -52l-268 -1071q-7 -26 -11 -49.5t-4 -38.5q0 -33 24.5 -44.5t111.5 -13.5l75 -2
l-18 -90h-641l18 90l119 10q40 4 60.5 20t29.5 52l217 858l-845 -751q-2 -9 -6 -26q-17 -78 -17 -103q0 -33 24.5 -44.5t111.5 -13.5l75 -2l-18 -90h-639l16 90l120 10q38 3 58.5 19.5t30.5 52.5l270 1071q8 30 12.5 54t4.5 32q0 32 -24.5 43.5t-112.5 13.5l-74 3zM885 1775
q19 -25 62 -39t104 -14q59 0 117 15.5t105 44.5q-24 4 -38 21.5t-14 45.5q0 41 27 70t65 29q41 0 64.5 -24t23.5 -64q0 -79 -106 -139t-255 -60q-116 0 -184 48.5t-68 129.5q0 46 29 77.5t70 31.5q39 0 62.5 -24.5t23.5 -65.5q0 -37 -24 -59t-64 -24z" />
    <glyph glyph-name="afii10028" unicode="&#x41a;" horiz-adv-x="1538" 
d="M770 795q182 -22 265 -113t83 -270q0 -29 -2 -90t-2 -95q0 -67 16 -98t52 -31q30 0 64.5 48.5t74.5 148.5l70 -31q-50 -144 -125.5 -220.5t-167.5 -76.5q-105 0 -162 66t-57 188q0 65 11 168t11 139q0 107 -58.5 151t-217.5 44h-105l-121 -488q-9 -39 -12.5 -58t-3.5 -27
q0 -33 23 -44.5t115 -13.5l63 -2l-19 -90h-622l16 90l110 8q41 4 61.5 20.5t29.5 51.5l282 1122q4 12 5 20.5t2 16.5q0 32 -25 44t-112 13l-72 3l18 90h647l-18 -90l-126 -11q-39 -3 -59.5 -19.5t-29.5 -51.5l-129 -490h75q154 0 349 348l8 15q111 199 194.5 268.5
t194.5 69.5q108 0 174 -54.5t66 -142.5q0 -69 -38 -110.5t-102 -41.5t-100.5 31.5t-36.5 85.5q0 38 19.5 69t19.5 40q0 12 -12.5 19t-34.5 7q-52 0 -108 -63t-183 -289q-77 -139 -133.5 -197.5t-124.5 -76.5z" />
    <glyph glyph-name="afii10029" unicode="&#x41b;" horiz-adv-x="1610" 
d="M553 1479h1120l-20 -90l-120 -9q-38 -3 -58 -19t-29 -52l-268 -1071q-8 -29 -12.5 -52t-4.5 -34q0 -32 25 -44t113 -14l73 -2l-16 -92h-641l18 92l118 10q41 4 60.5 19.5t28.5 50.5l313 1217h-196q-175 0 -280 -315q-24 -71 -38 -111q-25 -75 -70 -212
q-147 -441 -212 -556q-64 -113 -145.5 -170.5t-176.5 -57.5q-109 0 -173 69t-64 185q0 112 59.5 185t148.5 73q55 0 96.5 -42t41.5 -101q0 -45 -25.5 -82t-66.5 -53q-9 -3 -34 -7q-73 -9 -73 -55q0 -28 29 -48.5t71 -20.5q96 0 171.5 95.5t158.5 328.5q122 341 196 572.5
t74 264.5q0 30 -24 42t-111 13l-75 3z" />
    <glyph glyph-name="afii10030" unicode="&#x41c;" horiz-adv-x="1901" 
d="M201 1479h501l142 -1104l647 1104h451l-17 -90l-107 -11q-40 -3 -59.5 -19.5t-36.5 -80.5l-256 -1042v-4q-16 -69 -16 -82q0 -33 24.5 -44.5t111.5 -13.5l75 -2l-19 -90h-641l19 90l121 8q70 6 93 96l1 5l272 1099l-764 -1298h-61l-164 1257l-225 -898q-1 -6 -4 -18
q-17 -71 -17 -101q0 -73 49.5 -109t157.5 -41l-10 -90h-561l16 90q114 15 168 64t86 174l250 985q-15 35 -42 51.5t-76 19.5l-122 9z" />
    <glyph glyph-name="afii10031" unicode="&#x41d;" horiz-adv-x="1706" 
d="M256 1479h643l-20 -90l-120 -9q-38 -3 -58 -19t-29 -52l-125 -490h651l107 425q6 25 10 49t4 36q0 32 -24.5 44t-111.5 14l-75 2l18 90h641l-18 -90l-119 -9q-39 -3 -59.5 -19t-30.5 -52l-268 -1071q-7 -26 -11 -49.5t-4 -38.5q0 -33 24.5 -44.5t111.5 -13.5l75 -2
l-18 -90h-641l18 90l119 10q40 4 60.5 20t29.5 52l138 547h-652l-121 -481q-7 -28 -11.5 -52t-4.5 -36q0 -33 24.5 -44.5t111.5 -13.5l75 -2l-18 -90h-639l16 90l120 10q38 3 58.5 19.5t30.5 52.5l270 1071q8 30 12.5 54t4.5 32q0 32 -24.5 43.5t-112.5 13.5l-74 3z" />
    <glyph glyph-name="afii10032" unicode="&#x41e;" horiz-adv-x="1593" 
d="M1266 1047q0 185 -85.5 280.5t-250.5 95.5q-132 0 -238.5 -79t-187.5 -236q-83 -161 -131.5 -346.5t-48.5 -333.5q0 -183 83.5 -277t245.5 -94q142 0 252.5 85t196.5 259q75 155 119.5 330.5t44.5 315.5zM938 1520q252 0 410.5 -166.5t158.5 -431.5q0 -184 -77 -371
t-211 -330q-121 -126 -265 -192t-299 -66q-259 0 -413 162t-154 436q0 192 75.5 375.5t213.5 327.5q118 123 263 189.5t298 66.5z" />
    <glyph glyph-name="afii10033" unicode="&#x41f;" horiz-adv-x="1706" 
d="M256 1479h1511l-18 -90l-119 -9q-39 -3 -59.5 -19t-30.5 -52l-268 -1071q-7 -26 -11 -49.5t-4 -38.5q0 -33 24.5 -44.5t111.5 -13.5l75 -2l-18 -90h-641l18 90l119 10q40 4 60.5 20t29.5 52l269 1072q6 25 10 49t4 36q0 34 -27 45.5t-108 11.5h-424q-35 0 -57 -19
t-31 -58l-271 -1071q-7 -28 -11.5 -52t-4.5 -36q0 -33 24.5 -44.5t111.5 -13.5l75 -2l-18 -90h-639l16 90l120 10q38 3 58.5 19.5t30.5 52.5l270 1071q8 30 12.5 54t4.5 32q0 32 -24.5 43.5t-112.5 13.5l-74 3z" />
    <glyph glyph-name="afii10034" unicode="&#x420;" horiz-adv-x="1370" 
d="M672 745q249 0 359 97t110 311q0 131 -67.5 183.5t-242.5 52.5q-91 0 -121 -25.5t-48 -97.5l-134 -521h144zM256 1479h520q139 0 209 -7.5t123 -23.5q125 -39 193.5 -128.5t68.5 -213.5q0 -110 -50 -201t-144 -153q-81 -53 -178.5 -76t-284.5 -23h-82h-125l-105 -417
q-7 -29 -11.5 -52t-4.5 -34q0 -33 24 -44.5t112 -13.5l93 -2l-16 -90h-659l16 90l121 8q71 6 96 99v2l262 1042q8 29 12.5 53.5t4.5 34.5q0 32 -24.5 43.5t-112.5 13.5l-74 3z" />
    <glyph glyph-name="afii10035" unicode="&#x421;" horiz-adv-x="1432" 
d="M1194 455l84 -39q-106 -236 -254.5 -344.5t-364.5 -108.5q-265 0 -419 164t-154 446q0 198 73.5 380.5t211.5 328.5q110 115 242 175.5t274 60.5q116 0 203.5 -42.5t158.5 -132.5l127 136h66l-111 -586h-82v68q0 217 -96.5 343t-263.5 126q-109 0 -203 -64t-170 -188
q-88 -145 -139 -329.5t-51 -361.5q0 -202 96 -315t268 -113q163 0 289 99t215 297z" />
    <glyph glyph-name="afii10036" unicode="&#x422;" horiz-adv-x="1446" 
d="M274 1479h1207l-82 -566l-84 1q3 58 4.5 97t1.5 62q0 166 -62.5 241t-199.5 75q-51 0 -74 -16t-41 -85l-270 -1052q-9 -36 -12 -54.5t-3 -31.5q0 -32 25 -44t113 -14l86 -2l-6 -90h-697l21 90l145 8q73 4 96 99v2l269 1052q9 38 12.5 56t3.5 26q0 31 -20.5 44.5
t-67.5 13.5q-141 0 -237 -90.5t-230 -372.5l-74 26z" />
    <glyph glyph-name="afii10037" unicode="&#x423;" horiz-adv-x="1419" 
d="M819 305q-111 -191 -218 -267.5t-251 -76.5q-135 0 -215 77.5t-80 207.5q0 106 60.5 180t146.5 74q59 0 100 -41.5t41 -100.5q0 -69 -46 -108t-130 -39q-12 0 -21 -9.5t-9 -25.5q0 -50 45 -82.5t114 -32.5q100 0 182 62.5t154 191.5l-381 949q-33 82 -69 102t-121 23v90
h602v-90l-109 -7q-55 -3 -76.5 -18t-21.5 -49q0 -10 5 -26.5t14 -37.5l292 -708l406 680q12 21 18 42t6 40q0 45 -36 63.5t-158 20.5l12 90h516l-10 -90q-83 -17 -137 -60.5t-125 -167.5z" />
    <glyph glyph-name="afii10038" unicode="&#x424;" horiz-adv-x="1729" 
d="M864 346h19q239 0 387.5 144t148.5 370q0 136 -88.5 212.5t-259.5 88.5zM657 344l207 815h-14q-241 0 -391 -142t-150 -364q0 -143 86.5 -220t261.5 -89zM637 264q-272 15 -419.5 124.5t-147.5 293.5q0 248 221.5 405.5t580.5 157.5h19l4 25q3 20 5.5 37.5t2.5 21.5
q0 32 -25 44t-113 14l-81 2l18 90h619l-18 -90l-107 -9q-40 -3 -61 -19.5t-29 -51.5l-14 -68q271 -15 418 -124t147 -294q0 -247 -221 -405t-580 -158h-18l-4 -22q-3 -12 -10 -42.5t-7 -45.5q0 -33 24.5 -44.5t113.5 -13.5l73 -2l-16 -90h-625l16 90l121 10q40 4 60.5 20.5
t30.5 52.5z" />
    <glyph glyph-name="afii10039" unicode="&#x425;" horiz-adv-x="1434" 
d="M221 1479h592v-90l-70 -3h-4q-55 0 -77.5 -12t-22.5 -41q0 -12 5 -28.5t18 -42.5l151 -357l307 318q26 25 35.5 45.5t9.5 46.5q0 38 -37.5 56t-121.5 18l20 90h543l-21 -90q-72 -10 -136.5 -45.5t-129.5 -102.5l-426 -434l256 -590q28 -66 58.5 -91.5t107.5 -29.5l74 -6
v-90h-654v90l99 4q68 2 86 12t18 33q0 21 -14 53q-2 4 -2 5l-191 446l-297 -307q-56 -57 -78 -92t-22 -66q0 -45 38 -66.5t120 -21.5h12v-90h-590l14 90q80 12 154 58t191 165l417 428l-235 545q-23 54 -44 70t-91 24l-62 9v90z" />
    <glyph glyph-name="afii10040" unicode="&#x426;" horiz-adv-x="1712" 
d="M256 1479h643l-20 -90l-120 -9q-38 -3 -58 -19t-29 -52l-271 -1071q-7 -28 -11.5 -52t-4.5 -36q0 -35 28 -47.5t107 -12.5h406q50 0 74 17.5t36 64.5l269 1072q6 25 10 48.5t4 36.5q0 32 -24.5 44t-111.5 14l-75 2l18 90h641l-18 -90l-119 -9q-39 -3 -59.5 -19t-30.5 -52
l-268 -1071q-8 -28 -12.5 -52t-4.5 -36q0 -33 24.5 -44.5t111.5 -13.5l75 -2l-123 -506h-69q0 274 -71 345t-318 71h-946l16 90l120 10q38 3 58.5 19.5t30.5 52.5l270 1071q8 30 12.5 54t4.5 32q0 32 -24.5 43.5t-112.5 13.5l-74 3z" />
    <glyph glyph-name="afii10041" unicode="&#x427;" horiz-adv-x="1460" 
d="M127 1479h606l-22 -95l-97 -4q-40 -2 -61 -19.5t-37 -80.5l-88 -348q-8 -30 -12 -57.5t-4 -47.5q0 -83 47 -122t149 -39q53 0 127 13.5t195 47.5l131 516q9 36 12.5 54.5t3.5 31.5q0 32 -23 43.5t-113 13.5l-73 3l19 90h616l-20 -90l-97 -9q-39 -3 -59.5 -19t-30.5 -53
l-272 -1070q-10 -44 -13 -61.5t-3 -26.5q0 -33 23 -44.5t114 -13.5l65 -2l-18 -90h-623l19 90l110 10q40 4 60.5 20.5t30.5 52.5l112 452q-122 -36 -214 -53t-165 -17q-154 0 -239.5 67t-85.5 187q0 41 17 122q3 15 5 23l66 290l2 7q14 57 14 80q0 49 -128 55h-9l-62 3z" />
    <glyph glyph-name="afii10042" unicode="&#x428;" horiz-adv-x="2136" 
d="M297 1479h559l-22 -88l-91 -15q-31 -4 -48.5 -21.5t-26.5 -54.5l-271 -1062q-7 -28 -11.5 -52t-4.5 -36q0 -34 30.5 -47t106.5 -13h174q58 0 83.5 17.5t37.5 64.5l275 1084q5 18 7.5 37.5t2.5 41.5q0 25 -17.5 35.5t-85.5 13.5l-61 5l18 90h551l-20 -88l-90 -15
q-32 -4 -49.5 -21.5t-26.5 -54.5l-268 -1062q-7 -25 -11 -49t-4 -39q0 -34 30 -47t105 -13h181q50 0 75 18t37 64l279 1084q5 18 7.5 37.5t2.5 41.5q0 25 -17.5 35.5t-84.5 13.5l-64 5l17 90h559l-21 -88l-92 -15q-31 -4 -47.5 -20.5t-26.5 -55.5l-276 -1062
q-6 -25 -10.5 -51t-4.5 -37q0 -33 21 -44.5t105 -13.5l67 -2l-14 -90h-1905l18 90l108 10q36 3 55 20t28 54l268 1081q5 18 7.5 37.5t2.5 42.5q0 25 -17.5 35.5t-84.5 13.5l-61 5z" />
    <glyph glyph-name="afii10043" unicode="&#x429;" horiz-adv-x="2136" 
d="M297 1479h559l-22 -88l-91 -15q-31 -4 -48.5 -21.5t-26.5 -54.5l-271 -1062q-7 -28 -11.5 -52t-4.5 -36q0 -34 30.5 -47t106.5 -13h174q58 0 83.5 17.5t37.5 64.5l275 1084q5 18 7.5 37.5t2.5 41.5q0 25 -17.5 35.5t-85.5 13.5l-61 5l18 90h551l-20 -88l-90 -15
q-32 -4 -49.5 -21.5t-26.5 -54.5l-268 -1062q-7 -25 -11 -49t-4 -39q0 -34 30 -47t105 -13h181q50 0 75 18t37 64l279 1084q5 18 7.5 37.5t2.5 41.5q0 25 -17.5 35.5t-84.5 13.5l-64 5l17 90h559l-21 -88l-92 -15q-31 -4 -47.5 -20.5t-26.5 -55.5l-278 -1062
q-8 -30 -12.5 -54t-4.5 -34q0 -33 25 -44.5t113 -13.5l75 -2l-125 -506h-69q0 274 -71 345t-318 71h-1352l18 90l108 10q36 3 55 20t28 54l268 1081q5 18 7.5 37.5t2.5 42.5q0 25 -17.5 35.5t-84.5 13.5l-61 5z" />
    <glyph glyph-name="afii10044" unicode="&#x42a;" horiz-adv-x="1716" 
d="M793 731l-121 -495q-10 -40 -13.5 -59t-3.5 -27q0 -36 34.5 -48t168.5 -12t213 19t133 63q61 50 98 133.5t37 173.5q0 136 -76.5 194t-269.5 58h-200zM225 1479h944l-20 -90l-119 -9q-39 -3 -59.5 -19t-30.5 -52l-125 -488h135q190 0 281 -12t151 -41q94 -44 143.5 -122
t49.5 -181q0 -210 -141 -337.5t-373 -127.5h-852l16 90l121 8q41 3 61 21t35 80l263 1043q6 25 10 49t4 38q0 31 -24 45.5t-77 14.5q-147 0 -260 -98t-180 -283h-76z" />
    <glyph glyph-name="afii10045" unicode="&#x42b;" horiz-adv-x="2195" 
d="M522 731l-121 -496q-9 -39 -12.5 -58t-3.5 -27q0 -36 35 -48t170 -12q133 0 211 19t133 63q61 50 98 133.5t37 173.5q0 136 -77 194t-269 58h-201zM1618 1479h618l-18 -90l-97 -9q-39 -3 -59.5 -19.5t-29.5 -51.5l-273 -1071q-10 -44 -13 -61.5t-3 -26.5q0 -33 23 -44.5
t115 -13.5l63 -2l-17 -90h-624l16 90l110 10q41 4 61.5 20.5t29.5 51.5l272 1071q10 37 13 55t3 31q0 32 -23.5 44t-112.5 13l-73 3zM256 1479h643l-20 -90l-120 -9q-38 -3 -58 -19t-29 -52l-127 -488h137q190 0 280.5 -12t151.5 -41q93 -43 142 -121t49 -182
q0 -211 -140.5 -338t-371.5 -127h-854l16 90l120 8q42 3 62 21t35 80l262 1042q8 30 12.5 54t4.5 34q0 32 -24.5 43.5t-112.5 13.5l-74 3z" />
    <glyph glyph-name="afii10046" unicode="&#x42c;" horiz-adv-x="1446" 
d="M522 731l-123 -496q-7 -29 -10.5 -51.5t-3.5 -33.5q0 -36 34 -48t169 -12q134 0 212.5 19t133.5 63q61 50 98 133.5t37 173.5q0 136 -77 194t-269 58h-201zM256 1479h641l-18 -90l-120 -9q-39 -3 -59 -19t-30 -52l-125 -488h135q190 0 280.5 -12t151.5 -41
q93 -43 142 -121t49 -182q0 -211 -140.5 -338t-371.5 -127h-852l16 90l118 8q43 3 63.5 21.5t35.5 79.5l262 1042q7 27 10.5 50t4.5 38q0 32 -24.5 44t-110.5 13l-76 3z" />
    <glyph glyph-name="afii10047" unicode="&#x42d;" horiz-adv-x="1432" 
d="M1059 729h-551l24 100h553q16 80 23.5 141t7.5 103q0 158 -79.5 251t-213.5 93q-157 0 -311.5 -138.5t-271.5 -385.5h-80l180 586h66l59 -136q117 92 215 131t205 39q212 0 336.5 -145t124.5 -393q0 -202 -81.5 -405t-222.5 -351q-123 -129 -273.5 -192.5t-334.5 -63.5
q-201 0 -323.5 99t-122.5 260q0 94 49 155.5t123 61.5q64 0 104.5 -40.5t40.5 -103.5q0 -40 -17.5 -70t-54.5 -53q-12 -8 -33 -18q-38 -18 -38 -47q0 -57 80.5 -105.5t189.5 -48.5q229 0 391 174.5t236 501.5z" />
    <glyph glyph-name="afii10048" unicode="&#x42e;" horiz-adv-x="2173" 
d="M737 718l-215 1l-121 -481q-7 -28 -11.5 -52t-4.5 -36q0 -33 24.5 -44.5t111.5 -13.5l75 -2l-18 -90h-639l16 90l120 10q38 3 58.5 19.5t30.5 52.5l270 1071q8 30 12.5 54t4.5 32q0 32 -24.5 43.5t-112.5 13.5l-74 3l16 90h643l-20 -90l-120 -9q-38 -3 -58 -19t-29 -52
l-125 -490h215q99 318 316 507.5t476 189.5q233 0 381 -162.5t148 -417.5q0 -185 -76 -376.5t-207 -334.5q-115 -127 -257 -194.5t-292 -67.5q-241 0 -384.5 156t-143.5 420q0 44 3.5 88.5t10.5 90.5zM1839 1063q0 174 -75 266t-218 92q-124 0 -228 -82t-181 -241
q-82 -168 -130.5 -357t-48.5 -335q0 -169 74 -257t215 -88q134 0 240.5 86.5t189.5 262.5q75 158 118.5 334.5t43.5 318.5z" />
    <glyph glyph-name="afii10049" unicode="&#x42f;" horiz-adv-x="1546" 
d="M1194 1280q4 15 6 27.5t2 21.5q0 34 -23 47t-102 13q-133 0 -207.5 -18t-130.5 -58q-68 -50 -112.5 -137t-44.5 -168q0 -105 78.5 -148t295.5 -43h121zM1100 1479h561l-14 -90l-53 -2q-115 -5 -142.5 -28.5t-50.5 -117.5l-256 -1042q-5 -18 -7.5 -32t-2.5 -24
q0 -21 13.5 -32t41.5 -13l119 -8l-17 -90h-594l15 90l52 2q89 3 117.5 27t51.5 117l121 487h-160q-122 0 -192 -51.5t-138 -218.5q-128 -320 -211.5 -405t-212.5 -85q-83 0 -124.5 54.5t-41.5 164.5q0 29 12 100l1 7l75 12q-2 -18 -3 -28t-1 -19q0 -98 13.5 -128t48.5 -30
q62 0 142 187q50 119 87 190q62 121 146.5 185t223.5 96q-193 5 -283.5 66t-90.5 186q0 208 197 340.5t528 132.5h29z" />
    <glyph glyph-name="afii10065" unicode="&#x430;" horiz-adv-x="1135" 
d="M186 281q0 -96 46 -149.5t126 -53.5q72 0 134 49t108 141q43 85 72.5 202.5t29.5 197.5q0 92 -44.5 144t-122.5 52q-69 0 -131.5 -49t-112.5 -141q-46 -86 -75.5 -197t-29.5 -196zM608 139q-66 -83 -147.5 -127.5t-167.5 -44.5q-128 0 -210.5 96t-82.5 246
q0 122 43 242.5t121 220.5q74 95 164 145t188 50q92 0 155 -50t91 -145l61 162h164l-47 -127q-81 -224 -132.5 -418t-51.5 -244q0 -32 10.5 -48.5t32.5 -16.5q33 0 88 66t125 190l59 -35q-91 -170 -170 -247t-162 -77q-64 0 -97.5 36t-33.5 104v22z" />
    <glyph glyph-name="afii10066" unicode="&#x431;" horiz-adv-x="1022" 
d="M539 893q-70 0 -133 -45t-111 -129q-51 -89 -84 -217t-33 -242q0 -103 48.5 -160t135.5 -57q74 0 136.5 43.5t109.5 126.5q53 95 86 221t33 232q0 109 -49 168t-139 59zM160 756q97 112 187.5 162.5t193.5 50.5q164 0 266 -107t102 -280q0 -111 -39.5 -220.5
t-109.5 -191.5q-86 -102 -184 -153.5t-207 -51.5q-174 0 -274.5 107.5t-100.5 292.5q0 132 48.5 301.5t133.5 326.5q72 134 155 221t175 127q90 41 234.5 49.5t173.5 18.5q28 11 46 32t37 72h72q-20 -95 -47.5 -153t-67.5 -90q-62 -52 -272 -64q-55 -4 -84 -6
q-147 -12 -250 -115.5t-188 -328.5z" />
    <glyph glyph-name="afii10067" unicode="&#x432;" horiz-adv-x="999" 
d="M219 432q247 84 353 163t106 177q0 51 -32 82t-85 31q-117 0 -206.5 -118t-135.5 -335zM211 356q-3 -27 -4.5 -51t-1.5 -45q0 -106 48.5 -162.5t139.5 -56.5q111 0 181.5 66t70.5 165q0 80 -37 123t-106 43q-49 0 -115 -18t-176 -64zM574 510q121 -2 186 -53t65 -144
q0 -148 -128 -249t-322 -101q-154 0 -250 104.5t-96 270.5q0 127 61.5 255.5t171.5 227.5q76 68 163.5 105t174.5 37q109 0 176.5 -55t67.5 -142q0 -82 -67 -145.5t-203 -110.5z" />
    <glyph glyph-name="afii10068" unicode="&#x433;" horiz-adv-x="924" 
d="M621 246l53 -43q-96 -125 -190.5 -182.5t-202.5 -57.5t-168 53.5t-60 149.5q0 71 41 126.5t180 147.5q184 122 231.5 178.5t47.5 120.5q0 46 -36.5 80.5t-86.5 34.5q-64 0 -127 -38.5t-133 -121.5l-47 39q76 114 176 176t211 62q93 0 152 -53t59 -134q0 -126 -265 -319
q-28 -20 -42 -31q-94 -68 -138.5 -128t-44.5 -118q0 -50 32 -82t83 -32q63 0 135 45t140 127z" />
    <glyph glyph-name="afii10069" unicode="&#x434;" horiz-adv-x="1063" 
d="M188 264q0 -105 48.5 -163t136.5 -58q72 0 134.5 43.5t108.5 126.5q53 93 86 219.5t33 233.5q0 109 -49 168t-139 59q-69 0 -131.5 -45t-110.5 -129q-50 -90 -83.5 -218.5t-33.5 -236.5zM784 873q3 34 5 68.5t2 66.5q0 214 -55 314.5t-171 100.5q-74 0 -148 -37
t-175 -129l-43 46q93 107 191 157.5t210 50.5q179 0 274 -147.5t95 -427.5q0 -442 -163 -706.5t-429 -264.5q-169 0 -271 106t-102 281q0 113 43.5 227t120.5 203t176 138t203 49q65 0 122.5 -23.5t114.5 -72.5z" />
    <glyph glyph-name="afii10070" unicode="&#x435;" horiz-adv-x="891" 
d="M195 432q227 52 334.5 135t107.5 205q0 50 -30 80.5t-79 30.5q-111 0 -199.5 -119t-133.5 -332zM745 186q-72 -107 -177 -165t-228 -58q-154 0 -249 104t-95 271q0 128 61 255.5t170 227.5q76 68 164.5 105t175.5 37q112 0 179 -57.5t67 -151.5q0 -131 -157 -230.5
t-470 -167.5q-3 -23 -4.5 -43t-1.5 -37q0 -101 49 -157t138 -56q85 0 168 43t161 127z" />
    <glyph glyph-name="afii10072" unicode="&#x436;" horiz-adv-x="2077" 
d="M1358 672q-184 -174 -306.5 -345t-174.5 -327h-150q15 49 80 251t108 351q-224 -312 -419 -477.5t-336 -165.5q-94 0 -155.5 61.5t-61.5 153.5q0 68 34 110t89 42q42 0 69 -29t27 -76q0 -56 -48 -87.5t-48 -43.5q0 -25 29 -43t71 -18q124 0 215.5 175.5t91.5 411.5
q0 114 -37 176t-104 62q-60 0 -114.5 -42t-137.5 -161l-51 43q80 139 163.5 203t184.5 64q126 0 196 -90.5t70 -254.5q0 -102 -30.5 -195.5t-90.5 -176.5q180 165 306 342.5t184 347.5h162q-64 -168 -115 -320.5t-90 -291.5q223 308 420 474.5t340 166.5q89 0 151 -63
t62 -155q0 -67 -34 -108t-89 -41q-42 0 -69.5 28t-27.5 72q0 59 48.5 92t48.5 46q0 23 -29.5 41t-71.5 18q-123 0 -215 -176t-92 -414q0 -113 37 -174t104 -61q63 0 126 50.5t126 151.5l51 -43q-83 -140 -166 -204t-180 -64q-123 0 -195.5 91t-72.5 247q0 110 30 206.5
t87 168.5z" />
    <glyph glyph-name="afii10073" unicode="&#x437;" horiz-adv-x="889" 
d="M483 506q104 -25 154.5 -78t50.5 -137q0 -143 -115.5 -234.5t-300.5 -91.5q-147 0 -234 64.5t-87 173.5q0 63 33.5 103t83.5 40q43 0 71.5 -26.5t28.5 -65.5q0 -51 -49 -78t-49 -43q0 -35 57 -64.5t131 -29.5q110 0 180 78t70 196q0 82 -48.5 120t-154.5 38h-10l14 63
q131 2 201 55.5t70 151.5q0 57 -36 88t-102 31q-57 0 -132.5 -29.5t-176.5 -91.5l-24 45q107 94 203.5 139.5t187.5 45.5q110 0 179 -60t69 -155q0 -91 -66 -152.5t-199 -95.5z" />
    <glyph glyph-name="afii10074" unicode="&#x438;" horiz-adv-x="1241" 
d="M647 231q-94 -129 -192.5 -197.5t-192.5 -68.5t-144 47t-50 135q0 24 9.5 69t24.5 93l127 381q12 34 18.5 63.5t6.5 43.5q0 37 -27.5 50t-144.5 13l18 74l387 22l-219 -675q-15 -45 -20.5 -72.5t-5.5 -54.5q0 -34 26 -55t70 -21q123 0 243 175.5t224 508.5l55 172h184
q-123 -319 -189.5 -531t-66.5 -286q0 -30 10.5 -43t32.5 -13q36 0 91.5 58t144.5 190l55 -39q-91 -152 -175.5 -228.5t-162.5 -76.5q-66 0 -108.5 44t-42.5 114q0 18 3 41t11 67z" />
    <glyph glyph-name="afii10075" unicode="&#x439;" horiz-adv-x="1241" 
d="M539 1227q18 -25 55 -38t86 -13q89 0 155.5 47t114.5 145l56 -18q-45 -119 -129 -178.5t-205 -59.5q-104 0 -168 49t-64 125q0 48 28.5 79.5t68.5 31.5q39 0 63.5 -25t24.5 -65q0 -35 -23 -56t-63 -24zM647 231q-94 -129 -192.5 -197.5t-192.5 -68.5t-144 47t-50 135
q0 24 9.5 69t24.5 93l127 381q12 34 18.5 63.5t6.5 43.5q0 37 -27.5 50t-144.5 13l18 74l387 22l-219 -675q-15 -45 -20.5 -72.5t-5.5 -54.5q0 -34 26 -55t70 -21q123 0 243 175.5t224 508.5l55 172h184q-123 -319 -189.5 -531t-66.5 -286q0 -30 10.5 -43t32.5 -13
q36 0 91.5 58t144.5 190l55 -39q-91 -152 -175.5 -228.5t-162.5 -76.5q-66 0 -108.5 44t-42.5 114q0 18 3 41t11 67z" />
    <glyph glyph-name="afii10076" unicode="&#x43a;" horiz-adv-x="1210" 
d="M43 0l211 690q12 39 18.5 65.5t6.5 41.5q0 37 -26.5 50t-152.5 13l19 74l389 22l-131 -436h53q99 0 226 211l8 13q76 127 133 169.5t135 42.5q83 0 134.5 -42t51.5 -107q0 -51 -30.5 -83t-79.5 -32q-50 0 -79.5 24t-29.5 64q0 27 15.5 51t15.5 29q0 11 -9.5 16t-29.5 5
q-62 0 -166 -178l-12 -21q-59 -96 -95.5 -131t-80.5 -47q122 -12 179.5 -72t57.5 -174q0 -11 -1 -51t-1 -70q0 -40 9 -55.5t30 -15.5q25 0 55.5 30.5t94.5 126.5l55 -30q-62 -120 -125 -173t-143 -53q-73 0 -112.5 43.5t-39.5 124.5q0 44 7 108t7 85q0 69 -39.5 98
t-146.5 29h-66l-139 -455h-176z" />
    <glyph glyph-name="afii10077" unicode="&#x43b;" horiz-adv-x="1180" 
d="M979 958l-160 -526q-42 -134 -58 -199.5t-16 -101.5q0 -31 10 -44t33 -13q36 0 91.5 58t144.5 190l55 -39q-99 -164 -180.5 -235t-167.5 -71q-68 0 -110.5 44.5t-42.5 115.5q0 36 8.5 79t27.5 103l113 371q13 39 19 65.5t6 41.5q0 32 -21 47.5t-63 15.5
q-111 0 -176.5 -64.5t-133.5 -283.5l-65 -211q-54 -175 -121.5 -248t-171.5 -73q-59 0 -96 31t-37 77q0 51 27.5 83t70.5 32q54 0 88 -48.5t41 -48.5q25 0 55.5 49t53.5 128l76 260q50 176 95 245.5t115 108.5q94 53 364 58q82 2 126 3z" />
    <glyph glyph-name="afii10078" unicode="&#x43c;" horiz-adv-x="1540" 
d="M285 301q-51 -167 -118 -244t-161 -77q-62 0 -100.5 30.5t-38.5 77.5q0 51 27.5 83t70.5 32q54 0 88 -48.5t41 -48.5q25 0 55 47.5t54 129.5l125 407q12 37 18 64.5t6 42.5q0 37 -26.5 50t-151.5 13l21 74l368 22l96 -718l457 696h217l-155 -502q-39 -123 -55.5 -193
t-16.5 -108q0 -31 10 -44t33 -13q36 0 91 58t144 190l56 -39q-99 -164 -180.5 -235t-167.5 -71q-69 0 -111.5 44.5t-42.5 115.5q0 31 7.5 69.5t29.5 112.5l153 506l-542 -825h-43l-111 795z" />
    <glyph glyph-name="afii10079" unicode="&#x43d;" horiz-adv-x="1251" 
d="M43 0l211 690q12 39 18.5 65.5t6.5 41.5q0 37 -26.5 50t-152.5 13l19 74l389 22l-127 -417h369l122 395h172l-155 -502q-44 -143 -59 -204.5t-15 -96.5q0 -31 10 -44t33 -13q36 0 91.5 58t144.5 190l55 -39q-100 -165 -180.5 -235.5t-165.5 -70.5q-69 0 -112.5 44.5
t-43.5 115.5q0 34 8.5 77t28.5 105l43 140h-371l-137 -459h-176z" />
    <glyph glyph-name="afii10080" unicode="&#x43e;" 
d="M178 264q0 -105 48.5 -163t135.5 -58q73 0 136.5 44t109.5 126q53 93 86 219.5t33 233.5q0 109 -49 168t-139 59q-70 0 -133 -45t-111 -129q-51 -90 -84 -218.5t-33 -236.5zM-6 352q0 112 44 226t122 204q79 92 175.5 139.5t203.5 47.5q166 0 268 -107t102 -280
q0 -111 -39.5 -220.5t-109.5 -191.5q-86 -102 -184 -153.5t-207 -51.5q-171 0 -273 106t-102 281z" />
    <glyph glyph-name="afii10081" unicode="&#x43f;" horiz-adv-x="1241" 
d="M18 0l218 690q10 35 16 63.5t6 43.5q0 37 -26 50t-150 13l18 74l361 22l-62 -266q92 129 192 198.5t191 69.5q86 0 141.5 -50t55.5 -126q0 -28 -9 -73.5t-26 -96.5l-139 -419q-7 -20 -10.5 -39t-3.5 -33q0 -23 10.5 -34t32.5 -11q39 0 99.5 60t149.5 190l58 -39
q-91 -151 -181 -229t-174 -78q-69 0 -115 43.5t-46 107.5q0 28 9 66.5t30 99.5l120 356q12 34 18.5 65t6.5 52q0 38 -23.5 60t-64.5 22q-57 0 -122 -45.5t-136 -134.5q-122 -152 -209 -483l-2 -7l-49 -182h-185z" />
    <glyph glyph-name="afii10082" unicode="&#x440;" horiz-adv-x="1124" 
d="M639 848q-73 0 -136.5 -46.5t-113.5 -135.5t-83.5 -207.5t-33.5 -202.5q0 -94 46.5 -145.5t132.5 -51.5q72 0 134.5 46.5t112.5 138.5q52 94 83.5 206t31.5 195q0 97 -45.5 150t-128.5 53zM420 958l-39 -186q80 95 160.5 142t167.5 47q131 0 209.5 -89.5t78.5 -240.5
q0 -125 -42.5 -247.5t-118.5 -215.5q-80 -96 -175 -148.5t-190 -52.5q-85 0 -151 39.5t-107 114.5l-100 -348q-6 -22 -9.5 -41.5t-3.5 -32.5q0 -29 23 -39t84 -10h43l-12 -76h-488l21 76l88 6q27 2 42 16t31 70l285 991q6 19 9 37t3 31q0 36 -29.5 48.5t-152.5 12.5l21 74z
" />
    <glyph glyph-name="afii10083" unicode="&#x441;" horiz-adv-x="891" 
d="M750 227q-96 -135 -195.5 -199.5t-214.5 -64.5q-154 0 -249 107t-95 284q0 122 47.5 234t138.5 207q80 84 172.5 129t186.5 45q117 0 193.5 -63t76.5 -158q0 -68 -36.5 -110t-94.5 -42q-49 0 -78 28t-29 74q0 56 52.5 88.5t52.5 47.5q0 23 -39 42t-92 19
q-82 0 -145 -47.5t-115 -149.5q-50 -98 -74.5 -191t-24.5 -185q0 -124 52 -191.5t147 -67.5q81 0 150 48t153 163z" />
    <glyph glyph-name="afii10084" unicode="&#x442;" horiz-adv-x="1802" 
d="M18 0l218 690q10 35 16 63.5t6 43.5q0 37 -26 50t-150 13l18 74l353 22l-54 -266q89 128 186 198t185 70q92 0 144.5 -58.5t52.5 -162.5q0 -5 -1 -15.5t-1 -16.5q94 122 191 187.5t183 65.5t141.5 -50t55.5 -126q0 -28 -9 -73.5t-26 -96.5l-137 -420q-7 -20 -11.5 -40
t-4.5 -31q0 -22 11 -33.5t34 -11.5q39 0 97.5 59t149.5 191l60 -39q-106 -166 -189 -236.5t-168 -70.5q-70 0 -115.5 43.5t-45.5 109.5q0 27 7.5 61.5t31.5 102.5l120 356q12 34 18.5 65t6.5 52q0 38 -23.5 60t-64.5 22q-56 0 -121.5 -45.5t-136.5 -134.5
q-122 -152 -209 -483l-2 -7l-49 -182h-174q21 63 58 188q16 54 24 80l114 383q9 28 13 54t4 51q0 47 -22.5 71.5t-65.5 24.5q-127 0 -251.5 -179t-207.5 -491l-49 -182h-185z" />
    <glyph glyph-name="afii10085" unicode="&#x443;" horiz-adv-x="977" 
d="M385 -6q-47 363 -105.5 587t-101.5 224q-25 0 -55 -43.5t-80 -153.5l-66 27q69 162 136.5 244t132.5 82q118 0 253 -617q16 -74 25 -114q12 20 34 59q173 307 173 426q0 36 -3 80.5t-3 52.5q0 50 27 80t71 30q41 0 65.5 -27.5t24.5 -72.5q0 -100 -260 -565l-32 -57
q-240 -426 -363 -547t-258 -121q-85 0 -137.5 43t-52.5 110q0 52 28.5 84.5t73.5 32.5q46 0 75 -27.5t29 -70.5q0 -17 -2 -34l-2 -17q0 -16 10 -24.5t27 -8.5q65 0 162 95t174 243z" />
    <glyph glyph-name="afii10086" unicode="&#x444;" horiz-adv-x="1565" 
d="M1116 844q-63 0 -123 -46.5t-108 -131.5q-50 -90 -83.5 -209t-33.5 -201q0 -87 41 -141t106 -54q80 0 145 54t118 164q44 93 70 192.5t26 173.5q0 93 -42 146t-116 53zM520 862q-75 0 -139.5 -54.5t-116.5 -160.5q-45 -95 -71.5 -195t-26.5 -176q0 -91 43 -143.5
t117 -52.5q63 0 123 46.5t108 131.5q51 90 84 209t33 203q0 89 -42 140.5t-112 51.5zM858 1237q15 50 20 71.5t5 34.5q0 39 -28.5 52.5t-149.5 13.5l20 72l379 22l-197 -692q61 73 130.5 110t144.5 37q119 0 195.5 -91t76.5 -236q0 -126 -43 -250t-119 -215
q-79 -95 -172.5 -147t-187.5 -52q-80 0 -139 42.5t-84 119.5l-101 -356q-6 -22 -9 -41.5t-3 -32.5q0 -29 22.5 -39t83.5 -10h43l-12 -76h-487l20 76l89 6q29 3 43.5 18t29.5 68l109 373q-67 -75 -136 -111.5t-143 -36.5q-120 0 -195 90.5t-75 237.5q0 125 43 248.5
t119 214.5q78 95 172 146.5t188 51.5q81 0 135.5 -39.5t85.5 -121.5z" />
    <glyph glyph-name="afii10087" unicode="&#x445;" horiz-adv-x="1012" 
d="M397 319q-106 -193 -184.5 -273.5t-157.5 -80.5q-62 0 -102.5 39.5t-40.5 97.5q0 54 29 86.5t73 32.5q63 0 82.5 -60.5t34.5 -60.5q27 0 67 50t101 159l76 135l-41 189q-22 101 -44.5 148.5t-47.5 47.5q-23 0 -57.5 -38t-106.5 -146l-58 35q90 151 158.5 217t134.5 66
q62 0 100.5 -50.5t61.5 -162.5l25 -117q99 179 174.5 256.5t148.5 77.5q54 0 86.5 -32.5t32.5 -86.5q0 -50 -26 -79.5t-70 -29.5q-46 0 -70 42t-41 42q-22 0 -82 -85.5t-129 -219.5l39 -192q27 -140 47 -186t52 -46q33 0 76.5 46t113.5 157l57 -39q-80 -145 -159 -219
t-152 -74t-116 71.5t-85 282.5z" />
    <glyph glyph-name="afii10088" unicode="&#x446;" horiz-adv-x="1241" 
d="M586 -418q58 48 75 73t17 52q0 21 -20.5 64.5t-20.5 68.5q0 33 22 60t89 69q-53 11 -84 52.5t-31 101.5q0 19 3 43t11 65q-94 -129 -192.5 -197.5t-192.5 -68.5t-144 47t-50 135q0 24 9.5 69t24.5 93l127 381q12 34 18.5 63.5t6.5 43.5q0 37 -27.5 50t-144.5 13l18 74
l387 22l-219 -675q-15 -45 -20.5 -72.5t-5.5 -54.5q0 -34 26 -55t70 -21q123 0 243 175.5t224 508.5l55 172h184q-123 -319 -189.5 -531t-66.5 -286q0 -30 10.5 -43t32.5 -13q36 0 91.5 58t144.5 190l55 -39q-89 -150 -169.5 -224.5t-159.5 -80.5q-17 -13 -25 -25.5
t-8 -25.5q0 -18 25.5 -70t25.5 -92q0 -55 -58.5 -112t-150.5 -89z" />
    <glyph glyph-name="afii10089" unicode="&#x447;" horiz-adv-x="1133" 
d="M598 432q-80 -28 -157.5 -41.5t-153.5 -13.5q-92 0 -140.5 37t-48.5 106q0 16 2.5 34.5t7.5 38.5l23 79q13 44 20 75.5t7 49.5q0 37 -26 50t-150 13l18 72l389 24l-82 -282q-15 -54 -19.5 -79.5t-4.5 -45.5q0 -39 30.5 -58.5t89.5 -19.5q42 0 99 11.5t127 33.5l125 418
h172l-156 -502q-44 -143 -59 -204.5t-15 -96.5q0 -31 10 -44t33 -13q36 0 91.5 58t144.5 190l55 -39q-99 -164 -180.5 -235t-167.5 -71q-69 0 -111.5 44.5t-42.5 115.5q0 50 30 156q5 18 7 26z" />
    <glyph glyph-name="afii10090" unicode="&#x448;" horiz-adv-x="1792" 
d="M229 690q12 34 18.5 63.5t6.5 43.5q0 37 -27.5 50t-144.5 13l18 74l387 22l-219 -675q-15 -45 -20.5 -72.5t-5.5 -54.5q0 -34 25.5 -55t68.5 -21q123 0 244 176t225 508l53 172h170l-209 -653q-1 -4 -3 -10q-23 -74 -23 -117q0 -34 26 -55t70 -21q123 0 243 175.5
t224 508.5l55 172h184q-123 -319 -189.5 -531t-66.5 -286q0 -30 10.5 -43t32.5 -13q36 0 91.5 58t144.5 190l55 -39q-91 -152 -175.5 -228.5t-162.5 -76.5q-66 0 -108.5 44t-42.5 114q0 18 3 41t11 67q-90 -126 -191 -196t-192 -70q-87 0 -134.5 48.5t-47.5 138.5
q0 14 4 34.5t12 49.5q-94 -131 -193.5 -201t-193.5 -70t-144 47t-50 135q0 24 9.5 69t24.5 93z" />
    <glyph glyph-name="afii10091" unicode="&#x449;" horiz-adv-x="1792" 
d="M229 690q12 34 18.5 63.5t6.5 43.5q0 37 -27.5 50t-144.5 13l18 74l387 22l-219 -675q-15 -45 -20.5 -72.5t-5.5 -54.5q0 -34 25.5 -55t68.5 -21q123 0 244 176t225 508l53 172h170l-209 -653q-1 -4 -3 -10q-23 -74 -23 -117q0 -34 26 -55t70 -21q123 0 243 175.5
t224 508.5l55 172h184q-123 -319 -189.5 -531t-66.5 -286q0 -30 10.5 -43t32.5 -13q36 0 91.5 58t144.5 190l55 -39q-89 -150 -169.5 -224.5t-159.5 -80.5q-17 -13 -25 -25.5t-8 -25.5q0 -18 25.5 -70t25.5 -92q0 -55 -58.5 -112t-150.5 -89l-16 31q58 48 75 73t17 52
q0 21 -20.5 64.5t-20.5 68.5q0 33 22 60t88 69q-52 11 -83 52.5t-31 101.5q0 19 3 43t11 65q-90 -126 -191 -196t-192 -70q-87 0 -134.5 48.5t-47.5 138.5q0 14 4 34.5t12 49.5q-94 -131 -193.5 -201t-193.5 -70t-144 47t-50 135q0 24 9.5 69t24.5 93z" />
    <glyph glyph-name="afii10092" unicode="&#x44a;" horiz-adv-x="1128" 
d="M397 457l-32 -117q-11 -35 -16 -67t-5 -60q0 -77 45 -121.5t123 -44.5q120 0 198 94.5t78 235.5q0 75 -38.5 113t-114.5 38q-49 0 -105.5 -17t-132.5 -54zM332 760q-37 2 -95.5 26.5t-86.5 24.5q-30 0 -55 -30.5t-68 -129.5l-58 29q55 149 110.5 216t123.5 67
q48 0 123 -39t102 -39q24 0 40.5 22.5t29.5 73.5l61 -12l-137 -430q93 44 162.5 63t138.5 19q113 0 177.5 -61.5t64.5 -168.5q0 -178 -136 -302t-344 -124q-144 0 -225.5 65.5t-81.5 180.5q0 37 7.5 82.5t21.5 89.5z" />
    <glyph glyph-name="afii10093" unicode="&#x44b;" horiz-adv-x="1616" 
d="M1501 285q-102 -161 -186.5 -233t-169.5 -72q-70 0 -117 42.5t-47 106.5q0 42 36 153l5 15l127 393q11 32 16.5 60.5t5.5 46.5q0 37 -25.5 50t-150.5 13l19 74l393 22l-244 -764q-7 -20 -10.5 -38t-3.5 -33q0 -23 11.5 -35t33.5 -12q37 0 100 63.5t148 188.5zM334 457
l-33 -117q-10 -35 -15 -67t-5 -60q0 -77 45 -121.5t123 -44.5q119 0 197.5 94.5t78.5 235.5q0 75 -38 113t-114 38q-49 0 -107 -17t-132 -54zM360 539q94 45 163 63.5t136 18.5q114 0 179 -61.5t65 -168.5q0 -177 -136.5 -301.5t-344.5 -124.5q-144 0 -225.5 65.5
t-81.5 180.5q0 40 7.5 85.5t20.5 86.5l99 307q12 39 18 66.5t6 40.5q0 37 -26.5 50t-151.5 13l21 74l389 22z" />
    <glyph glyph-name="afii10094" unicode="&#x44c;" horiz-adv-x="1057" 
d="M305 457l-35 -117q-10 -35 -15 -67t-5 -60q0 -77 45 -121.5t123 -44.5q120 0 198 94.5t78 235.5q0 75 -38 113t-113 38q-49 0 -105.5 -17t-132.5 -54zM330 539q92 44 162 63t139 19q113 0 177 -61.5t64 -168.5q0 -177 -135.5 -301.5t-343.5 -124.5q-144 0 -226.5 65.5
t-82.5 180.5q0 37 8 82.5t23 89.5l98 307q11 37 17 64.5t6 42.5q0 37 -26 50t-151 13l19 74l389 22z" />
    <glyph glyph-name="afii10095" unicode="&#x44d;" horiz-adv-x="950" 
d="M608 459h-362l20 80h355q2 34 3 57t1 43q0 128 -48 193t-141 65q-88 0 -165.5 -78t-125.5 -215l-61 19q55 168 154.5 258t230.5 90q153 0 245.5 -107t92.5 -284q0 -247 -172 -430t-402 -183q-127 0 -203.5 61.5t-76.5 159.5q0 68 36.5 109t96.5 41q45 0 76 -27.5
t31 -66.5q0 -57 -53.5 -88.5t-53.5 -44.5q0 -28 45.5 -50t106.5 -22q135 0 230 107.5t140 312.5z" />
    <glyph glyph-name="afii10096" unicode="&#x44e;" horiz-adv-x="1522" 
d="M686 291q0 -120 49 -183t142 -63q74 0 138.5 44t110.5 126q54 93 86.5 217.5t32.5 233.5t-50.5 168t-143.5 59q-69 0 -134 -45.5t-112 -126.5q-49 -85 -84 -211.5t-35 -218.5zM43 0l211 690q12 39 18.5 65.5t6.5 41.5q0 37 -26.5 50t-152.5 13l19 74l381 22l-129 -417
h184q61 197 199.5 313.5t310.5 116.5q153 0 248.5 -105t95.5 -274q0 -110 -39 -219.5t-108 -194.5q-84 -102 -180 -153.5t-203 -51.5q-163 0 -259 103t-96 276q0 20 2.5 46.5t7.5 62.5h-188l-137 -459h-166z" />
    <glyph glyph-name="afii10097" unicode="&#x44f;" horiz-adv-x="1182" 
d="M616 516h68l84 270q-57 44 -104 64t-93 20q-85 0 -147 -67t-62 -158q0 -70 52 -99.5t180 -29.5h22zM666 455h-121q-76 0 -129 -35.5t-90 -112.5q-13 -26 -36 -77q-111 -248 -261 -248q-67 0 -105.5 28.5t-38.5 77.5q0 51 29 84t72 33q53 0 87 -49.5t42 -49.5q37 0 98 143
q25 58 41 91q26 56 69.5 89.5t108.5 47.5q-116 3 -175.5 52t-59.5 143q0 127 91 213t230 86q72 0 137 -28.5t131 -88.5l25 80h162l-154 -500q-41 -134 -57.5 -201t-16.5 -102q0 -31 10 -44t33 -13q36 0 91.5 58t144.5 190l55 -37q-94 -159 -176.5 -232t-165.5 -73
q-66 0 -107.5 44t-41.5 113q0 34 8.5 77t28.5 105z" />
    <glyph glyph-name="afii10071" unicode="&#x451;" horiz-adv-x="891" 
d="M662 1239q0 43 32.5 77t73.5 34q43 0 74.5 -32t31.5 -75q0 -48 -30 -79t-76 -31q-44 0 -75 31t-31 75zM309 1239q0 43 32.5 77t74.5 34q43 0 75.5 -32.5t32.5 -74.5q0 -47 -31 -78.5t-77 -31.5q-44 0 -75.5 31t-31.5 75zM195 432q227 52 334.5 135t107.5 205
q0 50 -30 80.5t-79 30.5q-111 0 -199.5 -119t-133.5 -332zM745 186q-72 -107 -177 -165t-228 -58q-154 0 -249 104t-95 271q0 128 61 255.5t170 227.5q76 68 164.5 105t175.5 37q112 0 179 -57.5t67 -151.5q0 -131 -157 -230.5t-470 -167.5q-3 -23 -4.5 -43t-1.5 -37
q0 -101 49 -157t138 -56q85 0 168 43t161 127z" />
    <glyph glyph-name="afii10099" unicode="&#x452;" horiz-adv-x="1153" 
d="M625 1522l-84 -312h280l-24 -80h-281l-121 -440q96 132 194 200t191 68q76 0 130.5 -51.5t54.5 -124.5q0 -50 -34 -166l-1 -3l-137 -492q-80 -283 -196 -416t-280 -133q-94 0 -153.5 47t-59.5 121q0 58 30 90.5t83 32.5q44 0 71 -28t27 -73q0 -22 -14 -47.5t-14 -33.5
q0 -16 14 -24.5t41 -8.5q79 0 131.5 77.5t134.5 360.5l168 567q1 4 4 13q21 73 21 104q0 38 -23 60t-63 22q-126 0 -257 -182t-210 -488l-47 -182h-187l322 1128h-221l26 82h217l13 46l3 10q21 77 21 98q0 36 -28.5 48.5t-149.5 12.5l21 74z" />
    <glyph glyph-name="afii10100" unicode="&#x453;" horiz-adv-x="924" 
d="M621 246l53 -43q-96 -125 -190.5 -182.5t-202.5 -57.5t-168 53.5t-60 149.5q0 71 41 126.5t180 147.5q184 122 231.5 178.5t47.5 120.5q0 46 -36.5 80.5t-86.5 34.5q-64 0 -127 -38.5t-133 -121.5l-47 39q76 114 176 176t211 62q93 0 152 -53t59 -134q0 -126 -265 -319
q-28 -20 -42 -31q-94 -68 -138.5 -128t-44.5 -118q0 -50 32 -82t83 -32q63 0 135 45t140 127zM473 1079h-88l293 297q32 33 60.5 48.5t54.5 15.5q33 0 55.5 -23.5t22.5 -58.5q0 -25 -16.5 -44.5t-59.5 -45.5z" />
    <glyph glyph-name="afii10101" unicode="&#x454;" horiz-adv-x="950" 
d="M232 459q-8 -42 -11.5 -82t-3.5 -78q0 -133 54 -196.5t165 -63.5q76 0 135.5 28t59.5 58q0 17 -47 34.5t-47 76.5q0 46 30.5 75t79.5 29q50 0 82.5 -33.5t32.5 -85.5q0 -110 -102 -184t-254 -74q-174 0 -272.5 103.5t-98.5 287.5q0 135 59 260t170 224q72 64 159 98.5
t175 34.5q44 0 81 -17t81 -57l55 55h59l-88 -348h-71q0 9 1 26q3 58 3 77q0 107 -33 151.5t-111 44.5q-112 0 -192 -90t-131 -274h362l-20 -80h-362z" />
    <glyph glyph-name="afii10102" unicode="&#x455;" horiz-adv-x="901" 
d="M322 -35q-145 0 -236.5 67.5t-91.5 174.5q0 62 33 100.5t86 38.5q41 0 69.5 -29t28.5 -73q0 -58 -56 -99q-14 -10 -14 -14q0 -34 46.5 -61t113.5 -27q125 0 194.5 52.5t69.5 146.5q0 89 -157 149q-11 4 -16 6q-162 60 -215.5 118.5t-53.5 152.5q0 130 100 214.5t256 84.5
q139 0 224 -57.5t85 -149.5q0 -53 -29.5 -87t-74.5 -34q-49 0 -80 26.5t-31 67.5q0 35 26 67.5t26 41.5q0 21 -39 37t-99 16q-101 0 -162 -47t-61 -123q0 -93 194 -165q40 -15 62 -23q106 -41 150.5 -99t44.5 -155q0 -140 -109.5 -229t-283.5 -89z" />
    <glyph glyph-name="afii10103" unicode="&#x456;" horiz-adv-x="690" 
d="M342 1372q0 45 31 76t76 31q44 0 76 -31.5t32 -75.5t-32 -76t-76 -32t-75.5 31.5t-31.5 76.5zM578 285q-103 -161 -187.5 -233t-169.5 -72q-70 0 -117 42.5t-47 106.5q0 26 7.5 60t31.5 108l127 393q12 35 18.5 63.5t6.5 43.5q0 37 -26.5 50t-151.5 13l20 74l393 22
l-243 -763q-7 -20 -11 -39t-4 -33q0 -23 11 -35t32 -12q38 0 102 64.5t148 187.5z" />
    <glyph glyph-name="afii10104" unicode="&#x457;" horiz-adv-x="690" 
d="M506 1239q0 43 32.5 77t73.5 34q44 0 76.5 -32.5t32.5 -74.5q0 -47 -31 -78.5t-78 -31.5q-43 0 -74.5 31t-31.5 75zM154 1239q0 43 32.5 77t73.5 34q44 0 76.5 -32.5t32.5 -74.5q0 -47 -31.5 -78.5t-77.5 -31.5q-44 0 -75 31t-31 75zM578 285q-103 -161 -187.5 -233
t-169.5 -72q-70 0 -117 42.5t-47 106.5q0 26 7.5 60t31.5 108l127 393q12 35 18.5 63.5t6.5 43.5q0 37 -26.5 50t-151.5 13l20 74l393 22l-243 -763q-7 -20 -11 -39t-4 -33q0 -23 11 -35t32 -12q38 0 102 64.5t148 187.5z" />
    <glyph glyph-name="afii10105" unicode="&#x458;" horiz-adv-x="678" 
d="M379 1372q0 44 31.5 75.5t76.5 31.5t77 -31.5t32 -75.5t-32 -76t-77 -32q-43 0 -75.5 32t-32.5 76zM287 690q15 50 19.5 71t4.5 36q0 37 -26.5 50t-151.5 13l21 74l381 22l-236 -835q-85 -298 -195 -423.5t-278 -125.5q-95 0 -154 46.5t-59 121.5q0 58 30 90.5t83 32.5
q44 0 71 -28t27 -73q0 -22 -14.5 -47.5t-14.5 -33.5q0 -16 14.5 -24.5t40.5 -8.5q134 0 254 416l7 22z" />
    <glyph glyph-name="afii10106" unicode="&#x459;" horiz-adv-x="1546" 
d="M834 457l-33 -117q-10 -35 -15.5 -67t-5.5 -60q0 -77 45 -121.5t123 -44.5q120 0 198.5 94.5t78.5 235.5q0 75 -38.5 113t-113.5 38q-49 0 -107 -17t-132 -54zM287 543q51 180 95 247.5t114 106.5q93 53 366 58q83 2 127 3l-129 -419q93 44 163 63t138 19
q113 0 177.5 -61.5t64.5 -168.5q0 -177 -136 -301.5t-343 -124.5q-145 0 -227.5 65.5t-82.5 180.5q0 38 7.5 82t21.5 90l92 307l3 11q22 77 22 96q0 33 -20.5 47t-69.5 14q-108 0 -173.5 -65.5t-131.5 -280.5l-64 -211q-54 -175 -121.5 -248t-171.5 -73q-59 0 -96 31t-37 77
q0 51 27.5 83t70.5 32q54 0 88 -48.5t41 -48.5q25 0 55.5 49t53.5 128z" />
    <glyph glyph-name="afii10107" unicode="&#x45a;" horiz-adv-x="1645" 
d="M899 457l-33 -117q-10 -35 -15 -67t-5 -60q0 -77 45 -121.5t123 -44.5q119 0 197.5 95.5t78.5 234.5q0 75 -38 113t-113 38q-50 0 -108 -17t-132 -54zM197 0h-172l213 691q11 34 16.5 61t5.5 45q0 37 -26 50t-150 13l18 74l385 22l-129 -417h404l47 151q11 34 16.5 62
t5.5 45q0 37 -25.5 50t-150.5 13l19 74l381 22l-129 -417q94 45 162.5 63.5t136.5 18.5q113 0 178 -61.5t65 -168.5q0 -177 -135.5 -301.5t-343.5 -124.5q-135 0 -217 67t-82 179q0 30 5.5 65.5t23.5 106.5l20 76h-405z" />
    <glyph glyph-name="afii10108" unicode="&#x45b;" horiz-adv-x="1241" 
d="M336 1128h-221l26 82h217l13 46l3 10q21 77 21 98q0 36 -28.5 48.5t-149.5 12.5l21 74l387 23l-84 -312h280l-24 -80h-281l-121 -440q92 129 192 198.5t191 69.5q86 0 141.5 -50t55.5 -126q0 -28 -9 -72.5t-26 -97.5l-135 -419q-7 -21 -10.5 -40t-3.5 -32q0 -23 10.5 -34
t32.5 -11q40 0 104 63.5t145 186.5l58 -39q-92 -153 -181 -230t-174 -77q-72 0 -116.5 43.5t-44.5 115.5q0 24 9 60.5t30 97.5l116 356q13 39 19 68t6 49q0 38 -23.5 60t-64.5 22q-128 0 -258.5 -181.5t-210.5 -488.5l-47 -182h-187z" />
    <glyph glyph-name="afii10109" unicode="&#x45c;" horiz-adv-x="1210" 
d="M43 0l211 690q12 39 18.5 65.5t6.5 41.5q0 37 -26.5 50t-152.5 13l19 74l389 22l-131 -436h53q99 0 226 211l8 13q76 127 133 169.5t135 42.5q83 0 134.5 -42t51.5 -107q0 -51 -30.5 -83t-79.5 -32q-50 0 -79.5 24t-29.5 64q0 27 15.5 51t15.5 29q0 11 -9.5 16t-29.5 5
q-62 0 -166 -178l-12 -21q-59 -96 -95.5 -131t-80.5 -47q122 -12 179.5 -72t57.5 -174q0 -11 -1 -51t-1 -70q0 -40 9 -55.5t30 -15.5q25 0 55.5 30.5t94.5 126.5l55 -30q-62 -120 -125 -173t-143 -53q-73 0 -112.5 43.5t-39.5 124.5q0 44 7 108t7 85q0 69 -39.5 98
t-146.5 29h-66l-139 -455h-176zM616 1079h-88l293 297q32 33 60.5 48.5t54.5 15.5q33 0 55.5 -23.5t22.5 -58.5q0 -25 -16.5 -44.5t-59.5 -45.5z" />
    <glyph glyph-name="afii10110" unicode="&#x45e;" horiz-adv-x="977" 
d="M385 -6q-47 363 -105.5 587t-101.5 224q-25 0 -55 -43.5t-80 -153.5l-66 27q69 162 136.5 244t132.5 82q118 0 253 -617q16 -74 25 -114q12 20 34 59q173 307 173 426q0 36 -3 80.5t-3 52.5q0 50 27 80t71 30q41 0 65.5 -27.5t24.5 -72.5q0 -100 -260 -565l-32 -57
q-240 -426 -363 -547t-258 -121q-85 0 -137.5 43t-52.5 110q0 52 28.5 84.5t73.5 32.5q46 0 75 -27.5t29 -70.5q0 -17 -2 -34l-2 -17q0 -16 10 -24.5t27 -8.5q65 0 162 95t174 243zM416 1224q18 -24 60 -37t103 -13q62 0 119.5 14.5t103.5 42.5q-26 5 -39.5 22t-13.5 45
q0 41 27.5 71t64.5 30q41 0 65.5 -24t24.5 -64q0 -80 -106 -140.5t-254 -60.5q-117 0 -185.5 49t-68.5 129q0 46 29 77.5t69 31.5t63 -24.5t23 -65.5q0 -37 -23 -59t-62 -24z" />
    <glyph glyph-name="afii10193" unicode="&#x45f;" horiz-adv-x="1241" 
d="M647 231q-89 -132 -221.5 -212.5t-132.5 -106.5q0 -18 25.5 -70t25.5 -90q0 -56 -57.5 -112.5t-149.5 -88.5l-16 31q56 46 73 71.5t17 53.5q0 21 -19.5 63.5t-19.5 67.5q0 33 22.5 61t85.5 70q-13 -3 -22.5 -4.5t-17.5 -1.5q-77 0 -124.5 50t-47.5 134q0 24 9.5 69
t24.5 93l127 381q12 34 18.5 63.5t6.5 43.5q0 37 -27.5 50t-144.5 13l18 74l387 22l-219 -675q-15 -45 -20.5 -72.5t-5.5 -54.5q0 -34 26 -55t70 -21q123 0 243 175.5t224 508.5l55 172h184q-123 -319 -189.5 -531t-66.5 -286q0 -30 10.5 -43t32.5 -13q36 0 91.5 58
t144.5 190l55 -39q-91 -152 -175.5 -228.5t-162.5 -76.5q-66 0 -108.5 44t-42.5 114q0 18 3 41t11 67z" />
    <glyph glyph-name="afii10050" unicode="&#x490;" horiz-adv-x="1251" 
d="M1405 1817h78l-105 -431h-497q-118 0 -156.5 -15t-58.5 -93l-265 -1040q-9 -43 -12.5 -61.5t-3.5 -26.5q0 -33 23.5 -44.5t116.5 -13.5l63 -2l-19 -90h-624l18 90l110 10q41 4 61.5 20.5t29.5 51.5l272 1071q10 37 13.5 55.5t3.5 30.5q0 32 -24 44t-116 13l-69 3l18 90
h666q211 0 311.5 73.5t165.5 264.5z" />
    <glyph glyph-name="afii10098" unicode="&#x491;" horiz-adv-x="872" 
d="M827 1075h82q-68 -195 -114 -247t-129 -68q-19 -4 -56 -9q-111 -15 -159 -53q-47 -36 -92 -185l-1 -1l-65 -211q-54 -175 -121.5 -248t-171.5 -73q-59 0 -96 31t-37 77q0 51 27.5 83t70.5 32q54 0 88 -48.5t41 -48.5q25 0 54.5 48t54.5 129l78 258q7 24 20 69
q89 305 313 324q5 0 15 1q150 12 198 140z" />
    <glyph glyph-name="endash" unicode="&#x2013;" 
d="M-61 424l34 125h994l-35 -125h-993z" />
    <glyph glyph-name="emdash" unicode="&#x2014;" horiz-adv-x="2048" 
d="M264 424l35 125h1364l-33 -125h-1366z" />
    <glyph glyph-name="quoteleft" unicode="&#x2018;" horiz-adv-x="606" 
d="M383 1190h6q70 0 105.5 -29t35.5 -86q0 -52 -36 -88.5t-88 -36.5q-63 0 -104.5 48.5t-41.5 123.5q0 123 93 226.5t255 160.5l31 -65q-120 -52 -186 -117.5t-70 -136.5z" />
    <glyph glyph-name="quoteright" unicode="&#x2019;" horiz-adv-x="606" 
d="M483 1276h-12q-65 0 -100 30t-35 87q0 51 35.5 88t87.5 37q61 0 103 -48t42 -120q0 -129 -91 -232.5t-255 -161.5l-33 66q123 53 189 118.5t69 135.5z" />
    <glyph glyph-name="quotesinglbase" unicode="&#x201a;" horiz-adv-x="606" 
d="M270 -2h-6q-69 0 -105 30t-36 87q0 52 36 87.5t89 35.5q61 0 103 -48t42 -120q0 -127 -91 -230t-257 -162l-31 66q123 53 188 117.5t68 136.5z" />
    <glyph glyph-name="quotedblleft" unicode="&#x201c;" horiz-adv-x="1036" 
d="M781 1194h5q70 0 106 -29t36 -86q0 -52 -36.5 -88.5t-88.5 -36.5q-62 0 -104 48t-42 120q0 128 92 231.5t257 162.5l30 -68q-123 -54 -188 -119t-67 -135zM369 1194h6q69 0 105 -29t36 -86q0 -52 -36.5 -88.5t-88.5 -36.5q-61 0 -103 48t-42 120q0 128 91.5 231.5
t256.5 162.5l31 -68q-123 -53 -188 -117.5t-68 -136.5z" />
    <glyph glyph-name="quotedblright" unicode="&#x201d;" horiz-adv-x="1036" 
d="M888 1276h-5q-69 0 -105.5 30t-36.5 87q0 52 36.5 88.5t88.5 36.5q62 0 104 -48t42 -120q0 -128 -91.5 -231.5t-256.5 -162.5l-31 66q123 54 188 119t67 135zM479 1276h-6q-69 0 -105 30t-36 87q0 52 36 88.5t89 36.5q61 0 103 -48t42 -120q0 -128 -90.5 -231.5
t-255.5 -162.5l-33 66q123 53 188 117.5t68 136.5z" />
    <glyph glyph-name="quotedblbase" unicode="&#x201e;" horiz-adv-x="1036" 
d="M694 -2h-6q-69 0 -105 30t-36 87q0 52 35 87.5t88 35.5q61 0 103 -48t42 -120q0 -128 -90.5 -230.5t-255.5 -161.5l-33 66q124 53 189.5 118t68.5 136zM282 -2h-6q-69 0 -105 30t-36 87q0 52 35.5 87.5t87.5 35.5q62 0 103.5 -48t41.5 -120q0 -128 -90.5 -230.5
t-255.5 -161.5l-32 66q123 53 188.5 117.5t68.5 136.5z" />
    <glyph glyph-name="dagger" unicode="&#x2020;" 
d="M274 -199q55 245 80 438.5t25 362.5v66q55 58 96.5 146t75.5 218h-4q-61 0 -147.5 -39t-127.5 -39q-45 0 -73.5 29t-28.5 76q0 43 25.5 66.5t72.5 23.5q34 0 129 -37l4 -2q52 -21 86.5 -28.5t69.5 -8.5q9 43 13.5 81.5t4.5 74.5q0 44 -9 108.5t-9 83.5q0 50 25 74.5
t75 24.5q43 0 71 -25t28 -63q0 -30 -67.5 -140.5t-86.5 -218.5q85 0 174 38t113 38q45 0 72.5 -27.5t27.5 -72.5q0 -40 -24.5 -66.5t-63.5 -26.5q-25 0 -123 38t-186 38q-8 -43 -11 -76.5t-3 -64.5q0 -64 9.5 -117.5t28.5 -101.5q-82 -156 -151.5 -367.5t-132.5 -503.5h-58z
" />
    <glyph glyph-name="doubledagger" unicode="&#x2021;" 
d="M401 668q55 57 95.5 143.5t74.5 220.5h-4q-60 0 -146.5 -39t-127.5 -39q-46 0 -74.5 28.5t-28.5 74.5q0 44 26 68t73 24q32 0 127 -37.5t161 -38.5q10 44 14.5 82.5t4.5 73.5q0 44 -9 108.5t-9 83.5q0 49 25.5 74t76.5 25q43 0 70.5 -26t27.5 -64q0 -30 -68 -139.5
t-87 -217.5q85 0 175 38t113 38q46 0 73.5 -27.5t27.5 -72.5q0 -40 -25.5 -66.5t-64.5 -26.5q-26 0 -122.5 37t-185.5 37q-7 -55 -10.5 -90.5t-3.5 -62.5q0 -55 9.5 -105t29.5 -100q-61 -78 -101.5 -165t-70.5 -210h4q60 0 146 40t128 40q46 0 74.5 -29t28.5 -76
q0 -43 -26 -67.5t-72 -24.5q-35 0 -129 37t-160 39q-9 -43 -14 -82t-5 -74q0 -44 9.5 -107t9.5 -81q0 -52 -25 -77t-78 -25q-42 0 -70 25.5t-28 64.5q0 30 68 139.5t88 216.5q-85 -1 -175.5 -37.5t-113.5 -36.5q-45 0 -72.5 26t-27.5 68q0 44 25 71.5t65 27.5q25 0 122 -38
t185 -38q8 50 11 84.5t3 62.5q0 53 -9 107.5t-28 114.5z" />
    <glyph glyph-name="bullet" unicode="&#x2022;" horiz-adv-x="1208" 
d="M307 762q0 123 87 209t210 86q122 0 208.5 -86.5t86.5 -208.5t-87.5 -209.5t-209.5 -87.5q-123 0 -209 87t-86 210z" />
    <glyph glyph-name="ellipsis" unicode="&#x2026;" horiz-adv-x="2048" 
d="M245 219q53 0 90 -37.5t37 -89.5t-36.5 -88.5t-90.5 -36.5q-51 0 -88 37t-37 88q0 53 36.5 90t88.5 37zM927 219q53 0 90 -37.5t37 -89.5t-36.5 -88.5t-90.5 -36.5q-51 0 -88 37t-37 88q0 53 36.5 90t88.5 37zM1611 219q53 0 90 -37.5t37 -89.5t-36.5 -88.5t-90.5 -36.5
q-51 0 -88 37t-37 88q0 53 36.5 90t88.5 37z" />
    <glyph glyph-name="perthousand" unicode="&#x2030;" horiz-adv-x="2456" 
d="M2306 512q0 81 -40 130.5t-103 49.5q-51 0 -97 -37.5t-106 -130.5q-71 -111 -110.5 -206t-39.5 -154q0 -60 40 -96.5t106 -36.5q62 0 120.5 39t112.5 116q57 80 87 164.5t30 161.5zM2107 756q122 0 189 -64t67 -180q0 -91 -38 -192t-105 -187q-64 -83 -141.5 -125.5
t-163.5 -42.5q-116 0 -186 74t-70 197q0 84 36 171t105 168q75 88 154 134.5t153 46.5zM1536 512q0 81 -40 130.5t-103 49.5q-51 0 -97 -37.5t-106 -130.5q-71 -111 -110.5 -206t-39.5 -154q0 -60 40 -96.5t106 -36.5q62 0 120.5 39t112.5 116q57 80 87 164.5t30 161.5z
M1337 756q122 0 189 -64t67 -180q0 -92 -37 -192.5t-104 -186.5q-64 -82 -142.5 -125t-164.5 -43q-115 0 -185.5 74.5t-70.5 196.5q0 84 36 171t105 168q74 88 153.5 134.5t153.5 46.5zM715 1261q-43 11 -76.5 34t-56.5 56q-48 -1 -94 -39t-105 -128q-72 -110 -111 -203.5
t-39 -157.5q0 -59 39.5 -96t102.5 -37t123.5 39.5t113.5 116.5q57 82 88 169t31 165q0 17 -4.5 39t-11.5 42zM369 -35l745 1321q-55 -32 -111.5 -48.5t-109.5 -16.5q-39 0 -67.5 4t-48.5 12q3 -15 5 -32t2 -38q0 -88 -37 -186.5t-104 -185.5q-64 -83 -140.5 -125.5
t-160.5 -42.5q-118 0 -189 74.5t-71 197.5q0 85 36 172t105 168q75 88 154 134t153 46q77 0 128.5 -23t84.5 -73q28 -23 66.5 -35t85.5 -12q90 0 183 47t143 121h90l-842 -1479h-100z" />
    <glyph glyph-name="guilsinglleft" unicode="&#x2039;" horiz-adv-x="649" 
d="M109 483q130 89 257 195t140 106q7 0 12.5 -6.5t5.5 -15.5q0 -26 -60.5 -93t-201.5 -196q73 -125 106 -188.5t33 -77.5q0 -15 -5 -21.5t-17 -7.5q-22 0 -107.5 111t-162.5 194z" />
    <glyph glyph-name="guillsinglright" unicode="&#x203a;" horiz-adv-x="649" 
d="M463 479q-131 -88 -258 -194.5t-139 -106.5q-8 1 -12.5 7t-4.5 16q0 25 58.5 89.5t203.5 196.5q-70 119 -104.5 185.5t-34.5 83.5q0 13 5.5 20.5t15.5 7.5q22 0 107 -110.5t163 -194.5z" />
    <glyph glyph-name="Euro" unicode="&#x20ac;" horiz-adv-x="1118" 
d="M954 455l76 -37q-80 -232 -195.5 -341.5t-279.5 -109.5q-200 0 -317 166t-117 453v24h-107l35 76h80q4 34 18 105l3 12h-150l33 76h133q81 299 238 471t346 172q88 0 158 -43.5t124 -130.5l92 135h56l-105 -586h-78v68q0 252 -57.5 360.5t-187.5 108.5
q-128 0 -223 -138.5t-158 -416.5h430l-33 -76h-412q-7 -32 -13.5 -61.5t-10.5 -54.5l381 -1l-35 -76h-356q-5 -37 -7 -72t-2 -69q0 -192 71.5 -299t197.5 -107q118 0 211.5 98.5t160.5 293.5z" />
    <glyph glyph-name="afii61352" unicode="&#x2116;" horiz-adv-x="1954" 
d="M1188 -27l29 125h479l-29 -125h-479zM1444 528q0 -57 24.5 -89.5t67.5 -32.5q78 0 137.5 106t59.5 236q0 60 -23.5 92t-67.5 32q-79 0 -138.5 -105t-59.5 -239zM1317 573q0 145 98 257t227 112q99 0 160.5 -64.5t61.5 -168.5q0 -145 -98.5 -257t-225.5 -112
q-101 0 -162 64t-61 169zM1053 418l172 704q53 221 123 308.5t186 87.5q93 0 153 -59.5t60 -151.5q0 -93 -45 -150t-117 -57q-50 0 -82.5 31.5t-32.5 80.5q0 77 67 110t67 48q0 22 -21 36.5t-53 14.5q-66 0 -111 -65.5t-84 -218.5l-286 -1164h-74l-412 1170l-192 -785
q-54 -217 -125 -307t-183 -90q-94 0 -154.5 59t-60.5 152q0 92 45.5 149.5t116.5 57.5q51 0 83 -31t32 -80q0 -77 -66.5 -109.5t-66.5 -47.5q0 -22 20.5 -38t50.5 -16q66 0 111 65t84 222l246 969q-15 37 -42 53.5t-74 19.5l-124 7l12 86h400z" />
    <glyph glyph-name="trademark" unicode="&#x2122;" horiz-adv-x="1683" 
d="M780 1442h191l137 -391l143 391h181v-25l-30 -2q-21 -2 -31.5 -15t-10.5 -38v-375q0 -25 10.5 -38t31.5 -15l30 -2v-29h-240v29l31 2q21 2 32 15.5t11 37.5v387l-172 -473h-21l-172 475v-389q0 -24 11 -37.5t32 -15.5l33 -2v-29h-197v29l34 2q20 2 31 15.5t11 37.5v371
q0 24 -11 37.5t-31 15.5l-34 4v27zM250 1442h444l11 -182h-27q-8 78 -40.5 114.5t-94.5 36.5h-17v-424q0 -24 10.5 -37.5t30.5 -15.5l33 -2v-29h-254v29l31 2q21 2 32 15.5t11 37.5v424h-17q-64 0 -96.5 -36t-40.5 -115h-26z" />
    <glyph glyph-name="periodcentered" unicode="&#x2219;" horiz-adv-x="559" 
d="M279 825q48 0 84 -36.5t36 -86.5q0 -49 -35 -84.5t-85 -35.5q-51 0 -86 35.5t-35 84.5q0 51 35.5 87t85.5 36z" />
    <glyph glyph-name="c6460" 
d="M522 1079h-88l293 297q32 33 60.5 48.5t54.5 15.5q33 0 55.5 -23.5t22.5 -58.5q0 -25 -16.5 -44.5t-59.5 -45.5z" />
    <glyph glyph-name="c6462" 
d="M439 1224q18 -24 60 -37t103 -13q62 0 119.5 14.5t103.5 42.5q-26 5 -39.5 22t-13.5 45q0 41 27.5 71t64.5 30q41 0 65.5 -24t24.5 -64q0 -80 -106 -140.5t-254 -60.5q-117 0 -185.5 49t-68.5 129q0 46 29 77.5t69 31.5t63 -24.5t23 -65.5q0 -37 -23 -59t-62 -24z" />
  </font>
</defs>
</svg>
