<svg version="1.1" id="Capa_1" xmlns="http://www.w3.org/2000/svg" xmlns:xlink="http://www.w3.org/1999/xlink" x="0px" y="0px" 
viewBox="0 0 50 50"  xml:space="preserve">
<path style="fill: #000;" stroke="#00b400" stroke-width="0.1" fill-opacity="1" d="M 0.001953125 0.00390625 L 0.001953125 16.816406 C -0.001769328 15.992595 0.080078125 15.542969 0.080078125 15.542969 C 0.73407812 8.1789687 5.9352031 2 13.158203 2 C 18.521203 2 22.831609 5.3439531 24.849609 10.126953 C 26.867609 5.3439531 31.477844 2.0019531 36.839844 2.0019531 C 44.062844 2.0019531 49.265922 8.1809219 49.919922 15.544922 C 49.919922 15.544922 49.992906 15.982584 49.994141 16.759766 L 49.994141 0.00390625 L 0.001953125 0.00390625 z M 0.001953125 16.898438 L 0.001953125 49.998047 L 49.994141 49.998047 L 49.994141 16.925781 C 49.981999 17.793081 49.875787 19.045637 49.494141 20.662109 C 48.436141 25.144109 45.950656 29.127016 42.597656 32.166016 L 24.849609 48 L 7.4023438 32.164062 C 4.0493438 29.126062 1.5619062 25.144109 0.50390625 20.662109 C 0.11895061 19.031622 0.012518456 17.766324 0.001953125 16.898438 z "/>
</svg>